<svg xml:space="preserve" fill="#855ee8" overflow="visible" viewBox="0 0 600 600"><path d="M263.44 597.636q-76.463-.001-132.459-30.153c-37.337-20.1-66.05-48.371-86.15-84.807-20.109-36.43-30.154-79.06-30.154-127.883q0-68.37 23.153-131.646c15.43-42.175 37.6-79.774 66.5-112.803q43.335-49.535 104.189-78.345c40.56-19.2 86.15-28.807 136.763-28.807 48.463 0 91.351 9.423 128.69 28.268q55.997 28.268 85.883 79.152 29.881 50.885 23.42 118.19H429.82c.352-26.922-5.924-49.892-18.847-68.923q-19.382-28.534-67.844-28.536c-36.261 0-67.035 11.306-92.344 33.922-25.307 22.614-44.514 51.244-57.611 85.882-13.108 34.646-19.656 69.91-19.656 105.803 0 35.54 8.162 63.182 24.5 82.918q24.497 29.619 71.883 29.617c33.383 0 61.922-9.329 85.614-27.997 23.69-18.663 40.384-42.18 50.074-70.537h154.533q-14.535 66.772-56.535 117.916c-28 34.107-62.646 60.763-103.92 79.962-41.285 19.2-86.69 28.807-136.227 28.807"/></svg>