<svg class="main-svg" xmlns="http://www.w3.org/2000/svg" xmlns:xlink="http://www.w3.org/1999/xlink" width="512" height="200" viewBox="0 0 512 200" style=""><rect x="0" y="0" width="512" height="200" style="fill: rgb(0, 0, 0); fill-opacity: 0;"/><defs id="defs-a9c131"><g class="clips"><clipPath id="clipa9c131xyplot" class="plotclip"><rect width="512" height="200"/></clipPath><clipPath class="axesclip" id="clipa9c131x"><rect x="0" y="0" width="512" height="200"/></clipPath><clipPath class="axesclip" id="clipa9c131y"><rect x="0" y="0" width="512" height="200"/></clipPath><clipPath class="axesclip" id="clipa9c131xy"><rect x="0" y="0" width="512" height="200"/></clipPath></g><g class="gradients"/><g class="patterns"/></defs><g class="bglayer"><rect class="bg" x="0" y="0" width="512" height="200" style="fill: rgb(0, 0, 0); fill-opacity: 0; stroke-width: 0;"/></g><g class="layer-below"><g class="imagelayer"/><g class="shapelayer"/></g><g class="cartesianlayer"><g class="subplot xy"><g class="layer-subplot"><g class="shapelayer"/><g class="imagelayer"/></g><g class="minor-gridlayer"><g class="x"/><g class="y"/></g><g class="gridlayer"><g class="x"/><g class="y"/></g><g class="zerolinelayer"/><g class="layer-between"><g class="shapelayer"/><g class="imagelayer"/></g><path class="xlines-below"/><path class="ylines-below"/><g class="overlines-below"/><g class="xaxislayer-below"/><g class="yaxislayer-below"/><g class="overaxes-below"/><g class="overplot"><g class="xy" transform="" clip-path="url(#clipa9c131xyplot)"><g class="scatterlayer mlayer"><g class="trace scatter trace6c9fc3" style="stroke-miterlimit: 2;"><g class="fills"><g><path class="js-fill" d="M512,200L0,200L0,200L28.24,200L30.12,81.25L33.88,200L35.76,200L37.65,81.25L39.53,152.5L41.41,200L43.29,200L45.18,81.25L47.06,152.5L48.94,200L50.82,200L52.71,81.25L54.59,152.5L56.47,200L58.35,200L60.24,152.5L62.12,200L65.88,152.5L67.76,152.5L69.65,152.5L71.53,200L75.29,152.5L77.18,176.25L79.06,152.5L80.94,176.25L84.71,128.75L86.59,200L88.47,200L90.35,33.75L92.24,57.5L94.12,33.75L96,57.5L97.88,33.75L99.76,57.5L101.65,33.75L105.41,33.75L107.29,57.5L109.18,33.75L111.06,57.5L112.94,81.25L114.82,152.5L116.71,200L118.59,200L120.47,10L122.35,10L124.24,10L126.12,33.75L128,10L129.88,10L131.76,10L133.65,33.75L135.53,10L137.41,10L146.82,10L148.71,33.75L150.59,10L152.47,10L154.35,10L156.24,33.75L158.12,10L160,10L161.88,10L163.76,33.75L165.65,10L167.53,10L190.12,10L192,33.75L193.88,10L195.76,10L220.24,10L222.12,33.75L224,10L225.88,10L244.71,10L246.59,33.75L248.47,10L250.35,10L252.24,10L254.12,33.75L256,10L257.88,10L267.29,10L269.18,33.75L271.06,10L272.94,10L274.82,10L276.71,33.75L278.59,10L280.47,10L282.35,10L284.24,33.75L286.12,10L288,10L297.41,10L299.29,33.75L301.18,33.75L303.06,57.5L304.94,33.75L306.82,57.5L308.71,33.75L310.59,57.5L312.47,81.25L314.35,33.75L316.24,81.25L318.12,81.25L320,105L321.88,152.5L323.76,128.75L325.65,152.5L327.53,152.5L329.41,128.75L331.29,81.25L333.18,152.5L335.06,200L336.94,200L338.82,81.25L340.71,152.5L342.59,200L344.47,152.5L346.35,10L348.24,200L352,200L353.88,81.25L357.65,200L359.53,200L361.41,10L363.29,10L370.82,10L372.71,33.75L374.59,10L376.47,10L400.94,10L402.82,33.75L404.71,10L406.59,10L425.41,10L427.29,33.75L429.18,10L431.06,10L432.94,10L434.82,33.75L436.71,10L438.59,10L448,10L449.88,33.75L451.76,10L453.65,10L455.53,10L457.41,33.75L459.29,10L461.18,10L463.06,10L464.94,33.75L466.82,10L468.71,10L478.12,10L480,33.75L481.88,57.5L483.76,57.5L485.65,57.5L487.53,33.75L489.41,57.5L491.29,57.5L493.18,57.5L495.06,33.75L496.94,57.5L498.82,57.5L500.71,57.5L502.59,33.75L504.47,57.5L506.35,57.5L508.24,57.5L510.12,33.75L512,176.25" style="fill: rgb(74, 222, 128); fill-opacity: 1; stroke-width: 0;"/></g></g><g class="errorbars"/><g class="lines"><path class="js-line" d="M0,200L28.24,200L30.12,81.25L33.88,200L35.76,200L37.65,81.25L39.53,152.5L41.41,200L43.29,200L45.18,81.25L47.06,152.5L48.94,200L50.82,200L52.71,81.25L54.59,152.5L56.47,200L58.35,200L60.24,152.5L62.12,200L65.88,152.5L67.76,152.5L69.65,152.5L71.53,200L75.29,152.5L77.18,176.25L79.06,152.5L80.94,176.25L84.71,128.75L86.59,200L88.47,200L90.35,33.75L92.24,57.5L94.12,33.75L96,57.5L97.88,33.75L99.76,57.5L101.65,33.75L105.41,33.75L107.29,57.5L109.18,33.75L111.06,57.5L112.94,81.25L114.82,152.5L116.71,200L118.59,200L120.47,10L122.35,10L124.24,10L126.12,33.75L128,10L129.88,10L131.76,10L133.65,33.75L135.53,10L137.41,10L146.82,10L148.71,33.75L150.59,10L152.47,10L154.35,10L156.24,33.75L158.12,10L160,10L161.88,10L163.76,33.75L165.65,10L167.53,10L190.12,10L192,33.75L193.88,10L195.76,10L220.24,10L222.12,33.75L224,10L225.88,10L244.71,10L246.59,33.75L248.47,10L250.35,10L252.24,10L254.12,33.75L256,10L257.88,10L267.29,10L269.18,33.75L271.06,10L272.94,10L274.82,10L276.71,33.75L278.59,10L280.47,10L282.35,10L284.24,33.75L286.12,10L288,10L297.41,10L299.29,33.75L301.18,33.75L303.06,57.5L304.94,33.75L306.82,57.5L308.71,33.75L310.59,57.5L312.47,81.25L314.35,33.75L316.24,81.25L318.12,81.25L320,105L321.88,152.5L323.76,128.75L325.65,152.5L327.53,152.5L329.41,128.75L331.29,81.25L333.18,152.5L335.06,200L336.94,200L338.82,81.25L340.71,152.5L342.59,200L344.47,152.5L346.35,10L348.24,200L352,200L353.88,81.25L357.65,200L359.53,200L361.41,10L363.29,10L370.82,10L372.71,33.75L374.59,10L376.47,10L400.94,10L402.82,33.75L404.71,10L406.59,10L425.41,10L427.29,33.75L429.18,10L431.06,10L432.94,10L434.82,33.75L436.71,10L438.59,10L448,10L449.88,33.75L451.76,10L453.65,10L455.53,10L457.41,33.75L459.29,10L461.18,10L463.06,10L464.94,33.75L466.82,10L468.71,10L478.12,10L480,33.75L481.88,57.5L483.76,57.5L485.65,57.5L487.53,33.75L489.41,57.5L491.29,57.5L493.18,57.5L495.06,33.75L496.94,57.5L498.82,57.5L500.71,57.5L502.59,33.75L504.47,57.5L506.35,57.5L508.24,57.5L510.12,33.75L512,176.25" style="vector-effect: none; fill: none; stroke: rgb(255, 165, 0); stroke-opacity: 1; stroke-width: 0px; opacity: 1;"/></g><g class="points"/><g class="text"/></g></g></g></g><path class="xlines-above crisp" d="M0,0" style="fill: none;"/><path class="ylines-above crisp" d="M0,0" style="fill: none;"/><g class="overlines-above"/><g class="xaxislayer-above"/><g class="yaxislayer-above"/><g class="overaxes-above"/></g></g><g class="polarlayer"/><g class="smithlayer"/><g class="ternarylayer"/><g class="geolayer"/><g class="funnelarealayer"/><g class="pielayer"/><g class="iciclelayer"/><g class="treemaplayer"/><g class="sunburstlayer"/><g class="glimages"/><defs id="topdefs-a9c131"><g class="clips"/></defs><g class="layer-above"><g class="imagelayer"/><g class="shapelayer"/></g><g class="infolayer"><g class="g-gtitle"/></g></svg>