<svg class="main-svg" xmlns="http://www.w3.org/2000/svg" xmlns:xlink="http://www.w3.org/1999/xlink" width="512" height="200" style="" viewBox="0 0 512 200"><rect x="0" y="0" width="512" height="200" style="fill: rgb(0, 0, 0); fill-opacity: 0;"/><defs id="defs-de525c"><g class="clips"><clipPath id="clipde525cxyplot" class="plotclip"><rect width="512" height="200"/></clipPath><clipPath class="axesclip" id="clipde525cx"><rect x="0" y="0" width="512" height="200"/></clipPath><clipPath class="axesclip" id="clipde525cy"><rect x="0" y="0" width="512" height="200"/></clipPath><clipPath class="axesclip" id="clipde525cxy"><rect x="0" y="0" width="512" height="200"/></clipPath></g><g class="gradients"/><g class="patterns"/></defs><g class="bglayer"><rect class="bg" x="0" y="0" width="512" height="200" style="fill: rgb(0, 0, 0); fill-opacity: 0; stroke-width: 0;"/></g><g class="layer-below"><g class="imagelayer"/><g class="shapelayer"/></g><g class="cartesianlayer"><g class="subplot xy"><g class="layer-subplot"><g class="shapelayer"/><g class="imagelayer"/></g><g class="minor-gridlayer"><g class="x"/><g class="y"/></g><g class="gridlayer"><g class="x"/><g class="y"/></g><g class="zerolinelayer"/><g class="layer-between"><g class="shapelayer"/><g class="imagelayer"/></g><path class="xlines-below"/><path class="ylines-below"/><g class="overlines-below"/><g class="xaxislayer-below"/><g class="yaxislayer-below"/><g class="overaxes-below"/><g class="overplot"><g class="xy" transform="" clip-path="url(#clipde525cxyplot)"><g class="scatterlayer mlayer"><g class="trace scatter trace97a353" style="stroke-miterlimit: 2;"><g class="fills"><g><path class="js-fill" d="M512,200L0,200L0,200L16.93,200L21.16,67L25.39,67L29.62,48L33.85,48L38.08,67L42.31,48L46.55,48L50.78,67L55.01,48L59.24,48L63.47,86L67.7,29L71.93,124L76.17,86L80.4,124L84.63,124L88.86,48L97.32,86L101.55,48L105.79,48L110.02,67L114.25,86L118.48,29L122.71,48L126.94,48L131.17,86L135.4,29L139.64,48L143.87,48L148.1,86L152.33,29L156.56,10L160.79,48L165.02,86L169.26,48L173.49,67L177.72,67L181.95,67L186.18,86L190.41,67L194.64,29L198.88,124L203.11,86L207.34,124L211.57,124L215.8,48L220.03,67L224.26,86L228.5,48L232.73,48L236.96,67L241.19,86L245.42,29L249.65,48L253.88,48L258.12,86L262.35,29L266.58,48L270.81,48L275.04,86L279.27,29L283.5,124L287.74,86L291.97,105L296.2,86L300.43,86L304.66,105L308.89,86L313.12,124L317.36,48L321.59,105L325.82,124L330.05,105L334.28,181L338.51,105L342.74,124L346.98,105L351.21,181L355.44,105L363.9,105L368.13,86L372.36,105L376.6,105L380.83,105L385.06,29L389.29,48L393.52,48L397.75,86L401.98,29L406.21,48L410.45,48L414.68,86L418.91,29L423.14,124L427.37,86L431.6,105L435.83,86L440.07,86L444.3,105L448.53,86L452.76,124L456.99,48L461.22,105L469.69,105L473.92,86L478.15,86L482.38,105L486.61,124L490.84,105L495.07,67L499.31,181L503.54,86L507.77,86L512,86" style="fill: rgb(74, 222, 128); fill-opacity: 1; stroke-width: 0;"/></g></g><g class="errorbars"/><g class="lines"><path class="js-line" d="M0,200L16.93,200L21.16,67L25.39,67L29.62,48L33.85,48L38.08,67L42.31,48L46.55,48L50.78,67L55.01,48L59.24,48L63.47,86L67.7,29L71.93,124L76.17,86L80.4,124L84.63,124L88.86,48L97.32,86L101.55,48L105.79,48L110.02,67L114.25,86L118.48,29L122.71,48L126.94,48L131.17,86L135.4,29L139.64,48L143.87,48L148.1,86L152.33,29L156.56,10L160.79,48L165.02,86L169.26,48L173.49,67L177.72,67L181.95,67L186.18,86L190.41,67L194.64,29L198.88,124L203.11,86L207.34,124L211.57,124L215.8,48L220.03,67L224.26,86L228.5,48L232.73,48L236.96,67L241.19,86L245.42,29L249.65,48L253.88,48L258.12,86L262.35,29L266.58,48L270.81,48L275.04,86L279.27,29L283.5,124L287.74,86L291.97,105L296.2,86L300.43,86L304.66,105L308.89,86L313.12,124L317.36,48L321.59,105L325.82,124L330.05,105L334.28,181L338.51,105L342.74,124L346.98,105L351.21,181L355.44,105L363.9,105L368.13,86L372.36,105L376.6,105L380.83,105L385.06,29L389.29,48L393.52,48L397.75,86L401.98,29L406.21,48L410.45,48L414.68,86L418.91,29L423.14,124L427.37,86L431.6,105L435.83,86L440.07,86L444.3,105L448.53,86L452.76,124L456.99,48L461.22,105L469.69,105L473.92,86L478.15,86L482.38,105L486.61,124L490.84,105L495.07,67L499.31,181L503.54,86L507.77,86L512,86" style="vector-effect: none; fill: none; stroke: rgb(255, 165, 0); stroke-opacity: 1; stroke-width: 0px; opacity: 1;"/></g><g class="points"/><g class="text"/></g></g></g></g><path class="xlines-above crisp" d="M0,0" style="fill: none;"/><path class="ylines-above crisp" d="M0,0" style="fill: none;"/><g class="overlines-above"/><g class="xaxislayer-above"/><g class="yaxislayer-above"/><g class="overaxes-above"/></g></g><g class="polarlayer"/><g class="smithlayer"/><g class="ternarylayer"/><g class="geolayer"/><g class="funnelarealayer"/><g class="pielayer"/><g class="iciclelayer"/><g class="treemaplayer"/><g class="sunburstlayer"/><g class="glimages"/><defs id="topdefs-de525c"><g class="clips"/></defs><g class="layer-above"><g class="imagelayer"/><g class="shapelayer"/></g><g class="infolayer"><g class="g-gtitle"/></g></svg>