<svg class="main-svg" xmlns="http://www.w3.org/2000/svg" xmlns:xlink="http://www.w3.org/1999/xlink" width="512" height="200" style="" viewBox="0 0 512 200"><rect x="0" y="0" width="512" height="200" style="fill: rgb(0, 0, 0); fill-opacity: 0;"/><defs id="defs-7944ac"><g class="clips"><clipPath id="clip7944acxyplot" class="plotclip"><rect width="512" height="200"/></clipPath><clipPath class="axesclip" id="clip7944acx"><rect x="0" y="0" width="512" height="200"/></clipPath><clipPath class="axesclip" id="clip7944acy"><rect x="0" y="0" width="512" height="200"/></clipPath><clipPath class="axesclip" id="clip7944acxy"><rect x="0" y="0" width="512" height="200"/></clipPath></g><g class="gradients"/><g class="patterns"/></defs><g class="bglayer"><rect class="bg" x="0" y="0" width="512" height="200" style="fill: rgb(0, 0, 0); fill-opacity: 0; stroke-width: 0;"/></g><g class="layer-below"><g class="imagelayer"/><g class="shapelayer"/></g><g class="cartesianlayer"><g class="subplot xy"><g class="layer-subplot"><g class="shapelayer"/><g class="imagelayer"/></g><g class="minor-gridlayer"><g class="x"/><g class="y"/></g><g class="gridlayer"><g class="x"/><g class="y"/></g><g class="zerolinelayer"/><g class="layer-between"><g class="shapelayer"/><g class="imagelayer"/></g><path class="xlines-below"/><path class="ylines-below"/><g class="overlines-below"/><g class="xaxislayer-below"/><g class="yaxislayer-below"/><g class="overaxes-below"/><g class="overplot"><g class="xy" transform="" clip-path="url(#clip7944acxyplot)"><g class="scatterlayer mlayer"><g class="trace scatter trace424cf3" style="stroke-miterlimit: 2;"><g class="fills"><g><path class="js-fill" d="M512,200L0,200L0,200L1.79,200L2.38,188.13L2.98,176.25L3.57,188.13L4.17,176.25L4.76,188.13L5.36,176.25L5.95,188.13L7.14,105L7.74,164.38L8.33,105L8.93,164.38L9.53,105L10.12,152.5L11.31,140.63L11.91,10L22.62,10L23.22,128.75L25,10L25.6,10L32.15,10L32.74,57.5L33.34,69.38L33.93,10L37.51,10L38.1,188.13L39.29,200L39.89,176.25L41.08,10L41.67,10L48.82,10L49.41,105L51.2,10L51.8,10L58.34,10L58.94,33.75L59.53,69.38L60.13,10L63.7,10L64.3,105L64.89,128.75L65.49,105L66.08,128.75L66.68,105L67.87,140.63L68.47,140.63L69.06,152.5L69.66,140.63L70.25,128.75L70.85,140.63L71.44,152.5L72.04,140.63L72.63,128.75L73.23,164.38L74.42,10L75.01,10L82.16,10L82.75,188.13L83.94,10L84.54,10L100.61,10L101.21,188.13L101.8,200L102.4,10L120.86,10L121.45,188.13L122.64,200L123.24,200L130.38,200L130.98,176.25L131.57,176.25L132.17,164.38L132.76,152.5L133.36,176.25L133.95,176.25L134.55,164.38L136.33,10L136.93,10L139.31,10L139.91,116.88L141.1,10L141.69,10L163.72,10L164.32,57.5L165.51,10L166.1,10L168.48,10L169.08,176.25L170.27,164.38L170.87,164.38L171.46,176.25L172.06,164.38L175.63,164.38L176.22,10L176.82,10L177.41,105L178.01,128.75L178.6,10L182.18,10L182.77,57.5L183.96,10L184.56,10L186.94,10L187.53,93.13L188.13,105L188.73,10L195.87,10L196.47,140.63L197.06,176.25L197.66,57.5L198.85,10L199.44,10L201.82,10L202.42,176.25L204.2,176.25L204.8,188.13L205.99,176.25L206.59,176.25L207.78,164.38L208.37,164.38L208.97,164.38L209.56,10L210.16,10L210.75,105L211.35,128.75L211.94,10L215.52,10L216.11,57.5L217.3,10L217.9,10L220.28,10L220.87,93.13L221.47,105L222.07,10L229.21,10L229.8,140.63L230.4,176.25L231,57.5L232.19,10L232.78,10L235.16,10L235.76,176.25L236.95,164.38L237.54,164.38L238.14,176.25L238.73,164.38L239.33,164.38L239.93,152.5L240.52,81.25L241.12,105L242.31,81.25L242.9,10L243.5,10L244.09,69.38L244.69,81.25L245.28,10L253.62,10L254.21,105L255.4,10L256,10L258.38,10L258.98,33.75L260.17,10L260.76,10L284.58,10L285.17,33.75L286.36,10L286.96,10L287.55,93.13L288.15,10L295.89,10L296.48,188.13L297.67,10L298.27,10L306.01,10L306.6,45.63L307.8,10L308.39,10L308.99,45.63L309.58,200L320.3,200L320.89,176.25L322.08,57.5L322.68,81.25L323.27,140.63L323.87,81.25L325.06,116.88L325.66,10L334.59,10L335.18,105L336.37,10L336.97,10L344.11,10L344.71,69.38L345.9,10L346.49,10L348.87,10L349.47,45.63L350.66,10L351.26,10L362.57,10L363.16,81.25L363.76,69.38L364.35,188.13L365.54,200L366.14,200L371.5,200L372.09,188.13L373.28,140.63L373.88,10L381.62,10L382.21,33.75L383.4,10L384,10L395.91,10L396.5,164.38L397.69,10L398.29,10L399.48,10L400.07,45.63L401.27,10L401.86,45.63L403.05,152.5L403.65,152.5L405.43,152.5L406.03,10L410.79,10L411.39,81.25L412.58,10L413.17,10L415.55,10L416.15,81.25L417.34,10L417.93,10L420.32,10L420.91,81.25L422.1,10L422.7,10L424.48,10L425.08,57.5L426.27,10L426.87,10L427.46,10L428.06,45.63L428.65,45.63L429.25,10L429.84,10L430.44,116.88L431.03,10L431.63,45.63L432.22,10L432.82,57.5L434.01,10L434.6,57.5L435.2,93.13L435.8,188.13L436.99,200L437.58,200L444.13,200L444.73,188.13L445.92,10L446.51,10L453.66,10L454.25,188.13L455.44,10L456.04,10L482.23,10L482.83,57.5L483.42,57.5L484.02,33.75L485.21,10L485.8,33.75L487,10L487.59,57.5L488.78,10L489.38,10L497.12,10L497.71,152.5L499.5,152.5L500.09,200L512,200" style="fill: rgb(96, 165, 250); fill-opacity: 1; stroke-width: 0;"/></g></g><g class="errorbars"/><g class="lines"><path class="js-line" d="M0,200L1.79,200L2.38,188.13L2.98,176.25L3.57,188.13L4.17,176.25L4.76,188.13L5.36,176.25L5.95,188.13L7.14,105L7.74,164.38L8.33,105L8.93,164.38L9.53,105L10.12,152.5L11.31,140.63L11.91,10L22.62,10L23.22,128.75L25,10L25.6,10L32.15,10L32.74,57.5L33.34,69.38L33.93,10L37.51,10L38.1,188.13L39.29,200L39.89,176.25L41.08,10L41.67,10L48.82,10L49.41,105L51.2,10L51.8,10L58.34,10L58.94,33.75L59.53,69.38L60.13,10L63.7,10L64.3,105L64.89,128.75L65.49,105L66.08,128.75L66.68,105L67.87,140.63L68.47,140.63L69.06,152.5L69.66,140.63L70.25,128.75L70.85,140.63L71.44,152.5L72.04,140.63L72.63,128.75L73.23,164.38L74.42,10L75.01,10L82.16,10L82.75,188.13L83.94,10L84.54,10L100.61,10L101.21,188.13L101.8,200L102.4,10L120.86,10L121.45,188.13L122.64,200L123.24,200L130.38,200L130.98,176.25L131.57,176.25L132.17,164.38L132.76,152.5L133.36,176.25L133.95,176.25L134.55,164.38L136.33,10L136.93,10L139.31,10L139.91,116.88L141.1,10L141.69,10L163.72,10L164.32,57.5L165.51,10L166.1,10L168.48,10L169.08,176.25L170.27,164.38L170.87,164.38L171.46,176.25L172.06,164.38L175.63,164.38L176.22,10L176.82,10L177.41,105L178.01,128.75L178.6,10L182.18,10L182.77,57.5L183.96,10L184.56,10L186.94,10L187.53,93.13L188.13,105L188.73,10L195.87,10L196.47,140.63L197.06,176.25L197.66,57.5L198.85,10L199.44,10L201.82,10L202.42,176.25L204.2,176.25L204.8,188.13L205.99,176.25L206.59,176.25L207.78,164.38L208.37,164.38L208.97,164.38L209.56,10L210.16,10L210.75,105L211.35,128.75L211.94,10L215.52,10L216.11,57.5L217.3,10L217.9,10L220.28,10L220.87,93.13L221.47,105L222.07,10L229.21,10L229.8,140.63L230.4,176.25L231,57.5L232.19,10L232.78,10L235.16,10L235.76,176.25L236.95,164.38L237.54,164.38L238.14,176.25L238.73,164.38L239.33,164.38L239.93,152.5L240.52,81.25L241.12,105L242.31,81.25L242.9,10L243.5,10L244.09,69.38L244.69,81.25L245.28,10L253.62,10L254.21,105L255.4,10L256,10L258.38,10L258.98,33.75L260.17,10L260.76,10L284.58,10L285.17,33.75L286.36,10L286.96,10L287.55,93.13L288.15,10L295.89,10L296.48,188.13L297.67,10L298.27,10L306.01,10L306.6,45.63L307.8,10L308.39,10L308.99,45.63L309.58,200L320.3,200L320.89,176.25L322.08,57.5L322.68,81.25L323.27,140.63L323.87,81.25L325.06,116.88L325.66,10L334.59,10L335.18,105L336.37,10L336.97,10L344.11,10L344.71,69.38L345.9,10L346.49,10L348.87,10L349.47,45.63L350.66,10L351.26,10L362.57,10L363.16,81.25L363.76,69.38L364.35,188.13L365.54,200L366.14,200L371.5,200L372.09,188.13L373.28,140.63L373.88,10L381.62,10L382.21,33.75L383.4,10L384,10L395.91,10L396.5,164.38L397.69,10L398.29,10L399.48,10L400.07,45.63L401.27,10L401.86,45.63L403.05,152.5L403.65,152.5L405.43,152.5L406.03,10L410.79,10L411.39,81.25L412.58,10L413.17,10L415.55,10L416.15,81.25L417.34,10L417.93,10L420.32,10L420.91,81.25L422.1,10L422.7,10L424.48,10L425.08,57.5L426.27,10L426.87,10L427.46,10L428.06,45.63L428.65,45.63L429.25,10L429.84,10L430.44,116.88L431.03,10L431.63,45.63L432.22,10L432.82,57.5L434.01,10L434.6,57.5L435.2,93.13L435.8,188.13L436.99,200L437.58,200L444.13,200L444.73,188.13L445.92,10L446.51,10L453.66,10L454.25,188.13L455.44,10L456.04,10L482.23,10L482.83,57.5L483.42,57.5L484.02,33.75L485.21,10L485.8,33.75L487,10L487.59,57.5L488.78,10L489.38,10L497.12,10L497.71,152.5L499.5,152.5L500.09,200L512,200" style="vector-effect: none; fill: none; stroke: rgb(255, 165, 0); stroke-opacity: 1; stroke-width: 0px; opacity: 1;"/></g><g class="points"/><g class="text"/></g></g></g></g><path class="xlines-above crisp" d="M0,0" style="fill: none;"/><path class="ylines-above crisp" d="M0,0" style="fill: none;"/><g class="overlines-above"/><g class="xaxislayer-above"/><g class="yaxislayer-above"/><g class="overaxes-above"/></g></g><g class="polarlayer"/><g class="smithlayer"/><g class="ternarylayer"/><g class="geolayer"/><g class="funnelarealayer"/><g class="pielayer"/><g class="iciclelayer"/><g class="treemaplayer"/><g class="sunburstlayer"/><g class="glimages"/><defs id="topdefs-7944ac"><g class="clips"/></defs><g class="layer-above"><g class="imagelayer"/><g class="shapelayer"/></g><g class="infolayer"><g class="g-gtitle"/></g></svg>