<svg class="main-svg" xmlns="http://www.w3.org/2000/svg" xmlns:xlink="http://www.w3.org/1999/xlink" width="512" height="200" style="" viewBox="0 0 512 200"><rect x="0" y="0" width="512" height="200" style="fill: rgb(0, 0, 0); fill-opacity: 0;"/><defs id="defs-d07854"><g class="clips"><clipPath id="clipd07854xyplot" class="plotclip"><rect width="512" height="200"/></clipPath><clipPath class="axesclip" id="clipd07854x"><rect x="0" y="0" width="512" height="200"/></clipPath><clipPath class="axesclip" id="clipd07854y"><rect x="0" y="0" width="512" height="200"/></clipPath><clipPath class="axesclip" id="clipd07854xy"><rect x="0" y="0" width="512" height="200"/></clipPath></g><g class="gradients"/><g class="patterns"/></defs><g class="bglayer"><rect class="bg" x="0" y="0" width="512" height="200" style="fill: rgb(0, 0, 0); fill-opacity: 0; stroke-width: 0;"/></g><g class="layer-below"><g class="imagelayer"/><g class="shapelayer"/></g><g class="cartesianlayer"><g class="subplot xy"><g class="layer-subplot"><g class="shapelayer"/><g class="imagelayer"/></g><g class="minor-gridlayer"><g class="x"/><g class="y"/></g><g class="gridlayer"><g class="x"/><g class="y"/></g><g class="zerolinelayer"/><g class="layer-between"><g class="shapelayer"/><g class="imagelayer"/></g><path class="xlines-below"/><path class="ylines-below"/><g class="overlines-below"/><g class="xaxislayer-below"/><g class="yaxislayer-below"/><g class="overaxes-below"/><g class="overplot"><g class="xy" transform="" clip-path="url(#clipd07854xyplot)"><g class="scatterlayer mlayer"><g class="trace scatter trace33a0f5" style="stroke-miterlimit: 2;"><g class="fills"><g><path class="js-fill" d="M512,200L0,200L0,200L33.19,200L37.93,10L66.37,10L71.11,200L75.85,10L80.59,10L85.33,10L90.07,200L94.81,10L99.56,10L123.26,10L128,200L132.74,10L137.48,10L151.7,10L156.44,200L161.19,10L165.93,200L170.67,10L175.41,200L180.15,10L184.89,200L189.63,10L194.37,10L218.07,10L222.81,200L227.56,10L232.3,10L303.41,10L308.15,200L312.89,10L317.63,10L350.81,10L355.56,200L360.3,10L365.04,200L369.78,10L374.52,200L379.26,10L384,200L388.74,10L393.48,10L417.19,10L421.93,200L426.67,10L431.41,10L502.52,10L507.26,200L512,10" style="fill: rgb(133, 94, 232); fill-opacity: 1; stroke-width: 0;"/></g></g><g class="errorbars"/><g class="lines"><path class="js-line" d="M0,200L33.19,200L37.93,10L66.37,10L71.11,200L75.85,10L80.59,10L85.33,10L90.07,200L94.81,10L99.56,10L123.26,10L128,200L132.74,10L137.48,10L151.7,10L156.44,200L161.19,10L165.93,200L170.67,10L175.41,200L180.15,10L184.89,200L189.63,10L194.37,10L218.07,10L222.81,200L227.56,10L232.3,10L303.41,10L308.15,200L312.89,10L317.63,10L350.81,10L355.56,200L360.3,10L365.04,200L369.78,10L374.52,200L379.26,10L384,200L388.74,10L393.48,10L417.19,10L421.93,200L426.67,10L431.41,10L502.52,10L507.26,200L512,10" style="vector-effect: none; fill: none; stroke: rgb(255, 165, 0); stroke-opacity: 1; stroke-width: 0px; opacity: 1;"/></g><g class="points"/><g class="text"/></g></g></g></g><path class="xlines-above crisp" d="M0,0" style="fill: none;"/><path class="ylines-above crisp" d="M0,0" style="fill: none;"/><g class="overlines-above"/><g class="xaxislayer-above"/><g class="yaxislayer-above"/><g class="overaxes-above"/></g></g><g class="polarlayer"/><g class="smithlayer"/><g class="ternarylayer"/><g class="geolayer"/><g class="funnelarealayer"/><g class="pielayer"/><g class="iciclelayer"/><g class="treemaplayer"/><g class="sunburstlayer"/><g class="glimages"/><defs id="topdefs-d07854"><g class="clips"/></defs><g class="layer-above"><g class="imagelayer"/><g class="shapelayer"/></g><g class="infolayer"><g class="g-gtitle"/></g></svg>