<svg class="main-svg" xmlns="http://www.w3.org/2000/svg" xmlns:xlink="http://www.w3.org/1999/xlink" width="512" height="200" viewBox="0 0 512 200" style=""><rect x="0" y="0" width="512" height="200" style="fill: rgb(0, 0, 0); fill-opacity: 0;"/><defs id="defs-760bec"><g class="clips"><clipPath id="clip760becxyplot" class="plotclip"><rect width="512" height="200"/></clipPath><clipPath class="axesclip" id="clip760becx"><rect x="0" y="0" width="512" height="200"/></clipPath><clipPath class="axesclip" id="clip760becy"><rect x="0" y="0" width="512" height="200"/></clipPath><clipPath class="axesclip" id="clip760becxy"><rect x="0" y="0" width="512" height="200"/></clipPath></g><g class="gradients"/><g class="patterns"/></defs><g class="bglayer"><rect class="bg" x="0" y="0" width="512" height="200" style="fill: rgb(0, 0, 0); fill-opacity: 0; stroke-width: 0;"/></g><g class="layer-below"><g class="imagelayer"/><g class="shapelayer"/></g><g class="cartesianlayer"><g class="subplot xy"><g class="layer-subplot"><g class="shapelayer"/><g class="imagelayer"/></g><g class="minor-gridlayer"><g class="x"/><g class="y"/></g><g class="gridlayer"><g class="x"/><g class="y"/></g><g class="zerolinelayer"/><g class="layer-between"><g class="shapelayer"/><g class="imagelayer"/></g><path class="xlines-below"/><path class="ylines-below"/><g class="overlines-below"/><g class="xaxislayer-below"/><g class="yaxislayer-below"/><g class="overaxes-below"/><g class="overplot"><g class="xy" transform="" clip-path="url(#clip760becxyplot)"><g class="scatterlayer mlayer"><g class="trace scatter traced445be" style="stroke-miterlimit: 2;"><g class="fills"><g><path class="js-fill" d="M512,200L0,200L0,120.83L12.96,120.83L19.44,105L25.92,120.83L32.41,120.83L38.89,120.83L45.37,105L51.85,73.33L58.33,73.33L64.81,73.33L71.29,41.67L77.77,73.33L84.25,73.33L90.73,73.33L97.22,41.67L103.7,73.33L110.18,73.33L116.66,73.33L123.14,41.67L129.62,73.33L136.1,73.33L142.58,73.33L149.06,41.67L155.54,120.83L162.03,120.83L168.51,120.83L174.99,105L181.47,120.83L187.95,120.83L194.43,120.83L200.91,105L207.39,73.33L213.87,73.33L220.35,73.33L226.84,41.67L233.32,73.33L239.8,73.33L246.28,73.33L252.76,57.5L259.24,73.33L265.72,73.33L272.2,73.33L278.68,41.67L285.16,73.33L291.65,73.33L298.13,73.33L304.61,57.5L311.09,136.67L317.57,136.67L330.53,136.67L337.01,89.17L343.49,105L349.97,105L356.46,41.67L362.94,10L382.38,10L388.86,73.33L401.82,73.33L408.3,25.83L414.78,10L421.27,10L434.23,10L440.71,73.33L453.67,73.33L460.15,25.83L466.63,89.17L473.11,89.17L499.04,89.17L505.52,136.67L512,152.5" style="fill: rgb(253, 224, 71); fill-opacity: 1; stroke-width: 0;"/></g></g><g class="errorbars"/><g class="lines"><path class="js-line" d="M0,120.83L12.96,120.83L19.44,105L25.92,120.83L32.41,120.83L38.89,120.83L45.37,105L51.85,73.33L58.33,73.33L64.81,73.33L71.29,41.67L77.77,73.33L84.25,73.33L90.73,73.33L97.22,41.67L103.7,73.33L110.18,73.33L116.66,73.33L123.14,41.67L129.62,73.33L136.1,73.33L142.58,73.33L149.06,41.67L155.54,120.83L162.03,120.83L168.51,120.83L174.99,105L181.47,120.83L187.95,120.83L194.43,120.83L200.91,105L207.39,73.33L213.87,73.33L220.35,73.33L226.84,41.67L233.32,73.33L239.8,73.33L246.28,73.33L252.76,57.5L259.24,73.33L265.72,73.33L272.2,73.33L278.68,41.67L285.16,73.33L291.65,73.33L298.13,73.33L304.61,57.5L311.09,136.67L317.57,136.67L330.53,136.67L337.01,89.17L343.49,105L349.97,105L356.46,41.67L362.94,10L382.38,10L388.86,73.33L401.82,73.33L408.3,25.83L414.78,10L421.27,10L434.23,10L440.71,73.33L453.67,73.33L460.15,25.83L466.63,89.17L473.11,89.17L499.04,89.17L505.52,136.67L512,152.5" style="vector-effect: none; fill: none; stroke: rgb(255, 165, 0); stroke-opacity: 1; stroke-width: 0px; opacity: 1;"/></g><g class="points"/><g class="text"/></g></g></g></g><path class="xlines-above crisp" d="M0,0" style="fill: none;"/><path class="ylines-above crisp" d="M0,0" style="fill: none;"/><g class="overlines-above"/><g class="xaxislayer-above"/><g class="yaxislayer-above"/><g class="overaxes-above"/></g></g><g class="polarlayer"/><g class="smithlayer"/><g class="ternarylayer"/><g class="geolayer"/><g class="funnelarealayer"/><g class="pielayer"/><g class="iciclelayer"/><g class="treemaplayer"/><g class="sunburstlayer"/><g class="glimages"/><defs id="topdefs-760bec"><g class="clips"/></defs><g class="layer-above"><g class="imagelayer"/><g class="shapelayer"/></g><g class="infolayer"><g class="g-gtitle"/></g></svg>