<svg class="main-svg" xmlns="http://www.w3.org/2000/svg" xmlns:xlink="http://www.w3.org/1999/xlink" width="512" height="200" style="" viewBox="0 0 512 200"><rect x="0" y="0" width="512" height="200" style="fill: rgb(0, 0, 0); fill-opacity: 0;"/><defs id="defs-44f0e6"><g class="clips"><clipPath id="clip44f0e6xyplot" class="plotclip"><rect width="512" height="200"/></clipPath><clipPath class="axesclip" id="clip44f0e6x"><rect x="0" y="0" width="512" height="200"/></clipPath><clipPath class="axesclip" id="clip44f0e6y"><rect x="0" y="0" width="512" height="200"/></clipPath><clipPath class="axesclip" id="clip44f0e6xy"><rect x="0" y="0" width="512" height="200"/></clipPath></g><g class="gradients"/><g class="patterns"/></defs><g class="bglayer"><rect class="bg" x="0" y="0" width="512" height="200" style="fill: rgb(0, 0, 0); fill-opacity: 0; stroke-width: 0;"/></g><g class="layer-below"><g class="imagelayer"/><g class="shapelayer"/></g><g class="cartesianlayer"><g class="subplot xy"><g class="layer-subplot"><g class="shapelayer"/><g class="imagelayer"/></g><g class="minor-gridlayer"><g class="x"/><g class="y"/></g><g class="gridlayer"><g class="x"/><g class="y"/></g><g class="zerolinelayer"/><g class="layer-between"><g class="shapelayer"/><g class="imagelayer"/></g><path class="xlines-below"/><path class="ylines-below"/><g class="overlines-below"/><g class="xaxislayer-below"/><g class="yaxislayer-below"/><g class="overaxes-below"/><g class="overplot"><g class="xy" transform="" clip-path="url(#clip44f0e6xyplot)"><g class="scatterlayer mlayer"><g class="trace scatter tracefee192" style="stroke-miterlimit: 2;"><g class="fills"><g><path class="js-fill" d="M512,200L0,200L0,33.75L2.46,10L4.92,105L7.38,10L9.85,33.75L12.31,21.88L14.77,105L17.23,10L19.69,21.88L24.62,21.88L27.08,57.5L29.54,10L32,10L36.92,10L39.38,152.5L41.85,176.25L44.31,164.38L46.77,176.25L49.23,105L51.69,105L54.15,33.75L56.62,57.5L59.08,10L73.85,10L76.31,105L78.77,10L81.23,10L93.54,10L96,105L98.46,10L100.92,10L113.23,10L115.69,33.75L118.15,10L120.62,10L132.92,10L135.38,128.75L137.85,140.63L140.31,10L142.77,33.75L145.23,10L147.69,33.75L150.15,10L152.62,10L155.08,188.13L157.54,176.25L160,10L174.77,10L177.23,45.63L179.69,10L182.15,10L270.77,10L273.23,33.75L275.69,152.5L278.15,10L381.54,10L384,57.5L386.46,10L388.92,10L391.38,10L393.85,105L396.31,10L398.77,10L401.23,10L403.69,33.75L406.15,10L408.62,10L411.08,10L413.54,21.88L416,10L418.46,10L420.92,10L423.38,33.75L425.85,10L428.31,10L450.46,10L452.92,33.75L455.38,10L457.85,10L460.31,45.63L462.77,10L470.15,10L472.62,33.75L475.08,10L477.54,10L482.46,10L484.92,33.75L487.38,10L489.85,10L499.69,10L502.15,45.63L504.62,10L507.08,10L509.54,10L512,188.13" style="fill: rgb(96, 165, 250); fill-opacity: 1; stroke-width: 0;"/></g></g><g class="errorbars"/><g class="lines"><path class="js-line" d="M0,33.75L2.46,10L4.92,105L7.38,10L9.85,33.75L12.31,21.88L14.77,105L17.23,10L19.69,21.88L24.62,21.88L27.08,57.5L29.54,10L32,10L36.92,10L39.38,152.5L41.85,176.25L44.31,164.38L46.77,176.25L49.23,105L51.69,105L54.15,33.75L56.62,57.5L59.08,10L73.85,10L76.31,105L78.77,10L81.23,10L93.54,10L96,105L98.46,10L100.92,10L113.23,10L115.69,33.75L118.15,10L120.62,10L132.92,10L135.38,128.75L137.85,140.63L140.31,10L142.77,33.75L145.23,10L147.69,33.75L150.15,10L152.62,10L155.08,188.13L157.54,176.25L160,10L174.77,10L177.23,45.63L179.69,10L182.15,10L270.77,10L273.23,33.75L275.69,152.5L278.15,10L381.54,10L384,57.5L386.46,10L388.92,10L391.38,10L393.85,105L396.31,10L398.77,10L401.23,10L403.69,33.75L406.15,10L408.62,10L411.08,10L413.54,21.88L416,10L418.46,10L420.92,10L423.38,33.75L425.85,10L428.31,10L450.46,10L452.92,33.75L455.38,10L457.85,10L460.31,45.63L462.77,10L470.15,10L472.62,33.75L475.08,10L477.54,10L482.46,10L484.92,33.75L487.38,10L489.85,10L499.69,10L502.15,45.63L504.62,10L507.08,10L509.54,10L512,188.13" style="vector-effect: none; fill: none; stroke: rgb(255, 165, 0); stroke-opacity: 1; stroke-width: 0px; opacity: 1;"/></g><g class="points"/><g class="text"/></g></g></g></g><path class="xlines-above crisp" d="M0,0" style="fill: none;"/><path class="ylines-above crisp" d="M0,0" style="fill: none;"/><g class="overlines-above"/><g class="xaxislayer-above"/><g class="yaxislayer-above"/><g class="overaxes-above"/></g></g><g class="polarlayer"/><g class="smithlayer"/><g class="ternarylayer"/><g class="geolayer"/><g class="funnelarealayer"/><g class="pielayer"/><g class="iciclelayer"/><g class="treemaplayer"/><g class="sunburstlayer"/><g class="glimages"/><defs id="topdefs-44f0e6"><g class="clips"/></defs><g class="layer-above"><g class="imagelayer"/><g class="shapelayer"/></g><g class="infolayer"><g class="g-gtitle"/></g></svg>