<svg class="main-svg" xmlns="http://www.w3.org/2000/svg" xmlns:xlink="http://www.w3.org/1999/xlink" width="512" height="200" viewBox="0 0 512 200" style=""><rect x="0" y="0" width="512" height="200" style="fill: rgb(0, 0, 0); fill-opacity: 0;"/><defs id="defs-dd00a6"><g class="clips"><clipPath id="clipdd00a6xyplot" class="plotclip"><rect width="512" height="200"/></clipPath><clipPath class="axesclip" id="clipdd00a6x"><rect x="0" y="0" width="512" height="200"/></clipPath><clipPath class="axesclip" id="clipdd00a6y"><rect x="0" y="0" width="512" height="200"/></clipPath><clipPath class="axesclip" id="clipdd00a6xy"><rect x="0" y="0" width="512" height="200"/></clipPath></g><g class="gradients"/><g class="patterns"/></defs><g class="bglayer"><rect class="bg" x="0" y="0" width="512" height="200" style="fill: rgb(0, 0, 0); fill-opacity: 0; stroke-width: 0;"/></g><g class="layer-below"><g class="imagelayer"/><g class="shapelayer"/></g><g class="cartesianlayer"><g class="subplot xy"><g class="layer-subplot"><g class="shapelayer"/><g class="imagelayer"/></g><g class="minor-gridlayer"><g class="x"/><g class="y"/></g><g class="gridlayer"><g class="x"/><g class="y"/></g><g class="zerolinelayer"/><g class="layer-between"><g class="shapelayer"/><g class="imagelayer"/></g><path class="xlines-below"/><path class="ylines-below"/><g class="overlines-below"/><g class="xaxislayer-below"/><g class="yaxislayer-below"/><g class="overaxes-below"/><g class="overplot"><g class="xy" transform="" clip-path="url(#clipdd00a6xyplot)"><g class="scatterlayer mlayer"><g class="trace scatter trace5cb488" style="stroke-miterlimit: 2;"><g class="fills"><g><path class="js-fill" d="M512,200L0,200L0,176.25L9.85,176.25L12.31,140.63L14.77,176.25L17.23,93.13L19.69,81.25L22.15,140.63L24.62,81.25L27.08,128.75L29.54,81.25L32,81.25L34.46,152.5L36.92,57.5L39.38,152.5L41.85,176.25L44.31,164.38L46.77,176.25L49.23,105L51.69,105L54.15,81.25L56.62,105L59.08,116.88L61.54,140.63L64,116.88L66.46,128.75L68.92,116.88L71.38,140.63L73.85,116.88L76.31,105L78.77,116.88L81.23,140.63L83.69,116.88L86.15,128.75L88.62,116.88L91.08,116.88L93.54,140.63L96,116.88L98.46,105L100.92,105L120.62,105L123.08,116.88L125.54,105L128,105L130.46,116.88L132.92,105L135.38,128.75L137.85,140.63L140.31,105L142.77,105L147.69,105L150.15,57.5L152.62,57.5L155.08,188.13L157.54,176.25L160,10L174.77,10L177.23,45.63L179.69,10L182.15,10L196.92,10L199.38,105L236.31,105L238.77,128.75L241.23,116.88L243.69,128.75L246.15,116.88L248.62,128.75L251.08,116.88L253.54,128.75L256,116.88L258.46,128.75L270.77,128.75L273.23,69.38L275.69,152.5L278.15,128.75L315.08,128.75L317.54,188.13L320,10L322.46,188.13L324.92,10L327.38,188.13L329.85,10L332.31,188.13L334.77,10L337.23,93.13L339.69,105L342.15,93.13L344.62,105L347.08,81.25L349.54,81.25L352,152.5L354.46,93.13L356.92,152.5L381.54,152.5L384,105L386.46,10L388.92,10L391.38,10L393.85,105L396.31,10L398.77,10L401.23,10L403.69,33.75L406.15,10L408.62,10L411.08,10L413.54,21.88L416,10L418.46,10L420.92,10L423.38,33.75L425.85,10L428.31,10L433.23,10L435.69,116.88L438.15,128.75L440.62,116.88L443.08,128.75L445.54,116.88L448,116.88L450.46,140.63L452.92,105L455.38,116.88L457.85,140.63L460.31,116.88L462.77,128.75L465.23,116.88L467.69,116.88L470.15,176.25L472.62,33.75L475.08,116.88L480,116.88L482.46,105L484.92,128.75L487.38,105L489.85,116.88L492.31,152.5L497.23,105L499.69,140.63L502.15,140.63L504.62,116.88L507.08,105L509.54,128.75L512,188.13" style="fill: rgb(74, 222, 128); fill-opacity: 1; stroke-width: 0;"/></g></g><g class="errorbars"/><g class="lines"><path class="js-line" d="M0,176.25L9.85,176.25L12.31,140.63L14.77,176.25L17.23,93.13L19.69,81.25L22.15,140.63L24.62,81.25L27.08,128.75L29.54,81.25L32,81.25L34.46,152.5L36.92,57.5L39.38,152.5L41.85,176.25L44.31,164.38L46.77,176.25L49.23,105L51.69,105L54.15,81.25L56.62,105L59.08,116.88L61.54,140.63L64,116.88L66.46,128.75L68.92,116.88L71.38,140.63L73.85,116.88L76.31,105L78.77,116.88L81.23,140.63L83.69,116.88L86.15,128.75L88.62,116.88L91.08,116.88L93.54,140.63L96,116.88L98.46,105L100.92,105L120.62,105L123.08,116.88L125.54,105L128,105L130.46,116.88L132.92,105L135.38,128.75L137.85,140.63L140.31,105L142.77,105L147.69,105L150.15,57.5L152.62,57.5L155.08,188.13L157.54,176.25L160,10L174.77,10L177.23,45.63L179.69,10L182.15,10L196.92,10L199.38,105L236.31,105L238.77,128.75L241.23,116.88L243.69,128.75L246.15,116.88L248.62,128.75L251.08,116.88L253.54,128.75L256,116.88L258.46,128.75L270.77,128.75L273.23,69.38L275.69,152.5L278.15,128.75L315.08,128.75L317.54,188.13L320,10L322.46,188.13L324.92,10L327.38,188.13L329.85,10L332.31,188.13L334.77,10L337.23,93.13L339.69,105L342.15,93.13L344.62,105L347.08,81.25L349.54,81.25L352,152.5L354.46,93.13L356.92,152.5L381.54,152.5L384,105L386.46,10L388.92,10L391.38,10L393.85,105L396.31,10L398.77,10L401.23,10L403.69,33.75L406.15,10L408.62,10L411.08,10L413.54,21.88L416,10L418.46,10L420.92,10L423.38,33.75L425.85,10L428.31,10L433.23,10L435.69,116.88L438.15,128.75L440.62,116.88L443.08,128.75L445.54,116.88L448,116.88L450.46,140.63L452.92,105L455.38,116.88L457.85,140.63L460.31,116.88L462.77,128.75L465.23,116.88L467.69,116.88L470.15,176.25L472.62,33.75L475.08,116.88L480,116.88L482.46,105L484.92,128.75L487.38,105L489.85,116.88L492.31,152.5L497.23,105L499.69,140.63L502.15,140.63L504.62,116.88L507.08,105L509.54,128.75L512,188.13" style="vector-effect: none; fill: none; stroke: rgb(255, 165, 0); stroke-opacity: 1; stroke-width: 0px; opacity: 1;"/></g><g class="points"/><g class="text"/></g></g></g></g><path class="xlines-above crisp" d="M0,0" style="fill: none;"/><path class="ylines-above crisp" d="M0,0" style="fill: none;"/><g class="overlines-above"/><g class="xaxislayer-above"/><g class="yaxislayer-above"/><g class="overaxes-above"/></g></g><g class="polarlayer"/><g class="smithlayer"/><g class="ternarylayer"/><g class="geolayer"/><g class="funnelarealayer"/><g class="pielayer"/><g class="iciclelayer"/><g class="treemaplayer"/><g class="sunburstlayer"/><g class="glimages"/><defs id="topdefs-dd00a6"><g class="clips"/></defs><g class="layer-above"><g class="imagelayer"/><g class="shapelayer"/></g><g class="infolayer"><g class="g-gtitle"/></g></svg>