<svg class="main-svg" xmlns="http://www.w3.org/2000/svg" xmlns:xlink="http://www.w3.org/1999/xlink" width="512" height="200" style="" viewBox="0 0 512 200"><rect x="0" y="0" width="512" height="200" style="fill: rgb(0, 0, 0); fill-opacity: 0;"/><defs id="defs-0d7d3d"><g class="clips"><clipPath id="clip0d7d3dxyplot" class="plotclip"><rect width="512" height="200"/></clipPath><clipPath class="axesclip" id="clip0d7d3dx"><rect x="0" y="0" width="512" height="200"/></clipPath><clipPath class="axesclip" id="clip0d7d3dy"><rect x="0" y="0" width="512" height="200"/></clipPath><clipPath class="axesclip" id="clip0d7d3dxy"><rect x="0" y="0" width="512" height="200"/></clipPath></g><g class="gradients"/><g class="patterns"/></defs><g class="bglayer"><rect class="bg" x="0" y="0" width="512" height="200" style="fill: rgb(0, 0, 0); fill-opacity: 0; stroke-width: 0;"/></g><g class="layer-below"><g class="imagelayer"/><g class="shapelayer"/></g><g class="cartesianlayer"><g class="subplot xy"><g class="layer-subplot"><g class="shapelayer"/><g class="imagelayer"/></g><g class="minor-gridlayer"><g class="x"/><g class="y"/></g><g class="gridlayer"><g class="x"/><g class="y"/></g><g class="zerolinelayer"/><g class="layer-between"><g class="shapelayer"/><g class="imagelayer"/></g><path class="xlines-below"/><path class="ylines-below"/><g class="overlines-below"/><g class="xaxislayer-below"/><g class="yaxislayer-below"/><g class="overaxes-below"/><g class="overplot"><g class="xy" transform="" clip-path="url(#clip0d7d3dxyplot)"><g class="scatterlayer mlayer"><g class="trace scatter trace0c6126" style="stroke-miterlimit: 2;"><g class="fills"><g><path class="js-fill" d="M512,200L0,200L0,200L48,200L51.2,39.06L92.8,39.06L96,79.29L99.2,119.53L102.4,39.06L144,39.06L147.2,79.29L150.4,119.53L153.6,39.06L176,25.56L179.2,23.62L201.6,10L204.8,80.03L211.2,77.6L214.4,88.75L217.6,75.17L220.8,73.95L224,72.74L227.2,84.37L230.4,96.25L233.6,95.27L243.2,92.35L246.4,92.29L249.6,92.29L252.8,200L256,92.29L259.2,92.29L348.8,92.29L352,38.44L355.2,92.29L358.4,92.29L451.2,92.29L454.4,38.44L457.6,92.29L460.8,186.54L464,200L467.2,200L470.4,200L473.6,186.54L476.8,200L480,186.54L483.2,200L486.4,186.54L489.6,200L492.8,200L512,200" style="fill: rgb(253, 224, 71); fill-opacity: 1; stroke-width: 0;"/></g></g><g class="errorbars"/><g class="lines"><path class="js-line" d="M0,200L48,200L51.2,39.06L92.8,39.06L96,79.29L99.2,119.53L102.4,39.06L144,39.06L147.2,79.29L150.4,119.53L153.6,39.06L176,25.56L179.2,23.62L201.6,10L204.8,80.03L211.2,77.6L214.4,88.75L217.6,75.17L220.8,73.95L224,72.74L227.2,84.37L230.4,96.25L233.6,95.27L243.2,92.35L246.4,92.29L249.6,92.29L252.8,200L256,92.29L259.2,92.29L348.8,92.29L352,38.44L355.2,92.29L358.4,92.29L451.2,92.29L454.4,38.44L457.6,92.29L460.8,186.54L464,200L467.2,200L470.4,200L473.6,186.54L476.8,200L480,186.54L483.2,200L486.4,186.54L489.6,200L492.8,200L512,200" style="vector-effect: none; fill: none; stroke: rgb(255, 165, 0); stroke-opacity: 1; stroke-width: 0px; opacity: 1;"/></g><g class="points"/><g class="text"/></g></g></g></g><path class="xlines-above crisp" d="M0,0" style="fill: none;"/><path class="ylines-above crisp" d="M0,0" style="fill: none;"/><g class="overlines-above"/><g class="xaxislayer-above"/><g class="yaxislayer-above"/><g class="overaxes-above"/></g></g><g class="polarlayer"/><g class="smithlayer"/><g class="ternarylayer"/><g class="geolayer"/><g class="funnelarealayer"/><g class="pielayer"/><g class="iciclelayer"/><g class="treemaplayer"/><g class="sunburstlayer"/><g class="glimages"/><defs id="topdefs-0d7d3d"><g class="clips"/></defs><g class="layer-above"><g class="imagelayer"/><g class="shapelayer"/></g><g class="infolayer"><g class="g-gtitle"/></g></svg>