<svg class="main-svg" xmlns="http://www.w3.org/2000/svg" xmlns:xlink="http://www.w3.org/1999/xlink" width="512" height="200" style="" viewBox="0 0 512 200"><rect x="0" y="0" width="512" height="200" style="fill: rgb(0, 0, 0); fill-opacity: 0;"/><defs id="defs-6b7f7a"><g class="clips"><clipPath id="clip6b7f7axyplot" class="plotclip"><rect width="512" height="200"/></clipPath><clipPath class="axesclip" id="clip6b7f7ax"><rect x="0" y="0" width="512" height="200"/></clipPath><clipPath class="axesclip" id="clip6b7f7ay"><rect x="0" y="0" width="512" height="200"/></clipPath><clipPath class="axesclip" id="clip6b7f7axy"><rect x="0" y="0" width="512" height="200"/></clipPath></g><g class="gradients"/><g class="patterns"/></defs><g class="bglayer"><rect class="bg" x="0" y="0" width="512" height="200" style="fill: rgb(0, 0, 0); fill-opacity: 0; stroke-width: 0;"/></g><g class="layer-below"><g class="imagelayer"/><g class="shapelayer"/></g><g class="cartesianlayer"><g class="subplot xy"><g class="layer-subplot"><g class="shapelayer"/><g class="imagelayer"/></g><g class="minor-gridlayer"><g class="x"/><g class="y"/></g><g class="gridlayer"><g class="x"/><g class="y"/></g><g class="zerolinelayer"/><g class="layer-between"><g class="shapelayer"/><g class="imagelayer"/></g><path class="xlines-below"/><path class="ylines-below"/><g class="overlines-below"/><g class="xaxislayer-below"/><g class="yaxislayer-below"/><g class="overaxes-below"/><g class="overplot"><g class="xy" transform="" clip-path="url(#clip6b7f7axyplot)"><g class="scatterlayer mlayer"><g class="trace scatter trace474d72" style="stroke-miterlimit: 2;"><g class="fills"><g><path class="js-fill" d="M512,200L0,200L0,200L54.08,200L57.69,58.05L173.07,58.05L176.68,56.44L274.03,10.11L277.63,10L281.24,10L284.85,200L288.45,10L292.06,200L295.66,10L299.27,200L302.87,10L306.48,200L310.08,10L313.69,200L317.3,10L320.9,200L324.51,10L328.11,200L331.72,10L335.32,200L338.93,10L342.54,200L346.14,10L349.75,200L353.35,10L356.96,200L360.56,10L364.17,200L367.77,10L371.38,200L374.99,10L378.59,200L382.2,10L385.8,200L389.41,10L393.01,200L396.62,10L400.23,200L403.83,10L407.44,200L411.04,10L414.65,200L418.25,10L421.86,200L425.46,10L429.07,200L432.68,10L436.28,200L439.89,10L443.49,200L447.1,10L450.7,200L454.31,10L457.92,200L461.52,10L465.13,200L468.73,10L472.34,200L475.94,10L479.55,200L483.15,10L486.76,200L490.37,10L493.97,200L497.58,10L501.18,200L504.79,10L508.39,200L512,10" style="fill: rgb(133, 94, 232); fill-opacity: 1; stroke-width: 0;"/></g></g><g class="errorbars"/><g class="lines"><path class="js-line" d="M0,200L54.08,200L57.69,58.05L173.07,58.05L176.68,56.44L274.03,10.11L277.63,10L281.24,10L284.85,200L288.45,10L292.06,200L295.66,10L299.27,200L302.87,10L306.48,200L310.08,10L313.69,200L317.3,10L320.9,200L324.51,10L328.11,200L331.72,10L335.32,200L338.93,10L342.54,200L346.14,10L349.75,200L353.35,10L356.96,200L360.56,10L364.17,200L367.77,10L371.38,200L374.99,10L378.59,200L382.2,10L385.8,200L389.41,10L393.01,200L396.62,10L400.23,200L403.83,10L407.44,200L411.04,10L414.65,200L418.25,10L421.86,200L425.46,10L429.07,200L432.68,10L436.28,200L439.89,10L443.49,200L447.1,10L450.7,200L454.31,10L457.92,200L461.52,10L465.13,200L468.73,10L472.34,200L475.94,10L479.55,200L483.15,10L486.76,200L490.37,10L493.97,200L497.58,10L501.18,200L504.79,10L508.39,200L512,10" style="vector-effect: none; fill: none; stroke: rgb(255, 165, 0); stroke-opacity: 1; stroke-width: 0px; opacity: 1;"/></g><g class="points"/><g class="text"/></g></g></g></g><path class="xlines-above crisp" d="M0,0" style="fill: none;"/><path class="ylines-above crisp" d="M0,0" style="fill: none;"/><g class="overlines-above"/><g class="xaxislayer-above"/><g class="yaxislayer-above"/><g class="overaxes-above"/></g></g><g class="polarlayer"/><g class="smithlayer"/><g class="ternarylayer"/><g class="geolayer"/><g class="funnelarealayer"/><g class="pielayer"/><g class="iciclelayer"/><g class="treemaplayer"/><g class="sunburstlayer"/><g class="glimages"/><defs id="topdefs-6b7f7a"><g class="clips"/></defs><g class="layer-above"><g class="imagelayer"/><g class="shapelayer"/></g><g class="infolayer"><g class="g-gtitle"/></g></svg>