<svg class="main-svg" xmlns="http://www.w3.org/2000/svg" xmlns:xlink="http://www.w3.org/1999/xlink" width="512" height="200" style="" viewBox="0 0 512 200"><rect x="0" y="0" width="512" height="200" style="fill: rgb(0, 0, 0); fill-opacity: 0;"/><defs id="defs-564d59"><g class="clips"><clipPath id="clip564d59xyplot" class="plotclip"><rect width="512" height="200"/></clipPath><clipPath class="axesclip" id="clip564d59x"><rect x="0" y="0" width="512" height="200"/></clipPath><clipPath class="axesclip" id="clip564d59y"><rect x="0" y="0" width="512" height="200"/></clipPath><clipPath class="axesclip" id="clip564d59xy"><rect x="0" y="0" width="512" height="200"/></clipPath></g><g class="gradients"/><g class="patterns"/></defs><g class="bglayer"><rect class="bg" x="0" y="0" width="512" height="200" style="fill: rgb(0, 0, 0); fill-opacity: 0; stroke-width: 0;"/></g><g class="layer-below"><g class="imagelayer"/><g class="shapelayer"/></g><g class="cartesianlayer"><g class="subplot xy"><g class="layer-subplot"><g class="shapelayer"/><g class="imagelayer"/></g><g class="minor-gridlayer"><g class="x"/><g class="y"/></g><g class="gridlayer"><g class="x"/><g class="y"/></g><g class="zerolinelayer"/><g class="layer-between"><g class="shapelayer"/><g class="imagelayer"/></g><path class="xlines-below"/><path class="ylines-below"/><g class="overlines-below"/><g class="xaxislayer-below"/><g class="yaxislayer-below"/><g class="overaxes-below"/><g class="overplot"><g class="xy" transform="" clip-path="url(#clip564d59xyplot)"><g class="scatterlayer mlayer"><g class="trace scatter traced2a17b" style="stroke-miterlimit: 2;"><g class="fills"><g><path class="js-fill" d="M512,200L0,200L0,43.53L5.95,21.18L11.91,21.18L89.3,21.18L95.26,65.88L101.21,21.18L107.16,21.18L113.12,21.18L119.07,43.53L125.02,21.18L130.98,21.18L136.93,21.18L142.88,10L148.84,54.71L154.79,21.18L160.74,21.18L166.7,32.35L172.65,21.18L178.6,21.18L232.19,21.18L238.14,10L244.09,21.18L250.05,21.18L256,21.18L261.95,110.59L267.91,65.88L273.86,54.71L279.81,65.88L285.77,54.71L297.67,77.06L303.63,65.88L309.58,65.88L315.53,21.18L327.44,21.18L333.4,43.53L339.35,21.18L345.3,21.18L398.88,21.18L404.84,43.53L416.74,21.18L422.7,21.18L428.65,21.18L434.6,77.06L440.56,21.18L446.51,21.18L452.47,21.18L458.42,43.53L464.37,21.18L470.33,21.18L476.28,21.18L482.23,10L488.19,21.18L494.14,21.18L500.09,21.18L506.05,99.41L512,188.82" style="fill: rgb(96, 165, 250); fill-opacity: 1; stroke-width: 0;"/></g></g><g class="errorbars"/><g class="lines"><path class="js-line" d="M0,43.53L5.95,21.18L11.91,21.18L89.3,21.18L95.26,65.88L101.21,21.18L107.16,21.18L113.12,21.18L119.07,43.53L125.02,21.18L130.98,21.18L136.93,21.18L142.88,10L148.84,54.71L154.79,21.18L160.74,21.18L166.7,32.35L172.65,21.18L178.6,21.18L232.19,21.18L238.14,10L244.09,21.18L250.05,21.18L256,21.18L261.95,110.59L267.91,65.88L273.86,54.71L279.81,65.88L285.77,54.71L297.67,77.06L303.63,65.88L309.58,65.88L315.53,21.18L327.44,21.18L333.4,43.53L339.35,21.18L345.3,21.18L398.88,21.18L404.84,43.53L416.74,21.18L422.7,21.18L428.65,21.18L434.6,77.06L440.56,21.18L446.51,21.18L452.47,21.18L458.42,43.53L464.37,21.18L470.33,21.18L476.28,21.18L482.23,10L488.19,21.18L494.14,21.18L500.09,21.18L506.05,99.41L512,188.82" style="vector-effect: none; fill: none; stroke: rgb(255, 165, 0); stroke-opacity: 1; stroke-width: 0px; opacity: 1;"/></g><g class="points"/><g class="text"/></g></g></g></g><path class="xlines-above crisp" d="M0,0" style="fill: none;"/><path class="ylines-above crisp" d="M0,0" style="fill: none;"/><g class="overlines-above"/><g class="xaxislayer-above"/><g class="yaxislayer-above"/><g class="overaxes-above"/></g></g><g class="polarlayer"/><g class="smithlayer"/><g class="ternarylayer"/><g class="geolayer"/><g class="funnelarealayer"/><g class="pielayer"/><g class="iciclelayer"/><g class="treemaplayer"/><g class="sunburstlayer"/><g class="glimages"/><defs id="topdefs-564d59"><g class="clips"/></defs><g class="layer-above"><g class="imagelayer"/><g class="shapelayer"/></g><g class="infolayer"><g class="g-gtitle"/></g></svg>