<svg class="main-svg" xmlns="http://www.w3.org/2000/svg" xmlns:xlink="http://www.w3.org/1999/xlink" width="512" height="200" viewBox="0 0 512 200" style=""><rect x="0" y="0" width="512" height="200" style="fill: rgb(0, 0, 0); fill-opacity: 0;"/><defs id="defs-cfc3af"><g class="clips"><clipPath id="clipcfc3afxyplot" class="plotclip"><rect width="512" height="200"/></clipPath><clipPath class="axesclip" id="clipcfc3afx"><rect x="0" y="0" width="512" height="200"/></clipPath><clipPath class="axesclip" id="clipcfc3afy"><rect x="0" y="0" width="512" height="200"/></clipPath><clipPath class="axesclip" id="clipcfc3afxy"><rect x="0" y="0" width="512" height="200"/></clipPath></g><g class="gradients"/><g class="patterns"/></defs><g class="bglayer"><rect class="bg" x="0" y="0" width="512" height="200" style="fill: rgb(0, 0, 0); fill-opacity: 0; stroke-width: 0;"/></g><g class="layer-below"><g class="imagelayer"/><g class="shapelayer"/></g><g class="cartesianlayer"><g class="subplot xy"><g class="layer-subplot"><g class="shapelayer"/><g class="imagelayer"/></g><g class="minor-gridlayer"><g class="x"/><g class="y"/></g><g class="gridlayer"><g class="x"/><g class="y"/></g><g class="zerolinelayer"/><g class="layer-between"><g class="shapelayer"/><g class="imagelayer"/></g><path class="xlines-below"/><path class="ylines-below"/><g class="overlines-below"/><g class="xaxislayer-below"/><g class="yaxislayer-below"/><g class="overaxes-below"/><g class="overplot"><g class="xy" transform="" clip-path="url(#clipcfc3afxyplot)"><g class="scatterlayer mlayer"><g class="trace scatter traceb09cb8" style="stroke-miterlimit: 2;"><g class="fills"><g><path class="js-fill" d="M512,200L0,200L0,33.75L5.95,116.88L11.91,152.5L17.86,105L23.81,152.5L29.77,116.88L35.72,140.63L41.67,105L47.63,33.75L53.58,105L59.53,105L71.44,105L77.4,188.13L83.35,176.25L89.3,152.5L95.26,57.5L101.21,10L113.12,10L119.07,116.88L125.02,10L130.98,10L142.88,10L148.84,45.63L154.79,10L160.74,10L166.7,21.88L172.65,10L196.47,10L202.42,81.25L208.37,10L214.33,10L232.19,10L238.14,152.5L244.09,10L250.05,10L256,10L261.95,116.88L267.91,105L273.86,105L279.81,81.25L285.77,164.38L291.72,57.5L297.67,81.25L303.63,57.5L309.58,57.5L315.53,10L321.49,10L327.44,10L333.4,45.63L339.35,10L345.3,10L357.21,10L363.16,105L381.02,105L386.98,188.13L392.93,176.25L398.88,152.5L404.84,140.63L410.79,21.88L416.74,10L422.7,10L428.65,10L434.6,128.75L440.56,10L446.51,10L452.47,10L458.42,57.5L464.37,10L470.33,10L476.28,10L482.23,152.5L488.19,10L494.14,10L500.09,10L506.05,93.13L512,188.13" style="fill: rgb(239, 68, 68); fill-opacity: 1; stroke-width: 0;"/></g></g><g class="errorbars"/><g class="lines"><path class="js-line" d="M0,33.75L5.95,116.88L11.91,152.5L17.86,105L23.81,152.5L29.77,116.88L35.72,140.63L41.67,105L47.63,33.75L53.58,105L59.53,105L71.44,105L77.4,188.13L83.35,176.25L89.3,152.5L95.26,57.5L101.21,10L113.12,10L119.07,116.88L125.02,10L130.98,10L142.88,10L148.84,45.63L154.79,10L160.74,10L166.7,21.88L172.65,10L196.47,10L202.42,81.25L208.37,10L214.33,10L232.19,10L238.14,152.5L244.09,10L250.05,10L256,10L261.95,116.88L267.91,105L273.86,105L279.81,81.25L285.77,164.38L291.72,57.5L297.67,81.25L303.63,57.5L309.58,57.5L315.53,10L321.49,10L327.44,10L333.4,45.63L339.35,10L345.3,10L357.21,10L363.16,105L381.02,105L386.98,188.13L392.93,176.25L398.88,152.5L404.84,140.63L410.79,21.88L416.74,10L422.7,10L428.65,10L434.6,128.75L440.56,10L446.51,10L452.47,10L458.42,57.5L464.37,10L470.33,10L476.28,10L482.23,152.5L488.19,10L494.14,10L500.09,10L506.05,93.13L512,188.13" style="vector-effect: none; fill: none; stroke: rgb(255, 165, 0); stroke-opacity: 1; stroke-width: 0px; opacity: 1;"/></g><g class="points"/><g class="text"/></g></g></g></g><path class="xlines-above crisp" d="M0,0" style="fill: none;"/><path class="ylines-above crisp" d="M0,0" style="fill: none;"/><g class="overlines-above"/><g class="xaxislayer-above"/><g class="yaxislayer-above"/><g class="overaxes-above"/></g></g><g class="polarlayer"/><g class="smithlayer"/><g class="ternarylayer"/><g class="geolayer"/><g class="funnelarealayer"/><g class="pielayer"/><g class="iciclelayer"/><g class="treemaplayer"/><g class="sunburstlayer"/><g class="glimages"/><defs id="topdefs-cfc3af"><g class="clips"/></defs><g class="layer-above"><g class="imagelayer"/><g class="shapelayer"/></g><g class="infolayer"><g class="g-gtitle"/></g></svg>