<svg class="main-svg" xmlns="http://www.w3.org/2000/svg" xmlns:xlink="http://www.w3.org/1999/xlink" width="512" height="200" style="" viewBox="0 0 512 200"><rect x="0" y="0" width="512" height="200" style="fill: rgb(0, 0, 0); fill-opacity: 0;"/><defs id="defs-368a9b"><g class="clips"><clipPath id="clip368a9bxyplot" class="plotclip"><rect width="512" height="200"/></clipPath><clipPath class="axesclip" id="clip368a9bx"><rect x="0" y="0" width="512" height="200"/></clipPath><clipPath class="axesclip" id="clip368a9by"><rect x="0" y="0" width="512" height="200"/></clipPath><clipPath class="axesclip" id="clip368a9bxy"><rect x="0" y="0" width="512" height="200"/></clipPath></g><g class="gradients"/><g class="patterns"/></defs><g class="bglayer"><rect class="bg" x="0" y="0" width="512" height="200" style="fill: rgb(0, 0, 0); fill-opacity: 0; stroke-width: 0;"/></g><g class="layer-below"><g class="imagelayer"/><g class="shapelayer"/></g><g class="cartesianlayer"><g class="subplot xy"><g class="layer-subplot"><g class="shapelayer"/><g class="imagelayer"/></g><g class="minor-gridlayer"><g class="x"/><g class="y"/></g><g class="gridlayer"><g class="x"/><g class="y"/></g><g class="zerolinelayer"/><g class="layer-between"><g class="shapelayer"/><g class="imagelayer"/></g><path class="xlines-below"/><path class="ylines-below"/><g class="overlines-below"/><g class="xaxislayer-below"/><g class="yaxislayer-below"/><g class="overaxes-below"/><g class="overplot"><g class="xy" transform="" clip-path="url(#clip368a9bxyplot)"><g class="scatterlayer mlayer"><g class="trace scatter trace26f42a" style="stroke-miterlimit: 2;"><g class="fills"><g><path class="js-fill" d="M512,200L0,200L0,105L5.95,116.88L11.91,152.5L17.86,105L23.81,152.5L29.77,116.88L35.72,140.63L41.67,105L47.63,116.88L53.58,105L59.53,105L71.44,105L77.4,188.13L83.35,176.25L89.3,152.5L101.21,105L107.16,105L113.12,105L119.07,128.75L125.02,105L130.98,105L136.93,105L142.88,128.75L154.79,105L160.74,105L166.7,93.13L172.65,10L196.47,10L202.42,81.25L208.37,10L214.33,57.5L220.28,140.63L226.23,140.63L232.19,140.63L238.14,164.38L244.09,140.63L250.05,140.63L267.91,105L273.86,105L279.81,81.25L285.77,164.38L291.72,57.5L297.67,81.25L303.63,57.5L309.58,57.5L315.53,10L321.49,10L327.44,10L333.4,45.63L339.35,10L345.3,10L357.21,10L363.16,105L381.02,105L386.98,188.13L392.93,176.25L398.88,152.5L404.84,140.63L410.79,93.13L416.74,10L422.7,10L428.65,10L434.6,128.75L440.56,10L446.51,10L452.47,10L458.42,57.5L464.37,140.63L470.33,140.63L476.28,140.63L482.23,164.38L488.19,140.63L494.14,140.63L500.09,128.75L506.05,140.63L512,188.13" style="fill: rgb(253, 224, 71); fill-opacity: 1; stroke-width: 0;"/></g></g><g class="errorbars"/><g class="lines"><path class="js-line" d="M0,105L5.95,116.88L11.91,152.5L17.86,105L23.81,152.5L29.77,116.88L35.72,140.63L41.67,105L47.63,116.88L53.58,105L59.53,105L71.44,105L77.4,188.13L83.35,176.25L89.3,152.5L101.21,105L107.16,105L113.12,105L119.07,128.75L125.02,105L130.98,105L136.93,105L142.88,128.75L154.79,105L160.74,105L166.7,93.13L172.65,10L196.47,10L202.42,81.25L208.37,10L214.33,57.5L220.28,140.63L226.23,140.63L232.19,140.63L238.14,164.38L244.09,140.63L250.05,140.63L267.91,105L273.86,105L279.81,81.25L285.77,164.38L291.72,57.5L297.67,81.25L303.63,57.5L309.58,57.5L315.53,10L321.49,10L327.44,10L333.4,45.63L339.35,10L345.3,10L357.21,10L363.16,105L381.02,105L386.98,188.13L392.93,176.25L398.88,152.5L404.84,140.63L410.79,93.13L416.74,10L422.7,10L428.65,10L434.6,128.75L440.56,10L446.51,10L452.47,10L458.42,57.5L464.37,140.63L470.33,140.63L476.28,140.63L482.23,164.38L488.19,140.63L494.14,140.63L500.09,128.75L506.05,140.63L512,188.13" style="vector-effect: none; fill: none; stroke: rgb(255, 165, 0); stroke-opacity: 1; stroke-width: 0px; opacity: 1;"/></g><g class="points"/><g class="text"/></g></g></g></g><path class="xlines-above crisp" d="M0,0" style="fill: none;"/><path class="ylines-above crisp" d="M0,0" style="fill: none;"/><g class="overlines-above"/><g class="xaxislayer-above"/><g class="yaxislayer-above"/><g class="overaxes-above"/></g></g><g class="polarlayer"/><g class="smithlayer"/><g class="ternarylayer"/><g class="geolayer"/><g class="funnelarealayer"/><g class="pielayer"/><g class="iciclelayer"/><g class="treemaplayer"/><g class="sunburstlayer"/><g class="glimages"/><defs id="topdefs-368a9b"><g class="clips"/></defs><g class="layer-above"><g class="imagelayer"/><g class="shapelayer"/></g><g class="infolayer"><g class="g-gtitle"/></g></svg>