<svg class="main-svg" xmlns="http://www.w3.org/2000/svg" xmlns:xlink="http://www.w3.org/1999/xlink" width="512" height="200" style="" viewBox="0 0 512 200"><rect x="0" y="0" width="512" height="200" style="fill: rgb(0, 0, 0); fill-opacity: 0;"/><defs id="defs-b8f21a"><g class="clips"><clipPath id="clipb8f21axyplot" class="plotclip"><rect width="512" height="200"/></clipPath><clipPath class="axesclip" id="clipb8f21ax"><rect x="0" y="0" width="512" height="200"/></clipPath><clipPath class="axesclip" id="clipb8f21ay"><rect x="0" y="0" width="512" height="200"/></clipPath><clipPath class="axesclip" id="clipb8f21axy"><rect x="0" y="0" width="512" height="200"/></clipPath></g><g class="gradients"/><g class="patterns"/></defs><g class="bglayer"><rect class="bg" x="0" y="0" width="512" height="200" style="fill: rgb(0, 0, 0); fill-opacity: 0; stroke-width: 0;"/></g><g class="layer-below"><g class="imagelayer"/><g class="shapelayer"/></g><g class="cartesianlayer"><g class="subplot xy"><g class="layer-subplot"><g class="shapelayer"/><g class="imagelayer"/></g><g class="minor-gridlayer"><g class="x"/><g class="y"/></g><g class="gridlayer"><g class="x"/><g class="y"/></g><g class="zerolinelayer"/><g class="layer-between"><g class="shapelayer"/><g class="imagelayer"/></g><path class="xlines-below"/><path class="ylines-below"/><g class="overlines-below"/><g class="xaxislayer-below"/><g class="yaxislayer-below"/><g class="overaxes-below"/><g class="overplot"><g class="xy" transform="" clip-path="url(#clipb8f21axyplot)"><g class="scatterlayer mlayer"><g class="trace scatter tracefb844a" style="stroke-miterlimit: 2;"><g class="fills"><g><path class="js-fill" d="M512,200L0,200L0,33.75L5.95,10L11.91,10L89.3,10L95.26,57.5L101.21,10L107.16,10L113.12,10L119.07,45.63L125.02,10L130.98,10L142.88,10L148.84,45.63L154.79,10L160.74,10L166.7,21.88L172.65,10L256,10L261.95,116.88L267.91,57.5L273.86,57.5L291.72,57.5L297.67,81.25L303.63,57.5L309.58,57.5L315.53,10L321.49,10L327.44,10L333.4,45.63L339.35,10L345.3,10L398.88,10L404.84,33.75L416.74,10L422.7,10L428.65,10L434.6,128.75L440.56,10L446.51,10L452.47,10L458.42,45.63L464.37,10L470.33,10L500.09,10L506.05,93.13L512,188.13" style="fill: rgb(133, 133, 151); fill-opacity: 1; stroke-width: 0;"/></g></g><g class="errorbars"/><g class="lines"><path class="js-line" d="M0,33.75L5.95,10L11.91,10L89.3,10L95.26,57.5L101.21,10L107.16,10L113.12,10L119.07,45.63L125.02,10L130.98,10L142.88,10L148.84,45.63L154.79,10L160.74,10L166.7,21.88L172.65,10L256,10L261.95,116.88L267.91,57.5L273.86,57.5L291.72,57.5L297.67,81.25L303.63,57.5L309.58,57.5L315.53,10L321.49,10L327.44,10L333.4,45.63L339.35,10L345.3,10L398.88,10L404.84,33.75L416.74,10L422.7,10L428.65,10L434.6,128.75L440.56,10L446.51,10L452.47,10L458.42,45.63L464.37,10L470.33,10L500.09,10L506.05,93.13L512,188.13" style="vector-effect: none; fill: none; stroke: rgb(255, 165, 0); stroke-opacity: 1; stroke-width: 0px; opacity: 1;"/></g><g class="points"/><g class="text"/></g></g></g></g><path class="xlines-above crisp" d="M0,0" style="fill: none;"/><path class="ylines-above crisp" d="M0,0" style="fill: none;"/><g class="overlines-above"/><g class="xaxislayer-above"/><g class="yaxislayer-above"/><g class="overaxes-above"/></g></g><g class="polarlayer"/><g class="smithlayer"/><g class="ternarylayer"/><g class="geolayer"/><g class="funnelarealayer"/><g class="pielayer"/><g class="iciclelayer"/><g class="treemaplayer"/><g class="sunburstlayer"/><g class="glimages"/><defs id="topdefs-b8f21a"><g class="clips"/></defs><g class="layer-above"><g class="imagelayer"/><g class="shapelayer"/></g><g class="infolayer"><g class="g-gtitle"/></g></svg>