<svg class="main-svg" xmlns="http://www.w3.org/2000/svg" xmlns:xlink="http://www.w3.org/1999/xlink" width="512" height="200" style="" viewBox="0 0 512 200"><rect x="0" y="0" width="512" height="200" style="fill: rgb(0, 0, 0); fill-opacity: 0;"/><defs id="defs-460311"><g class="clips"><clipPath id="clip460311xyplot" class="plotclip"><rect width="512" height="200"/></clipPath><clipPath class="axesclip" id="clip460311x"><rect x="0" y="0" width="512" height="200"/></clipPath><clipPath class="axesclip" id="clip460311y"><rect x="0" y="0" width="512" height="200"/></clipPath><clipPath class="axesclip" id="clip460311xy"><rect x="0" y="0" width="512" height="200"/></clipPath></g><g class="gradients"/><g class="patterns"/></defs><g class="bglayer"><rect class="bg" x="0" y="0" width="512" height="200" style="fill: rgb(0, 0, 0); fill-opacity: 0; stroke-width: 0;"/></g><g class="layer-below"><g class="imagelayer"/><g class="shapelayer"/></g><g class="cartesianlayer"><g class="subplot xy"><g class="layer-subplot"><g class="shapelayer"/><g class="imagelayer"/></g><g class="minor-gridlayer"><g class="x"/><g class="y"/></g><g class="gridlayer"><g class="x"/><g class="y"/></g><g class="zerolinelayer"/><g class="layer-between"><g class="shapelayer"/><g class="imagelayer"/></g><path class="xlines-below"/><path class="ylines-below"/><g class="overlines-below"/><g class="xaxislayer-below"/><g class="yaxislayer-below"/><g class="overaxes-below"/><g class="overplot"><g class="xy" transform="" clip-path="url(#clip460311xyplot)"><g class="scatterlayer mlayer"><g class="trace scatter trace920482" style="stroke-miterlimit: 2;"><g class="fills"><g><path class="js-fill" d="M512,200L0,200L0,200L32,200L37.33,10L42.67,200L48,200L58.67,200L64,10L69.33,200L74.67,200L80,200L85.33,10L170.67,10L176,200L181.33,10L186.67,200L192,10L197.33,200L202.67,10L208,200L213.33,10L218.67,200L224,10L229.33,200L234.67,10L240,200L245.33,10L250.67,200L256,10L261.33,10L293.33,10L298.67,200L304,200L309.33,10L426.67,10L432,200L437.33,10L442.67,200L448,10L453.33,200L458.67,10L464,200L469.33,10L474.67,200L480,10L485.33,200L490.67,10L496,200L501.33,10L506.67,200L512,10" style="fill: rgb(133, 94, 232); fill-opacity: 1; stroke-width: 0;"/></g></g><g class="errorbars"/><g class="lines"><path class="js-line" d="M0,200L32,200L37.33,10L42.67,200L48,200L58.67,200L64,10L69.33,200L74.67,200L80,200L85.33,10L170.67,10L176,200L181.33,10L186.67,200L192,10L197.33,200L202.67,10L208,200L213.33,10L218.67,200L224,10L229.33,200L234.67,10L240,200L245.33,10L250.67,200L256,10L261.33,10L293.33,10L298.67,200L304,200L309.33,10L426.67,10L432,200L437.33,10L442.67,200L448,10L453.33,200L458.67,10L464,200L469.33,10L474.67,200L480,10L485.33,200L490.67,10L496,200L501.33,10L506.67,200L512,10" style="vector-effect: none; fill: none; stroke: rgb(255, 165, 0); stroke-opacity: 1; stroke-width: 0px; opacity: 1;"/></g><g class="points"/><g class="text"/></g></g></g></g><path class="xlines-above crisp" d="M0,0" style="fill: none;"/><path class="ylines-above crisp" d="M0,0" style="fill: none;"/><g class="overlines-above"/><g class="xaxislayer-above"/><g class="yaxislayer-above"/><g class="overaxes-above"/></g></g><g class="polarlayer"/><g class="smithlayer"/><g class="ternarylayer"/><g class="geolayer"/><g class="funnelarealayer"/><g class="pielayer"/><g class="iciclelayer"/><g class="treemaplayer"/><g class="sunburstlayer"/><g class="glimages"/><defs id="topdefs-460311"><g class="clips"/></defs><g class="layer-above"><g class="imagelayer"/><g class="shapelayer"/></g><g class="infolayer"><g class="g-gtitle"/></g></svg>