<svg class="main-svg" xmlns="http://www.w3.org/2000/svg" xmlns:xlink="http://www.w3.org/1999/xlink" width="512" height="200" viewBox="0 0 512 200" style=""><rect x="0" y="0" width="512" height="200" style="fill: rgb(0, 0, 0); fill-opacity: 0;"/><defs id="defs-837c23"><g class="clips"><clipPath id="clip837c23xyplot" class="plotclip"><rect width="512" height="200"/></clipPath><clipPath class="axesclip" id="clip837c23x"><rect x="0" y="0" width="512" height="200"/></clipPath><clipPath class="axesclip" id="clip837c23y"><rect x="0" y="0" width="512" height="200"/></clipPath><clipPath class="axesclip" id="clip837c23xy"><rect x="0" y="0" width="512" height="200"/></clipPath></g><g class="gradients"/><g class="patterns"/></defs><g class="bglayer"><rect class="bg" x="0" y="0" width="512" height="200" style="fill: rgb(0, 0, 0); fill-opacity: 0; stroke-width: 0;"/></g><g class="layer-below"><g class="imagelayer"/><g class="shapelayer"/></g><g class="cartesianlayer"><g class="subplot xy"><g class="layer-subplot"><g class="shapelayer"/><g class="imagelayer"/></g><g class="minor-gridlayer"><g class="x"/><g class="y"/></g><g class="gridlayer"><g class="x"/><g class="y"/></g><g class="zerolinelayer"/><g class="layer-between"><g class="shapelayer"/><g class="imagelayer"/></g><path class="xlines-below"/><path class="ylines-below"/><g class="overlines-below"/><g class="xaxislayer-below"/><g class="yaxislayer-below"/><g class="overaxes-below"/><g class="overplot"><g class="xy" transform="" clip-path="url(#clip837c23xyplot)"><g class="scatterlayer mlayer"><g class="trace scatter traced75436" style="stroke-miterlimit: 2;"><g class="fills"><g><path class="js-fill" d="M512,200L0,200L0,140.63L5.33,105L10.67,105L16,105L21.33,116.88L26.67,105L32,116.88L37.33,105L42.67,128.75L48,116.88L53.33,128.75L58.67,116.88L64,128.75L69.33,105L74.67,128.75L80,105L85.33,128.75L90.67,105L96,128.75L101.33,105L106.67,128.75L112,105L117.33,128.75L122.67,105L128,10L160,10L165.33,128.75L170.67,93.13L176,10L208,10L213.33,81.25L218.67,10L224,10L250.67,10L256,105L261.33,140.63L266.67,140.63L282.67,140.63L288,128.75L293.33,128.75L298.67,200L304,200L309.33,105L314.67,116.88L320,105L325.33,140.63L330.67,105L336,105L341.33,116.88L378.67,116.88L384,10L416,10L421.33,116.88L426.67,105L432,10L464,10L469.33,81.25L474.67,10L480,10L485.33,10L490.67,105L501.33,10L506.67,10L512,188.13" style="fill: rgb(96, 165, 250); fill-opacity: 1; stroke-width: 0;"/></g></g><g class="errorbars"/><g class="lines"><path class="js-line" d="M0,140.63L5.33,105L10.67,105L16,105L21.33,116.88L26.67,105L32,116.88L37.33,105L42.67,128.75L48,116.88L53.33,128.75L58.67,116.88L64,128.75L69.33,105L74.67,128.75L80,105L85.33,128.75L90.67,105L96,128.75L101.33,105L106.67,128.75L112,105L117.33,128.75L122.67,105L128,10L160,10L165.33,128.75L170.67,93.13L176,10L208,10L213.33,81.25L218.67,10L224,10L250.67,10L256,105L261.33,140.63L266.67,140.63L282.67,140.63L288,128.75L293.33,128.75L298.67,200L304,200L309.33,105L314.67,116.88L320,105L325.33,140.63L330.67,105L336,105L341.33,116.88L378.67,116.88L384,10L416,10L421.33,116.88L426.67,105L432,10L464,10L469.33,81.25L474.67,10L480,10L485.33,10L490.67,105L501.33,10L506.67,10L512,188.13" style="vector-effect: none; fill: none; stroke: rgb(255, 165, 0); stroke-opacity: 1; stroke-width: 0px; opacity: 1;"/></g><g class="points"/><g class="text"/></g></g></g></g><path class="xlines-above crisp" d="M0,0" style="fill: none;"/><path class="ylines-above crisp" d="M0,0" style="fill: none;"/><g class="overlines-above"/><g class="xaxislayer-above"/><g class="yaxislayer-above"/><g class="overaxes-above"/></g></g><g class="polarlayer"/><g class="smithlayer"/><g class="ternarylayer"/><g class="geolayer"/><g class="funnelarealayer"/><g class="pielayer"/><g class="iciclelayer"/><g class="treemaplayer"/><g class="sunburstlayer"/><g class="glimages"/><defs id="topdefs-837c23"><g class="clips"/></defs><g class="layer-above"><g class="imagelayer"/><g class="shapelayer"/></g><g class="infolayer"><g class="g-gtitle"/></g></svg>