<svg class="main-svg" xmlns="http://www.w3.org/2000/svg" xmlns:xlink="http://www.w3.org/1999/xlink" width="512" height="200" viewBox="0 0 512 200" style=""><rect x="0" y="0" width="512" height="200" style="fill: rgb(0, 0, 0); fill-opacity: 0;"/><defs id="defs-140d2e"><g class="clips"><clipPath id="clip140d2exyplot" class="plotclip"><rect width="512" height="200"/></clipPath><clipPath class="axesclip" id="clip140d2ex"><rect x="0" y="0" width="512" height="200"/></clipPath><clipPath class="axesclip" id="clip140d2ey"><rect x="0" y="0" width="512" height="200"/></clipPath><clipPath class="axesclip" id="clip140d2exy"><rect x="0" y="0" width="512" height="200"/></clipPath></g><g class="gradients"/><g class="patterns"/></defs><g class="bglayer"><rect class="bg" x="0" y="0" width="512" height="200" style="fill: rgb(0, 0, 0); fill-opacity: 0; stroke-width: 0;"/></g><g class="layer-below"><g class="imagelayer"/><g class="shapelayer"/></g><g class="cartesianlayer"><g class="subplot xy"><g class="layer-subplot"><g class="shapelayer"/><g class="imagelayer"/></g><g class="minor-gridlayer"><g class="x"/><g class="y"/></g><g class="gridlayer"><g class="x"/><g class="y"/></g><g class="zerolinelayer"/><g class="layer-between"><g class="shapelayer"/><g class="imagelayer"/></g><path class="xlines-below"/><path class="ylines-below"/><g class="overlines-below"/><g class="xaxislayer-below"/><g class="yaxislayer-below"/><g class="overaxes-below"/><g class="overplot"><g class="xy" transform="" clip-path="url(#clip140d2exyplot)"><g class="scatterlayer mlayer"><g class="trace scatter tracec8dc73" style="stroke-miterlimit: 2;"><g class="fills"><g><path class="js-fill" d="M512,200L0,200L0,200L14.75,200L16.86,176.25L21.07,176.25L23.18,164.38L25.28,105L27.39,105L31.6,105L33.71,128.75L35.82,164.38L37.93,128.75L40.03,105L42.14,128.75L44.25,164.38L46.35,128.75L48.46,105L50.57,105L61.1,105L63.21,10L65.32,10L67.42,188.13L69.53,200L71.64,200L73.74,200L75.85,105L105.35,105L107.46,45.63L109.56,105L111.67,105L122.21,105L124.31,81.25L126.42,105L128.53,105L136.95,105L139.06,152.5L141.17,200L143.28,176.25L145.38,105L147.49,105L160.13,105L162.24,116.88L164.35,105L166.45,105L170.67,105L172.77,140.63L174.88,105L176.99,105L179.09,164.38L181.2,128.75L183.31,140.63L185.42,128.75L193.84,128.75L195.95,81.25L198.06,140.63L200.16,93.13L202.27,140.63L204.38,81.25L206.49,128.75L208.59,116.88L210.7,81.25L212.81,116.88L214.91,188.13L217.02,200L219.13,140.63L221.23,164.38L223.34,140.63L225.45,140.63L227.56,140.63L229.66,164.38L231.77,140.63L233.88,164.38L235.98,105L238.09,105L252.84,105L254.95,128.75L257.05,105L259.16,116.88L263.37,93.13L265.48,105L267.59,128.75L269.7,140.63L271.8,140.63L273.91,105L276.02,81.25L278.12,140.63L282.34,140.63L284.44,93.13L286.55,140.63L288.66,116.88L290.77,105L292.87,105L294.98,140.63L297.09,128.75L299.19,140.63L301.3,105L303.41,140.63L305.51,105L307.62,128.75L309.73,128.75L311.84,105L313.94,105L316.05,105L318.16,69.38L320.26,105L322.37,81.25L324.48,128.75L326.58,140.63L328.69,116.88L330.8,105L337.12,105L339.23,81.25L341.33,128.75L343.44,140.63L345.55,116.88L347.65,105L349.76,105L351.87,69.38L353.98,105L356.08,116.88L358.19,10L360.3,57.5L362.4,188.13L364.51,200L366.62,128.75L368.72,105L370.83,128.75L372.94,164.38L377.15,105L379.26,188.13L381.37,200L383.47,200L385.58,188.13L387.69,188.13L391.9,188.13L394.01,152.5L398.22,152.5L400.33,164.38L402.44,105L404.54,140.63L406.65,105L408.76,140.63L410.86,152.5L412.97,128.75L415.08,57.5L417.19,188.13L419.29,200L421.4,116.88L423.51,105L425.61,105L436.15,105L438.26,93.13L440.36,105L442.47,105L444.58,105L446.68,81.25L448.79,105L450.9,93.13L455.11,21.88L457.22,105L459.33,81.25L461.43,152.5L465.65,152.5L467.75,140.63L469.86,152.5L471.97,128.75L474.07,105L476.18,69.38L478.29,105L480.4,81.25L482.5,93.13L484.61,81.25L486.72,116.88L488.82,116.88L490.93,57.5L493.04,33.75L495.14,105L497.25,105L501.47,105L503.57,200L509.89,200L512,188.13" style="fill: rgb(74, 222, 128); fill-opacity: 1; stroke-width: 0;"/></g></g><g class="errorbars"/><g class="lines"><path class="js-line" d="M0,200L14.75,200L16.86,176.25L21.07,176.25L23.18,164.38L25.28,105L27.39,105L31.6,105L33.71,128.75L35.82,164.38L37.93,128.75L40.03,105L42.14,128.75L44.25,164.38L46.35,128.75L48.46,105L50.57,105L61.1,105L63.21,10L65.32,10L67.42,188.13L69.53,200L71.64,200L73.74,200L75.85,105L105.35,105L107.46,45.63L109.56,105L111.67,105L122.21,105L124.31,81.25L126.42,105L128.53,105L136.95,105L139.06,152.5L141.17,200L143.28,176.25L145.38,105L147.49,105L160.13,105L162.24,116.88L164.35,105L166.45,105L170.67,105L172.77,140.63L174.88,105L176.99,105L179.09,164.38L181.2,128.75L183.31,140.63L185.42,128.75L193.84,128.75L195.95,81.25L198.06,140.63L200.16,93.13L202.27,140.63L204.38,81.25L206.49,128.75L208.59,116.88L210.7,81.25L212.81,116.88L214.91,188.13L217.02,200L219.13,140.63L221.23,164.38L223.34,140.63L225.45,140.63L227.56,140.63L229.66,164.38L231.77,140.63L233.88,164.38L235.98,105L238.09,105L252.84,105L254.95,128.75L257.05,105L259.16,116.88L263.37,93.13L265.48,105L267.59,128.75L269.7,140.63L271.8,140.63L273.91,105L276.02,81.25L278.12,140.63L282.34,140.63L284.44,93.13L286.55,140.63L288.66,116.88L290.77,105L292.87,105L294.98,140.63L297.09,128.75L299.19,140.63L301.3,105L303.41,140.63L305.51,105L307.62,128.75L309.73,128.75L311.84,105L313.94,105L316.05,105L318.16,69.38L320.26,105L322.37,81.25L324.48,128.75L326.58,140.63L328.69,116.88L330.8,105L337.12,105L339.23,81.25L341.33,128.75L343.44,140.63L345.55,116.88L347.65,105L349.76,105L351.87,69.38L353.98,105L356.08,116.88L358.19,10L360.3,57.5L362.4,188.13L364.51,200L366.62,128.75L368.72,105L370.83,128.75L372.94,164.38L377.15,105L379.26,188.13L381.37,200L383.47,200L385.58,188.13L387.69,188.13L391.9,188.13L394.01,152.5L398.22,152.5L400.33,164.38L402.44,105L404.54,140.63L406.65,105L408.76,140.63L410.86,152.5L412.97,128.75L415.08,57.5L417.19,188.13L419.29,200L421.4,116.88L423.51,105L425.61,105L436.15,105L438.26,93.13L440.36,105L442.47,105L444.58,105L446.68,81.25L448.79,105L450.9,93.13L455.11,21.88L457.22,105L459.33,81.25L461.43,152.5L465.65,152.5L467.75,140.63L469.86,152.5L471.97,128.75L474.07,105L476.18,69.38L478.29,105L480.4,81.25L482.5,93.13L484.61,81.25L486.72,116.88L488.82,116.88L490.93,57.5L493.04,33.75L495.14,105L497.25,105L501.47,105L503.57,200L509.89,200L512,188.13" style="vector-effect: none; fill: none; stroke: rgb(255, 165, 0); stroke-opacity: 1; stroke-width: 0px; opacity: 1;"/></g><g class="points"/><g class="text"/></g></g></g></g><path class="xlines-above crisp" d="M0,0" style="fill: none;"/><path class="ylines-above crisp" d="M0,0" style="fill: none;"/><g class="overlines-above"/><g class="xaxislayer-above"/><g class="yaxislayer-above"/><g class="overaxes-above"/></g></g><g class="polarlayer"/><g class="smithlayer"/><g class="ternarylayer"/><g class="geolayer"/><g class="funnelarealayer"/><g class="pielayer"/><g class="iciclelayer"/><g class="treemaplayer"/><g class="sunburstlayer"/><g class="glimages"/><defs id="topdefs-140d2e"><g class="clips"/></defs><g class="layer-above"><g class="imagelayer"/><g class="shapelayer"/></g><g class="infolayer"><g class="g-gtitle"/></g></svg>