<svg class="main-svg" xmlns="http://www.w3.org/2000/svg" xmlns:xlink="http://www.w3.org/1999/xlink" width="512" height="200" style="" viewBox="0 0 512 200"><rect x="0" y="0" width="512" height="200" style="fill: rgb(0, 0, 0); fill-opacity: 0;"/><defs id="defs-712261"><g class="clips"><clipPath id="clip712261xyplot" class="plotclip"><rect width="512" height="200"/></clipPath><clipPath class="axesclip" id="clip712261x"><rect x="0" y="0" width="512" height="200"/></clipPath><clipPath class="axesclip" id="clip712261y"><rect x="0" y="0" width="512" height="200"/></clipPath><clipPath class="axesclip" id="clip712261xy"><rect x="0" y="0" width="512" height="200"/></clipPath></g><g class="gradients"/><g class="patterns"/></defs><g class="bglayer"><rect class="bg" x="0" y="0" width="512" height="200" style="fill: rgb(0, 0, 0); fill-opacity: 0; stroke-width: 0;"/></g><g class="layer-below"><g class="imagelayer"/><g class="shapelayer"/></g><g class="cartesianlayer"><g class="subplot xy"><g class="layer-subplot"><g class="shapelayer"/><g class="imagelayer"/></g><g class="minor-gridlayer"><g class="x"/><g class="y"/></g><g class="gridlayer"><g class="x"/><g class="y"/></g><g class="zerolinelayer"/><g class="layer-between"><g class="shapelayer"/><g class="imagelayer"/></g><path class="xlines-below"/><path class="ylines-below"/><g class="overlines-below"/><g class="xaxislayer-below"/><g class="yaxislayer-below"/><g class="overaxes-below"/><g class="overplot"><g class="xy" transform="" clip-path="url(#clip712261xyplot)"><g class="scatterlayer mlayer"><g class="trace scatter trace271dd7" style="stroke-miterlimit: 2;"><g class="fills"><g><path class="js-fill" d="M512,200L0,200L0,200L14.75,200L16.86,10L18.96,200L21.07,200L23.18,200L25.28,10L27.39,200L29.5,200L31.6,200L33.71,10L35.82,200L37.93,200L40.03,200L42.14,10L44.25,200L46.35,200L48.46,200L50.57,10L52.67,200L54.78,10L56.89,200L59,10L65.32,10L67.42,200L73.74,200L75.85,10L77.96,200L80.07,10L82.17,200L84.28,10L86.39,200L88.49,10L90.6,200L92.71,10L94.81,200L96.92,10L99.03,200L101.14,10L103.24,200L105.35,10L107.46,200L109.56,10L111.67,200L113.78,10L115.88,200L117.99,10L120.1,200L122.21,10L124.31,200L126.42,10L128.53,200L130.63,10L132.74,200L134.85,10L139.06,10L141.17,200L145.38,200L147.49,10L149.6,200L151.7,10L153.81,200L155.92,10L158.02,200L160.13,10L162.24,200L164.35,10L166.45,200L168.56,10L170.67,200L172.77,10L174.88,200L176.99,10L181.2,10L183.31,200L185.42,10L187.52,200L189.63,10L191.74,200L193.84,10L195.95,200L198.06,10L200.16,200L202.27,10L204.38,200L206.49,10L208.59,200L210.7,10L212.81,200L214.91,10L217.02,200L219.13,10L221.23,200L225.45,200L227.56,10L229.66,200L231.77,200L233.88,200L235.98,10L238.09,200L240.2,10L242.3,200L244.41,10L246.52,200L248.63,10L250.73,200L252.84,10L254.95,200L257.05,10L259.16,200L261.27,10L263.37,200L265.48,10L269.7,10L271.8,200L276.02,200L278.12,10L280.23,200L282.34,10L284.44,200L286.55,10L288.66,200L290.77,10L292.87,200L294.98,10L297.09,200L299.19,10L301.3,200L303.41,10L305.51,200L307.62,10L309.73,200L311.84,10L313.94,200L316.05,10L318.16,200L320.26,10L322.37,200L324.48,10L326.58,200L328.69,10L330.8,200L332.91,10L335.01,200L337.12,10L339.23,200L341.33,10L343.44,200L345.55,10L347.65,200L349.76,10L351.87,200L353.98,10L358.19,10L360.3,200L362.4,10L364.51,200L368.72,200L370.83,10L372.94,200L375.05,200L377.15,200L379.26,10L381.37,200L383.47,200L385.58,10L387.69,200L391.9,200L394.01,10L396.12,200L398.22,200L400.33,200L402.44,10L404.54,200L406.65,10L408.76,200L410.86,10L417.19,10L419.29,200L421.4,200L423.51,10L425.61,200L427.72,10L429.83,200L431.93,10L434.04,200L436.15,10L438.26,200L440.36,10L442.47,200L444.58,10L446.68,200L448.79,10L450.9,200L453,10L455.11,200L457.22,10L459.33,200L461.43,10L463.54,200L465.65,10L467.75,200L469.86,10L471.97,200L474.07,10L476.18,200L478.29,10L480.4,200L482.5,10L484.61,200L486.72,10L495.14,10L497.25,200L509.89,200L512,10" style="fill: rgb(133, 94, 232); fill-opacity: 1; stroke-width: 0;"/></g></g><g class="errorbars"/><g class="lines"><path class="js-line" d="M0,200L14.75,200L16.86,10L18.96,200L21.07,200L23.18,200L25.28,10L27.39,200L29.5,200L31.6,200L33.71,10L35.82,200L37.93,200L40.03,200L42.14,10L44.25,200L46.35,200L48.46,200L50.57,10L52.67,200L54.78,10L56.89,200L59,10L65.32,10L67.42,200L73.74,200L75.85,10L77.96,200L80.07,10L82.17,200L84.28,10L86.39,200L88.49,10L90.6,200L92.71,10L94.81,200L96.92,10L99.03,200L101.14,10L103.24,200L105.35,10L107.46,200L109.56,10L111.67,200L113.78,10L115.88,200L117.99,10L120.1,200L122.21,10L124.31,200L126.42,10L128.53,200L130.63,10L132.74,200L134.85,10L139.06,10L141.17,200L145.38,200L147.49,10L149.6,200L151.7,10L153.81,200L155.92,10L158.02,200L160.13,10L162.24,200L164.35,10L166.45,200L168.56,10L170.67,200L172.77,10L174.88,200L176.99,10L181.2,10L183.31,200L185.42,10L187.52,200L189.63,10L191.74,200L193.84,10L195.95,200L198.06,10L200.16,200L202.27,10L204.38,200L206.49,10L208.59,200L210.7,10L212.81,200L214.91,10L217.02,200L219.13,10L221.23,200L225.45,200L227.56,10L229.66,200L231.77,200L233.88,200L235.98,10L238.09,200L240.2,10L242.3,200L244.41,10L246.52,200L248.63,10L250.73,200L252.84,10L254.95,200L257.05,10L259.16,200L261.27,10L263.37,200L265.48,10L269.7,10L271.8,200L276.02,200L278.12,10L280.23,200L282.34,10L284.44,200L286.55,10L288.66,200L290.77,10L292.87,200L294.98,10L297.09,200L299.19,10L301.3,200L303.41,10L305.51,200L307.62,10L309.73,200L311.84,10L313.94,200L316.05,10L318.16,200L320.26,10L322.37,200L324.48,10L326.58,200L328.69,10L330.8,200L332.91,10L335.01,200L337.12,10L339.23,200L341.33,10L343.44,200L345.55,10L347.65,200L349.76,10L351.87,200L353.98,10L358.19,10L360.3,200L362.4,10L364.51,200L368.72,200L370.83,10L372.94,200L375.05,200L377.15,200L379.26,10L381.37,200L383.47,200L385.58,10L387.69,200L391.9,200L394.01,10L396.12,200L398.22,200L400.33,200L402.44,10L404.54,200L406.65,10L408.76,200L410.86,10L417.19,10L419.29,200L421.4,200L423.51,10L425.61,200L427.72,10L429.83,200L431.93,10L434.04,200L436.15,10L438.26,200L440.36,10L442.47,200L444.58,10L446.68,200L448.79,10L450.9,200L453,10L455.11,200L457.22,10L459.33,200L461.43,10L463.54,200L465.65,10L467.75,200L469.86,10L471.97,200L474.07,10L476.18,200L478.29,10L480.4,200L482.5,10L484.61,200L486.72,10L495.14,10L497.25,200L509.89,200L512,10" style="vector-effect: none; fill: none; stroke: rgb(255, 165, 0); stroke-opacity: 1; stroke-width: 0px; opacity: 1;"/></g><g class="points"/><g class="text"/></g></g></g></g><path class="xlines-above crisp" d="M0,0" style="fill: none;"/><path class="ylines-above crisp" d="M0,0" style="fill: none;"/><g class="overlines-above"/><g class="xaxislayer-above"/><g class="yaxislayer-above"/><g class="overaxes-above"/></g></g><g class="polarlayer"/><g class="smithlayer"/><g class="ternarylayer"/><g class="geolayer"/><g class="funnelarealayer"/><g class="pielayer"/><g class="iciclelayer"/><g class="treemaplayer"/><g class="sunburstlayer"/><g class="glimages"/><defs id="topdefs-712261"><g class="clips"/></defs><g class="layer-above"><g class="imagelayer"/><g class="shapelayer"/></g><g class="infolayer"><g class="g-gtitle"/></g></svg>