<svg class="main-svg" xmlns="http://www.w3.org/2000/svg" xmlns:xlink="http://www.w3.org/1999/xlink" width="512" height="200" viewBox="0 0 512 200" style=""><rect x="0" y="0" width="512" height="200" style="fill: rgb(0, 0, 0); fill-opacity: 0;"/><defs id="defs-025c2d"><g class="clips"><clipPath id="clip025c2dxyplot" class="plotclip"><rect width="512" height="200"/></clipPath><clipPath class="axesclip" id="clip025c2dx"><rect x="0" y="0" width="512" height="200"/></clipPath><clipPath class="axesclip" id="clip025c2dy"><rect x="0" y="0" width="512" height="200"/></clipPath><clipPath class="axesclip" id="clip025c2dxy"><rect x="0" y="0" width="512" height="200"/></clipPath></g><g class="gradients"/><g class="patterns"/></defs><g class="bglayer"><rect class="bg" x="0" y="0" width="512" height="200" style="fill: rgb(0, 0, 0); fill-opacity: 0; stroke-width: 0;"/></g><g class="layer-below"><g class="imagelayer"/><g class="shapelayer"/></g><g class="cartesianlayer"><g class="subplot xy"><g class="layer-subplot"><g class="shapelayer"/><g class="imagelayer"/></g><g class="minor-gridlayer"><g class="x"/><g class="y"/></g><g class="gridlayer"><g class="x"/><g class="y"/></g><g class="zerolinelayer"/><g class="layer-between"><g class="shapelayer"/><g class="imagelayer"/></g><path class="xlines-below"/><path class="ylines-below"/><g class="overlines-below"/><g class="xaxislayer-below"/><g class="yaxislayer-below"/><g class="overaxes-below"/><g class="overplot"><g class="xy" transform="" clip-path="url(#clip025c2dxyplot)"><g class="scatterlayer mlayer"><g class="trace scatter trace2f74f3" style="stroke-miterlimit: 2;"><g class="fills"><g><path class="js-fill" d="M512,200L0,200L0,188.13L21.04,10L28.05,10L35.07,128.75L42.08,69.38L49.1,10L56.11,10L63.12,128.75L70.14,67.79L77.15,10L84.16,10L91.18,128.75L98.19,69.38L105.21,10L112.22,93.13L119.23,10L126.25,10L161.32,10L168.33,45.63L175.34,10L182.36,10L217.42,10L224.44,128.75L231.45,105L238.47,116.88L245.48,140.63L252.49,200L259.51,200L266.52,175.21L273.53,80.53L280.55,45.63L287.56,10L294.58,81.25L301.59,81.25L308.6,176.25L315.62,200L322.63,200L329.64,176.25L336.66,81.25L343.67,45.63L350.68,69.38L357.7,69.38L364.71,10L490.96,10L497.97,57.5L504.99,128.75L512,152.5" style="fill: rgb(96, 165, 250); fill-opacity: 1; stroke-width: 0;"/></g></g><g class="errorbars"/><g class="lines"><path class="js-line" d="M0,188.13L21.04,10L28.05,10L35.07,128.75L42.08,69.38L49.1,10L56.11,10L63.12,128.75L70.14,67.79L77.15,10L84.16,10L91.18,128.75L98.19,69.38L105.21,10L112.22,93.13L119.23,10L126.25,10L161.32,10L168.33,45.63L175.34,10L182.36,10L217.42,10L224.44,128.75L231.45,105L238.47,116.88L245.48,140.63L252.49,200L259.51,200L266.52,175.21L273.53,80.53L280.55,45.63L287.56,10L294.58,81.25L301.59,81.25L308.6,176.25L315.62,200L322.63,200L329.64,176.25L336.66,81.25L343.67,45.63L350.68,69.38L357.7,69.38L364.71,10L490.96,10L497.97,57.5L504.99,128.75L512,152.5" style="vector-effect: none; fill: none; stroke: rgb(255, 165, 0); stroke-opacity: 1; stroke-width: 0px; opacity: 1;"/></g><g class="points"/><g class="text"/></g></g></g></g><path class="xlines-above crisp" d="M0,0" style="fill: none;"/><path class="ylines-above crisp" d="M0,0" style="fill: none;"/><g class="overlines-above"/><g class="xaxislayer-above"/><g class="yaxislayer-above"/><g class="overaxes-above"/></g></g><g class="polarlayer"/><g class="smithlayer"/><g class="ternarylayer"/><g class="geolayer"/><g class="funnelarealayer"/><g class="pielayer"/><g class="iciclelayer"/><g class="treemaplayer"/><g class="sunburstlayer"/><g class="glimages"/><defs id="topdefs-025c2d"><g class="clips"/></defs><g class="layer-above"><g class="imagelayer"/><g class="shapelayer"/></g><g class="infolayer"><g class="g-gtitle"/></g></svg>