<svg class="main-svg" xmlns="http://www.w3.org/2000/svg" xmlns:xlink="http://www.w3.org/1999/xlink" width="512" height="200" style="" viewBox="0 0 512 200"><rect x="0" y="0" width="512" height="200" style="fill: rgb(0, 0, 0); fill-opacity: 0;"/><defs id="defs-8a6e4a"><g class="clips"><clipPath id="clip8a6e4axyplot" class="plotclip"><rect width="512" height="200"/></clipPath><clipPath class="axesclip" id="clip8a6e4ax"><rect x="0" y="0" width="512" height="200"/></clipPath><clipPath class="axesclip" id="clip8a6e4ay"><rect x="0" y="0" width="512" height="200"/></clipPath><clipPath class="axesclip" id="clip8a6e4axy"><rect x="0" y="0" width="512" height="200"/></clipPath></g><g class="gradients"/><g class="patterns"/></defs><g class="bglayer"><rect class="bg" x="0" y="0" width="512" height="200" style="fill: rgb(0, 0, 0); fill-opacity: 0; stroke-width: 0;"/></g><g class="layer-below"><g class="imagelayer"/><g class="shapelayer"/></g><g class="cartesianlayer"><g class="subplot xy"><g class="layer-subplot"><g class="shapelayer"/><g class="imagelayer"/></g><g class="minor-gridlayer"><g class="x"/><g class="y"/></g><g class="gridlayer"><g class="x"/><g class="y"/></g><g class="zerolinelayer"/><g class="layer-between"><g class="shapelayer"/><g class="imagelayer"/></g><path class="xlines-below"/><path class="ylines-below"/><g class="overlines-below"/><g class="xaxislayer-below"/><g class="yaxislayer-below"/><g class="overaxes-below"/><g class="overplot"><g class="xy" transform="" clip-path="url(#clip8a6e4axyplot)"><g class="scatterlayer mlayer"><g class="trace scatter tracefa21d7" style="stroke-miterlimit: 2;"><g class="fills"><g><path class="js-fill" d="M512,200L0,200L0,200L7.01,105L14.03,105L21.04,200L28.05,105L42.08,105L49.1,200L56.11,105L63.12,105L70.14,103.85L77.15,200L84.16,105L91.18,105L98.19,105L105.21,200L112.22,200L119.23,10L126.25,105L133.26,105L161.32,105L168.33,200L175.34,105L182.36,105L224.44,105L231.45,200L259.51,200L266.52,100.83L273.53,200L280.55,105L294.58,105L301.59,200L308.6,105L315.62,200L322.63,200L329.64,105L336.66,200L343.67,105L512,105" style="fill: rgb(133, 94, 232); fill-opacity: 1; stroke-width: 0;"/></g></g><g class="errorbars"/><g class="lines"><path class="js-line" d="M0,200L7.01,105L14.03,105L21.04,200L28.05,105L42.08,105L49.1,200L56.11,105L63.12,105L70.14,103.85L77.15,200L84.16,105L91.18,105L98.19,105L105.21,200L112.22,200L119.23,10L126.25,105L133.26,105L161.32,105L168.33,200L175.34,105L182.36,105L224.44,105L231.45,200L259.51,200L266.52,100.83L273.53,200L280.55,105L294.58,105L301.59,200L308.6,105L315.62,200L322.63,200L329.64,105L336.66,200L343.67,105L512,105" style="vector-effect: none; fill: none; stroke: rgb(255, 165, 0); stroke-opacity: 1; stroke-width: 0px; opacity: 1;"/></g><g class="points"/><g class="text"/></g></g></g></g><path class="xlines-above crisp" d="M0,0" style="fill: none;"/><path class="ylines-above crisp" d="M0,0" style="fill: none;"/><g class="overlines-above"/><g class="xaxislayer-above"/><g class="yaxislayer-above"/><g class="overaxes-above"/></g></g><g class="polarlayer"/><g class="smithlayer"/><g class="ternarylayer"/><g class="geolayer"/><g class="funnelarealayer"/><g class="pielayer"/><g class="iciclelayer"/><g class="treemaplayer"/><g class="sunburstlayer"/><g class="glimages"/><defs id="topdefs-8a6e4a"><g class="clips"/></defs><g class="layer-above"><g class="imagelayer"/><g class="shapelayer"/></g><g class="infolayer"><g class="g-gtitle"/></g></svg>