<svg class="main-svg" xmlns="http://www.w3.org/2000/svg" xmlns:xlink="http://www.w3.org/1999/xlink" width="512" height="200" viewBox="0 0 512 200" style=""><rect x="0" y="0" width="512" height="200" style="fill: rgb(0, 0, 0); fill-opacity: 0;"/><defs id="defs-b29cff"><g class="clips"><clipPath id="clipb29cffxyplot" class="plotclip"><rect width="512" height="200"/></clipPath><clipPath class="axesclip" id="clipb29cffx"><rect x="0" y="0" width="512" height="200"/></clipPath><clipPath class="axesclip" id="clipb29cffy"><rect x="0" y="0" width="512" height="200"/></clipPath><clipPath class="axesclip" id="clipb29cffxy"><rect x="0" y="0" width="512" height="200"/></clipPath></g><g class="gradients"/><g class="patterns"/></defs><g class="bglayer"><rect class="bg" x="0" y="0" width="512" height="200" style="fill: rgb(0, 0, 0); fill-opacity: 0; stroke-width: 0;"/></g><g class="layer-below"><g class="imagelayer"/><g class="shapelayer"/></g><g class="cartesianlayer"><g class="subplot xy"><g class="layer-subplot"><g class="shapelayer"/><g class="imagelayer"/></g><g class="minor-gridlayer"><g class="x"/><g class="y"/></g><g class="gridlayer"><g class="x"/><g class="y"/></g><g class="zerolinelayer"/><g class="layer-between"><g class="shapelayer"/><g class="imagelayer"/></g><path class="xlines-below"/><path class="ylines-below"/><g class="overlines-below"/><g class="xaxislayer-below"/><g class="yaxislayer-below"/><g class="overaxes-below"/><g class="overplot"><g class="xy" transform="" clip-path="url(#clipb29cffxyplot)"><g class="scatterlayer mlayer"><g class="trace scatter traceb784cd" style="stroke-miterlimit: 2;"><g class="fills"><g><path class="js-fill" d="M512,200L0,200L0,200L13.96,200L18.62,188.13L23.27,176.25L27.93,188.13L32.58,188.13L37.24,176.25L41.89,188.13L46.55,188.13L51.2,140.63L55.85,176.25L60.51,176.25L65.16,152.5L69.82,176.25L74.47,152.5L79.13,176.25L83.78,164.38L88.44,105L93.09,10L218.76,10L223.42,164.38L228.07,140.63L232.73,10L381.67,10L386.33,188.13L390.98,10L395.64,10L502.69,10L507.35,188.13L512,200" style="fill: rgb(96, 165, 250); fill-opacity: 1; stroke-width: 0;"/></g></g><g class="errorbars"/><g class="lines"><path class="js-line" d="M0,200L13.96,200L18.62,188.13L23.27,176.25L27.93,188.13L32.58,188.13L37.24,176.25L41.89,188.13L46.55,188.13L51.2,140.63L55.85,176.25L60.51,176.25L65.16,152.5L69.82,176.25L74.47,152.5L79.13,176.25L83.78,164.38L88.44,105L93.09,10L218.76,10L223.42,164.38L228.07,140.63L232.73,10L381.67,10L386.33,188.13L390.98,10L395.64,10L502.69,10L507.35,188.13L512,200" style="vector-effect: none; fill: none; stroke: rgb(255, 165, 0); stroke-opacity: 1; stroke-width: 0px; opacity: 1;"/></g><g class="points"/><g class="text"/></g></g></g></g><path class="xlines-above crisp" d="M0,0" style="fill: none;"/><path class="ylines-above crisp" d="M0,0" style="fill: none;"/><g class="overlines-above"/><g class="xaxislayer-above"/><g class="yaxislayer-above"/><g class="overaxes-above"/></g></g><g class="polarlayer"/><g class="smithlayer"/><g class="ternarylayer"/><g class="geolayer"/><g class="funnelarealayer"/><g class="pielayer"/><g class="iciclelayer"/><g class="treemaplayer"/><g class="sunburstlayer"/><g class="glimages"/><defs id="topdefs-b29cff"><g class="clips"/></defs><g class="layer-above"><g class="imagelayer"/><g class="shapelayer"/></g><g class="infolayer"><g class="g-gtitle"/></g></svg>