<svg class="main-svg" xmlns="http://www.w3.org/2000/svg" xmlns:xlink="http://www.w3.org/1999/xlink" width="512" height="200" style="" viewBox="0 0 512 200"><rect x="0" y="0" width="512" height="200" style="fill: rgb(0, 0, 0); fill-opacity: 0;"/><defs id="defs-b0ca0c"><g class="clips"><clipPath id="clipb0ca0cxyplot" class="plotclip"><rect width="512" height="200"/></clipPath><clipPath class="axesclip" id="clipb0ca0cx"><rect x="0" y="0" width="512" height="200"/></clipPath><clipPath class="axesclip" id="clipb0ca0cy"><rect x="0" y="0" width="512" height="200"/></clipPath><clipPath class="axesclip" id="clipb0ca0cxy"><rect x="0" y="0" width="512" height="200"/></clipPath></g><g class="gradients"/><g class="patterns"/></defs><g class="bglayer"><rect class="bg" x="0" y="0" width="512" height="200" style="fill: rgb(0, 0, 0); fill-opacity: 0; stroke-width: 0;"/></g><g class="layer-below"><g class="imagelayer"/><g class="shapelayer"/></g><g class="cartesianlayer"><g class="subplot xy"><g class="layer-subplot"><g class="shapelayer"/><g class="imagelayer"/></g><g class="minor-gridlayer"><g class="x"/><g class="y"/></g><g class="gridlayer"><g class="x"/><g class="y"/></g><g class="zerolinelayer"/><g class="layer-between"><g class="shapelayer"/><g class="imagelayer"/></g><path class="xlines-below"/><path class="ylines-below"/><g class="overlines-below"/><g class="xaxislayer-below"/><g class="yaxislayer-below"/><g class="overaxes-below"/><g class="overplot"><g class="xy" transform="" clip-path="url(#clipb0ca0cxyplot)"><g class="scatterlayer mlayer"><g class="trace scatter trace9b5f1d" style="stroke-miterlimit: 2;"><g class="fills"><g><path class="js-fill" d="M512,200L0,200L0,200L40.21,200L42.89,10L77.74,10L80.42,176.25L83.1,200L85.78,105L158.16,105L160.84,128.75L163.52,140.63L166.2,176.25L168.88,200L171.56,10L211.77,10L214.45,57.5L217.13,10L219.81,10L254.66,10L257.34,105L329.72,105L332.4,176.25L337.76,176.25L340.44,200L343.12,152.5L345.8,176.25L348.48,176.25L351.16,164.38L353.84,128.75L356.52,128.75L359.2,128.75L361.88,105L364.57,93.12L367.25,57.5L372.61,57.5L375.29,188.13L377.97,200L380.65,188.13L383.33,200L386.01,10L426.22,10L428.9,57.5L431.58,10L434.26,10L501.28,10L503.96,128.75L506.64,164.38L509.32,116.87L512,105" style="fill: rgb(239, 68, 68); fill-opacity: 1; stroke-width: 0;"/></g></g><g class="errorbars"/><g class="lines"><path class="js-line" d="M0,200L40.21,200L42.89,10L77.74,10L80.42,176.25L83.1,200L85.78,105L158.16,105L160.84,128.75L163.52,140.63L166.2,176.25L168.88,200L171.56,10L211.77,10L214.45,57.5L217.13,10L219.81,10L254.66,10L257.34,105L329.72,105L332.4,176.25L337.76,176.25L340.44,200L343.12,152.5L345.8,176.25L348.48,176.25L351.16,164.38L353.84,128.75L356.52,128.75L359.2,128.75L361.88,105L364.57,93.12L367.25,57.5L372.61,57.5L375.29,188.13L377.97,200L380.65,188.13L383.33,200L386.01,10L426.22,10L428.9,57.5L431.58,10L434.26,10L501.28,10L503.96,128.75L506.64,164.38L509.32,116.87L512,105" style="vector-effect: none; fill: none; stroke: rgb(255, 165, 0); stroke-opacity: 1; stroke-width: 0px; opacity: 1;"/></g><g class="points"/><g class="text"/></g></g></g></g><path class="xlines-above crisp" d="M0,0" style="fill: none;"/><path class="ylines-above crisp" d="M0,0" style="fill: none;"/><g class="overlines-above"/><g class="xaxislayer-above"/><g class="yaxislayer-above"/><g class="overaxes-above"/></g></g><g class="polarlayer"/><g class="smithlayer"/><g class="ternarylayer"/><g class="geolayer"/><g class="funnelarealayer"/><g class="pielayer"/><g class="iciclelayer"/><g class="treemaplayer"/><g class="sunburstlayer"/><g class="glimages"/><defs id="topdefs-b0ca0c"><g class="clips"/></defs><g class="layer-above"><g class="imagelayer"/><g class="shapelayer"/></g><g class="infolayer"><g class="g-gtitle"/></g></svg>