<svg class="main-svg" xmlns="http://www.w3.org/2000/svg" xmlns:xlink="http://www.w3.org/1999/xlink" width="512" height="200" style="" viewBox="0 0 512 200"><rect x="0" y="0" width="512" height="200" style="fill: rgb(0, 0, 0); fill-opacity: 0;"/><defs id="defs-029df3"><g class="clips"><clipPath id="clip029df3xyplot" class="plotclip"><rect width="512" height="200"/></clipPath><clipPath class="axesclip" id="clip029df3x"><rect x="0" y="0" width="512" height="200"/></clipPath><clipPath class="axesclip" id="clip029df3y"><rect x="0" y="0" width="512" height="200"/></clipPath><clipPath class="axesclip" id="clip029df3xy"><rect x="0" y="0" width="512" height="200"/></clipPath></g><g class="gradients"/><g class="patterns"/></defs><g class="bglayer"><rect class="bg" x="0" y="0" width="512" height="200" style="fill: rgb(0, 0, 0); fill-opacity: 0; stroke-width: 0;"/></g><g class="layer-below"><g class="imagelayer"/><g class="shapelayer"/></g><g class="cartesianlayer"><g class="subplot xy"><g class="layer-subplot"><g class="shapelayer"/><g class="imagelayer"/></g><g class="minor-gridlayer"><g class="x"/><g class="y"/></g><g class="gridlayer"><g class="x"/><g class="y"/></g><g class="zerolinelayer"/><g class="layer-between"><g class="shapelayer"/><g class="imagelayer"/></g><path class="xlines-below"/><path class="ylines-below"/><g class="overlines-below"/><g class="xaxislayer-below"/><g class="yaxislayer-below"/><g class="overaxes-below"/><g class="overplot"><g class="xy" transform="" clip-path="url(#clip029df3xyplot)"><g class="scatterlayer mlayer"><g class="trace scatter trace382dd4" style="stroke-miterlimit: 2;"><g class="fills"><g><path class="js-fill" d="M512,200L0,200L0,200L40.85,200L43.57,10L46.3,200L49.02,10L51.74,200L54.47,10L57.19,200L59.91,10L62.64,200L65.36,10L68.09,200L70.81,10L73.53,200L76.26,10L78.98,200L81.7,10L84.43,200L87.15,10L89.87,200L92.6,10L95.32,200L98.04,10L100.77,200L103.49,10L106.21,200L108.94,10L111.66,200L114.38,10L117.11,200L119.83,10L122.55,200L125.28,10L128,200L130.72,10L133.45,200L136.17,10L138.89,200L141.62,10L144.34,200L147.06,10L149.79,200L152.51,10L155.23,200L157.96,10L160.68,200L163.4,10L166.13,200L168.85,200L171.57,200L174.3,10L177.02,200L179.74,10L182.47,200L185.19,10L187.91,200L190.64,10L193.36,200L196.09,10L198.81,200L201.53,10L204.26,200L206.98,10L209.7,200L212.43,10L215.15,200L217.87,10L220.6,200L223.32,10L226.04,200L228.77,10L231.49,200L234.21,10L236.94,200L239.66,10L242.38,200L245.11,10L247.83,200L250.55,10L253.28,200L256,10L258.72,200L261.45,10L264.17,200L266.89,10L269.62,200L272.34,10L275.06,200L277.79,10L280.51,200L283.23,10L285.96,200L288.68,10L291.4,200L294.13,10L296.85,200L299.57,10L302.3,200L305.02,10L307.74,200L310.47,10L313.19,200L315.91,10L318.64,200L321.36,10L324.09,200L326.81,10L329.53,200L332.26,10L334.98,200L337.7,10L340.43,200L343.15,200L378.55,200L381.28,10L384,200L386.72,200L389.45,200L392.17,10L394.89,200L397.62,10L400.34,200L403.06,10L405.79,200L408.51,10L411.23,200L413.96,10L416.68,200L419.4,10L422.13,200L424.85,10L427.57,200L430.3,10L433.02,200L435.74,10L438.47,200L441.19,10L443.91,200L446.64,10L449.36,200L452.09,10L454.81,200L457.53,10L460.26,200L462.98,10L465.7,200L468.43,10L471.15,200L473.87,10L476.6,200L479.32,10L482.04,200L484.77,10L487.49,200L490.21,10L492.94,200L495.66,10L498.38,200L501.11,10L503.83,200L506.55,10L509.28,200L512,10" style="fill: rgb(133, 94, 232); fill-opacity: 1; stroke-width: 0;"/></g></g><g class="errorbars"/><g class="lines"><path class="js-line" d="M0,200L40.85,200L43.57,10L46.3,200L49.02,10L51.74,200L54.47,10L57.19,200L59.91,10L62.64,200L65.36,10L68.09,200L70.81,10L73.53,200L76.26,10L78.98,200L81.7,10L84.43,200L87.15,10L89.87,200L92.6,10L95.32,200L98.04,10L100.77,200L103.49,10L106.21,200L108.94,10L111.66,200L114.38,10L117.11,200L119.83,10L122.55,200L125.28,10L128,200L130.72,10L133.45,200L136.17,10L138.89,200L141.62,10L144.34,200L147.06,10L149.79,200L152.51,10L155.23,200L157.96,10L160.68,200L163.4,10L166.13,200L168.85,200L171.57,200L174.3,10L177.02,200L179.74,10L182.47,200L185.19,10L187.91,200L190.64,10L193.36,200L196.09,10L198.81,200L201.53,10L204.26,200L206.98,10L209.7,200L212.43,10L215.15,200L217.87,10L220.6,200L223.32,10L226.04,200L228.77,10L231.49,200L234.21,10L236.94,200L239.66,10L242.38,200L245.11,10L247.83,200L250.55,10L253.28,200L256,10L258.72,200L261.45,10L264.17,200L266.89,10L269.62,200L272.34,10L275.06,200L277.79,10L280.51,200L283.23,10L285.96,200L288.68,10L291.4,200L294.13,10L296.85,200L299.57,10L302.3,200L305.02,10L307.74,200L310.47,10L313.19,200L315.91,10L318.64,200L321.36,10L324.09,200L326.81,10L329.53,200L332.26,10L334.98,200L337.7,10L340.43,200L343.15,200L378.55,200L381.28,10L384,200L386.72,200L389.45,200L392.17,10L394.89,200L397.62,10L400.34,200L403.06,10L405.79,200L408.51,10L411.23,200L413.96,10L416.68,200L419.4,10L422.13,200L424.85,10L427.57,200L430.3,10L433.02,200L435.74,10L438.47,200L441.19,10L443.91,200L446.64,10L449.36,200L452.09,10L454.81,200L457.53,10L460.26,200L462.98,10L465.7,200L468.43,10L471.15,200L473.87,10L476.6,200L479.32,10L482.04,200L484.77,10L487.49,200L490.21,10L492.94,200L495.66,10L498.38,200L501.11,10L503.83,200L506.55,10L509.28,200L512,10" style="vector-effect: none; fill: none; stroke: rgb(255, 165, 0); stroke-opacity: 1; stroke-width: 0px; opacity: 1;"/></g><g class="points"/><g class="text"/></g></g></g></g><path class="xlines-above crisp" d="M0,0" style="fill: none;"/><path class="ylines-above crisp" d="M0,0" style="fill: none;"/><g class="overlines-above"/><g class="xaxislayer-above"/><g class="yaxislayer-above"/><g class="overaxes-above"/></g></g><g class="polarlayer"/><g class="smithlayer"/><g class="ternarylayer"/><g class="geolayer"/><g class="funnelarealayer"/><g class="pielayer"/><g class="iciclelayer"/><g class="treemaplayer"/><g class="sunburstlayer"/><g class="glimages"/><defs id="topdefs-029df3"><g class="clips"/></defs><g class="layer-above"><g class="imagelayer"/><g class="shapelayer"/></g><g class="infolayer"><g class="g-gtitle"/></g></svg>