<svg class="main-svg" xmlns="http://www.w3.org/2000/svg" xmlns:xlink="http://www.w3.org/1999/xlink" width="512" height="200" style="" viewBox="0 0 512 200"><rect x="0" y="0" width="512" height="200" style="fill: rgb(0, 0, 0); fill-opacity: 0;"/><defs id="defs-227ca2"><g class="clips"><clipPath id="clip227ca2xyplot" class="plotclip"><rect width="512" height="200"/></clipPath><clipPath class="axesclip" id="clip227ca2x"><rect x="0" y="0" width="512" height="200"/></clipPath><clipPath class="axesclip" id="clip227ca2y"><rect x="0" y="0" width="512" height="200"/></clipPath><clipPath class="axesclip" id="clip227ca2xy"><rect x="0" y="0" width="512" height="200"/></clipPath></g><g class="gradients"/><g class="patterns"/></defs><g class="bglayer"><rect class="bg" x="0" y="0" width="512" height="200" style="fill: rgb(0, 0, 0); fill-opacity: 0; stroke-width: 0;"/></g><g class="layer-below"><g class="imagelayer"/><g class="shapelayer"/></g><g class="cartesianlayer"><g class="subplot xy"><g class="layer-subplot"><g class="shapelayer"/><g class="imagelayer"/></g><g class="minor-gridlayer"><g class="x"/><g class="y"/></g><g class="gridlayer"><g class="x"/><g class="y"/></g><g class="zerolinelayer"/><g class="layer-between"><g class="shapelayer"/><g class="imagelayer"/></g><path class="xlines-below"/><path class="ylines-below"/><g class="overlines-below"/><g class="xaxislayer-below"/><g class="yaxislayer-below"/><g class="overaxes-below"/><g class="overplot"><g class="xy" transform="" clip-path="url(#clip227ca2xyplot)"><g class="scatterlayer mlayer"><g class="trace scatter trace18ca70" style="stroke-miterlimit: 2;"><g class="fills"><g><path class="js-fill" d="M512,200L0,200L0,200L22.4,200L25.6,10L28.8,200L32,10L35.2,200L38.4,10L41.6,200L44.8,10L48,200L51.2,200L73.6,200L76.8,10L128,10L131.2,200L150.4,200L153.6,10L156.8,200L160,10L163.2,200L166.4,10L169.6,200L172.8,10L176,200L179.2,10L182.4,200L185.6,10L188.8,200L192,10L195.2,200L198.4,10L201.6,200L204.8,10L384,10L387.2,200L390.4,10L393.6,200L396.8,10L400,200L403.2,10L406.4,200L409.6,10L412.8,200L416,10L419.2,200L422.4,10L425.6,200L428.8,10L432,200L435.2,10L438.4,10L512,10" style="fill: rgb(133, 94, 232); fill-opacity: 1; stroke-width: 0;"/></g></g><g class="errorbars"/><g class="lines"><path class="js-line" d="M0,200L22.4,200L25.6,10L28.8,200L32,10L35.2,200L38.4,10L41.6,200L44.8,10L48,200L51.2,200L73.6,200L76.8,10L128,10L131.2,200L150.4,200L153.6,10L156.8,200L160,10L163.2,200L166.4,10L169.6,200L172.8,10L176,200L179.2,10L182.4,200L185.6,10L188.8,200L192,10L195.2,200L198.4,10L201.6,200L204.8,10L384,10L387.2,200L390.4,10L393.6,200L396.8,10L400,200L403.2,10L406.4,200L409.6,10L412.8,200L416,10L419.2,200L422.4,10L425.6,200L428.8,10L432,200L435.2,10L438.4,10L512,10" style="vector-effect: none; fill: none; stroke: rgb(255, 165, 0); stroke-opacity: 1; stroke-width: 0px; opacity: 1;"/></g><g class="points"/><g class="text"/></g></g></g></g><path class="xlines-above crisp" d="M0,0" style="fill: none;"/><path class="ylines-above crisp" d="M0,0" style="fill: none;"/><g class="overlines-above"/><g class="xaxislayer-above"/><g class="yaxislayer-above"/><g class="overaxes-above"/></g></g><g class="polarlayer"/><g class="smithlayer"/><g class="ternarylayer"/><g class="geolayer"/><g class="funnelarealayer"/><g class="pielayer"/><g class="iciclelayer"/><g class="treemaplayer"/><g class="sunburstlayer"/><g class="glimages"/><defs id="topdefs-227ca2"><g class="clips"/></defs><g class="layer-above"><g class="imagelayer"/><g class="shapelayer"/></g><g class="infolayer"><g class="g-gtitle"/></g></svg>