<svg class="main-svg" xmlns="http://www.w3.org/2000/svg" xmlns:xlink="http://www.w3.org/1999/xlink" width="512" height="200" viewBox="0 0 512 200" style=""><rect x="0" y="0" width="512" height="200" style="fill: rgb(0, 0, 0); fill-opacity: 0;"/><defs id="defs-57112e"><g class="clips"><clipPath id="clip57112exyplot" class="plotclip"><rect width="512" height="200"/></clipPath><clipPath class="axesclip" id="clip57112ex"><rect x="0" y="0" width="512" height="200"/></clipPath><clipPath class="axesclip" id="clip57112ey"><rect x="0" y="0" width="512" height="200"/></clipPath><clipPath class="axesclip" id="clip57112exy"><rect x="0" y="0" width="512" height="200"/></clipPath></g><g class="gradients"/><g class="patterns"/></defs><g class="bglayer"><rect class="bg" x="0" y="0" width="512" height="200" style="fill: rgb(0, 0, 0); fill-opacity: 0; stroke-width: 0;"/></g><g class="layer-below"><g class="imagelayer"/><g class="shapelayer"/></g><g class="cartesianlayer"><g class="subplot xy"><g class="layer-subplot"><g class="shapelayer"/><g class="imagelayer"/></g><g class="minor-gridlayer"><g class="x"/><g class="y"/></g><g class="gridlayer"><g class="x"/><g class="y"/></g><g class="zerolinelayer"/><g class="layer-between"><g class="shapelayer"/><g class="imagelayer"/></g><path class="xlines-below"/><path class="ylines-below"/><g class="overlines-below"/><g class="xaxislayer-below"/><g class="yaxislayer-below"/><g class="overaxes-below"/><g class="overplot"><g class="xy" transform="" clip-path="url(#clip57112exyplot)"><g class="scatterlayer mlayer"><g class="trace scatter trace1e64c1" style="stroke-miterlimit: 2;"><g class="fills"><g><path class="js-fill" d="M512,200L0,200L0,140.63L3.05,152.5L6.1,140.63L9.14,152.5L12.19,140.63L15.24,152.5L18.29,140.63L21.33,152.5L24.38,105L42.67,105L45.71,188.13L48.76,176.25L51.81,176.25L54.86,188.13L57.9,140.63L60.95,200L64,176.25L67.05,176.25L70.1,188.13L73.14,10L76.19,10L118.86,10L121.9,176.25L124.95,176.25L128,188.13L131.05,140.63L134.1,200L137.14,176.25L140.19,176.25L143.24,188.13L146.29,176.25L149.33,176.25L152.38,188.13L155.43,140.63L158.48,200L161.52,176.25L164.57,176.25L167.62,188.13L170.67,140.63L173.71,140.63L176.76,152.5L179.81,152.5L182.86,140.63L185.9,140.63L188.95,152.5L192,152.5L195.05,10L216.38,10L219.43,105L240.76,105L243.81,140.63L246.86,105L249.9,105L313.9,105L316.95,10L362.67,10L365.71,140.63L368.76,152.5L371.81,140.63L374.86,152.5L377.9,140.63L380.95,152.5L384,140.63L390.1,164.38L393.14,164.38L396.19,152.5L399.24,164.38L402.29,164.38L405.33,152.5L411.43,176.25L414.48,164.38L417.52,140.63L420.57,140.63L423.62,140.63L426.67,105L429.71,105L432.76,10L435.81,10L438.86,105L460.19,105L463.24,10L484.57,10L487.62,176.25L490.67,176.25L493.71,188.13L496.76,140.63L499.81,200L502.86,176.25L505.9,176.25L512,200" style="fill: rgb(253, 224, 71); fill-opacity: 1; stroke-width: 0;"/></g></g><g class="errorbars"/><g class="lines"><path class="js-line" d="M0,140.63L3.05,152.5L6.1,140.63L9.14,152.5L12.19,140.63L15.24,152.5L18.29,140.63L21.33,152.5L24.38,105L42.67,105L45.71,188.13L48.76,176.25L51.81,176.25L54.86,188.13L57.9,140.63L60.95,200L64,176.25L67.05,176.25L70.1,188.13L73.14,10L76.19,10L118.86,10L121.9,176.25L124.95,176.25L128,188.13L131.05,140.63L134.1,200L137.14,176.25L140.19,176.25L143.24,188.13L146.29,176.25L149.33,176.25L152.38,188.13L155.43,140.63L158.48,200L161.52,176.25L164.57,176.25L167.62,188.13L170.67,140.63L173.71,140.63L176.76,152.5L179.81,152.5L182.86,140.63L185.9,140.63L188.95,152.5L192,152.5L195.05,10L216.38,10L219.43,105L240.76,105L243.81,140.63L246.86,105L249.9,105L313.9,105L316.95,10L362.67,10L365.71,140.63L368.76,152.5L371.81,140.63L374.86,152.5L377.9,140.63L380.95,152.5L384,140.63L390.1,164.38L393.14,164.38L396.19,152.5L399.24,164.38L402.29,164.38L405.33,152.5L411.43,176.25L414.48,164.38L417.52,140.63L420.57,140.63L423.62,140.63L426.67,105L429.71,105L432.76,10L435.81,10L438.86,105L460.19,105L463.24,10L484.57,10L487.62,176.25L490.67,176.25L493.71,188.13L496.76,140.63L499.81,200L502.86,176.25L505.9,176.25L512,200" style="vector-effect: none; fill: none; stroke: rgb(255, 165, 0); stroke-opacity: 1; stroke-width: 0px; opacity: 1;"/></g><g class="points"/><g class="text"/></g></g></g></g><path class="xlines-above crisp" d="M0,0" style="fill: none;"/><path class="ylines-above crisp" d="M0,0" style="fill: none;"/><g class="overlines-above"/><g class="xaxislayer-above"/><g class="yaxislayer-above"/><g class="overaxes-above"/></g></g><g class="polarlayer"/><g class="smithlayer"/><g class="ternarylayer"/><g class="geolayer"/><g class="funnelarealayer"/><g class="pielayer"/><g class="iciclelayer"/><g class="treemaplayer"/><g class="sunburstlayer"/><g class="glimages"/><defs id="topdefs-57112e"><g class="clips"/></defs><g class="layer-above"><g class="imagelayer"/><g class="shapelayer"/></g><g class="infolayer"><g class="g-gtitle"/></g></svg>