<svg class="main-svg" xmlns="http://www.w3.org/2000/svg" xmlns:xlink="http://www.w3.org/1999/xlink" width="512" height="200" viewBox="0 0 512 200" style=""><rect x="0" y="0" width="512" height="200" style="fill: rgb(0, 0, 0); fill-opacity: 0;"/><defs id="defs-cb2e89"><g class="clips"><clipPath id="clipcb2e89xyplot" class="plotclip"><rect width="512" height="200"/></clipPath><clipPath class="axesclip" id="clipcb2e89x"><rect x="0" y="0" width="512" height="200"/></clipPath><clipPath class="axesclip" id="clipcb2e89y"><rect x="0" y="0" width="512" height="200"/></clipPath><clipPath class="axesclip" id="clipcb2e89xy"><rect x="0" y="0" width="512" height="200"/></clipPath></g><g class="gradients"/><g class="patterns"/></defs><g class="bglayer"><rect class="bg" x="0" y="0" width="512" height="200" style="fill: rgb(0, 0, 0); fill-opacity: 0; stroke-width: 0;"/></g><g class="layer-below"><g class="imagelayer"/><g class="shapelayer"/></g><g class="cartesianlayer"><g class="subplot xy"><g class="layer-subplot"><g class="shapelayer"/><g class="imagelayer"/></g><g class="minor-gridlayer"><g class="x"/><g class="y"/></g><g class="gridlayer"><g class="x"/><g class="y"/></g><g class="zerolinelayer"/><g class="layer-between"><g class="shapelayer"/><g class="imagelayer"/></g><path class="xlines-below"/><path class="ylines-below"/><g class="overlines-below"/><g class="xaxislayer-below"/><g class="yaxislayer-below"/><g class="overaxes-below"/><g class="overplot"><g class="xy" transform="" clip-path="url(#clipcb2e89xyplot)"><g class="scatterlayer mlayer"><g class="trace scatter traceef1511" style="stroke-miterlimit: 2;"><g class="fills"><g><path class="js-fill" d="M512,200L0,200L0,81.25L3.05,105L6.1,81.25L9.14,105L12.19,81.25L15.24,105L18.29,81.25L21.33,105L24.38,10L42.67,10L45.71,176.25L48.76,152.5L51.81,152.5L54.86,176.25L57.9,81.25L60.95,200L64,152.5L67.05,152.5L70.1,176.25L73.14,10L76.19,10L118.86,10L121.9,152.5L124.95,152.5L128,176.25L131.05,81.25L134.1,200L137.14,152.5L140.19,152.5L143.24,176.25L146.29,152.5L149.33,152.5L152.38,176.25L155.43,81.25L158.48,200L161.52,152.5L164.57,152.5L167.62,176.25L170.67,81.25L173.71,81.25L176.76,105L179.81,105L182.86,81.25L185.9,81.25L188.95,105L192,105L195.05,10L240.76,10L243.81,81.25L246.86,10L249.9,10L362.67,10L365.71,81.25L368.76,105L371.81,81.25L374.86,105L377.9,81.25L380.95,105L384,81.25L390.1,128.75L393.14,128.75L396.19,105L399.24,128.75L402.29,128.75L405.33,105L411.43,152.5L414.48,128.75L417.52,81.25L420.57,81.25L423.62,81.25L426.67,10L484.57,10L487.62,152.5L490.67,152.5L493.71,176.25L496.76,81.25L499.81,200L502.86,152.5L505.9,152.5L512,200" style="fill: rgb(74, 222, 128); fill-opacity: 1; stroke-width: 0;"/></g></g><g class="errorbars"/><g class="lines"><path class="js-line" d="M0,81.25L3.05,105L6.1,81.25L9.14,105L12.19,81.25L15.24,105L18.29,81.25L21.33,105L24.38,10L42.67,10L45.71,176.25L48.76,152.5L51.81,152.5L54.86,176.25L57.9,81.25L60.95,200L64,152.5L67.05,152.5L70.1,176.25L73.14,10L76.19,10L118.86,10L121.9,152.5L124.95,152.5L128,176.25L131.05,81.25L134.1,200L137.14,152.5L140.19,152.5L143.24,176.25L146.29,152.5L149.33,152.5L152.38,176.25L155.43,81.25L158.48,200L161.52,152.5L164.57,152.5L167.62,176.25L170.67,81.25L173.71,81.25L176.76,105L179.81,105L182.86,81.25L185.9,81.25L188.95,105L192,105L195.05,10L240.76,10L243.81,81.25L246.86,10L249.9,10L362.67,10L365.71,81.25L368.76,105L371.81,81.25L374.86,105L377.9,81.25L380.95,105L384,81.25L390.1,128.75L393.14,128.75L396.19,105L399.24,128.75L402.29,128.75L405.33,105L411.43,152.5L414.48,128.75L417.52,81.25L420.57,81.25L423.62,81.25L426.67,10L484.57,10L487.62,152.5L490.67,152.5L493.71,176.25L496.76,81.25L499.81,200L502.86,152.5L505.9,152.5L512,200" style="vector-effect: none; fill: none; stroke: rgb(255, 165, 0); stroke-opacity: 1; stroke-width: 0px; opacity: 1;"/></g><g class="points"/><g class="text"/></g></g></g></g><path class="xlines-above crisp" d="M0,0" style="fill: none;"/><path class="ylines-above crisp" d="M0,0" style="fill: none;"/><g class="overlines-above"/><g class="xaxislayer-above"/><g class="yaxislayer-above"/><g class="overaxes-above"/></g></g><g class="polarlayer"/><g class="smithlayer"/><g class="ternarylayer"/><g class="geolayer"/><g class="funnelarealayer"/><g class="pielayer"/><g class="iciclelayer"/><g class="treemaplayer"/><g class="sunburstlayer"/><g class="glimages"/><defs id="topdefs-cb2e89"><g class="clips"/></defs><g class="layer-above"><g class="imagelayer"/><g class="shapelayer"/></g><g class="infolayer"><g class="g-gtitle"/></g></svg>