<svg class="main-svg" xmlns="http://www.w3.org/2000/svg" xmlns:xlink="http://www.w3.org/1999/xlink" width="512" height="200" viewBox="0 0 512 200" style=""><rect x="0" y="0" width="512" height="200" style="fill: rgb(0, 0, 0); fill-opacity: 0;"/><defs id="defs-c7bf22"><g class="clips"><clipPath id="clipc7bf22xyplot" class="plotclip"><rect width="512" height="200"/></clipPath><clipPath class="axesclip" id="clipc7bf22x"><rect x="0" y="0" width="512" height="200"/></clipPath><clipPath class="axesclip" id="clipc7bf22y"><rect x="0" y="0" width="512" height="200"/></clipPath><clipPath class="axesclip" id="clipc7bf22xy"><rect x="0" y="0" width="512" height="200"/></clipPath></g><g class="gradients"/><g class="patterns"/></defs><g class="bglayer"><rect class="bg" x="0" y="0" width="512" height="200" style="fill: rgb(0, 0, 0); fill-opacity: 0; stroke-width: 0;"/></g><g class="layer-below"><g class="imagelayer"/><g class="shapelayer"/></g><g class="cartesianlayer"><g class="subplot xy"><g class="layer-subplot"><g class="shapelayer"/><g class="imagelayer"/></g><g class="minor-gridlayer"><g class="x"/><g class="y"/></g><g class="gridlayer"><g class="x"/><g class="y"/></g><g class="zerolinelayer"/><g class="layer-between"><g class="shapelayer"/><g class="imagelayer"/></g><path class="xlines-below"/><path class="ylines-below"/><g class="overlines-below"/><g class="xaxislayer-below"/><g class="yaxislayer-below"/><g class="overaxes-below"/><g class="overplot"><g class="xy" transform="" clip-path="url(#clipc7bf22xyplot)"><g class="scatterlayer mlayer"><g class="trace scatter trace355298" style="stroke-miterlimit: 2;"><g class="fills"><g><path class="js-fill" d="M512,200L0,200L0,176.25L11.46,176.25L15.28,164.37L19.1,176.25L22.93,176.25L26.75,176.25L30.57,105L34.39,105L38.21,176.25L42.03,176.25L45.85,164.37L49.67,176.25L53.49,176.25L57.31,176.25L61.13,116.87L64.96,105L68.78,116.87L72.6,105L76.42,116.87L80.24,105L84.06,116.87L87.88,105L91.7,116.87L95.52,105L99.34,116.87L103.16,105L106.99,116.87L110.81,188.12L114.63,200L118.45,200L122.27,116.87L126.09,105L129.91,116.87L133.73,105L137.55,116.87L141.37,105L145.19,116.87L149.01,10L152.84,116.87L156.66,105L160.48,116.87L164.3,105L168.12,116.87L171.94,105L175.76,116.87L179.58,45.63L183.4,45.63L187.22,10L191.04,10L210.15,10L213.97,45.63L217.79,10L221.61,10L236.9,10L240.72,45.63L244.54,176.25L248.36,176.25L256,176.25L259.82,164.37L263.64,176.25L267.46,176.25L271.28,176.25L275.1,105L278.93,105L282.75,176.25L286.57,176.25L290.39,164.37L294.21,176.25L298.03,176.25L301.85,176.25L305.67,116.87L309.49,105L313.31,116.87L317.13,105L320.96,116.87L324.78,105L328.6,116.87L332.42,105L336.24,116.87L340.06,105L343.88,116.87L347.7,105L351.52,116.87L355.34,188.12L359.16,200L362.99,200L366.81,45.63L370.63,81.25L374.45,57.5L378.27,57.5L382.09,45.63L385.91,81.25L389.73,57.5L393.55,10L397.37,45.63L401.19,81.25L405.01,57.5L408.84,57.5L412.66,45.63L416.48,81.25L420.3,57.5L424.12,45.63L427.94,69.37L431.76,45.63L435.58,10L439.4,10L443.22,45.63L447.04,45.63L450.87,10L454.69,10L458.51,45.63L462.33,45.63L466.15,10L469.97,10L473.79,45.63L477.61,45.63L481.43,10L485.25,45.63L489.07,188.12L492.9,200L496.72,200L512,200" style="fill: rgb(239, 68, 68); fill-opacity: 1; stroke-width: 0;"/></g></g><g class="errorbars"/><g class="lines"><path class="js-line" d="M0,176.25L11.46,176.25L15.28,164.37L19.1,176.25L22.93,176.25L26.75,176.25L30.57,105L34.39,105L38.21,176.25L42.03,176.25L45.85,164.37L49.67,176.25L53.49,176.25L57.31,176.25L61.13,116.87L64.96,105L68.78,116.87L72.6,105L76.42,116.87L80.24,105L84.06,116.87L87.88,105L91.7,116.87L95.52,105L99.34,116.87L103.16,105L106.99,116.87L110.81,188.12L114.63,200L118.45,200L122.27,116.87L126.09,105L129.91,116.87L133.73,105L137.55,116.87L141.37,105L145.19,116.87L149.01,10L152.84,116.87L156.66,105L160.48,116.87L164.3,105L168.12,116.87L171.94,105L175.76,116.87L179.58,45.63L183.4,45.63L187.22,10L191.04,10L210.15,10L213.97,45.63L217.79,10L221.61,10L236.9,10L240.72,45.63L244.54,176.25L248.36,176.25L256,176.25L259.82,164.37L263.64,176.25L267.46,176.25L271.28,176.25L275.1,105L278.93,105L282.75,176.25L286.57,176.25L290.39,164.37L294.21,176.25L298.03,176.25L301.85,176.25L305.67,116.87L309.49,105L313.31,116.87L317.13,105L320.96,116.87L324.78,105L328.6,116.87L332.42,105L336.24,116.87L340.06,105L343.88,116.87L347.7,105L351.52,116.87L355.34,188.12L359.16,200L362.99,200L366.81,45.63L370.63,81.25L374.45,57.5L378.27,57.5L382.09,45.63L385.91,81.25L389.73,57.5L393.55,10L397.37,45.63L401.19,81.25L405.01,57.5L408.84,57.5L412.66,45.63L416.48,81.25L420.3,57.5L424.12,45.63L427.94,69.37L431.76,45.63L435.58,10L439.4,10L443.22,45.63L447.04,45.63L450.87,10L454.69,10L458.51,45.63L462.33,45.63L466.15,10L469.97,10L473.79,45.63L477.61,45.63L481.43,10L485.25,45.63L489.07,188.12L492.9,200L496.72,200L512,200" style="vector-effect: none; fill: none; stroke: rgb(255, 165, 0); stroke-opacity: 1; stroke-width: 0px; opacity: 1;"/></g><g class="points"/><g class="text"/></g></g></g></g><path class="xlines-above crisp" d="M0,0" style="fill: none;"/><path class="ylines-above crisp" d="M0,0" style="fill: none;"/><g class="overlines-above"/><g class="xaxislayer-above"/><g class="yaxislayer-above"/><g class="overaxes-above"/></g></g><g class="polarlayer"/><g class="smithlayer"/><g class="ternarylayer"/><g class="geolayer"/><g class="funnelarealayer"/><g class="pielayer"/><g class="iciclelayer"/><g class="treemaplayer"/><g class="sunburstlayer"/><g class="glimages"/><defs id="topdefs-c7bf22"><g class="clips"/></defs><g class="layer-above"><g class="imagelayer"/><g class="shapelayer"/></g><g class="infolayer"><g class="g-gtitle"/></g></svg>