<svg class="main-svg" xmlns="http://www.w3.org/2000/svg" xmlns:xlink="http://www.w3.org/1999/xlink" width="512" height="200" style="" viewBox="0 0 512 200"><rect x="0" y="0" width="512" height="200" style="fill: rgb(0, 0, 0); fill-opacity: 0;"/><defs id="defs-f05016"><g class="clips"><clipPath id="clipf05016xyplot" class="plotclip"><rect width="512" height="200"/></clipPath><clipPath class="axesclip" id="clipf05016x"><rect x="0" y="0" width="512" height="200"/></clipPath><clipPath class="axesclip" id="clipf05016y"><rect x="0" y="0" width="512" height="200"/></clipPath><clipPath class="axesclip" id="clipf05016xy"><rect x="0" y="0" width="512" height="200"/></clipPath></g><g class="gradients"/><g class="patterns"/></defs><g class="bglayer"><rect class="bg" x="0" y="0" width="512" height="200" style="fill: rgb(0, 0, 0); fill-opacity: 0; stroke-width: 0;"/></g><g class="layer-below"><g class="imagelayer"/><g class="shapelayer"/></g><g class="cartesianlayer"><g class="subplot xy"><g class="layer-subplot"><g class="shapelayer"/><g class="imagelayer"/></g><g class="minor-gridlayer"><g class="x"/><g class="y"/></g><g class="gridlayer"><g class="x"/><g class="y"/></g><g class="zerolinelayer"/><g class="layer-between"><g class="shapelayer"/><g class="imagelayer"/></g><path class="xlines-below"/><path class="ylines-below"/><g class="overlines-below"/><g class="xaxislayer-below"/><g class="yaxislayer-below"/><g class="overaxes-below"/><g class="overplot"><g class="xy" transform="" clip-path="url(#clipf05016xyplot)"><g class="scatterlayer mlayer"><g class="trace scatter trace4db68c" style="stroke-miterlimit: 2;"><g class="fills"><g><path class="js-fill" d="M512,200L0,200L0,200L60,200L64,10L68,200L72,10L76,200L80,10L84,200L88,10L92,200L96,10L100,200L104,10L108,200L112,10L116,200L120,200L124,200L128,10L256,10L260,200L284,200L288,10L292,200L296,200L316,200L320,10L324,200L328,10L332,200L336,10L340,200L344,10L348,200L352,10L356,200L360,10L364,200L368,10L372,200L376,200L380,200L384,10L444,10L448,200L452,10L456,10L512,10" style="fill: rgb(133, 94, 232); fill-opacity: 1; stroke-width: 0;"/></g></g><g class="errorbars"/><g class="lines"><path class="js-line" d="M0,200L60,200L64,10L68,200L72,10L76,200L80,10L84,200L88,10L92,200L96,10L100,200L104,10L108,200L112,10L116,200L120,200L124,200L128,10L256,10L260,200L284,200L288,10L292,200L296,200L316,200L320,10L324,200L328,10L332,200L336,10L340,200L344,10L348,200L352,10L356,200L360,10L364,200L368,10L372,200L376,200L380,200L384,10L444,10L448,200L452,10L456,10L512,10" style="vector-effect: none; fill: none; stroke: rgb(255, 165, 0); stroke-opacity: 1; stroke-width: 0px; opacity: 1;"/></g><g class="points"/><g class="text"/></g></g></g></g><path class="xlines-above crisp" d="M0,0" style="fill: none;"/><path class="ylines-above crisp" d="M0,0" style="fill: none;"/><g class="overlines-above"/><g class="xaxislayer-above"/><g class="yaxislayer-above"/><g class="overaxes-above"/></g></g><g class="polarlayer"/><g class="smithlayer"/><g class="ternarylayer"/><g class="geolayer"/><g class="funnelarealayer"/><g class="pielayer"/><g class="iciclelayer"/><g class="treemaplayer"/><g class="sunburstlayer"/><g class="glimages"/><defs id="topdefs-f05016"><g class="clips"/></defs><g class="layer-above"><g class="imagelayer"/><g class="shapelayer"/></g><g class="infolayer"><g class="g-gtitle"/></g></svg>