<svg class="main-svg" xmlns="http://www.w3.org/2000/svg" xmlns:xlink="http://www.w3.org/1999/xlink" width="512" height="200" style="" viewBox="0 0 512 200"><rect x="0" y="0" width="512" height="200" style="fill: rgb(0, 0, 0); fill-opacity: 0;"/><defs id="defs-e589eb"><g class="clips"><clipPath id="clipe589ebxyplot" class="plotclip"><rect width="512" height="200"/></clipPath><clipPath class="axesclip" id="clipe589ebx"><rect x="0" y="0" width="512" height="200"/></clipPath><clipPath class="axesclip" id="clipe589eby"><rect x="0" y="0" width="512" height="200"/></clipPath><clipPath class="axesclip" id="clipe589ebxy"><rect x="0" y="0" width="512" height="200"/></clipPath></g><g class="gradients"/><g class="patterns"/></defs><g class="bglayer"><rect class="bg" x="0" y="0" width="512" height="200" style="fill: rgb(0, 0, 0); fill-opacity: 0; stroke-width: 0;"/></g><g class="layer-below"><g class="imagelayer"/><g class="shapelayer"/></g><g class="cartesianlayer"><g class="subplot xy"><g class="layer-subplot"><g class="shapelayer"/><g class="imagelayer"/></g><g class="minor-gridlayer"><g class="x"/><g class="y"/></g><g class="gridlayer"><g class="x"/><g class="y"/></g><g class="zerolinelayer"/><g class="layer-between"><g class="shapelayer"/><g class="imagelayer"/></g><path class="xlines-below"/><path class="ylines-below"/><g class="overlines-below"/><g class="xaxislayer-below"/><g class="yaxislayer-below"/><g class="overaxes-below"/><g class="overplot"><g class="xy" transform="" clip-path="url(#clipe589ebxyplot)"><g class="scatterlayer mlayer"><g class="trace scatter traced97b17" style="stroke-miterlimit: 2;"><g class="fills"><g><path class="js-fill" d="M512,200L0,200L0,200L8.17,200L10.89,56.64L13.62,200L16.34,200L19.06,200L21.79,42.82L24.51,200L27.23,200L29.96,200L32.68,39.36L35.4,200L38.13,200L40.85,200L43.57,31.59L46.3,200L49.02,200L51.74,20.36L54.47,10L141.62,10L144.34,200L160.68,200L163.4,10L512,10" style="fill: rgb(133, 94, 232); fill-opacity: 1; stroke-width: 0;"/></g></g><g class="errorbars"/><g class="lines"><path class="js-line" d="M0,200L8.17,200L10.89,56.64L13.62,200L16.34,200L19.06,200L21.79,42.82L24.51,200L27.23,200L29.96,200L32.68,39.36L35.4,200L38.13,200L40.85,200L43.57,31.59L46.3,200L49.02,200L51.74,20.36L54.47,10L141.62,10L144.34,200L160.68,200L163.4,10L512,10" style="vector-effect: none; fill: none; stroke: rgb(255, 165, 0); stroke-opacity: 1; stroke-width: 0px; opacity: 1;"/></g><g class="points"/><g class="text"/></g></g></g></g><path class="xlines-above crisp" d="M0,0" style="fill: none;"/><path class="ylines-above crisp" d="M0,0" style="fill: none;"/><g class="overlines-above"/><g class="xaxislayer-above"/><g class="yaxislayer-above"/><g class="overaxes-above"/></g></g><g class="polarlayer"/><g class="smithlayer"/><g class="ternarylayer"/><g class="geolayer"/><g class="funnelarealayer"/><g class="pielayer"/><g class="iciclelayer"/><g class="treemaplayer"/><g class="sunburstlayer"/><g class="glimages"/><defs id="topdefs-e589eb"><g class="clips"/></defs><g class="layer-above"><g class="imagelayer"/><g class="shapelayer"/></g><g class="infolayer"><g class="g-gtitle"/></g></svg>