<svg class="main-svg" xmlns="http://www.w3.org/2000/svg" xmlns:xlink="http://www.w3.org/1999/xlink" width="512" height="200" viewBox="0 0 512 200" style=""><rect x="0" y="0" width="512" height="200" style="fill: rgb(0, 0, 0); fill-opacity: 0;"/><defs id="defs-7c0661"><g class="clips"><clipPath id="clip7c0661xyplot" class="plotclip"><rect width="512" height="200"/></clipPath><clipPath class="axesclip" id="clip7c0661x"><rect x="0" y="0" width="512" height="200"/></clipPath><clipPath class="axesclip" id="clip7c0661y"><rect x="0" y="0" width="512" height="200"/></clipPath><clipPath class="axesclip" id="clip7c0661xy"><rect x="0" y="0" width="512" height="200"/></clipPath></g><g class="gradients"/><g class="patterns"/></defs><g class="bglayer"><rect class="bg" x="0" y="0" width="512" height="200" style="fill: rgb(0, 0, 0); fill-opacity: 0; stroke-width: 0;"/></g><g class="layer-below"><g class="imagelayer"/><g class="shapelayer"/></g><g class="cartesianlayer"><g class="subplot xy"><g class="layer-subplot"><g class="shapelayer"/><g class="imagelayer"/></g><g class="minor-gridlayer"><g class="x"/><g class="y"/></g><g class="gridlayer"><g class="x"/><g class="y"/></g><g class="zerolinelayer"/><g class="layer-between"><g class="shapelayer"/><g class="imagelayer"/></g><path class="xlines-below"/><path class="ylines-below"/><g class="overlines-below"/><g class="xaxislayer-below"/><g class="yaxislayer-below"/><g class="overaxes-below"/><g class="overplot"><g class="xy" transform="" clip-path="url(#clip7c0661xyplot)"><g class="scatterlayer mlayer"><g class="trace scatter tracede6720" style="stroke-miterlimit: 2;"><g class="fills"><g><path class="js-fill" d="M512,200L0,200L0,200L8.17,200L10.89,152.21L19.06,147.61L21.79,147.61L24.51,146.17L27.23,146.17L29.96,146.74L32.68,146.45L46.3,143L49.02,143.58L51.74,87.73L54.47,10L138.89,10L141.62,136.67L144.34,105L147.06,136.67L149.79,105L152.51,136.67L155.23,105L157.96,136.67L160.68,136.67L163.4,10L334.98,10L337.7,136.67L354.04,136.67L356.77,49.58L359.49,10L362.21,10L465.7,10L468.43,73.33L506.55,73.33L509.28,10L512,192.08" style="fill: rgb(96, 165, 250); fill-opacity: 1; stroke-width: 0;"/></g></g><g class="errorbars"/><g class="lines"><path class="js-line" d="M0,200L8.17,200L10.89,152.21L19.06,147.61L21.79,147.61L24.51,146.17L27.23,146.17L29.96,146.74L32.68,146.45L46.3,143L49.02,143.58L51.74,87.73L54.47,10L138.89,10L141.62,136.67L144.34,105L147.06,136.67L149.79,105L152.51,136.67L155.23,105L157.96,136.67L160.68,136.67L163.4,10L334.98,10L337.7,136.67L354.04,136.67L356.77,49.58L359.49,10L362.21,10L465.7,10L468.43,73.33L506.55,73.33L509.28,10L512,192.08" style="vector-effect: none; fill: none; stroke: rgb(255, 165, 0); stroke-opacity: 1; stroke-width: 0px; opacity: 1;"/></g><g class="points"/><g class="text"/></g></g></g></g><path class="xlines-above crisp" d="M0,0" style="fill: none;"/><path class="ylines-above crisp" d="M0,0" style="fill: none;"/><g class="overlines-above"/><g class="xaxislayer-above"/><g class="yaxislayer-above"/><g class="overaxes-above"/></g></g><g class="polarlayer"/><g class="smithlayer"/><g class="ternarylayer"/><g class="geolayer"/><g class="funnelarealayer"/><g class="pielayer"/><g class="iciclelayer"/><g class="treemaplayer"/><g class="sunburstlayer"/><g class="glimages"/><defs id="topdefs-7c0661"><g class="clips"/></defs><g class="layer-above"><g class="imagelayer"/><g class="shapelayer"/></g><g class="infolayer"><g class="g-gtitle"/></g></svg>