<svg class="main-svg" xmlns="http://www.w3.org/2000/svg" xmlns:xlink="http://www.w3.org/1999/xlink" width="512" height="200" viewBox="0 0 512 200" style=""><rect x="0" y="0" width="512" height="200" style="fill: rgb(0, 0, 0); fill-opacity: 0;"/><defs id="defs-654f7f"><g class="clips"><clipPath id="clip654f7fxyplot" class="plotclip"><rect width="512" height="200"/></clipPath><clipPath class="axesclip" id="clip654f7fx"><rect x="0" y="0" width="512" height="200"/></clipPath><clipPath class="axesclip" id="clip654f7fy"><rect x="0" y="0" width="512" height="200"/></clipPath><clipPath class="axesclip" id="clip654f7fxy"><rect x="0" y="0" width="512" height="200"/></clipPath></g><g class="gradients"/><g class="patterns"/></defs><g class="bglayer"><rect class="bg" x="0" y="0" width="512" height="200" style="fill: rgb(0, 0, 0); fill-opacity: 0; stroke-width: 0;"/></g><g class="layer-below"><g class="imagelayer"/><g class="shapelayer"/></g><g class="cartesianlayer"><g class="subplot xy"><g class="layer-subplot"><g class="shapelayer"/><g class="imagelayer"/></g><g class="minor-gridlayer"><g class="x"/><g class="y"/></g><g class="gridlayer"><g class="x"/><g class="y"/></g><g class="zerolinelayer"/><g class="layer-between"><g class="shapelayer"/><g class="imagelayer"/></g><path class="xlines-below"/><path class="ylines-below"/><g class="overlines-below"/><g class="xaxislayer-below"/><g class="yaxislayer-below"/><g class="overaxes-below"/><g class="overplot"><g class="xy" transform="" clip-path="url(#clip654f7fxyplot)"><g class="scatterlayer mlayer"><g class="trace scatter trace3f5b08" style="stroke-miterlimit: 2;"><g class="fills"><g><path class="js-fill" d="M512,200L0,200L0,200L12.56,200L15.71,176.25L18.85,188.13L21.99,164.38L25.13,188.13L28.27,164.38L31.41,176.25L34.55,164.38L37.69,176.25L40.83,176.25L47.12,176.25L50.26,164.38L56.54,164.38L59.68,176.25L62.82,176.25L65.96,188.13L72.25,188.13L75.39,152.5L175.9,152.5L179.04,176.25L188.47,176.25L191.61,105L201.03,105L204.17,140.63L207.31,152.5L210.45,81.25L219.88,81.25L223.02,140.63L226.16,10L229.3,10L248.15,10L251.29,116.88L254.43,105L257.57,105L263.85,10L266.99,10L310.97,10L314.11,164.38L317.25,140.63L320.39,176.25L326.67,105L329.82,105L348.66,105L351.8,140.63L354.94,128.75L358.09,140.63L361.23,128.75L364.37,105L386.36,105L389.5,116.88L395.78,116.88L398.92,105L402.06,116.88L405.2,116.88L408.34,105L411.48,81.25L414.63,116.88L417.77,116.88L420.91,116.88L424.05,105L427.19,116.88L430.33,116.88L433.47,105L436.61,81.25L439.75,116.88L442.9,116.88L446.04,116.88L449.18,105L452.32,116.88L455.46,116.88L458.6,105L461.74,81.25L464.88,116.88L468.02,116.88L471.17,116.88L474.31,105L480.59,128.75L483.73,164.38L486.87,140.63L490.01,164.38L493.15,140.63L496.29,188.13L499.44,176.25L502.58,188.13L505.72,200L508.86,200L512,200" style="fill: rgb(253, 224, 71); fill-opacity: 1; stroke-width: 0;"/></g></g><g class="errorbars"/><g class="lines"><path class="js-line" d="M0,200L12.56,200L15.71,176.25L18.85,188.13L21.99,164.38L25.13,188.13L28.27,164.38L31.41,176.25L34.55,164.38L37.69,176.25L40.83,176.25L47.12,176.25L50.26,164.38L56.54,164.38L59.68,176.25L62.82,176.25L65.96,188.13L72.25,188.13L75.39,152.5L175.9,152.5L179.04,176.25L188.47,176.25L191.61,105L201.03,105L204.17,140.63L207.31,152.5L210.45,81.25L219.88,81.25L223.02,140.63L226.16,10L229.3,10L248.15,10L251.29,116.88L254.43,105L257.57,105L263.85,10L266.99,10L310.97,10L314.11,164.38L317.25,140.63L320.39,176.25L326.67,105L329.82,105L348.66,105L351.8,140.63L354.94,128.75L358.09,140.63L361.23,128.75L364.37,105L386.36,105L389.5,116.88L395.78,116.88L398.92,105L402.06,116.88L405.2,116.88L408.34,105L411.48,81.25L414.63,116.88L417.77,116.88L420.91,116.88L424.05,105L427.19,116.88L430.33,116.88L433.47,105L436.61,81.25L439.75,116.88L442.9,116.88L446.04,116.88L449.18,105L452.32,116.88L455.46,116.88L458.6,105L461.74,81.25L464.88,116.88L468.02,116.88L471.17,116.88L474.31,105L480.59,128.75L483.73,164.38L486.87,140.63L490.01,164.38L493.15,140.63L496.29,188.13L499.44,176.25L502.58,188.13L505.72,200L508.86,200L512,200" style="vector-effect: none; fill: none; stroke: rgb(255, 165, 0); stroke-opacity: 1; stroke-width: 0px; opacity: 1;"/></g><g class="points"/><g class="text"/></g></g></g></g><path class="xlines-above crisp" d="M0,0" style="fill: none;"/><path class="ylines-above crisp" d="M0,0" style="fill: none;"/><g class="overlines-above"/><g class="xaxislayer-above"/><g class="yaxislayer-above"/><g class="overaxes-above"/></g></g><g class="polarlayer"/><g class="smithlayer"/><g class="ternarylayer"/><g class="geolayer"/><g class="funnelarealayer"/><g class="pielayer"/><g class="iciclelayer"/><g class="treemaplayer"/><g class="sunburstlayer"/><g class="glimages"/><defs id="topdefs-654f7f"><g class="clips"/></defs><g class="layer-above"><g class="imagelayer"/><g class="shapelayer"/></g><g class="infolayer"><g class="g-gtitle"/></g></svg>