<svg class="main-svg" xmlns="http://www.w3.org/2000/svg" xmlns:xlink="http://www.w3.org/1999/xlink" width="512" height="200" viewBox="0 0 512 200" style=""><rect x="0" y="0" width="512" height="200" style="fill: rgb(0, 0, 0); fill-opacity: 0;"/><defs id="defs-6dacb9"><g class="clips"><clipPath id="clip6dacb9xyplot" class="plotclip"><rect width="512" height="200"/></clipPath><clipPath class="axesclip" id="clip6dacb9x"><rect x="0" y="0" width="512" height="200"/></clipPath><clipPath class="axesclip" id="clip6dacb9y"><rect x="0" y="0" width="512" height="200"/></clipPath><clipPath class="axesclip" id="clip6dacb9xy"><rect x="0" y="0" width="512" height="200"/></clipPath></g><g class="gradients"/><g class="patterns"/></defs><g class="bglayer"><rect class="bg" x="0" y="0" width="512" height="200" style="fill: rgb(0, 0, 0); fill-opacity: 0; stroke-width: 0;"/></g><g class="layer-below"><g class="imagelayer"/><g class="shapelayer"/></g><g class="cartesianlayer"><g class="subplot xy"><g class="layer-subplot"><g class="shapelayer"/><g class="imagelayer"/></g><g class="minor-gridlayer"><g class="x"/><g class="y"/></g><g class="gridlayer"><g class="x"/><g class="y"/></g><g class="zerolinelayer"/><g class="layer-between"><g class="shapelayer"/><g class="imagelayer"/></g><path class="xlines-below"/><path class="ylines-below"/><g class="overlines-below"/><g class="xaxislayer-below"/><g class="yaxislayer-below"/><g class="overaxes-below"/><g class="overplot"><g class="xy" transform="" clip-path="url(#clip6dacb9xyplot)"><g class="scatterlayer mlayer"><g class="trace scatter trace1df978" style="stroke-miterlimit: 2;"><g class="fills"><g><path class="js-fill" d="M512,200L0,200L0,200L11.95,200L13.65,140.63L15.36,128.75L17.07,140.63L20.48,140.63L22.19,128.75L23.89,140.63L25.6,140.63L27.31,10L29.01,10L52.91,10L54.61,140.63L56.32,128.75L58.03,140.63L61.44,140.63L63.15,128.75L64.85,140.63L66.56,140.63L68.27,10L69.97,10L93.87,10L95.57,128.75L97.28,93.12L98.99,93.12L100.69,93.12L102.4,69.38L104.11,10L105.81,10L134.83,10L136.53,33.75L138.24,104.34L139.95,15.07L143.36,200L145.07,200L157.01,200L158.72,10L273.07,10L274.77,69.38L279.89,69.38L281.6,10L298.67,10L300.37,188.13L302.08,10L303.79,10L353.28,10L354.99,188.13L358.4,10L360.11,10L368.64,10L370.35,33.75L372.05,136.67L373.76,81.25L375.47,21.88L377.17,10L392.53,10L394.24,116.87L395.95,10L397.65,93.12L399.36,10L401.07,10L402.77,81.25L404.48,33.75L406.19,128.75L407.89,10L409.6,93.12L411.31,33.75L413.01,10L414.72,10L436.91,10L438.61,57.5L440.32,116.87L442.03,105L447.15,105L448.85,81.25L450.56,69.38L452.27,21.88L453.97,10L455.68,10L498.35,10L500.05,93.12L501.76,200L503.47,200L512,200" style="fill: rgb(96, 165, 250); fill-opacity: 1; stroke-width: 0;"/></g></g><g class="errorbars"/><g class="lines"><path class="js-line" d="M0,200L11.95,200L13.65,140.63L15.36,128.75L17.07,140.63L20.48,140.63L22.19,128.75L23.89,140.63L25.6,140.63L27.31,10L29.01,10L52.91,10L54.61,140.63L56.32,128.75L58.03,140.63L61.44,140.63L63.15,128.75L64.85,140.63L66.56,140.63L68.27,10L69.97,10L93.87,10L95.57,128.75L97.28,93.12L98.99,93.12L100.69,93.12L102.4,69.38L104.11,10L105.81,10L134.83,10L136.53,33.75L138.24,104.34L139.95,15.07L143.36,200L145.07,200L157.01,200L158.72,10L273.07,10L274.77,69.38L279.89,69.38L281.6,10L298.67,10L300.37,188.13L302.08,10L303.79,10L353.28,10L354.99,188.13L358.4,10L360.11,10L368.64,10L370.35,33.75L372.05,136.67L373.76,81.25L375.47,21.88L377.17,10L392.53,10L394.24,116.87L395.95,10L397.65,93.12L399.36,10L401.07,10L402.77,81.25L404.48,33.75L406.19,128.75L407.89,10L409.6,93.12L411.31,33.75L413.01,10L414.72,10L436.91,10L438.61,57.5L440.32,116.87L442.03,105L447.15,105L448.85,81.25L450.56,69.38L452.27,21.88L453.97,10L455.68,10L498.35,10L500.05,93.12L501.76,200L503.47,200L512,200" style="vector-effect: none; fill: none; stroke: rgb(255, 165, 0); stroke-opacity: 1; stroke-width: 0px; opacity: 1;"/></g><g class="points"/><g class="text"/></g></g></g></g><path class="xlines-above crisp" d="M0,0" style="fill: none;"/><path class="ylines-above crisp" d="M0,0" style="fill: none;"/><g class="overlines-above"/><g class="xaxislayer-above"/><g class="yaxislayer-above"/><g class="overaxes-above"/></g></g><g class="polarlayer"/><g class="smithlayer"/><g class="ternarylayer"/><g class="geolayer"/><g class="funnelarealayer"/><g class="pielayer"/><g class="iciclelayer"/><g class="treemaplayer"/><g class="sunburstlayer"/><g class="glimages"/><defs id="topdefs-6dacb9"><g class="clips"/></defs><g class="layer-above"><g class="imagelayer"/><g class="shapelayer"/></g><g class="infolayer"><g class="g-gtitle"/></g></svg>