<svg class="main-svg" xmlns="http://www.w3.org/2000/svg" xmlns:xlink="http://www.w3.org/1999/xlink" width="512" height="200" style="" viewBox="0 0 512 200"><rect x="0" y="0" width="512" height="200" style="fill: rgb(0, 0, 0); fill-opacity: 0;"/><defs id="defs-00d434"><g class="clips"><clipPath id="clip00d434xyplot" class="plotclip"><rect width="512" height="200"/></clipPath><clipPath class="axesclip" id="clip00d434x"><rect x="0" y="0" width="512" height="200"/></clipPath><clipPath class="axesclip" id="clip00d434y"><rect x="0" y="0" width="512" height="200"/></clipPath><clipPath class="axesclip" id="clip00d434xy"><rect x="0" y="0" width="512" height="200"/></clipPath></g><g class="gradients"/><g class="patterns"/></defs><g class="bglayer"><rect class="bg" x="0" y="0" width="512" height="200" style="fill: rgb(0, 0, 0); fill-opacity: 0; stroke-width: 0;"/></g><g class="layer-below"><g class="imagelayer"/><g class="shapelayer"/></g><g class="cartesianlayer"><g class="subplot xy"><g class="layer-subplot"><g class="shapelayer"/><g class="imagelayer"/></g><g class="minor-gridlayer"><g class="x"/><g class="y"/></g><g class="gridlayer"><g class="x"/><g class="y"/></g><g class="zerolinelayer"/><g class="layer-between"><g class="shapelayer"/><g class="imagelayer"/></g><path class="xlines-below"/><path class="ylines-below"/><g class="overlines-below"/><g class="xaxislayer-below"/><g class="yaxislayer-below"/><g class="overaxes-below"/><g class="overplot"><g class="xy" transform="" clip-path="url(#clip00d434xyplot)"><g class="scatterlayer mlayer"><g class="trace scatter trace77568b" style="stroke-miterlimit: 2;"><g class="fills"><g><path class="js-fill" d="M512,200L0,200L0,200L11.95,200L13.65,140.63L15.36,128.75L17.07,140.63L20.48,140.63L22.19,128.75L23.89,140.63L25.6,140.63L27.31,105L29.01,105L52.91,105L54.61,140.63L56.32,128.75L58.03,140.63L61.44,140.63L63.15,128.75L64.85,140.63L66.56,140.63L68.27,105L69.97,105L93.87,105L95.57,128.75L97.28,93.12L98.99,93.12L102.4,93.12L104.11,69.38L114.35,69.38L116.05,93.12L119.47,116.87L121.17,105L122.88,116.87L124.59,105L126.29,116.87L128,105L129.71,81.25L131.41,33.75L134.83,33.75L136.53,45.63L138.24,104.34L139.95,52.06L143.36,200L145.07,200L157.01,200L158.72,105L168.96,105L170.67,81.25L172.37,105L174.08,105L182.61,105L184.32,81.25L186.03,105L187.73,105L223.57,105L225.28,81.25L226.99,188.13L228.69,200L230.4,200L232.11,164.38L233.81,105L235.52,105L244.05,105L245.76,81.25L247.47,105L249.17,105L257.71,105L259.41,81.25L261.12,105L262.83,105L273.07,105L274.77,188.13L276.48,200L278.19,200L286.72,200L288.43,152.5L298.67,152.5L300.37,188.13L302.08,10L303.79,10L327.68,10L329.39,81.25L339.63,81.25L341.33,93.12L343.04,81.25L344.75,81.25L346.45,81.25L348.16,105L349.87,81.25L351.57,81.25L353.28,81.25L354.99,188.13L356.69,152.5L358.4,93.12L360.11,93.12L361.81,105L363.52,93.12L365.23,93.12L366.93,105L368.64,93.12L370.35,57.5L372.05,136.67L373.76,81.25L375.47,69.38L377.17,105L378.88,105L380.59,105L382.29,93.12L384,81.25L385.71,81.25L389.12,81.25L390.83,93.12L392.53,105L394.24,152.5L395.95,105L397.65,140.63L399.36,116.87L401.07,105L402.77,140.63L404.48,116.87L406.19,164.38L407.89,105L409.6,105L411.31,93.12L413.01,116.87L414.72,128.75L416.43,105L418.13,105L421.55,128.75L423.25,105L424.96,93.12L426.67,93.12L438.61,93.12L440.32,116.87L442.03,105L443.73,105L447.15,105L448.85,81.25L450.56,69.38L452.27,69.38L453.97,93.12L455.68,93.12L457.39,93.12L459.09,105L460.8,93.12L462.51,93.12L464.21,93.12L465.92,116.87L467.63,116.87L469.33,128.75L471.04,105L472.75,105L476.16,128.75L477.87,105L479.57,93.12L481.28,93.12L491.52,93.12L493.23,116.87L494.93,152.5L496.64,128.75L498.35,93.12L500.05,128.75L501.76,200L503.47,200L512,200" style="fill: rgb(74, 222, 128); fill-opacity: 1; stroke-width: 0;"/></g></g><g class="errorbars"/><g class="lines"><path class="js-line" d="M0,200L11.95,200L13.65,140.63L15.36,128.75L17.07,140.63L20.48,140.63L22.19,128.75L23.89,140.63L25.6,140.63L27.31,105L29.01,105L52.91,105L54.61,140.63L56.32,128.75L58.03,140.63L61.44,140.63L63.15,128.75L64.85,140.63L66.56,140.63L68.27,105L69.97,105L93.87,105L95.57,128.75L97.28,93.12L98.99,93.12L102.4,93.12L104.11,69.38L114.35,69.38L116.05,93.12L119.47,116.87L121.17,105L122.88,116.87L124.59,105L126.29,116.87L128,105L129.71,81.25L131.41,33.75L134.83,33.75L136.53,45.63L138.24,104.34L139.95,52.06L143.36,200L145.07,200L157.01,200L158.72,105L168.96,105L170.67,81.25L172.37,105L174.08,105L182.61,105L184.32,81.25L186.03,105L187.73,105L223.57,105L225.28,81.25L226.99,188.13L228.69,200L230.4,200L232.11,164.38L233.81,105L235.52,105L244.05,105L245.76,81.25L247.47,105L249.17,105L257.71,105L259.41,81.25L261.12,105L262.83,105L273.07,105L274.77,188.13L276.48,200L278.19,200L286.72,200L288.43,152.5L298.67,152.5L300.37,188.13L302.08,10L303.79,10L327.68,10L329.39,81.25L339.63,81.25L341.33,93.12L343.04,81.25L344.75,81.25L346.45,81.25L348.16,105L349.87,81.25L351.57,81.25L353.28,81.25L354.99,188.13L356.69,152.5L358.4,93.12L360.11,93.12L361.81,105L363.52,93.12L365.23,93.12L366.93,105L368.64,93.12L370.35,57.5L372.05,136.67L373.76,81.25L375.47,69.38L377.17,105L378.88,105L380.59,105L382.29,93.12L384,81.25L385.71,81.25L389.12,81.25L390.83,93.12L392.53,105L394.24,152.5L395.95,105L397.65,140.63L399.36,116.87L401.07,105L402.77,140.63L404.48,116.87L406.19,164.38L407.89,105L409.6,105L411.31,93.12L413.01,116.87L414.72,128.75L416.43,105L418.13,105L421.55,128.75L423.25,105L424.96,93.12L426.67,93.12L438.61,93.12L440.32,116.87L442.03,105L443.73,105L447.15,105L448.85,81.25L450.56,69.38L452.27,69.38L453.97,93.12L455.68,93.12L457.39,93.12L459.09,105L460.8,93.12L462.51,93.12L464.21,93.12L465.92,116.87L467.63,116.87L469.33,128.75L471.04,105L472.75,105L476.16,128.75L477.87,105L479.57,93.12L481.28,93.12L491.52,93.12L493.23,116.87L494.93,152.5L496.64,128.75L498.35,93.12L500.05,128.75L501.76,200L503.47,200L512,200" style="vector-effect: none; fill: none; stroke: rgb(255, 165, 0); stroke-opacity: 1; stroke-width: 0px; opacity: 1;"/></g><g class="points"/><g class="text"/></g></g></g></g><path class="xlines-above crisp" d="M0,0" style="fill: none;"/><path class="ylines-above crisp" d="M0,0" style="fill: none;"/><g class="overlines-above"/><g class="xaxislayer-above"/><g class="yaxislayer-above"/><g class="overaxes-above"/></g></g><g class="polarlayer"/><g class="smithlayer"/><g class="ternarylayer"/><g class="geolayer"/><g class="funnelarealayer"/><g class="pielayer"/><g class="iciclelayer"/><g class="treemaplayer"/><g class="sunburstlayer"/><g class="glimages"/><defs id="topdefs-00d434"><g class="clips"/></defs><g class="layer-above"><g class="imagelayer"/><g class="shapelayer"/></g><g class="infolayer"><g class="g-gtitle"/></g></svg>