<svg class="main-svg" xmlns="http://www.w3.org/2000/svg" xmlns:xlink="http://www.w3.org/1999/xlink" width="512" height="200" style="" viewBox="0 0 512 200"><rect x="0" y="0" width="512" height="200" style="fill: rgb(0, 0, 0); fill-opacity: 0;"/><defs id="defs-842c19"><g class="clips"><clipPath id="clip842c19xyplot" class="plotclip"><rect width="512" height="200"/></clipPath><clipPath class="axesclip" id="clip842c19x"><rect x="0" y="0" width="512" height="200"/></clipPath><clipPath class="axesclip" id="clip842c19y"><rect x="0" y="0" width="512" height="200"/></clipPath><clipPath class="axesclip" id="clip842c19xy"><rect x="0" y="0" width="512" height="200"/></clipPath></g><g class="gradients"/><g class="patterns"/></defs><g class="bglayer"><rect class="bg" x="0" y="0" width="512" height="200" style="fill: rgb(0, 0, 0); fill-opacity: 0; stroke-width: 0;"/></g><g class="layer-below"><g class="imagelayer"/><g class="shapelayer"/></g><g class="cartesianlayer"><g class="subplot xy"><g class="layer-subplot"><g class="shapelayer"/><g class="imagelayer"/></g><g class="minor-gridlayer"><g class="x"/><g class="y"/></g><g class="gridlayer"><g class="x"/><g class="y"/></g><g class="zerolinelayer"/><g class="layer-between"><g class="shapelayer"/><g class="imagelayer"/></g><path class="xlines-below"/><path class="ylines-below"/><g class="overlines-below"/><g class="xaxislayer-below"/><g class="yaxislayer-below"/><g class="overaxes-below"/><g class="overplot"><g class="xy" transform="" clip-path="url(#clip842c19xyplot)"><g class="scatterlayer mlayer"><g class="trace scatter traced4c837" style="stroke-miterlimit: 2;"><g class="fills"><g><path class="js-fill" d="M512,200L0,200L0,200L12.23,200L13.98,105L15.73,200L17.47,105L19.22,200L20.97,105L22.72,200L24.46,105L26.21,200L27.96,105L55.92,105L57.67,200L59.41,105L61.16,200L62.91,105L64.66,200L66.4,105L68.15,200L69.9,105L71.65,105L97.86,105L99.6,200L101.35,105L103.1,200L104.85,105L106.59,105L139.8,105L141.54,200L143.29,200L145.04,101.37L146.78,200L148.53,200L160.76,200L162.51,105L232.41,105L234.16,200L237.65,200L239.4,105L281.34,105L283.09,200L293.57,200L295.32,105L297.06,200L298.81,105L300.56,200L302.31,105L304.05,200L305.8,105L307.55,200L309.3,105L365.22,105L366.96,200L368.71,105L370.46,105L379.19,105L380.94,136.67L382.69,105L384.44,105L401.91,105L403.66,200L407.15,10L408.9,105L449.09,105L450.84,200L454.33,200L456.08,105L457.83,200L459.58,105L461.32,200L463.07,105L512,105" style="fill: rgb(133, 94, 232); fill-opacity: 1; stroke-width: 0;"/></g></g><g class="errorbars"/><g class="lines"><path class="js-line" d="M0,200L12.23,200L13.98,105L15.73,200L17.47,105L19.22,200L20.97,105L22.72,200L24.46,105L26.21,200L27.96,105L55.92,105L57.67,200L59.41,105L61.16,200L62.91,105L64.66,200L66.4,105L68.15,200L69.9,105L71.65,105L97.86,105L99.6,200L101.35,105L103.1,200L104.85,105L106.59,105L139.8,105L141.54,200L143.29,200L145.04,101.37L146.78,200L148.53,200L160.76,200L162.51,105L232.41,105L234.16,200L237.65,200L239.4,105L281.34,105L283.09,200L293.57,200L295.32,105L297.06,200L298.81,105L300.56,200L302.31,105L304.05,200L305.8,105L307.55,200L309.3,105L365.22,105L366.96,200L368.71,105L370.46,105L379.19,105L380.94,136.67L382.69,105L384.44,105L401.91,105L403.66,200L407.15,10L408.9,105L449.09,105L450.84,200L454.33,200L456.08,105L457.83,200L459.58,105L461.32,200L463.07,105L512,105" style="vector-effect: none; fill: none; stroke: rgb(255, 165, 0); stroke-opacity: 1; stroke-width: 0px; opacity: 1;"/></g><g class="points"/><g class="text"/></g></g></g></g><path class="xlines-above crisp" d="M0,0" style="fill: none;"/><path class="ylines-above crisp" d="M0,0" style="fill: none;"/><g class="overlines-above"/><g class="xaxislayer-above"/><g class="yaxislayer-above"/><g class="overaxes-above"/></g></g><g class="polarlayer"/><g class="smithlayer"/><g class="ternarylayer"/><g class="geolayer"/><g class="funnelarealayer"/><g class="pielayer"/><g class="iciclelayer"/><g class="treemaplayer"/><g class="sunburstlayer"/><g class="glimages"/><defs id="topdefs-842c19"><g class="clips"/></defs><g class="layer-above"><g class="imagelayer"/><g class="shapelayer"/></g><g class="infolayer"><g class="g-gtitle"/></g></svg>