<svg class="main-svg" xmlns="http://www.w3.org/2000/svg" xmlns:xlink="http://www.w3.org/1999/xlink" width="512" height="200" style="" viewBox="0 0 512 200"><rect x="0" y="0" width="512" height="200" style="fill: rgb(0, 0, 0); fill-opacity: 0;"/><defs id="defs-6d25b8"><g class="clips"><clipPath id="clip6d25b8xyplot" class="plotclip"><rect width="512" height="200"/></clipPath><clipPath class="axesclip" id="clip6d25b8x"><rect x="0" y="0" width="512" height="200"/></clipPath><clipPath class="axesclip" id="clip6d25b8y"><rect x="0" y="0" width="512" height="200"/></clipPath><clipPath class="axesclip" id="clip6d25b8xy"><rect x="0" y="0" width="512" height="200"/></clipPath></g><g class="gradients"/><g class="patterns"/></defs><g class="bglayer"><rect class="bg" x="0" y="0" width="512" height="200" style="fill: rgb(0, 0, 0); fill-opacity: 0; stroke-width: 0;"/></g><g class="layer-below"><g class="imagelayer"/><g class="shapelayer"/></g><g class="cartesianlayer"><g class="subplot xy"><g class="layer-subplot"><g class="shapelayer"/><g class="imagelayer"/></g><g class="minor-gridlayer"><g class="x"/><g class="y"/></g><g class="gridlayer"><g class="x"/><g class="y"/></g><g class="zerolinelayer"/><g class="layer-between"><g class="shapelayer"/><g class="imagelayer"/></g><path class="xlines-below"/><path class="ylines-below"/><g class="overlines-below"/><g class="xaxislayer-below"/><g class="yaxislayer-below"/><g class="overaxes-below"/><g class="overplot"><g class="xy" transform="" clip-path="url(#clip6d25b8xyplot)"><g class="scatterlayer mlayer"><g class="trace scatter trace7a370d" style="stroke-miterlimit: 2;"><g class="fills"><g><path class="js-fill" d="M512,200L0,200L0,10L56.44,10L60.47,21.88L64.5,10L68.54,10L189.48,10L193.51,116.88L197.54,140.63L201.57,116.88L205.61,128.75L209.64,116.88L213.67,140.63L217.7,116.88L221.73,128.75L225.76,93.12L229.8,116.88L233.83,116.88L237.86,128.75L241.89,93.12L245.92,116.88L249.95,116.88L253.98,128.75L258.02,81.25L262.05,105L266.08,105L270.11,105L274.14,57.5L278.17,81.25L282.2,45.63L286.24,93.12L290.27,10L447.5,10L451.53,116.88L455.56,140.63L459.59,116.88L463.62,105L467.65,116.88L471.69,140.63L475.72,116.88L479.75,105L483.78,140.63L487.81,140.63L491.84,116.88L499.91,140.63L503.94,140.63L507.97,116.88L512,128.75" style="fill: rgb(96, 165, 250); fill-opacity: 1; stroke-width: 0;"/></g></g><g class="errorbars"/><g class="lines"><path class="js-line" d="M0,10L56.44,10L60.47,21.88L64.5,10L68.54,10L189.48,10L193.51,116.88L197.54,140.63L201.57,116.88L205.61,128.75L209.64,116.88L213.67,140.63L217.7,116.88L221.73,128.75L225.76,93.12L229.8,116.88L233.83,116.88L237.86,128.75L241.89,93.12L245.92,116.88L249.95,116.88L253.98,128.75L258.02,81.25L262.05,105L266.08,105L270.11,105L274.14,57.5L278.17,81.25L282.2,45.63L286.24,93.12L290.27,10L447.5,10L451.53,116.88L455.56,140.63L459.59,116.88L463.62,105L467.65,116.88L471.69,140.63L475.72,116.88L479.75,105L483.78,140.63L487.81,140.63L491.84,116.88L499.91,140.63L503.94,140.63L507.97,116.88L512,128.75" style="vector-effect: none; fill: none; stroke: rgb(255, 165, 0); stroke-opacity: 1; stroke-width: 0px; opacity: 1;"/></g><g class="points"/><g class="text"/></g></g></g></g><path class="xlines-above crisp" d="M0,0" style="fill: none;"/><path class="ylines-above crisp" d="M0,0" style="fill: none;"/><g class="overlines-above"/><g class="xaxislayer-above"/><g class="yaxislayer-above"/><g class="overaxes-above"/></g></g><g class="polarlayer"/><g class="smithlayer"/><g class="ternarylayer"/><g class="geolayer"/><g class="funnelarealayer"/><g class="pielayer"/><g class="iciclelayer"/><g class="treemaplayer"/><g class="sunburstlayer"/><g class="glimages"/><defs id="topdefs-6d25b8"><g class="clips"/></defs><g class="layer-above"><g class="imagelayer"/><g class="shapelayer"/></g><g class="infolayer"><g class="g-gtitle"/></g></svg>