<svg class="main-svg" xmlns="http://www.w3.org/2000/svg" xmlns:xlink="http://www.w3.org/1999/xlink" width="512" height="200" style="" viewBox="0 0 512 200"><rect x="0" y="0" width="512" height="200" style="fill: rgb(0, 0, 0); fill-opacity: 0;"/><defs id="defs-c6368f"><g class="clips"><clipPath id="clipc6368fxyplot" class="plotclip"><rect width="512" height="200"/></clipPath><clipPath class="axesclip" id="clipc6368fx"><rect x="0" y="0" width="512" height="200"/></clipPath><clipPath class="axesclip" id="clipc6368fy"><rect x="0" y="0" width="512" height="200"/></clipPath><clipPath class="axesclip" id="clipc6368fxy"><rect x="0" y="0" width="512" height="200"/></clipPath></g><g class="gradients"/><g class="patterns"/></defs><g class="bglayer"><rect class="bg" x="0" y="0" width="512" height="200" style="fill: rgb(0, 0, 0); fill-opacity: 0; stroke-width: 0;"/></g><g class="layer-below"><g class="imagelayer"/><g class="shapelayer"/></g><g class="cartesianlayer"><g class="subplot xy"><g class="layer-subplot"><g class="shapelayer"/><g class="imagelayer"/></g><g class="minor-gridlayer"><g class="x"/><g class="y"/></g><g class="gridlayer"><g class="x"/><g class="y"/></g><g class="zerolinelayer"/><g class="layer-between"><g class="shapelayer"/><g class="imagelayer"/></g><path class="xlines-below"/><path class="ylines-below"/><g class="overlines-below"/><g class="xaxislayer-below"/><g class="yaxislayer-below"/><g class="overaxes-below"/><g class="overplot"><g class="xy" transform="" clip-path="url(#clipc6368fxyplot)"><g class="scatterlayer mlayer"><g class="trace scatter trace09bb36" style="stroke-miterlimit: 2;"><g class="fills"><g><path class="js-fill" d="M512,200L0,200L0,61.82L8.06,61.82L12.09,27.27L16.13,61.82L20.16,61.82L24.19,61.82L28.22,27.27L32.25,44.55L36.28,44.55L40.31,44.55L44.35,27.27L48.38,44.55L52.41,44.55L56.44,44.55L60.47,27.27L64.5,113.64L68.54,96.36L72.57,61.82L76.6,61.82L80.63,113.64L84.66,96.36L88.69,61.82L92.72,61.82L96.76,27.27L100.79,27.27L104.82,27.27L108.85,10L112.88,27.27L116.91,27.27L120.94,27.27L124.98,10L129.01,27.27L133.04,27.27L137.07,27.27L141.1,10L145.13,27.27L149.17,27.27L153.2,27.27L157.23,10L161.26,27.27L165.29,27.27L169.32,27.27L173.35,10L177.39,27.27L181.42,27.27L185.45,27.27L189.48,10L193.51,113.64L197.54,113.64L201.57,79.09L205.61,96.36L209.64,113.64L213.67,113.64L217.7,79.09L221.73,96.36L225.76,79.09L229.8,79.09L233.83,79.09L237.86,96.36L241.89,79.09L245.92,79.09L249.95,79.09L253.98,96.36L258.02,79.09L262.05,79.09L266.08,79.09L270.11,96.36L274.14,79.09L278.17,79.09L282.2,79.09L286.24,44.55L290.27,27.27L294.3,27.27L298.33,27.27L302.36,10L306.39,27.27L310.43,27.27L314.46,27.27L318.49,10L322.52,27.27L326.55,27.27L330.58,27.27L334.61,10L338.65,27.27L342.68,27.27L346.71,27.27L350.74,10L354.77,27.27L358.8,27.27L362.83,27.27L366.87,10L370.9,27.27L374.93,27.27L378.96,27.27L382.99,10L387.02,44.55L391.06,44.55L395.09,44.55L399.12,27.27L403.15,44.55L407.18,44.55L411.21,44.55L415.24,27.27L419.28,44.55L423.31,44.55L427.34,44.55L431.37,27.27L435.4,44.55L439.43,44.55L443.46,44.55L447.5,27.27L451.53,79.09L455.56,113.64L459.59,79.09L463.62,61.82L467.65,79.09L471.69,113.64L475.72,79.09L479.75,61.82L483.78,113.64L487.81,113.64L491.84,79.09L495.87,96.36L499.91,113.64L503.94,113.64L507.97,79.09L512,96.36" style="fill: rgb(74, 222, 128); fill-opacity: 1; stroke-width: 0;"/></g></g><g class="errorbars"/><g class="lines"><path class="js-line" d="M0,61.82L8.06,61.82L12.09,27.27L16.13,61.82L20.16,61.82L24.19,61.82L28.22,27.27L32.25,44.55L36.28,44.55L40.31,44.55L44.35,27.27L48.38,44.55L52.41,44.55L56.44,44.55L60.47,27.27L64.5,113.64L68.54,96.36L72.57,61.82L76.6,61.82L80.63,113.64L84.66,96.36L88.69,61.82L92.72,61.82L96.76,27.27L100.79,27.27L104.82,27.27L108.85,10L112.88,27.27L116.91,27.27L120.94,27.27L124.98,10L129.01,27.27L133.04,27.27L137.07,27.27L141.1,10L145.13,27.27L149.17,27.27L153.2,27.27L157.23,10L161.26,27.27L165.29,27.27L169.32,27.27L173.35,10L177.39,27.27L181.42,27.27L185.45,27.27L189.48,10L193.51,113.64L197.54,113.64L201.57,79.09L205.61,96.36L209.64,113.64L213.67,113.64L217.7,79.09L221.73,96.36L225.76,79.09L229.8,79.09L233.83,79.09L237.86,96.36L241.89,79.09L245.92,79.09L249.95,79.09L253.98,96.36L258.02,79.09L262.05,79.09L266.08,79.09L270.11,96.36L274.14,79.09L278.17,79.09L282.2,79.09L286.24,44.55L290.27,27.27L294.3,27.27L298.33,27.27L302.36,10L306.39,27.27L310.43,27.27L314.46,27.27L318.49,10L322.52,27.27L326.55,27.27L330.58,27.27L334.61,10L338.65,27.27L342.68,27.27L346.71,27.27L350.74,10L354.77,27.27L358.8,27.27L362.83,27.27L366.87,10L370.9,27.27L374.93,27.27L378.96,27.27L382.99,10L387.02,44.55L391.06,44.55L395.09,44.55L399.12,27.27L403.15,44.55L407.18,44.55L411.21,44.55L415.24,27.27L419.28,44.55L423.31,44.55L427.34,44.55L431.37,27.27L435.4,44.55L439.43,44.55L443.46,44.55L447.5,27.27L451.53,79.09L455.56,113.64L459.59,79.09L463.62,61.82L467.65,79.09L471.69,113.64L475.72,79.09L479.75,61.82L483.78,113.64L487.81,113.64L491.84,79.09L495.87,96.36L499.91,113.64L503.94,113.64L507.97,79.09L512,96.36" style="vector-effect: none; fill: none; stroke: rgb(255, 165, 0); stroke-opacity: 1; stroke-width: 0px; opacity: 1;"/></g><g class="points"/><g class="text"/></g></g></g></g><path class="xlines-above crisp" d="M0,0" style="fill: none;"/><path class="ylines-above crisp" d="M0,0" style="fill: none;"/><g class="overlines-above"/><g class="xaxislayer-above"/><g class="yaxislayer-above"/><g class="overaxes-above"/></g></g><g class="polarlayer"/><g class="smithlayer"/><g class="ternarylayer"/><g class="geolayer"/><g class="funnelarealayer"/><g class="pielayer"/><g class="iciclelayer"/><g class="treemaplayer"/><g class="sunburstlayer"/><g class="glimages"/><defs id="topdefs-c6368f"><g class="clips"/></defs><g class="layer-above"><g class="imagelayer"/><g class="shapelayer"/></g><g class="infolayer"><g class="g-gtitle"/></g></svg>