<svg class="main-svg" xmlns="http://www.w3.org/2000/svg" xmlns:xlink="http://www.w3.org/1999/xlink" width="512" height="200" style="" viewBox="0 0 512 200"><rect x="0" y="0" width="512" height="200" style="fill: rgb(0, 0, 0); fill-opacity: 0;"/><defs id="defs-551349"><g class="clips"><clipPath id="clip551349xyplot" class="plotclip"><rect width="512" height="200"/></clipPath><clipPath class="axesclip" id="clip551349x"><rect x="0" y="0" width="512" height="200"/></clipPath><clipPath class="axesclip" id="clip551349y"><rect x="0" y="0" width="512" height="200"/></clipPath><clipPath class="axesclip" id="clip551349xy"><rect x="0" y="0" width="512" height="200"/></clipPath></g><g class="gradients"/><g class="patterns"/></defs><g class="bglayer"><rect class="bg" x="0" y="0" width="512" height="200" style="fill: rgb(0, 0, 0); fill-opacity: 0; stroke-width: 0;"/></g><g class="layer-below"><g class="imagelayer"/><g class="shapelayer"/></g><g class="cartesianlayer"><g class="subplot xy"><g class="layer-subplot"><g class="shapelayer"/><g class="imagelayer"/></g><g class="minor-gridlayer"><g class="x"/><g class="y"/></g><g class="gridlayer"><g class="x"/><g class="y"/></g><g class="zerolinelayer"/><g class="layer-between"><g class="shapelayer"/><g class="imagelayer"/></g><path class="xlines-below"/><path class="ylines-below"/><g class="overlines-below"/><g class="xaxislayer-below"/><g class="yaxislayer-below"/><g class="overaxes-below"/><g class="overplot"><g class="xy" transform="" clip-path="url(#clip551349xyplot)"><g class="scatterlayer mlayer"><g class="trace scatter traced5beb1" style="stroke-miterlimit: 2;"><g class="fills"><g><path class="js-fill" d="M512,200L0,200L0,200L12.11,200L13.84,10.87L138.38,10.87L140.11,200L143.57,200L145.3,10.87L147.03,200L148.76,200L150.49,200L152.22,10.87L153.95,200L155.68,200L157.41,200L159.14,10.87L160.86,200L162.59,10.87L164.32,200L166.05,10.87L238.7,10.86L240.43,200L242.16,10.86L243.89,10.86L297.51,10.87L299.24,200L316.54,200L318.27,10.87L320,200L321.73,200L323.46,200L325.19,10.87L326.92,200L328.65,200L330.38,200L332.11,10.87L333.84,200L335.57,200L337.3,200L339.03,10.87L340.76,200L342.49,10.87L344.22,200L345.95,10.87L401.3,11.19L403.03,200L406.49,200L408.22,10L409.95,10L411.68,10.87L505.08,10.87L506.81,200L508.54,10.87L510.27,200L512,10.87" style="fill: rgb(133, 94, 232); fill-opacity: 1; stroke-width: 0;"/></g></g><g class="errorbars"/><g class="lines"><path class="js-line" d="M0,200L12.11,200L13.84,10.87L138.38,10.87L140.11,200L143.57,200L145.3,10.87L147.03,200L148.76,200L150.49,200L152.22,10.87L153.95,200L155.68,200L157.41,200L159.14,10.87L160.86,200L162.59,10.87L164.32,200L166.05,10.87L238.7,10.86L240.43,200L242.16,10.86L243.89,10.86L297.51,10.87L299.24,200L316.54,200L318.27,10.87L320,200L321.73,200L323.46,200L325.19,10.87L326.92,200L328.65,200L330.38,200L332.11,10.87L333.84,200L335.57,200L337.3,200L339.03,10.87L340.76,200L342.49,10.87L344.22,200L345.95,10.87L401.3,11.19L403.03,200L406.49,200L408.22,10L409.95,10L411.68,10.87L505.08,10.87L506.81,200L508.54,10.87L510.27,200L512,10.87" style="vector-effect: none; fill: none; stroke: rgb(255, 165, 0); stroke-opacity: 1; stroke-width: 0px; opacity: 1;"/></g><g class="points"/><g class="text"/></g></g></g></g><path class="xlines-above crisp" d="M0,0" style="fill: none;"/><path class="ylines-above crisp" d="M0,0" style="fill: none;"/><g class="overlines-above"/><g class="xaxislayer-above"/><g class="yaxislayer-above"/><g class="overaxes-above"/></g></g><g class="polarlayer"/><g class="smithlayer"/><g class="ternarylayer"/><g class="geolayer"/><g class="funnelarealayer"/><g class="pielayer"/><g class="iciclelayer"/><g class="treemaplayer"/><g class="sunburstlayer"/><g class="glimages"/><defs id="topdefs-551349"><g class="clips"/></defs><g class="layer-above"><g class="imagelayer"/><g class="shapelayer"/></g><g class="infolayer"><g class="g-gtitle"/></g></svg>