<svg class="main-svg" xmlns="http://www.w3.org/2000/svg" xmlns:xlink="http://www.w3.org/1999/xlink" width="512" height="200" style="" viewBox="0 0 512 200"><rect x="0" y="0" width="512" height="200" style="fill: rgb(0, 0, 0); fill-opacity: 0;"/><defs id="defs-7a34c4"><g class="clips"><clipPath id="clip7a34c4xyplot" class="plotclip"><rect width="512" height="200"/></clipPath><clipPath class="axesclip" id="clip7a34c4x"><rect x="0" y="0" width="512" height="200"/></clipPath><clipPath class="axesclip" id="clip7a34c4y"><rect x="0" y="0" width="512" height="200"/></clipPath><clipPath class="axesclip" id="clip7a34c4xy"><rect x="0" y="0" width="512" height="200"/></clipPath></g><g class="gradients"/><g class="patterns"/></defs><g class="bglayer"><rect class="bg" x="0" y="0" width="512" height="200" style="fill: rgb(0, 0, 0); fill-opacity: 0; stroke-width: 0;"/></g><g class="layer-below"><g class="imagelayer"/><g class="shapelayer"/></g><g class="cartesianlayer"><g class="subplot xy"><g class="layer-subplot"><g class="shapelayer"/><g class="imagelayer"/></g><g class="minor-gridlayer"><g class="x"/><g class="y"/></g><g class="gridlayer"><g class="x"/><g class="y"/></g><g class="zerolinelayer"/><g class="layer-between"><g class="shapelayer"/><g class="imagelayer"/></g><path class="xlines-below"/><path class="ylines-below"/><g class="overlines-below"/><g class="xaxislayer-below"/><g class="yaxislayer-below"/><g class="overaxes-below"/><g class="overplot"><g class="xy" transform="" clip-path="url(#clip7a34c4xyplot)"><g class="scatterlayer mlayer"><g class="trace scatter trace202498" style="stroke-miterlimit: 2;"><g class="fills"><g><path class="js-fill" d="M512,200L0,200L0,200L12.59,200L16.79,10L20.98,200L25.18,10L29.38,200L33.57,10L37.77,200L41.97,10L46.16,200L50.36,10L159.48,10L163.67,200L167.87,10L172.07,10L268.59,10L272.79,200L281.18,200L285.38,10L344.13,10L348.33,200L352.52,10L356.72,10L453.25,10L457.44,200L461.64,10L465.84,200L470.03,10L474.23,200L478.43,10L482.62,200L486.82,10L491.02,200L495.21,10L499.41,200L503.61,10L507.8,200L512,10" style="fill: rgb(133, 94, 232); fill-opacity: 1; stroke-width: 0;"/></g></g><g class="errorbars"/><g class="lines"><path class="js-line" d="M0,200L12.59,200L16.79,10L20.98,200L25.18,10L29.38,200L33.57,10L37.77,200L41.97,10L46.16,200L50.36,10L159.48,10L163.67,200L167.87,10L172.07,10L268.59,10L272.79,200L281.18,200L285.38,10L344.13,10L348.33,200L352.52,10L356.72,10L453.25,10L457.44,200L461.64,10L465.84,200L470.03,10L474.23,200L478.43,10L482.62,200L486.82,10L491.02,200L495.21,10L499.41,200L503.61,10L507.8,200L512,10" style="vector-effect: none; fill: none; stroke: rgb(255, 165, 0); stroke-opacity: 1; stroke-width: 0px; opacity: 1;"/></g><g class="points"/><g class="text"/></g></g></g></g><path class="xlines-above crisp" d="M0,0" style="fill: none;"/><path class="ylines-above crisp" d="M0,0" style="fill: none;"/><g class="overlines-above"/><g class="xaxislayer-above"/><g class="yaxislayer-above"/><g class="overaxes-above"/></g></g><g class="polarlayer"/><g class="smithlayer"/><g class="ternarylayer"/><g class="geolayer"/><g class="funnelarealayer"/><g class="pielayer"/><g class="iciclelayer"/><g class="treemaplayer"/><g class="sunburstlayer"/><g class="glimages"/><defs id="topdefs-7a34c4"><g class="clips"/></defs><g class="layer-above"><g class="imagelayer"/><g class="shapelayer"/></g><g class="infolayer"><g class="g-gtitle"/></g></svg>