<svg class="main-svg" xmlns="http://www.w3.org/2000/svg" xmlns:xlink="http://www.w3.org/1999/xlink" width="512" height="200" viewBox="0 0 512 200" style=""><rect x="0" y="0" width="512" height="200" style="fill: rgb(0, 0, 0); fill-opacity: 0;"/><defs id="defs-972e48"><g class="clips"><clipPath id="clip972e48xyplot" class="plotclip"><rect width="512" height="200"/></clipPath><clipPath class="axesclip" id="clip972e48x"><rect x="0" y="0" width="512" height="200"/></clipPath><clipPath class="axesclip" id="clip972e48y"><rect x="0" y="0" width="512" height="200"/></clipPath><clipPath class="axesclip" id="clip972e48xy"><rect x="0" y="0" width="512" height="200"/></clipPath></g><g class="gradients"/><g class="patterns"/></defs><g class="bglayer"><rect class="bg" x="0" y="0" width="512" height="200" style="fill: rgb(0, 0, 0); fill-opacity: 0; stroke-width: 0;"/></g><g class="layer-below"><g class="imagelayer"/><g class="shapelayer"/></g><g class="cartesianlayer"><g class="subplot xy"><g class="layer-subplot"><g class="shapelayer"/><g class="imagelayer"/></g><g class="minor-gridlayer"><g class="x"/><g class="y"/></g><g class="gridlayer"><g class="x"/><g class="y"/></g><g class="zerolinelayer"/><g class="layer-between"><g class="shapelayer"/><g class="imagelayer"/></g><path class="xlines-below"/><path class="ylines-below"/><g class="overlines-below"/><g class="xaxislayer-below"/><g class="yaxislayer-below"/><g class="overaxes-below"/><g class="overplot"><g class="xy" transform="" clip-path="url(#clip972e48xyplot)"><g class="scatterlayer mlayer"><g class="trace scatter tracee95429" style="stroke-miterlimit: 2;"><g class="fills"><g><path class="js-fill" d="M512,200L0,200L0,105L39.6,105L42.43,116.88L45.26,10L48.09,10L178.21,10L181.04,93.13L200.84,93.13L203.67,188.13L214.98,188.13L217.81,200L220.64,188.13L223.47,200L226.3,128.75L229.13,128.75L268.73,128.75L271.56,69.38L302.67,69.38L305.5,45.63L308.33,45.63L311.16,10L313.99,116.88L316.82,10L449.77,10L452.6,105L469.57,105L472.4,116.88L475.23,105L478.06,105L483.71,105L486.54,10L495.03,10L497.86,188.13L500.69,200L503.51,200L512,200" style="fill: rgb(239, 68, 68); fill-opacity: 1; stroke-width: 0;"/></g></g><g class="errorbars"/><g class="lines"><path class="js-line" d="M0,105L39.6,105L42.43,116.88L45.26,10L48.09,10L178.21,10L181.04,93.13L200.84,93.13L203.67,188.13L214.98,188.13L217.81,200L220.64,188.13L223.47,200L226.3,128.75L229.13,128.75L268.73,128.75L271.56,69.38L302.67,69.38L305.5,45.63L308.33,45.63L311.16,10L313.99,116.88L316.82,10L449.77,10L452.6,105L469.57,105L472.4,116.88L475.23,105L478.06,105L483.71,105L486.54,10L495.03,10L497.86,188.13L500.69,200L503.51,200L512,200" style="vector-effect: none; fill: none; stroke: rgb(255, 165, 0); stroke-opacity: 1; stroke-width: 0px; opacity: 1;"/></g><g class="points"/><g class="text"/></g></g></g></g><path class="xlines-above crisp" d="M0,0" style="fill: none;"/><path class="ylines-above crisp" d="M0,0" style="fill: none;"/><g class="overlines-above"/><g class="xaxislayer-above"/><g class="yaxislayer-above"/><g class="overaxes-above"/></g></g><g class="polarlayer"/><g class="smithlayer"/><g class="ternarylayer"/><g class="geolayer"/><g class="funnelarealayer"/><g class="pielayer"/><g class="iciclelayer"/><g class="treemaplayer"/><g class="sunburstlayer"/><g class="glimages"/><defs id="topdefs-972e48"><g class="clips"/></defs><g class="layer-above"><g class="imagelayer"/><g class="shapelayer"/></g><g class="infolayer"><g class="g-gtitle"/></g></svg>