<svg class="main-svg" xmlns="http://www.w3.org/2000/svg" xmlns:xlink="http://www.w3.org/1999/xlink" width="512" height="200" viewBox="0 0 512 200" style=""><rect x="0" y="0" width="512" height="200" style="fill: rgb(0, 0, 0); fill-opacity: 0;"/><defs id="defs-507d28"><g class="clips"><clipPath id="clip507d28xyplot" class="plotclip"><rect width="512" height="200"/></clipPath><clipPath class="axesclip" id="clip507d28x"><rect x="0" y="0" width="512" height="200"/></clipPath><clipPath class="axesclip" id="clip507d28y"><rect x="0" y="0" width="512" height="200"/></clipPath><clipPath class="axesclip" id="clip507d28xy"><rect x="0" y="0" width="512" height="200"/></clipPath></g><g class="gradients"/><g class="patterns"/></defs><g class="bglayer"><rect class="bg" x="0" y="0" width="512" height="200" style="fill: rgb(0, 0, 0); fill-opacity: 0; stroke-width: 0;"/></g><g class="layer-below"><g class="imagelayer"/><g class="shapelayer"/></g><g class="cartesianlayer"><g class="subplot xy"><g class="layer-subplot"><g class="shapelayer"/><g class="imagelayer"/></g><g class="minor-gridlayer"><g class="x"/><g class="y"/></g><g class="gridlayer"><g class="x"/><g class="y"/></g><g class="zerolinelayer"/><g class="layer-between"><g class="shapelayer"/><g class="imagelayer"/></g><path class="xlines-below"/><path class="ylines-below"/><g class="overlines-below"/><g class="xaxislayer-below"/><g class="yaxislayer-below"/><g class="overaxes-below"/><g class="overplot"><g class="xy" transform="" clip-path="url(#clip507d28xyplot)"><g class="scatterlayer mlayer"><g class="trace scatter trace260516" style="stroke-miterlimit: 2;"><g class="fills"><g><path class="js-fill" d="M512,200L0,200L0,200L28.24,200L30.12,140.63L33.88,200L35.76,200L37.65,140.63L39.53,176.25L41.41,200L43.29,200L45.18,140.63L47.06,176.25L48.94,200L50.82,200L52.71,140.63L54.59,176.25L56.47,200L58.35,200L60.24,176.25L62.12,200L65.88,176.25L67.76,176.25L69.65,176.25L71.53,200L75.29,176.25L77.18,188.13L79.06,176.25L80.94,188.13L84.71,164.38L86.59,200L88.47,200L90.35,10L111.06,10L112.94,140.63L116.71,200L118.59,200L120.47,10L122.35,10L175.06,10L176.94,105L178.82,105L180.71,10L190.12,10L192,45.62L193.88,10L195.76,10L220.24,10L222.12,45.62L224,10L225.88,10L235.29,10L237.18,105L244.71,105L246.59,116.87L248.47,105L250.35,105L252.24,105L254.12,116.87L256,105L257.88,105L267.29,105L269.18,116.87L271.06,105L272.94,105L274.82,105L276.71,116.87L278.59,105L280.47,105L282.35,105L284.24,116.87L286.12,105L288,105L297.41,105L299.29,116.87L301.18,10L303.06,10L329.41,10L331.29,140.63L335.06,200L336.94,200L338.82,140.63L340.71,176.25L342.59,200L344.47,176.25L346.35,105L348.24,200L352,200L353.88,140.63L357.65,200L359.53,200L361.41,10L363.29,10L370.82,10L372.71,45.62L374.59,10L376.47,10L400.94,10L402.82,45.62L404.71,10L406.59,10L480,10L481.88,128.75L485.65,128.75L487.53,116.87L489.41,128.75L491.29,128.75L493.18,128.75L495.06,116.87L496.94,128.75L498.82,128.75L500.71,128.75L502.59,116.87L504.47,128.75L506.35,128.75L508.24,128.75L510.12,116.87L512,188.13" style="fill: rgb(239, 68, 68); fill-opacity: 1; stroke-width: 0;"/></g></g><g class="errorbars"/><g class="lines"><path class="js-line" d="M0,200L28.24,200L30.12,140.63L33.88,200L35.76,200L37.65,140.63L39.53,176.25L41.41,200L43.29,200L45.18,140.63L47.06,176.25L48.94,200L50.82,200L52.71,140.63L54.59,176.25L56.47,200L58.35,200L60.24,176.25L62.12,200L65.88,176.25L67.76,176.25L69.65,176.25L71.53,200L75.29,176.25L77.18,188.13L79.06,176.25L80.94,188.13L84.71,164.38L86.59,200L88.47,200L90.35,10L111.06,10L112.94,140.63L116.71,200L118.59,200L120.47,10L122.35,10L175.06,10L176.94,105L178.82,105L180.71,10L190.12,10L192,45.62L193.88,10L195.76,10L220.24,10L222.12,45.62L224,10L225.88,10L235.29,10L237.18,105L244.71,105L246.59,116.87L248.47,105L250.35,105L252.24,105L254.12,116.87L256,105L257.88,105L267.29,105L269.18,116.87L271.06,105L272.94,105L274.82,105L276.71,116.87L278.59,105L280.47,105L282.35,105L284.24,116.87L286.12,105L288,105L297.41,105L299.29,116.87L301.18,10L303.06,10L329.41,10L331.29,140.63L335.06,200L336.94,200L338.82,140.63L340.71,176.25L342.59,200L344.47,176.25L346.35,105L348.24,200L352,200L353.88,140.63L357.65,200L359.53,200L361.41,10L363.29,10L370.82,10L372.71,45.62L374.59,10L376.47,10L400.94,10L402.82,45.62L404.71,10L406.59,10L480,10L481.88,128.75L485.65,128.75L487.53,116.87L489.41,128.75L491.29,128.75L493.18,128.75L495.06,116.87L496.94,128.75L498.82,128.75L500.71,128.75L502.59,116.87L504.47,128.75L506.35,128.75L508.24,128.75L510.12,116.87L512,188.13" style="vector-effect: none; fill: none; stroke: rgb(255, 165, 0); stroke-opacity: 1; stroke-width: 0px; opacity: 1;"/></g><g class="points"/><g class="text"/></g></g></g></g><path class="xlines-above crisp" d="M0,0" style="fill: none;"/><path class="ylines-above crisp" d="M0,0" style="fill: none;"/><g class="overlines-above"/><g class="xaxislayer-above"/><g class="yaxislayer-above"/><g class="overaxes-above"/></g></g><g class="polarlayer"/><g class="smithlayer"/><g class="ternarylayer"/><g class="geolayer"/><g class="funnelarealayer"/><g class="pielayer"/><g class="iciclelayer"/><g class="treemaplayer"/><g class="sunburstlayer"/><g class="glimages"/><defs id="topdefs-507d28"><g class="clips"/></defs><g class="layer-above"><g class="imagelayer"/><g class="shapelayer"/></g><g class="infolayer"><g class="g-gtitle"/></g></svg>