<svg class="main-svg" xmlns="http://www.w3.org/2000/svg" xmlns:xlink="http://www.w3.org/1999/xlink" width="512" height="200" style="" viewBox="0 0 512 200"><rect x="0" y="0" width="512" height="200" style="fill: rgb(0, 0, 0); fill-opacity: 0;"/><defs id="defs-a485ed"><g class="clips"><clipPath id="clipa485edxyplot" class="plotclip"><rect width="512" height="200"/></clipPath><clipPath class="axesclip" id="clipa485edx"><rect x="0" y="0" width="512" height="200"/></clipPath><clipPath class="axesclip" id="clipa485edy"><rect x="0" y="0" width="512" height="200"/></clipPath><clipPath class="axesclip" id="clipa485edxy"><rect x="0" y="0" width="512" height="200"/></clipPath></g><g class="gradients"/><g class="patterns"/></defs><g class="bglayer"><rect class="bg" x="0" y="0" width="512" height="200" style="fill: rgb(0, 0, 0); fill-opacity: 0; stroke-width: 0;"/></g><g class="layer-below"><g class="imagelayer"/><g class="shapelayer"/></g><g class="cartesianlayer"><g class="subplot xy"><g class="layer-subplot"><g class="shapelayer"/><g class="imagelayer"/></g><g class="minor-gridlayer"><g class="x"/><g class="y"/></g><g class="gridlayer"><g class="x"/><g class="y"/></g><g class="zerolinelayer"/><g class="layer-between"><g class="shapelayer"/><g class="imagelayer"/></g><path class="xlines-below"/><path class="ylines-below"/><g class="overlines-below"/><g class="xaxislayer-below"/><g class="yaxislayer-below"/><g class="overaxes-below"/><g class="overplot"><g class="xy" transform="" clip-path="url(#clipa485edxyplot)"><g class="scatterlayer mlayer"><g class="trace scatter trace65d8f2" style="stroke-miterlimit: 2;"><g class="fills"><g><path class="js-fill" d="M512,200L0,200L0,200L28.24,200L30.12,10L32,200L33.88,200L35.76,200L37.65,10L39.53,200L41.41,200L43.29,200L45.18,10L47.06,200L48.94,200L50.82,200L52.71,10L54.59,200L56.47,200L58.35,200L60.24,10L62.12,200L64,200L65.88,200L67.76,10L69.65,200L71.53,200L73.41,200L75.29,10L77.18,200L79.06,200L80.94,200L82.82,10L84.71,200L86.59,200L88.47,200L90.35,10L92.24,200L94.12,10L96,200L97.88,10L99.76,200L101.65,10L103.53,200L105.41,10L107.29,200L109.18,10L111.06,200L112.94,10L114.82,200L116.71,200L118.59,200L120.47,10L301.18,10L303.06,200L304.94,10L306.82,200L308.71,10L310.59,200L312.47,10L314.35,200L316.24,10L318.12,200L320,10L321.88,200L323.76,10L325.65,200L327.53,10L329.41,200L331.29,10L333.18,200L336.94,200L338.82,10L340.71,200L342.59,200L344.47,200L346.35,10L348.24,200L350.12,200L352,200L353.88,10L355.76,200L357.65,200L359.53,200L361.41,10L481.88,10L483.76,200L485.65,10L487.53,200L489.41,10L491.29,200L493.18,10L495.06,200L496.94,10L498.82,200L500.71,10L502.59,200L504.47,10L506.35,200L508.24,10L510.12,200L512,10" style="fill: rgb(133, 94, 232); fill-opacity: 1; stroke-width: 0;"/></g></g><g class="errorbars"/><g class="lines"><path class="js-line" d="M0,200L28.24,200L30.12,10L32,200L33.88,200L35.76,200L37.65,10L39.53,200L41.41,200L43.29,200L45.18,10L47.06,200L48.94,200L50.82,200L52.71,10L54.59,200L56.47,200L58.35,200L60.24,10L62.12,200L64,200L65.88,200L67.76,10L69.65,200L71.53,200L73.41,200L75.29,10L77.18,200L79.06,200L80.94,200L82.82,10L84.71,200L86.59,200L88.47,200L90.35,10L92.24,200L94.12,10L96,200L97.88,10L99.76,200L101.65,10L103.53,200L105.41,10L107.29,200L109.18,10L111.06,200L112.94,10L114.82,200L116.71,200L118.59,200L120.47,10L301.18,10L303.06,200L304.94,10L306.82,200L308.71,10L310.59,200L312.47,10L314.35,200L316.24,10L318.12,200L320,10L321.88,200L323.76,10L325.65,200L327.53,10L329.41,200L331.29,10L333.18,200L336.94,200L338.82,10L340.71,200L342.59,200L344.47,200L346.35,10L348.24,200L350.12,200L352,200L353.88,10L355.76,200L357.65,200L359.53,200L361.41,10L481.88,10L483.76,200L485.65,10L487.53,200L489.41,10L491.29,200L493.18,10L495.06,200L496.94,10L498.82,200L500.71,10L502.59,200L504.47,10L506.35,200L508.24,10L510.12,200L512,10" style="vector-effect: none; fill: none; stroke: rgb(255, 165, 0); stroke-opacity: 1; stroke-width: 0px; opacity: 1;"/></g><g class="points"/><g class="text"/></g></g></g></g><path class="xlines-above crisp" d="M0,0" style="fill: none;"/><path class="ylines-above crisp" d="M0,0" style="fill: none;"/><g class="overlines-above"/><g class="xaxislayer-above"/><g class="yaxislayer-above"/><g class="overaxes-above"/></g></g><g class="polarlayer"/><g class="smithlayer"/><g class="ternarylayer"/><g class="geolayer"/><g class="funnelarealayer"/><g class="pielayer"/><g class="iciclelayer"/><g class="treemaplayer"/><g class="sunburstlayer"/><g class="glimages"/><defs id="topdefs-a485ed"><g class="clips"/></defs><g class="layer-above"><g class="imagelayer"/><g class="shapelayer"/></g><g class="infolayer"><g class="g-gtitle"/></g></svg>