<svg class="main-svg" xmlns="http://www.w3.org/2000/svg" xmlns:xlink="http://www.w3.org/1999/xlink" width="512" height="200" style="" viewBox="0 0 512 200"><rect x="0" y="0" width="512" height="200" style="fill: rgb(0, 0, 0); fill-opacity: 0;"/><defs id="defs-9aa62a"><g class="clips"><clipPath id="clip9aa62axyplot" class="plotclip"><rect width="512" height="200"/></clipPath><clipPath class="axesclip" id="clip9aa62ax"><rect x="0" y="0" width="512" height="200"/></clipPath><clipPath class="axesclip" id="clip9aa62ay"><rect x="0" y="0" width="512" height="200"/></clipPath><clipPath class="axesclip" id="clip9aa62axy"><rect x="0" y="0" width="512" height="200"/></clipPath></g><g class="gradients"/><g class="patterns"/></defs><g class="bglayer"><rect class="bg" x="0" y="0" width="512" height="200" style="fill: rgb(0, 0, 0); fill-opacity: 0; stroke-width: 0;"/></g><g class="layer-below"><g class="imagelayer"/><g class="shapelayer"/></g><g class="cartesianlayer"><g class="subplot xy"><g class="layer-subplot"><g class="shapelayer"/><g class="imagelayer"/></g><g class="minor-gridlayer"><g class="x"/><g class="y"/></g><g class="gridlayer"><g class="x"/><g class="y"/></g><g class="zerolinelayer"/><g class="layer-between"><g class="shapelayer"/><g class="imagelayer"/></g><path class="xlines-below"/><path class="ylines-below"/><g class="overlines-below"/><g class="xaxislayer-below"/><g class="yaxislayer-below"/><g class="overaxes-below"/><g class="overplot"><g class="xy" transform="" clip-path="url(#clip9aa62axyplot)"><g class="scatterlayer mlayer"><g class="trace scatter trace71ae1b" style="stroke-miterlimit: 2;"><g class="fills"><g><path class="js-fill" d="M512,200L0,200L0,200L17.36,200L21.69,10L26.03,200L30.37,10L34.71,200L39.05,10L73.76,10L78.1,200L86.78,200L91.12,10L203.93,10L208.27,200L216.95,200L221.29,10L299.39,10L303.73,200L308.07,10L312.41,200L316.75,10L321.08,10L325.42,200L329.76,10L334.1,200L338.44,200L342.78,200L347.12,10L351.46,200L355.8,200L360.14,200L364.47,10L442.58,10L446.92,200L451.25,10L455.59,200L459.93,10L464.27,10L468.61,200L472.95,10L481.63,10L485.97,200L490.31,10L494.64,200L498.98,10L503.32,10L507.66,200L512,10" style="fill: rgb(133, 94, 232); fill-opacity: 1; stroke-width: 0;"/></g></g><g class="errorbars"/><g class="lines"><path class="js-line" d="M0,200L17.36,200L21.69,10L26.03,200L30.37,10L34.71,200L39.05,10L73.76,10L78.1,200L86.78,200L91.12,10L203.93,10L208.27,200L216.95,200L221.29,10L299.39,10L303.73,200L308.07,10L312.41,200L316.75,10L321.08,10L325.42,200L329.76,10L334.1,200L338.44,200L342.78,200L347.12,10L351.46,200L355.8,200L360.14,200L364.47,10L442.58,10L446.92,200L451.25,10L455.59,200L459.93,10L464.27,10L468.61,200L472.95,10L481.63,10L485.97,200L490.31,10L494.64,200L498.98,10L503.32,10L507.66,200L512,10" style="vector-effect: none; fill: none; stroke: rgb(255, 165, 0); stroke-opacity: 1; stroke-width: 0px; opacity: 1;"/></g><g class="points"/><g class="text"/></g></g></g></g><path class="xlines-above crisp" d="M0,0" style="fill: none;"/><path class="ylines-above crisp" d="M0,0" style="fill: none;"/><g class="overlines-above"/><g class="xaxislayer-above"/><g class="yaxislayer-above"/><g class="overaxes-above"/></g></g><g class="polarlayer"/><g class="smithlayer"/><g class="ternarylayer"/><g class="geolayer"/><g class="funnelarealayer"/><g class="pielayer"/><g class="iciclelayer"/><g class="treemaplayer"/><g class="sunburstlayer"/><g class="glimages"/><defs id="topdefs-9aa62a"><g class="clips"/></defs><g class="layer-above"><g class="imagelayer"/><g class="shapelayer"/></g><g class="infolayer"><g class="g-gtitle"/></g></svg>