<svg class="main-svg" xmlns="http://www.w3.org/2000/svg" xmlns:xlink="http://www.w3.org/1999/xlink" width="512" height="200" style="" viewBox="0 0 512 200"><rect x="0" y="0" width="512" height="200" style="fill: rgb(0, 0, 0); fill-opacity: 0;"/><defs id="defs-139e11"><g class="clips"><clipPath id="clip139e11xyplot" class="plotclip"><rect width="512" height="200"/></clipPath><clipPath class="axesclip" id="clip139e11x"><rect x="0" y="0" width="512" height="200"/></clipPath><clipPath class="axesclip" id="clip139e11y"><rect x="0" y="0" width="512" height="200"/></clipPath><clipPath class="axesclip" id="clip139e11xy"><rect x="0" y="0" width="512" height="200"/></clipPath></g><g class="gradients"/><g class="patterns"/></defs><g class="bglayer"><rect class="bg" x="0" y="0" width="512" height="200" style="fill: rgb(0, 0, 0); fill-opacity: 0; stroke-width: 0;"/></g><g class="layer-below"><g class="imagelayer"/><g class="shapelayer"/></g><g class="cartesianlayer"><g class="subplot xy"><g class="layer-subplot"><g class="shapelayer"/><g class="imagelayer"/></g><g class="minor-gridlayer"><g class="x"/><g class="y"/></g><g class="gridlayer"><g class="x"/><g class="y"/></g><g class="zerolinelayer"/><g class="layer-between"><g class="shapelayer"/><g class="imagelayer"/></g><path class="xlines-below"/><path class="ylines-below"/><g class="overlines-below"/><g class="xaxislayer-below"/><g class="yaxislayer-below"/><g class="overaxes-below"/><g class="overplot"><g class="xy" transform="" clip-path="url(#clip139e11xyplot)"><g class="scatterlayer mlayer"><g class="trace scatter trace71fcb2" style="stroke-miterlimit: 2;"><g class="fills"><g><path class="js-fill" d="M512,200L0,200L0,200L16.93,200L21.16,81.25L25.39,81.25L29.62,105L33.85,105L38.08,33.75L42.31,10L46.55,10L63.47,10L67.7,21.88L71.93,152.5L76.17,128.75L80.4,152.5L84.63,152.5L88.86,81.25L93.09,69.38L97.32,93.13L101.55,105L105.79,81.25L110.02,69.38L114.25,93.13L118.48,93.13L122.71,10L126.94,10L152.33,10L156.56,81.25L160.79,105L165.02,33.75L169.26,10L173.49,10L190.41,10L194.64,21.88L198.88,152.5L203.11,128.75L207.34,152.5L211.57,152.5L215.8,81.25L220.03,69.38L224.26,93.13L228.5,105L232.73,81.25L236.96,69.38L241.19,93.13L245.42,93.13L249.65,10L253.88,10L275.04,10L279.27,57.5L283.5,10L287.74,10L317.36,10L321.59,140.63L325.82,152.5L330.05,140.63L334.28,188.13L338.51,140.63L342.74,152.5L346.98,140.63L351.21,188.13L355.44,140.63L363.9,140.63L368.13,128.75L372.36,140.63L376.6,140.63L380.83,140.63L385.06,93.13L389.29,10L393.52,10L414.68,10L418.91,57.5L423.14,10L427.37,10L495.07,10L499.31,188.13L503.54,57.5L507.77,128.75L512,128.75" style="fill: rgb(239, 68, 68); fill-opacity: 1; stroke-width: 0;"/></g></g><g class="errorbars"/><g class="lines"><path class="js-line" d="M0,200L16.93,200L21.16,81.25L25.39,81.25L29.62,105L33.85,105L38.08,33.75L42.31,10L46.55,10L63.47,10L67.7,21.88L71.93,152.5L76.17,128.75L80.4,152.5L84.63,152.5L88.86,81.25L93.09,69.38L97.32,93.13L101.55,105L105.79,81.25L110.02,69.38L114.25,93.13L118.48,93.13L122.71,10L126.94,10L152.33,10L156.56,81.25L160.79,105L165.02,33.75L169.26,10L173.49,10L190.41,10L194.64,21.88L198.88,152.5L203.11,128.75L207.34,152.5L211.57,152.5L215.8,81.25L220.03,69.38L224.26,93.13L228.5,105L232.73,81.25L236.96,69.38L241.19,93.13L245.42,93.13L249.65,10L253.88,10L275.04,10L279.27,57.5L283.5,10L287.74,10L317.36,10L321.59,140.63L325.82,152.5L330.05,140.63L334.28,188.13L338.51,140.63L342.74,152.5L346.98,140.63L351.21,188.13L355.44,140.63L363.9,140.63L368.13,128.75L372.36,140.63L376.6,140.63L380.83,140.63L385.06,93.13L389.29,10L393.52,10L414.68,10L418.91,57.5L423.14,10L427.37,10L495.07,10L499.31,188.13L503.54,57.5L507.77,128.75L512,128.75" style="vector-effect: none; fill: none; stroke: rgb(255, 165, 0); stroke-opacity: 1; stroke-width: 0px; opacity: 1;"/></g><g class="points"/><g class="text"/></g></g></g></g><path class="xlines-above crisp" d="M0,0" style="fill: none;"/><path class="ylines-above crisp" d="M0,0" style="fill: none;"/><g class="overlines-above"/><g class="xaxislayer-above"/><g class="yaxislayer-above"/><g class="overaxes-above"/></g></g><g class="polarlayer"/><g class="smithlayer"/><g class="ternarylayer"/><g class="geolayer"/><g class="funnelarealayer"/><g class="pielayer"/><g class="iciclelayer"/><g class="treemaplayer"/><g class="sunburstlayer"/><g class="glimages"/><defs id="topdefs-139e11"><g class="clips"/></defs><g class="layer-above"><g class="imagelayer"/><g class="shapelayer"/></g><g class="infolayer"><g class="g-gtitle"/></g></svg>