<svg class="main-svg" xmlns="http://www.w3.org/2000/svg" xmlns:xlink="http://www.w3.org/1999/xlink" width="512" height="200" style="" viewBox="0 0 512 200"><rect x="0" y="0" width="512" height="200" style="fill: rgb(0, 0, 0); fill-opacity: 0;"/><defs id="defs-bddbff"><g class="clips"><clipPath id="clipbddbffxyplot" class="plotclip"><rect width="512" height="200"/></clipPath><clipPath class="axesclip" id="clipbddbffx"><rect x="0" y="0" width="512" height="200"/></clipPath><clipPath class="axesclip" id="clipbddbffy"><rect x="0" y="0" width="512" height="200"/></clipPath><clipPath class="axesclip" id="clipbddbffxy"><rect x="0" y="0" width="512" height="200"/></clipPath></g><g class="gradients"/><g class="patterns"/></defs><g class="bglayer"><rect class="bg" x="0" y="0" width="512" height="200" style="fill: rgb(0, 0, 0); fill-opacity: 0; stroke-width: 0;"/></g><g class="layer-below"><g class="imagelayer"/><g class="shapelayer"/></g><g class="cartesianlayer"><g class="subplot xy"><g class="layer-subplot"><g class="shapelayer"/><g class="imagelayer"/></g><g class="minor-gridlayer"><g class="x"/><g class="y"/></g><g class="gridlayer"><g class="x"/><g class="y"/></g><g class="zerolinelayer"/><g class="layer-between"><g class="shapelayer"/><g class="imagelayer"/></g><path class="xlines-below"/><path class="ylines-below"/><g class="overlines-below"/><g class="xaxislayer-below"/><g class="yaxislayer-below"/><g class="overaxes-below"/><g class="overplot"><g class="xy" transform="" clip-path="url(#clipbddbffxyplot)"><g class="scatterlayer mlayer"><g class="trace scatter trace1b8736" style="stroke-miterlimit: 2;"><g class="fills"><g><path class="js-fill" d="M512,200L0,200L0,200L16.93,200L21.16,116.88L25.39,116.88L29.62,105L33.85,105L38.08,116.88L42.31,105L46.55,105L50.78,116.88L55.01,105L59.24,105L63.47,128.75L67.7,93.13L71.93,152.5L76.17,128.75L80.4,152.5L84.63,152.5L88.86,105L97.32,128.75L101.55,105L105.79,105L110.02,116.88L114.25,128.75L118.48,93.13L122.71,10L126.94,10L152.33,10L156.56,81.25L165.02,128.75L169.26,105L173.49,116.88L177.72,116.88L181.95,116.88L186.18,128.75L190.41,116.88L194.64,93.13L198.88,152.5L203.11,128.75L207.34,152.5L211.57,152.5L215.8,105L220.03,116.88L224.26,128.75L228.5,105L232.73,105L236.96,116.88L241.19,128.75L245.42,93.13L249.65,10L253.88,10L275.04,10L279.27,57.5L283.5,152.5L287.74,128.75L291.97,140.63L296.2,128.75L300.43,128.75L304.66,140.63L308.89,128.75L313.12,152.5L317.36,105L321.59,140.63L325.82,152.5L330.05,140.63L334.28,188.13L338.51,140.63L342.74,152.5L346.98,140.63L351.21,188.13L355.44,140.63L363.9,140.63L368.13,128.75L372.36,140.63L376.6,140.63L380.83,140.63L385.06,93.13L389.29,10L393.52,10L414.68,10L418.91,57.5L423.14,152.5L427.37,128.75L431.6,140.63L435.83,128.75L440.07,128.75L444.3,140.63L448.53,128.75L452.76,152.5L456.99,105L461.22,140.63L469.69,140.63L473.92,128.75L478.15,128.75L482.38,140.63L486.61,152.5L490.84,140.63L495.07,116.88L499.31,188.13L503.54,57.5L507.77,128.75L512,128.75" style="fill: rgb(253, 224, 71); fill-opacity: 1; stroke-width: 0;"/></g></g><g class="errorbars"/><g class="lines"><path class="js-line" d="M0,200L16.93,200L21.16,116.88L25.39,116.88L29.62,105L33.85,105L38.08,116.88L42.31,105L46.55,105L50.78,116.88L55.01,105L59.24,105L63.47,128.75L67.7,93.13L71.93,152.5L76.17,128.75L80.4,152.5L84.63,152.5L88.86,105L97.32,128.75L101.55,105L105.79,105L110.02,116.88L114.25,128.75L118.48,93.13L122.71,10L126.94,10L152.33,10L156.56,81.25L165.02,128.75L169.26,105L173.49,116.88L177.72,116.88L181.95,116.88L186.18,128.75L190.41,116.88L194.64,93.13L198.88,152.5L203.11,128.75L207.34,152.5L211.57,152.5L215.8,105L220.03,116.88L224.26,128.75L228.5,105L232.73,105L236.96,116.88L241.19,128.75L245.42,93.13L249.65,10L253.88,10L275.04,10L279.27,57.5L283.5,152.5L287.74,128.75L291.97,140.63L296.2,128.75L300.43,128.75L304.66,140.63L308.89,128.75L313.12,152.5L317.36,105L321.59,140.63L325.82,152.5L330.05,140.63L334.28,188.13L338.51,140.63L342.74,152.5L346.98,140.63L351.21,188.13L355.44,140.63L363.9,140.63L368.13,128.75L372.36,140.63L376.6,140.63L380.83,140.63L385.06,93.13L389.29,10L393.52,10L414.68,10L418.91,57.5L423.14,152.5L427.37,128.75L431.6,140.63L435.83,128.75L440.07,128.75L444.3,140.63L448.53,128.75L452.76,152.5L456.99,105L461.22,140.63L469.69,140.63L473.92,128.75L478.15,128.75L482.38,140.63L486.61,152.5L490.84,140.63L495.07,116.88L499.31,188.13L503.54,57.5L507.77,128.75L512,128.75" style="vector-effect: none; fill: none; stroke: rgb(255, 165, 0); stroke-opacity: 1; stroke-width: 0px; opacity: 1;"/></g><g class="points"/><g class="text"/></g></g></g></g><path class="xlines-above crisp" d="M0,0" style="fill: none;"/><path class="ylines-above crisp" d="M0,0" style="fill: none;"/><g class="overlines-above"/><g class="xaxislayer-above"/><g class="yaxislayer-above"/><g class="overaxes-above"/></g></g><g class="polarlayer"/><g class="smithlayer"/><g class="ternarylayer"/><g class="geolayer"/><g class="funnelarealayer"/><g class="pielayer"/><g class="iciclelayer"/><g class="treemaplayer"/><g class="sunburstlayer"/><g class="glimages"/><defs id="topdefs-bddbff"><g class="clips"/></defs><g class="layer-above"><g class="imagelayer"/><g class="shapelayer"/></g><g class="infolayer"><g class="g-gtitle"/></g></svg>