<svg class="main-svg" xmlns="http://www.w3.org/2000/svg" xmlns:xlink="http://www.w3.org/1999/xlink" width="512" height="200" style="" viewBox="0 0 512 200"><rect x="0" y="0" width="512" height="200" style="fill: rgb(0, 0, 0); fill-opacity: 0;"/><defs id="defs-3b4d25"><g class="clips"><clipPath id="clip3b4d25xyplot" class="plotclip"><rect width="512" height="200"/></clipPath><clipPath class="axesclip" id="clip3b4d25x"><rect x="0" y="0" width="512" height="200"/></clipPath><clipPath class="axesclip" id="clip3b4d25y"><rect x="0" y="0" width="512" height="200"/></clipPath><clipPath class="axesclip" id="clip3b4d25xy"><rect x="0" y="0" width="512" height="200"/></clipPath></g><g class="gradients"/><g class="patterns"/></defs><g class="bglayer"><rect class="bg" x="0" y="0" width="512" height="200" style="fill: rgb(0, 0, 0); fill-opacity: 0; stroke-width: 0;"/></g><g class="layer-below"><g class="imagelayer"/><g class="shapelayer"/></g><g class="cartesianlayer"><g class="subplot xy"><g class="layer-subplot"><g class="shapelayer"/><g class="imagelayer"/></g><g class="minor-gridlayer"><g class="x"/><g class="y"/></g><g class="gridlayer"><g class="x"/><g class="y"/></g><g class="zerolinelayer"/><g class="layer-between"><g class="shapelayer"/><g class="imagelayer"/></g><path class="xlines-below"/><path class="ylines-below"/><g class="overlines-below"/><g class="xaxislayer-below"/><g class="yaxislayer-below"/><g class="overaxes-below"/><g class="overplot"><g class="xy" transform="" clip-path="url(#clip3b4d25xyplot)"><g class="scatterlayer mlayer"><g class="trace scatter trace957820" style="stroke-miterlimit: 2;"><g class="fills"><g><path class="js-fill" d="M512,200L0,200L0,140.63L12.96,140.63L19.44,128.75L25.92,140.63L32.41,140.63L38.89,140.63L45.37,128.75L51.85,10L58.33,10L71.29,10L77.77,105L90.73,105L97.22,81.25L103.7,10L110.18,10L123.14,10L129.62,105L142.58,105L149.06,81.25L155.54,140.63L162.03,140.63L168.51,140.63L174.99,128.75L181.47,140.63L187.95,140.63L194.43,140.63L200.91,128.75L207.39,10L213.87,10L226.84,10L233.32,105L246.28,105L252.76,93.13L259.24,10L265.72,10L278.68,10L285.16,105L298.13,105L304.61,93.13L311.09,152.5L317.57,152.5L330.53,152.5L337.01,116.88L343.49,128.75L349.97,128.75L356.46,81.25L362.94,57.5L382.38,57.5L388.86,105L401.82,105L408.3,69.38L414.78,10L421.27,10L460.15,10L466.63,105L499.04,105L505.52,152.5L512,164.38" style="fill: rgb(239, 68, 68); fill-opacity: 1; stroke-width: 0;"/></g></g><g class="errorbars"/><g class="lines"><path class="js-line" d="M0,140.63L12.96,140.63L19.44,128.75L25.92,140.63L32.41,140.63L38.89,140.63L45.37,128.75L51.85,10L58.33,10L71.29,10L77.77,105L90.73,105L97.22,81.25L103.7,10L110.18,10L123.14,10L129.62,105L142.58,105L149.06,81.25L155.54,140.63L162.03,140.63L168.51,140.63L174.99,128.75L181.47,140.63L187.95,140.63L194.43,140.63L200.91,128.75L207.39,10L213.87,10L226.84,10L233.32,105L246.28,105L252.76,93.13L259.24,10L265.72,10L278.68,10L285.16,105L298.13,105L304.61,93.13L311.09,152.5L317.57,152.5L330.53,152.5L337.01,116.88L343.49,128.75L349.97,128.75L356.46,81.25L362.94,57.5L382.38,57.5L388.86,105L401.82,105L408.3,69.38L414.78,10L421.27,10L460.15,10L466.63,105L499.04,105L505.52,152.5L512,164.38" style="vector-effect: none; fill: none; stroke: rgb(255, 165, 0); stroke-opacity: 1; stroke-width: 0px; opacity: 1;"/></g><g class="points"/><g class="text"/></g></g></g></g><path class="xlines-above crisp" d="M0,0" style="fill: none;"/><path class="ylines-above crisp" d="M0,0" style="fill: none;"/><g class="overlines-above"/><g class="xaxislayer-above"/><g class="yaxislayer-above"/><g class="overaxes-above"/></g></g><g class="polarlayer"/><g class="smithlayer"/><g class="ternarylayer"/><g class="geolayer"/><g class="funnelarealayer"/><g class="pielayer"/><g class="iciclelayer"/><g class="treemaplayer"/><g class="sunburstlayer"/><g class="glimages"/><defs id="topdefs-3b4d25"><g class="clips"/></defs><g class="layer-above"><g class="imagelayer"/><g class="shapelayer"/></g><g class="infolayer"><g class="g-gtitle"/></g></svg>