<svg class="main-svg" xmlns="http://www.w3.org/2000/svg" xmlns:xlink="http://www.w3.org/1999/xlink" width="512" height="200" viewBox="0 0 512 200" style=""><rect x="0" y="0" width="512" height="200" style="fill: rgb(0, 0, 0); fill-opacity: 0;"/><defs id="defs-ff7b67"><g class="clips"><clipPath id="clipff7b67xyplot" class="plotclip"><rect width="512" height="200"/></clipPath><clipPath class="axesclip" id="clipff7b67x"><rect x="0" y="0" width="512" height="200"/></clipPath><clipPath class="axesclip" id="clipff7b67y"><rect x="0" y="0" width="512" height="200"/></clipPath><clipPath class="axesclip" id="clipff7b67xy"><rect x="0" y="0" width="512" height="200"/></clipPath></g><g class="gradients"/><g class="patterns"/></defs><g class="bglayer"><rect class="bg" x="0" y="0" width="512" height="200" style="fill: rgb(0, 0, 0); fill-opacity: 0; stroke-width: 0;"/></g><g class="layer-below"><g class="imagelayer"/><g class="shapelayer"/></g><g class="cartesianlayer"><g class="subplot xy"><g class="layer-subplot"><g class="shapelayer"/><g class="imagelayer"/></g><g class="minor-gridlayer"><g class="x"/><g class="y"/></g><g class="gridlayer"><g class="x"/><g class="y"/></g><g class="zerolinelayer"/><g class="layer-between"><g class="shapelayer"/><g class="imagelayer"/></g><path class="xlines-below"/><path class="ylines-below"/><g class="overlines-below"/><g class="xaxislayer-below"/><g class="yaxislayer-below"/><g class="overaxes-below"/><g class="overplot"><g class="xy" transform="" clip-path="url(#clipff7b67xyplot)"><g class="scatterlayer mlayer"><g class="trace scatter tracee55346" style="stroke-miterlimit: 2;"><g class="fills"><g><path class="js-fill" d="M512,200L0,200L0,81.25L12.96,81.25L19.44,57.5L25.92,81.25L32.41,81.25L38.89,81.25L45.37,57.5L51.85,10L58.33,57.5L64.81,57.5L71.29,33.75L77.77,10L84.25,57.5L97.22,57.5L103.7,10L110.18,57.5L116.66,57.5L129.62,10L136.1,57.5L149.06,57.5L155.54,81.25L168.51,81.25L174.99,57.5L181.47,81.25L187.95,81.25L194.43,81.25L200.91,57.5L207.39,10L213.87,57.5L220.35,10L226.84,57.5L233.32,10L239.8,81.25L246.28,57.5L252.76,81.25L259.24,10L265.72,57.5L272.2,10L278.68,57.5L285.16,10L291.65,81.25L298.13,57.5L304.61,81.25L311.09,105L317.57,105L324.05,105L330.53,128.75L337.01,33.75L343.49,57.5L356.46,57.5L362.94,10L460.15,10L466.63,33.75L499.04,33.75L505.52,105L512,128.75" style="fill: rgb(74, 222, 128); fill-opacity: 1; stroke-width: 0;"/></g></g><g class="errorbars"/><g class="lines"><path class="js-line" d="M0,81.25L12.96,81.25L19.44,57.5L25.92,81.25L32.41,81.25L38.89,81.25L45.37,57.5L51.85,10L58.33,57.5L64.81,57.5L71.29,33.75L77.77,10L84.25,57.5L97.22,57.5L103.7,10L110.18,57.5L116.66,57.5L129.62,10L136.1,57.5L149.06,57.5L155.54,81.25L168.51,81.25L174.99,57.5L181.47,81.25L187.95,81.25L194.43,81.25L200.91,57.5L207.39,10L213.87,57.5L220.35,10L226.84,57.5L233.32,10L239.8,81.25L246.28,57.5L252.76,81.25L259.24,10L265.72,57.5L272.2,10L278.68,57.5L285.16,10L291.65,81.25L298.13,57.5L304.61,81.25L311.09,105L317.57,105L324.05,105L330.53,128.75L337.01,33.75L343.49,57.5L356.46,57.5L362.94,10L460.15,10L466.63,33.75L499.04,33.75L505.52,105L512,128.75" style="vector-effect: none; fill: none; stroke: rgb(255, 165, 0); stroke-opacity: 1; stroke-width: 0px; opacity: 1;"/></g><g class="points"/><g class="text"/></g></g></g></g><path class="xlines-above crisp" d="M0,0" style="fill: none;"/><path class="ylines-above crisp" d="M0,0" style="fill: none;"/><g class="overlines-above"/><g class="xaxislayer-above"/><g class="yaxislayer-above"/><g class="overaxes-above"/></g></g><g class="polarlayer"/><g class="smithlayer"/><g class="ternarylayer"/><g class="geolayer"/><g class="funnelarealayer"/><g class="pielayer"/><g class="iciclelayer"/><g class="treemaplayer"/><g class="sunburstlayer"/><g class="glimages"/><defs id="topdefs-ff7b67"><g class="clips"/></defs><g class="layer-above"><g class="imagelayer"/><g class="shapelayer"/></g><g class="infolayer"><g class="g-gtitle"/></g></svg>