<svg class="main-svg" xmlns="http://www.w3.org/2000/svg" xmlns:xlink="http://www.w3.org/1999/xlink" width="512" height="200" style="" viewBox="0 0 512 200"><rect x="0" y="0" width="512" height="200" style="fill: rgb(0, 0, 0); fill-opacity: 0;"/><defs id="defs-6779cb"><g class="clips"><clipPath id="clip6779cbxyplot" class="plotclip"><rect width="512" height="200"/></clipPath><clipPath class="axesclip" id="clip6779cbx"><rect x="0" y="0" width="512" height="200"/></clipPath><clipPath class="axesclip" id="clip6779cby"><rect x="0" y="0" width="512" height="200"/></clipPath><clipPath class="axesclip" id="clip6779cbxy"><rect x="0" y="0" width="512" height="200"/></clipPath></g><g class="gradients"/><g class="patterns"/></defs><g class="bglayer"><rect class="bg" x="0" y="0" width="512" height="200" style="fill: rgb(0, 0, 0); fill-opacity: 0; stroke-width: 0;"/></g><g class="layer-below"><g class="imagelayer"/><g class="shapelayer"/></g><g class="cartesianlayer"><g class="subplot xy"><g class="layer-subplot"><g class="shapelayer"/><g class="imagelayer"/></g><g class="minor-gridlayer"><g class="x"/><g class="y"/></g><g class="gridlayer"><g class="x"/><g class="y"/></g><g class="zerolinelayer"/><g class="layer-between"><g class="shapelayer"/><g class="imagelayer"/></g><path class="xlines-below"/><path class="ylines-below"/><g class="overlines-below"/><g class="xaxislayer-below"/><g class="yaxislayer-below"/><g class="overaxes-below"/><g class="overplot"><g class="xy" transform="" clip-path="url(#clip6779cbxyplot)"><g class="scatterlayer mlayer"><g class="trace scatter trace8aea73" style="stroke-miterlimit: 2;"><g class="fills"><g><path class="js-fill" d="M512,200L0,200L0,200L4.7,200L5.38,176.25L6.72,176.25L7.39,188.13L8.73,152.5L9.41,200L10.08,200L10.75,10L28.89,10L29.56,164.38L30.24,152.5L30.91,200L31.58,200L32.25,10L63.83,10L64.5,116.88L65.18,93.13L65.85,116.88L66.52,105L67.19,116.88L67.86,93.13L68.54,116.88L69.21,105L69.88,116.88L70.55,93.13L71.22,116.88L71.9,105L72.57,116.88L73.24,93.13L73.91,116.88L74.58,93.13L75.25,10L90.71,10L91.38,105L96.08,105L96.76,10L111.54,10L112.21,21.88L113.55,200L114.23,200L117.59,200L118.26,10L176.04,10L176.71,33.75L178.06,200L178.73,200L184.78,200L185.45,105L186.79,105L187.46,93.13L188.81,10L189.48,10L208.29,10L208.97,105L210.31,10L210.98,10L219.72,10L220.39,188.13L221.73,200L222.4,200L230.47,200L231.14,10L272.8,10L273.47,116.88L274.81,200L275.49,200L278.85,200L279.52,140.63L280.86,200L281.53,200L282.2,140.63L282.88,200L284.22,152.5L284.89,10L303.03,10L303.71,105L304.38,105L305.05,164.38L305.72,152.5L306.39,10L363.51,10L364.18,140.63L365.52,164.38L366.19,176.25L366.87,152.5L367.54,176.25L368.88,200L369.55,200L371.57,200L372.24,10L380.98,10L381.65,140.63L382.99,152.5L383.66,200L392.4,200L393.07,152.5L394.41,10L395.09,10L446.82,10L447.5,188.13L448.84,200L449.51,200L457.57,200L458.25,10L500.58,10L501.25,188.13L502.59,200L503.27,200L512,200" style="fill: rgb(96, 165, 250); fill-opacity: 1; stroke-width: 0;"/></g></g><g class="errorbars"/><g class="lines"><path class="js-line" d="M0,200L4.7,200L5.38,176.25L6.72,176.25L7.39,188.13L8.73,152.5L9.41,200L10.08,200L10.75,10L28.89,10L29.56,164.38L30.24,152.5L30.91,200L31.58,200L32.25,10L63.83,10L64.5,116.88L65.18,93.13L65.85,116.88L66.52,105L67.19,116.88L67.86,93.13L68.54,116.88L69.21,105L69.88,116.88L70.55,93.13L71.22,116.88L71.9,105L72.57,116.88L73.24,93.13L73.91,116.88L74.58,93.13L75.25,10L90.71,10L91.38,105L96.08,105L96.76,10L111.54,10L112.21,21.88L113.55,200L114.23,200L117.59,200L118.26,10L176.04,10L176.71,33.75L178.06,200L178.73,200L184.78,200L185.45,105L186.79,105L187.46,93.13L188.81,10L189.48,10L208.29,10L208.97,105L210.31,10L210.98,10L219.72,10L220.39,188.13L221.73,200L222.4,200L230.47,200L231.14,10L272.8,10L273.47,116.88L274.81,200L275.49,200L278.85,200L279.52,140.63L280.86,200L281.53,200L282.2,140.63L282.88,200L284.22,152.5L284.89,10L303.03,10L303.71,105L304.38,105L305.05,164.38L305.72,152.5L306.39,10L363.51,10L364.18,140.63L365.52,164.38L366.19,176.25L366.87,152.5L367.54,176.25L368.88,200L369.55,200L371.57,200L372.24,10L380.98,10L381.65,140.63L382.99,152.5L383.66,200L392.4,200L393.07,152.5L394.41,10L395.09,10L446.82,10L447.5,188.13L448.84,200L449.51,200L457.57,200L458.25,10L500.58,10L501.25,188.13L502.59,200L503.27,200L512,200" style="vector-effect: none; fill: none; stroke: rgb(255, 165, 0); stroke-opacity: 1; stroke-width: 0px; opacity: 1;"/></g><g class="points"/><g class="text"/></g></g></g></g><path class="xlines-above crisp" d="M0,0" style="fill: none;"/><path class="ylines-above crisp" d="M0,0" style="fill: none;"/><g class="overlines-above"/><g class="xaxislayer-above"/><g class="yaxislayer-above"/><g class="overaxes-above"/></g></g><g class="polarlayer"/><g class="smithlayer"/><g class="ternarylayer"/><g class="geolayer"/><g class="funnelarealayer"/><g class="pielayer"/><g class="iciclelayer"/><g class="treemaplayer"/><g class="sunburstlayer"/><g class="glimages"/><defs id="topdefs-6779cb"><g class="clips"/></defs><g class="layer-above"><g class="imagelayer"/><g class="shapelayer"/></g><g class="infolayer"><g class="g-gtitle"/></g></svg>