<svg class="main-svg" xmlns="http://www.w3.org/2000/svg" xmlns:xlink="http://www.w3.org/1999/xlink" width="512" height="200" style="" viewBox="0 0 512 200"><rect x="0" y="0" width="512" height="200" style="fill: rgb(0, 0, 0); fill-opacity: 0;"/><defs id="defs-c4363e"><g class="clips"><clipPath id="clipc4363exyplot" class="plotclip"><rect width="512" height="200"/></clipPath><clipPath class="axesclip" id="clipc4363ex"><rect x="0" y="0" width="512" height="200"/></clipPath><clipPath class="axesclip" id="clipc4363ey"><rect x="0" y="0" width="512" height="200"/></clipPath><clipPath class="axesclip" id="clipc4363exy"><rect x="0" y="0" width="512" height="200"/></clipPath></g><g class="gradients"/><g class="patterns"/></defs><g class="bglayer"><rect class="bg" x="0" y="0" width="512" height="200" style="fill: rgb(0, 0, 0); fill-opacity: 0; stroke-width: 0;"/></g><g class="layer-below"><g class="imagelayer"/><g class="shapelayer"/></g><g class="cartesianlayer"><g class="subplot xy"><g class="layer-subplot"><g class="shapelayer"/><g class="imagelayer"/></g><g class="minor-gridlayer"><g class="x"/><g class="y"/></g><g class="gridlayer"><g class="x"/><g class="y"/></g><g class="zerolinelayer"/><g class="layer-between"><g class="shapelayer"/><g class="imagelayer"/></g><path class="xlines-below"/><path class="ylines-below"/><g class="overlines-below"/><g class="xaxislayer-below"/><g class="yaxislayer-below"/><g class="overaxes-below"/><g class="overplot"><g class="xy" transform="" clip-path="url(#clipc4363exyplot)"><g class="scatterlayer mlayer"><g class="trace scatter trace0a02da" style="stroke-miterlimit: 2;"><g class="fills"><g><path class="js-fill" d="M512,200L0,200L0,200L48,200L51.2,10.73L92.8,10.73L96,58.05L99.2,105.36L102.4,10.73L144,10.73L147.2,58.05L150.4,105.36L153.6,105.36L188.8,92.85L192,91.71L243.2,73.4L246.4,73.33L249.6,73.33L252.8,200L256,73.33L259.2,73.33L348.8,73.33L352,10L355.2,73.33L358.4,73.33L451.2,73.33L454.4,10L457.6,73.33L460.8,184.17L464,200L467.2,200L470.4,200L473.6,184.17L476.8,200L480,184.17L483.2,200L486.4,184.17L489.6,200L492.8,200L512,200" style="fill: rgb(74, 222, 128); fill-opacity: 1; stroke-width: 0;"/></g></g><g class="errorbars"/><g class="lines"><path class="js-line" d="M0,200L48,200L51.2,10.73L92.8,10.73L96,58.05L99.2,105.36L102.4,10.73L144,10.73L147.2,58.05L150.4,105.36L153.6,105.36L188.8,92.85L192,91.71L243.2,73.4L246.4,73.33L249.6,73.33L252.8,200L256,73.33L259.2,73.33L348.8,73.33L352,10L355.2,73.33L358.4,73.33L451.2,73.33L454.4,10L457.6,73.33L460.8,184.17L464,200L467.2,200L470.4,200L473.6,184.17L476.8,200L480,184.17L483.2,200L486.4,184.17L489.6,200L492.8,200L512,200" style="vector-effect: none; fill: none; stroke: rgb(255, 165, 0); stroke-opacity: 1; stroke-width: 0px; opacity: 1;"/></g><g class="points"/><g class="text"/></g></g></g></g><path class="xlines-above crisp" d="M0,0" style="fill: none;"/><path class="ylines-above crisp" d="M0,0" style="fill: none;"/><g class="overlines-above"/><g class="xaxislayer-above"/><g class="yaxislayer-above"/><g class="overaxes-above"/></g></g><g class="polarlayer"/><g class="smithlayer"/><g class="ternarylayer"/><g class="geolayer"/><g class="funnelarealayer"/><g class="pielayer"/><g class="iciclelayer"/><g class="treemaplayer"/><g class="sunburstlayer"/><g class="glimages"/><defs id="topdefs-c4363e"><g class="clips"/></defs><g class="layer-above"><g class="imagelayer"/><g class="shapelayer"/></g><g class="infolayer"><g class="g-gtitle"/></g></svg>