<svg class="main-svg" xmlns="http://www.w3.org/2000/svg" xmlns:xlink="http://www.w3.org/1999/xlink" width="512" height="200" viewBox="0 0 512 200" style=""><rect x="0" y="0" width="512" height="200" style="fill: rgb(0, 0, 0); fill-opacity: 0;"/><defs id="defs-796093"><g class="clips"><clipPath id="clip796093xyplot" class="plotclip"><rect width="512" height="200"/></clipPath><clipPath class="axesclip" id="clip796093x"><rect x="0" y="0" width="512" height="200"/></clipPath><clipPath class="axesclip" id="clip796093y"><rect x="0" y="0" width="512" height="200"/></clipPath><clipPath class="axesclip" id="clip796093xy"><rect x="0" y="0" width="512" height="200"/></clipPath></g><g class="gradients"/><g class="patterns"/></defs><g class="bglayer"><rect class="bg" x="0" y="0" width="512" height="200" style="fill: rgb(0, 0, 0); fill-opacity: 0; stroke-width: 0;"/></g><g class="layer-below"><g class="imagelayer"/><g class="shapelayer"/></g><g class="cartesianlayer"><g class="subplot xy"><g class="layer-subplot"><g class="shapelayer"/><g class="imagelayer"/></g><g class="minor-gridlayer"><g class="x"/><g class="y"/></g><g class="gridlayer"><g class="x"/><g class="y"/></g><g class="zerolinelayer"/><g class="layer-between"><g class="shapelayer"/><g class="imagelayer"/></g><path class="xlines-below"/><path class="ylines-below"/><g class="overlines-below"/><g class="xaxislayer-below"/><g class="yaxislayer-below"/><g class="overaxes-below"/><g class="overplot"><g class="xy" transform="" clip-path="url(#clip796093xyplot)"><g class="scatterlayer mlayer"><g class="trace scatter trace016865" style="stroke-miterlimit: 2;"><g class="fills"><g><path class="js-fill" d="M512,200L0,200L0,200L48,200L51.2,58.05L92.8,58.05L96,93.53L99.2,129.02L102.4,58.05L144,58.05L147.2,93.53L150.4,129.02L153.6,58.05L179.2,44.43L182.4,42.71L201.6,32.41L204.8,94.19L211.2,92.04L214.4,101.87L217.6,89.9L220.8,88.82L224,87.75L227.2,98.01L230.4,85.61L233.6,84.53L236.8,83.46L240,94.15L243.2,81.32L246.4,81.25L249.6,69.38L252.8,200L256,105L259.2,105L348.8,105L352,57.5L355.2,105L358.4,10L451.2,10L454.4,57.5L457.6,105L460.8,188.13L464,200L467.2,200L470.4,200L473.6,188.13L476.8,200L480,188.13L483.2,200L486.4,188.13L489.6,200L492.8,200L512,200" style="fill: rgb(239, 68, 68); fill-opacity: 1; stroke-width: 0;"/></g></g><g class="errorbars"/><g class="lines"><path class="js-line" d="M0,200L48,200L51.2,58.05L92.8,58.05L96,93.53L99.2,129.02L102.4,58.05L144,58.05L147.2,93.53L150.4,129.02L153.6,58.05L179.2,44.43L182.4,42.71L201.6,32.41L204.8,94.19L211.2,92.04L214.4,101.87L217.6,89.9L220.8,88.82L224,87.75L227.2,98.01L230.4,85.61L233.6,84.53L236.8,83.46L240,94.15L243.2,81.32L246.4,81.25L249.6,69.38L252.8,200L256,105L259.2,105L348.8,105L352,57.5L355.2,105L358.4,10L451.2,10L454.4,57.5L457.6,105L460.8,188.13L464,200L467.2,200L470.4,200L473.6,188.13L476.8,200L480,188.13L483.2,200L486.4,188.13L489.6,200L492.8,200L512,200" style="vector-effect: none; fill: none; stroke: rgb(255, 165, 0); stroke-opacity: 1; stroke-width: 0px; opacity: 1;"/></g><g class="points"/><g class="text"/></g></g></g></g><path class="xlines-above crisp" d="M0,0" style="fill: none;"/><path class="ylines-above crisp" d="M0,0" style="fill: none;"/><g class="overlines-above"/><g class="xaxislayer-above"/><g class="yaxislayer-above"/><g class="overaxes-above"/></g></g><g class="polarlayer"/><g class="smithlayer"/><g class="ternarylayer"/><g class="geolayer"/><g class="funnelarealayer"/><g class="pielayer"/><g class="iciclelayer"/><g class="treemaplayer"/><g class="sunburstlayer"/><g class="glimages"/><defs id="topdefs-796093"><g class="clips"/></defs><g class="layer-above"><g class="imagelayer"/><g class="shapelayer"/></g><g class="infolayer"><g class="g-gtitle"/></g></svg>