<svg class="main-svg" xmlns="http://www.w3.org/2000/svg" xmlns:xlink="http://www.w3.org/1999/xlink" width="512" height="200" style="" viewBox="0 0 512 200"><rect x="0" y="0" width="512" height="200" style="fill: rgb(0, 0, 0); fill-opacity: 0;"/><defs id="defs-d9fbfa"><g class="clips"><clipPath id="clipd9fbfaxyplot" class="plotclip"><rect width="512" height="200"/></clipPath><clipPath class="axesclip" id="clipd9fbfax"><rect x="0" y="0" width="512" height="200"/></clipPath><clipPath class="axesclip" id="clipd9fbfay"><rect x="0" y="0" width="512" height="200"/></clipPath><clipPath class="axesclip" id="clipd9fbfaxy"><rect x="0" y="0" width="512" height="200"/></clipPath></g><g class="gradients"/><g class="patterns"/></defs><g class="bglayer"><rect class="bg" x="0" y="0" width="512" height="200" style="fill: rgb(0, 0, 0); fill-opacity: 0; stroke-width: 0;"/></g><g class="layer-below"><g class="imagelayer"/><g class="shapelayer"/></g><g class="cartesianlayer"><g class="subplot xy"><g class="layer-subplot"><g class="shapelayer"/><g class="imagelayer"/></g><g class="minor-gridlayer"><g class="x"/><g class="y"/></g><g class="gridlayer"><g class="x"/><g class="y"/></g><g class="zerolinelayer"/><g class="layer-between"><g class="shapelayer"/><g class="imagelayer"/></g><path class="xlines-below"/><path class="ylines-below"/><g class="overlines-below"/><g class="xaxislayer-below"/><g class="yaxislayer-below"/><g class="overaxes-below"/><g class="overplot"><g class="xy" transform="" clip-path="url(#clipd9fbfaxyplot)"><g class="scatterlayer mlayer"><g class="trace scatter tracecfd90e" style="stroke-miterlimit: 2;"><g class="fills"><g><path class="js-fill" d="M512,200L0,200L0,105L5.28,128.75L10.56,105L15.84,116.87L21.11,105L26.39,128.75L31.67,105L36.95,69.37L42.23,81.25L47.51,105L52.78,81.25L58.06,69.37L63.34,81.25L73.9,81.25L79.18,69.37L84.45,116.87L89.73,152.5L95.01,152.5L100.29,140.62L105.57,116.87L110.85,128.75L116.12,128.75L121.4,105L126.68,45.62L131.96,45.62L137.24,57.5L142.52,45.62L147.79,57.5L153.07,45.62L158.35,57.5L163.63,81.25L168.91,10L174.19,57.5L179.46,10L184.74,57.5L190.02,10L195.3,57.5L200.58,10L205.86,33.75L211.13,105L216.41,105L221.69,152.5L226.97,152.5L237.53,105L242.8,152.5L248.08,152.5L253.36,128.75L258.64,105L263.92,105L269.2,128.75L274.47,105L279.75,116.87L285.03,105L290.31,128.75L295.59,105L300.87,116.87L306.14,105L343.09,105L348.37,116.87L353.65,152.5L358.93,152.5L364.21,140.62L369.48,116.87L374.76,128.75L380.04,128.75L385.32,105L390.6,140.62L422.27,140.62L427.55,176.25L432.82,140.62L438.1,140.62L469.77,140.62L475.05,105L512,105" style="fill: rgb(253, 224, 71); fill-opacity: 1; stroke-width: 0;"/></g></g><g class="errorbars"/><g class="lines"><path class="js-line" d="M0,105L5.28,128.75L10.56,105L15.84,116.87L21.11,105L26.39,128.75L31.67,105L36.95,69.37L42.23,81.25L47.51,105L52.78,81.25L58.06,69.37L63.34,81.25L73.9,81.25L79.18,69.37L84.45,116.87L89.73,152.5L95.01,152.5L100.29,140.62L105.57,116.87L110.85,128.75L116.12,128.75L121.4,105L126.68,45.62L131.96,45.62L137.24,57.5L142.52,45.62L147.79,57.5L153.07,45.62L158.35,57.5L163.63,81.25L168.91,10L174.19,57.5L179.46,10L184.74,57.5L190.02,10L195.3,57.5L200.58,10L205.86,33.75L211.13,105L216.41,105L221.69,152.5L226.97,152.5L237.53,105L242.8,152.5L248.08,152.5L253.36,128.75L258.64,105L263.92,105L269.2,128.75L274.47,105L279.75,116.87L285.03,105L290.31,128.75L295.59,105L300.87,116.87L306.14,105L343.09,105L348.37,116.87L353.65,152.5L358.93,152.5L364.21,140.62L369.48,116.87L374.76,128.75L380.04,128.75L385.32,105L390.6,140.62L422.27,140.62L427.55,176.25L432.82,140.62L438.1,140.62L469.77,140.62L475.05,105L512,105" style="vector-effect: none; fill: none; stroke: rgb(255, 165, 0); stroke-opacity: 1; stroke-width: 0px; opacity: 1;"/></g><g class="points"/><g class="text"/></g></g></g></g><path class="xlines-above crisp" d="M0,0" style="fill: none;"/><path class="ylines-above crisp" d="M0,0" style="fill: none;"/><g class="overlines-above"/><g class="xaxislayer-above"/><g class="yaxislayer-above"/><g class="overaxes-above"/></g></g><g class="polarlayer"/><g class="smithlayer"/><g class="ternarylayer"/><g class="geolayer"/><g class="funnelarealayer"/><g class="pielayer"/><g class="iciclelayer"/><g class="treemaplayer"/><g class="sunburstlayer"/><g class="glimages"/><defs id="topdefs-d9fbfa"><g class="clips"/></defs><g class="layer-above"><g class="imagelayer"/><g class="shapelayer"/></g><g class="infolayer"><g class="g-gtitle"/></g></svg>