<svg class="main-svg" xmlns="http://www.w3.org/2000/svg" xmlns:xlink="http://www.w3.org/1999/xlink" width="512" height="200" style="" viewBox="0 0 512 200"><rect x="0" y="0" width="512" height="200" style="fill: rgb(0, 0, 0); fill-opacity: 0;"/><defs id="defs-8e7853"><g class="clips"><clipPath id="clip8e7853xyplot" class="plotclip"><rect width="512" height="200"/></clipPath><clipPath class="axesclip" id="clip8e7853x"><rect x="0" y="0" width="512" height="200"/></clipPath><clipPath class="axesclip" id="clip8e7853y"><rect x="0" y="0" width="512" height="200"/></clipPath><clipPath class="axesclip" id="clip8e7853xy"><rect x="0" y="0" width="512" height="200"/></clipPath></g><g class="gradients"/><g class="patterns"/></defs><g class="bglayer"><rect class="bg" x="0" y="0" width="512" height="200" style="fill: rgb(0, 0, 0); fill-opacity: 0; stroke-width: 0;"/></g><g class="layer-below"><g class="imagelayer"/><g class="shapelayer"/></g><g class="cartesianlayer"><g class="subplot xy"><g class="layer-subplot"><g class="shapelayer"/><g class="imagelayer"/></g><g class="minor-gridlayer"><g class="x"/><g class="y"/></g><g class="gridlayer"><g class="x"/><g class="y"/></g><g class="zerolinelayer"/><g class="layer-between"><g class="shapelayer"/><g class="imagelayer"/></g><path class="xlines-below"/><path class="ylines-below"/><g class="overlines-below"/><g class="xaxislayer-below"/><g class="yaxislayer-below"/><g class="overaxes-below"/><g class="overplot"><g class="xy" transform="" clip-path="url(#clip8e7853xyplot)"><g class="scatterlayer mlayer"><g class="trace scatter trace8d11bf" style="stroke-miterlimit: 2;"><g class="fills"><g><path class="js-fill" d="M512,200L0,200L0,61.82L5.28,96.36L10.56,61.82L15.84,79.09L21.11,61.82L26.39,96.36L31.67,61.82L36.95,10L42.23,61.82L47.51,96.36L52.78,61.82L79.18,61.82L84.45,79.09L89.73,130.91L95.01,130.91L100.29,113.64L105.57,79.09L110.85,96.36L116.12,96.36L121.4,61.82L126.68,61.82L216.41,61.82L221.69,130.91L232.25,130.91L237.53,96.36L242.8,130.91L248.08,130.91L253.36,130.91L258.64,96.36L263.92,61.82L269.2,96.36L274.47,61.82L279.75,79.09L285.03,61.82L290.31,96.36L295.59,61.82L300.87,79.09L306.14,61.82L311.42,61.82L343.09,61.82L348.37,79.09L353.65,130.91L358.93,130.91L364.21,113.64L369.48,79.09L374.76,96.36L380.04,96.36L385.32,61.82L390.6,113.64L422.27,113.64L427.55,165.45L432.82,113.64L438.1,113.64L469.77,113.64L475.05,61.82L512,61.82" style="fill: rgb(74, 222, 128); fill-opacity: 1; stroke-width: 0;"/></g></g><g class="errorbars"/><g class="lines"><path class="js-line" d="M0,61.82L5.28,96.36L10.56,61.82L15.84,79.09L21.11,61.82L26.39,96.36L31.67,61.82L36.95,10L42.23,61.82L47.51,96.36L52.78,61.82L79.18,61.82L84.45,79.09L89.73,130.91L95.01,130.91L100.29,113.64L105.57,79.09L110.85,96.36L116.12,96.36L121.4,61.82L126.68,61.82L216.41,61.82L221.69,130.91L232.25,130.91L237.53,96.36L242.8,130.91L248.08,130.91L253.36,130.91L258.64,96.36L263.92,61.82L269.2,96.36L274.47,61.82L279.75,79.09L285.03,61.82L290.31,96.36L295.59,61.82L300.87,79.09L306.14,61.82L311.42,61.82L343.09,61.82L348.37,79.09L353.65,130.91L358.93,130.91L364.21,113.64L369.48,79.09L374.76,96.36L380.04,96.36L385.32,61.82L390.6,113.64L422.27,113.64L427.55,165.45L432.82,113.64L438.1,113.64L469.77,113.64L475.05,61.82L512,61.82" style="vector-effect: none; fill: none; stroke: rgb(255, 165, 0); stroke-opacity: 1; stroke-width: 0px; opacity: 1;"/></g><g class="points"/><g class="text"/></g></g></g></g><path class="xlines-above crisp" d="M0,0" style="fill: none;"/><path class="ylines-above crisp" d="M0,0" style="fill: none;"/><g class="overlines-above"/><g class="xaxislayer-above"/><g class="yaxislayer-above"/><g class="overaxes-above"/></g></g><g class="polarlayer"/><g class="smithlayer"/><g class="ternarylayer"/><g class="geolayer"/><g class="funnelarealayer"/><g class="pielayer"/><g class="iciclelayer"/><g class="treemaplayer"/><g class="sunburstlayer"/><g class="glimages"/><defs id="topdefs-8e7853"><g class="clips"/></defs><g class="layer-above"><g class="imagelayer"/><g class="shapelayer"/></g><g class="infolayer"><g class="g-gtitle"/></g></svg>