<svg class="main-svg" xmlns="http://www.w3.org/2000/svg" xmlns:xlink="http://www.w3.org/1999/xlink" width="512" height="200" style="" viewBox="0 0 512 200"><rect x="0" y="0" width="512" height="200" style="fill: rgb(0, 0, 0); fill-opacity: 0;"/><defs id="defs-788a25"><g class="clips"><clipPath id="clip788a25xyplot" class="plotclip"><rect width="512" height="200"/></clipPath><clipPath class="axesclip" id="clip788a25x"><rect x="0" y="0" width="512" height="200"/></clipPath><clipPath class="axesclip" id="clip788a25y"><rect x="0" y="0" width="512" height="200"/></clipPath><clipPath class="axesclip" id="clip788a25xy"><rect x="0" y="0" width="512" height="200"/></clipPath></g><g class="gradients"/><g class="patterns"/></defs><g class="bglayer"><rect class="bg" x="0" y="0" width="512" height="200" style="fill: rgb(0, 0, 0); fill-opacity: 0; stroke-width: 0;"/></g><g class="layer-below"><g class="imagelayer"/><g class="shapelayer"/></g><g class="cartesianlayer"><g class="subplot xy"><g class="layer-subplot"><g class="shapelayer"/><g class="imagelayer"/></g><g class="minor-gridlayer"><g class="x"/><g class="y"/></g><g class="gridlayer"><g class="x"/><g class="y"/></g><g class="zerolinelayer"/><g class="layer-between"><g class="shapelayer"/><g class="imagelayer"/></g><path class="xlines-below"/><path class="ylines-below"/><g class="overlines-below"/><g class="xaxislayer-below"/><g class="yaxislayer-below"/><g class="overaxes-below"/><g class="overplot"><g class="xy" transform="" clip-path="url(#clip788a25xyplot)"><g class="scatterlayer mlayer"><g class="trace scatter traceff2dbc" style="stroke-miterlimit: 2;"><g class="fills"><g><path class="js-fill" d="M512,200L0,200L0,200L37.33,200L42.67,10L85.33,10L90.67,200L96,10L101.33,200L106.67,10L112,200L117.33,10L122.67,200L128,10L133.33,10L208,10L213.33,200L218.67,200L224,10L309.33,10L314.67,200L320,10L325.33,200L330.67,10L336,200L341.33,10L346.67,200L352,10L357.33,200L362.67,10L368,200L373.33,10L378.67,200L384,10L389.33,200L394.67,10L400,10L480,10L485.33,200L490.67,10L496,200L501.33,10L506.67,200L512,10" style="fill: rgb(133, 94, 232); fill-opacity: 1; stroke-width: 0;"/></g></g><g class="errorbars"/><g class="lines"><path class="js-line" d="M0,200L37.33,200L42.67,10L85.33,10L90.67,200L96,10L101.33,200L106.67,10L112,200L117.33,10L122.67,200L128,10L133.33,10L208,10L213.33,200L218.67,200L224,10L309.33,10L314.67,200L320,10L325.33,200L330.67,10L336,200L341.33,10L346.67,200L352,10L357.33,200L362.67,10L368,200L373.33,10L378.67,200L384,10L389.33,200L394.67,10L400,10L480,10L485.33,200L490.67,10L496,200L501.33,10L506.67,200L512,10" style="vector-effect: none; fill: none; stroke: rgb(255, 165, 0); stroke-opacity: 1; stroke-width: 0px; opacity: 1;"/></g><g class="points"/><g class="text"/></g></g></g></g><path class="xlines-above crisp" d="M0,0" style="fill: none;"/><path class="ylines-above crisp" d="M0,0" style="fill: none;"/><g class="overlines-above"/><g class="xaxislayer-above"/><g class="yaxislayer-above"/><g class="overaxes-above"/></g></g><g class="polarlayer"/><g class="smithlayer"/><g class="ternarylayer"/><g class="geolayer"/><g class="funnelarealayer"/><g class="pielayer"/><g class="iciclelayer"/><g class="treemaplayer"/><g class="sunburstlayer"/><g class="glimages"/><defs id="topdefs-788a25"><g class="clips"/></defs><g class="layer-above"><g class="imagelayer"/><g class="shapelayer"/></g><g class="infolayer"><g class="g-gtitle"/></g></svg>