<svg class="main-svg" xmlns="http://www.w3.org/2000/svg" xmlns:xlink="http://www.w3.org/1999/xlink" width="512" height="200" style="" viewBox="0 0 512 200"><rect x="0" y="0" width="512" height="200" style="fill: rgb(0, 0, 0); fill-opacity: 0;"/><defs id="defs-a3cd89"><g class="clips"><clipPath id="clipa3cd89xyplot" class="plotclip"><rect width="512" height="200"/></clipPath><clipPath class="axesclip" id="clipa3cd89x"><rect x="0" y="0" width="512" height="200"/></clipPath><clipPath class="axesclip" id="clipa3cd89y"><rect x="0" y="0" width="512" height="200"/></clipPath><clipPath class="axesclip" id="clipa3cd89xy"><rect x="0" y="0" width="512" height="200"/></clipPath></g><g class="gradients"/><g class="patterns"/></defs><g class="bglayer"><rect class="bg" x="0" y="0" width="512" height="200" style="fill: rgb(0, 0, 0); fill-opacity: 0; stroke-width: 0;"/></g><g class="layer-below"><g class="imagelayer"/><g class="shapelayer"/></g><g class="cartesianlayer"><g class="subplot xy"><g class="layer-subplot"><g class="shapelayer"/><g class="imagelayer"/></g><g class="minor-gridlayer"><g class="x"/><g class="y"/></g><g class="gridlayer"><g class="x"/><g class="y"/></g><g class="zerolinelayer"/><g class="layer-between"><g class="shapelayer"/><g class="imagelayer"/></g><path class="xlines-below"/><path class="ylines-below"/><g class="overlines-below"/><g class="xaxislayer-below"/><g class="yaxislayer-below"/><g class="overaxes-below"/><g class="overplot"><g class="xy" transform="" clip-path="url(#clipa3cd89xyplot)"><g class="scatterlayer mlayer"><g class="trace scatter trace51e1e4" style="stroke-miterlimit: 2;"><g class="fills"><g><path class="js-fill" d="M512,200L0,200L0,88.24L5.28,110.59L10.56,88.24L15.84,99.41L21.11,88.24L26.39,110.59L31.67,88.24L36.95,65.88L42.23,21.18L47.51,99.41L52.78,21.18L79.18,21.18L84.45,121.76L89.73,155.29L95.01,155.29L100.29,144.12L105.57,121.76L110.85,132.94L116.12,132.94L121.4,65.88L126.68,21.18L158.35,21.18L163.63,65.88L168.91,21.18L174.19,65.88L179.46,21.18L184.74,10L195.3,32.35L200.58,21.18L205.86,43.53L211.13,21.18L300.87,21.18L306.14,88.24L343.09,88.24L348.37,121.76L353.65,155.29L358.93,155.29L364.21,144.12L369.48,121.76L374.76,132.94L380.04,132.94L385.32,65.88L390.6,65.88L395.88,21.18L401.15,21.18L422.27,21.18L427.55,77.06L432.82,21.18L438.1,21.18L469.77,21.18L475.05,88.24L512,88.24" style="fill: rgb(96, 165, 250); fill-opacity: 1; stroke-width: 0;"/></g></g><g class="errorbars"/><g class="lines"><path class="js-line" d="M0,88.24L5.28,110.59L10.56,88.24L15.84,99.41L21.11,88.24L26.39,110.59L31.67,88.24L36.95,65.88L42.23,21.18L47.51,99.41L52.78,21.18L79.18,21.18L84.45,121.76L89.73,155.29L95.01,155.29L100.29,144.12L105.57,121.76L110.85,132.94L116.12,132.94L121.4,65.88L126.68,21.18L158.35,21.18L163.63,65.88L168.91,21.18L174.19,65.88L179.46,21.18L184.74,10L195.3,32.35L200.58,21.18L205.86,43.53L211.13,21.18L300.87,21.18L306.14,88.24L343.09,88.24L348.37,121.76L353.65,155.29L358.93,155.29L364.21,144.12L369.48,121.76L374.76,132.94L380.04,132.94L385.32,65.88L390.6,65.88L395.88,21.18L401.15,21.18L422.27,21.18L427.55,77.06L432.82,21.18L438.1,21.18L469.77,21.18L475.05,88.24L512,88.24" style="vector-effect: none; fill: none; stroke: rgb(255, 165, 0); stroke-opacity: 1; stroke-width: 0px; opacity: 1;"/></g><g class="points"/><g class="text"/></g></g></g></g><path class="xlines-above crisp" d="M0,0" style="fill: none;"/><path class="ylines-above crisp" d="M0,0" style="fill: none;"/><g class="overlines-above"/><g class="xaxislayer-above"/><g class="yaxislayer-above"/><g class="overaxes-above"/></g></g><g class="polarlayer"/><g class="smithlayer"/><g class="ternarylayer"/><g class="geolayer"/><g class="funnelarealayer"/><g class="pielayer"/><g class="iciclelayer"/><g class="treemaplayer"/><g class="sunburstlayer"/><g class="glimages"/><defs id="topdefs-a3cd89"><g class="clips"/></defs><g class="layer-above"><g class="imagelayer"/><g class="shapelayer"/></g><g class="infolayer"><g class="g-gtitle"/></g></svg>