<svg class="main-svg" xmlns="http://www.w3.org/2000/svg" xmlns:xlink="http://www.w3.org/1999/xlink" width="512" height="200" style="" viewBox="0 0 512 200"><rect x="0" y="0" width="512" height="200" style="fill: rgb(0, 0, 0); fill-opacity: 0;"/><defs id="defs-950693"><g class="clips"><clipPath id="clip950693xyplot" class="plotclip"><rect width="512" height="200"/></clipPath><clipPath class="axesclip" id="clip950693x"><rect x="0" y="0" width="512" height="200"/></clipPath><clipPath class="axesclip" id="clip950693y"><rect x="0" y="0" width="512" height="200"/></clipPath><clipPath class="axesclip" id="clip950693xy"><rect x="0" y="0" width="512" height="200"/></clipPath></g><g class="gradients"/><g class="patterns"/></defs><g class="bglayer"><rect class="bg" x="0" y="0" width="512" height="200" style="fill: rgb(0, 0, 0); fill-opacity: 0; stroke-width: 0;"/></g><g class="layer-below"><g class="imagelayer"/><g class="shapelayer"/></g><g class="cartesianlayer"><g class="subplot xy"><g class="layer-subplot"><g class="shapelayer"/><g class="imagelayer"/></g><g class="minor-gridlayer"><g class="x"/><g class="y"/></g><g class="gridlayer"><g class="x"/><g class="y"/></g><g class="zerolinelayer"/><g class="layer-between"><g class="shapelayer"/><g class="imagelayer"/></g><path class="xlines-below"/><path class="ylines-below"/><g class="overlines-below"/><g class="xaxislayer-below"/><g class="yaxislayer-below"/><g class="overaxes-below"/><g class="overplot"><g class="xy" transform="" clip-path="url(#clip950693xyplot)"><g class="scatterlayer mlayer"><g class="trace scatter traceac836d" style="stroke-miterlimit: 2;"><g class="fills"><g><path class="js-fill" d="M512,200L0,200L0,48L5.95,67L11.91,124L17.86,48L23.81,124L29.77,67L35.72,105L41.67,48L47.63,67L53.58,48L59.53,48L71.44,48L77.4,181L83.35,162L89.3,124L101.21,48L107.16,48L113.12,48L119.07,86L125.02,48L130.98,48L136.93,48L142.88,86L154.79,48L160.74,48L184.56,48L190.51,86L196.47,48L202.42,86L208.37,48L214.33,86L220.28,105L226.23,105L232.19,105L238.14,143L244.09,105L250.05,105L261.95,67L267.91,86L273.86,86L279.81,48L285.77,162L291.72,48L303.63,48L309.58,10L315.53,48L321.49,48L327.44,48L333.4,86L339.35,48L345.3,67L351.26,48L357.21,48L381.02,48L386.98,181L392.93,162L398.88,124L410.79,86L416.74,48L428.65,48L434.6,86L440.56,48L446.51,48L452.47,48L458.42,29L464.37,105L470.33,105L476.28,105L482.23,143L488.19,105L494.14,105L500.09,86L506.05,105L512,181" style="fill: rgb(74, 222, 128); fill-opacity: 1; stroke-width: 0;"/></g></g><g class="errorbars"/><g class="lines"><path class="js-line" d="M0,48L5.95,67L11.91,124L17.86,48L23.81,124L29.77,67L35.72,105L41.67,48L47.63,67L53.58,48L59.53,48L71.44,48L77.4,181L83.35,162L89.3,124L101.21,48L107.16,48L113.12,48L119.07,86L125.02,48L130.98,48L136.93,48L142.88,86L154.79,48L160.74,48L184.56,48L190.51,86L196.47,48L202.42,86L208.37,48L214.33,86L220.28,105L226.23,105L232.19,105L238.14,143L244.09,105L250.05,105L261.95,67L267.91,86L273.86,86L279.81,48L285.77,162L291.72,48L303.63,48L309.58,10L315.53,48L321.49,48L327.44,48L333.4,86L339.35,48L345.3,67L351.26,48L357.21,48L381.02,48L386.98,181L392.93,162L398.88,124L410.79,86L416.74,48L428.65,48L434.6,86L440.56,48L446.51,48L452.47,48L458.42,29L464.37,105L470.33,105L476.28,105L482.23,143L488.19,105L494.14,105L500.09,86L506.05,105L512,181" style="vector-effect: none; fill: none; stroke: rgb(255, 165, 0); stroke-opacity: 1; stroke-width: 0px; opacity: 1;"/></g><g class="points"/><g class="text"/></g></g></g></g><path class="xlines-above crisp" d="M0,0" style="fill: none;"/><path class="ylines-above crisp" d="M0,0" style="fill: none;"/><g class="overlines-above"/><g class="xaxislayer-above"/><g class="yaxislayer-above"/><g class="overaxes-above"/></g></g><g class="polarlayer"/><g class="smithlayer"/><g class="ternarylayer"/><g class="geolayer"/><g class="funnelarealayer"/><g class="pielayer"/><g class="iciclelayer"/><g class="treemaplayer"/><g class="sunburstlayer"/><g class="glimages"/><defs id="topdefs-950693"><g class="clips"/></defs><g class="layer-above"><g class="imagelayer"/><g class="shapelayer"/></g><g class="infolayer"><g class="g-gtitle"/></g></svg>