<svg class="main-svg" xmlns="http://www.w3.org/2000/svg" xmlns:xlink="http://www.w3.org/1999/xlink" width="512" height="200" style="" viewBox="0 0 512 200"><rect x="0" y="0" width="512" height="200" style="fill: rgb(0, 0, 0); fill-opacity: 0;"/><defs id="defs-6b9e44"><g class="clips"><clipPath id="clip6b9e44xyplot" class="plotclip"><rect width="512" height="200"/></clipPath><clipPath class="axesclip" id="clip6b9e44x"><rect x="0" y="0" width="512" height="200"/></clipPath><clipPath class="axesclip" id="clip6b9e44y"><rect x="0" y="0" width="512" height="200"/></clipPath><clipPath class="axesclip" id="clip6b9e44xy"><rect x="0" y="0" width="512" height="200"/></clipPath></g><g class="gradients"/><g class="patterns"/></defs><g class="bglayer"><rect class="bg" x="0" y="0" width="512" height="200" style="fill: rgb(0, 0, 0); fill-opacity: 0; stroke-width: 0;"/></g><g class="layer-below"><g class="imagelayer"/><g class="shapelayer"/></g><g class="cartesianlayer"><g class="subplot xy"><g class="layer-subplot"><g class="shapelayer"/><g class="imagelayer"/></g><g class="minor-gridlayer"><g class="x"/><g class="y"/></g><g class="gridlayer"><g class="x"/><g class="y"/></g><g class="zerolinelayer"/><g class="layer-between"><g class="shapelayer"/><g class="imagelayer"/></g><path class="xlines-below"/><path class="ylines-below"/><g class="overlines-below"/><g class="xaxislayer-below"/><g class="yaxislayer-below"/><g class="overaxes-below"/><g class="overplot"><g class="xy" transform="" clip-path="url(#clip6b9e44xyplot)"><g class="scatterlayer mlayer"><g class="trace scatter trace9f2da9" style="stroke-miterlimit: 2;"><g class="fills"><g><path class="js-fill" d="M512,200L0,200L0,200L20.69,200L25.86,105L165.49,105L170.67,10L175.84,105L181.01,105L186.18,105L191.35,10L196.53,105L201.7,105L206.87,105L212.04,200L217.21,105L222.38,105L299.96,105L305.13,200L315.47,200L320.65,105L341.33,105L346.51,200L351.68,105L356.85,105L429.25,105L434.42,10L439.6,105L444.77,105L449.94,105L455.11,10L460.28,105L465.45,105L475.8,105L480.97,200L486.14,105L491.31,200L496.48,105L501.66,200L512,10" style="fill: rgb(133, 94, 232); fill-opacity: 1; stroke-width: 0;"/></g></g><g class="errorbars"/><g class="lines"><path class="js-line" d="M0,200L20.69,200L25.86,105L165.49,105L170.67,10L175.84,105L181.01,105L186.18,105L191.35,10L196.53,105L201.7,105L206.87,105L212.04,200L217.21,105L222.38,105L299.96,105L305.13,200L315.47,200L320.65,105L341.33,105L346.51,200L351.68,105L356.85,105L429.25,105L434.42,10L439.6,105L444.77,105L449.94,105L455.11,10L460.28,105L465.45,105L475.8,105L480.97,200L486.14,105L491.31,200L496.48,105L501.66,200L512,10" style="vector-effect: none; fill: none; stroke: rgb(255, 165, 0); stroke-opacity: 1; stroke-width: 0px; opacity: 1;"/></g><g class="points"/><g class="text"/></g></g></g></g><path class="xlines-above crisp" d="M0,0" style="fill: none;"/><path class="ylines-above crisp" d="M0,0" style="fill: none;"/><g class="overlines-above"/><g class="xaxislayer-above"/><g class="yaxislayer-above"/><g class="overaxes-above"/></g></g><g class="polarlayer"/><g class="smithlayer"/><g class="ternarylayer"/><g class="geolayer"/><g class="funnelarealayer"/><g class="pielayer"/><g class="iciclelayer"/><g class="treemaplayer"/><g class="sunburstlayer"/><g class="glimages"/><defs id="topdefs-6b9e44"><g class="clips"/></defs><g class="layer-above"><g class="imagelayer"/><g class="shapelayer"/></g><g class="infolayer"><g class="g-gtitle"/></g></svg>