<svg class="main-svg" xmlns="http://www.w3.org/2000/svg" xmlns:xlink="http://www.w3.org/1999/xlink" width="512" height="200" viewBox="0 0 512 200" style=""><rect x="0" y="0" width="512" height="200" style="fill: rgb(0, 0, 0); fill-opacity: 0;"/><defs id="defs-9fbf71"><g class="clips"><clipPath id="clip9fbf71xyplot" class="plotclip"><rect width="512" height="200"/></clipPath><clipPath class="axesclip" id="clip9fbf71x"><rect x="0" y="0" width="512" height="200"/></clipPath><clipPath class="axesclip" id="clip9fbf71y"><rect x="0" y="0" width="512" height="200"/></clipPath><clipPath class="axesclip" id="clip9fbf71xy"><rect x="0" y="0" width="512" height="200"/></clipPath></g><g class="gradients"/><g class="patterns"/></defs><g class="bglayer"><rect class="bg" x="0" y="0" width="512" height="200" style="fill: rgb(0, 0, 0); fill-opacity: 0; stroke-width: 0;"/></g><g class="layer-below"><g class="imagelayer"/><g class="shapelayer"/></g><g class="cartesianlayer"><g class="subplot xy"><g class="layer-subplot"><g class="shapelayer"/><g class="imagelayer"/></g><g class="minor-gridlayer"><g class="x"/><g class="y"/></g><g class="gridlayer"><g class="x"/><g class="y"/></g><g class="zerolinelayer"/><g class="layer-between"><g class="shapelayer"/><g class="imagelayer"/></g><path class="xlines-below"/><path class="ylines-below"/><g class="overlines-below"/><g class="xaxislayer-below"/><g class="yaxislayer-below"/><g class="overaxes-below"/><g class="overplot"><g class="xy" transform="" clip-path="url(#clip9fbf71xyplot)"><g class="scatterlayer mlayer"><g class="trace scatter tracefc69e7" style="stroke-miterlimit: 2;"><g class="fills"><g><path class="js-fill" d="M512,200L0,200L0,200L5.17,116.88L10.34,140.63L15.52,128.75L20.69,152.5L25.86,116.88L31.03,140.63L36.2,10L41.37,10L206.87,10L212.04,105L217.21,10L222.38,10L294.79,10L299.96,176.25L315.47,176.25L320.65,105L325.82,105L330.99,10L336.16,10L341.33,188.13L346.51,200L351.68,116.88L356.85,140.63L362.02,128.75L367.19,152.5L372.36,116.88L377.54,140.63L382.71,10L470.63,10L475.8,93.13L480.97,105L486.14,105L512,105" style="fill: rgb(96, 165, 250); fill-opacity: 1; stroke-width: 0;"/></g></g><g class="errorbars"/><g class="lines"><path class="js-line" d="M0,200L5.17,116.88L10.34,140.63L15.52,128.75L20.69,152.5L25.86,116.88L31.03,140.63L36.2,10L41.37,10L206.87,10L212.04,105L217.21,10L222.38,10L294.79,10L299.96,176.25L315.47,176.25L320.65,105L325.82,105L330.99,10L336.16,10L341.33,188.13L346.51,200L351.68,116.88L356.85,140.63L362.02,128.75L367.19,152.5L372.36,116.88L377.54,140.63L382.71,10L470.63,10L475.8,93.13L480.97,105L486.14,105L512,105" style="vector-effect: none; fill: none; stroke: rgb(255, 165, 0); stroke-opacity: 1; stroke-width: 0px; opacity: 1;"/></g><g class="points"/><g class="text"/></g></g></g></g><path class="xlines-above crisp" d="M0,0" style="fill: none;"/><path class="ylines-above crisp" d="M0,0" style="fill: none;"/><g class="overlines-above"/><g class="xaxislayer-above"/><g class="yaxislayer-above"/><g class="overaxes-above"/></g></g><g class="polarlayer"/><g class="smithlayer"/><g class="ternarylayer"/><g class="geolayer"/><g class="funnelarealayer"/><g class="pielayer"/><g class="iciclelayer"/><g class="treemaplayer"/><g class="sunburstlayer"/><g class="glimages"/><defs id="topdefs-9fbf71"><g class="clips"/></defs><g class="layer-above"><g class="imagelayer"/><g class="shapelayer"/></g><g class="infolayer"><g class="g-gtitle"/></g></svg>