<svg class="main-svg" xmlns="http://www.w3.org/2000/svg" xmlns:xlink="http://www.w3.org/1999/xlink" width="512" height="200" style="" viewBox="0 0 512 200"><rect x="0" y="0" width="512" height="200" style="fill: rgb(0, 0, 0); fill-opacity: 0;"/><defs id="defs-13ebe6"><g class="clips"><clipPath id="clip13ebe6xyplot" class="plotclip"><rect width="512" height="200"/></clipPath><clipPath class="axesclip" id="clip13ebe6x"><rect x="0" y="0" width="512" height="200"/></clipPath><clipPath class="axesclip" id="clip13ebe6y"><rect x="0" y="0" width="512" height="200"/></clipPath><clipPath class="axesclip" id="clip13ebe6xy"><rect x="0" y="0" width="512" height="200"/></clipPath></g><g class="gradients"/><g class="patterns"/></defs><g class="bglayer"><rect class="bg" x="0" y="0" width="512" height="200" style="fill: rgb(0, 0, 0); fill-opacity: 0; stroke-width: 0;"/></g><g class="layer-below"><g class="imagelayer"/><g class="shapelayer"/></g><g class="cartesianlayer"><g class="subplot xy"><g class="layer-subplot"><g class="shapelayer"/><g class="imagelayer"/></g><g class="minor-gridlayer"><g class="x"/><g class="y"/></g><g class="gridlayer"><g class="x"/><g class="y"/></g><g class="zerolinelayer"/><g class="layer-between"><g class="shapelayer"/><g class="imagelayer"/></g><path class="xlines-below"/><path class="ylines-below"/><g class="overlines-below"/><g class="xaxislayer-below"/><g class="yaxislayer-below"/><g class="overaxes-below"/><g class="overplot"><g class="xy" transform="" clip-path="url(#clip13ebe6xyplot)"><g class="scatterlayer mlayer"><g class="trace scatter traced128c2" style="stroke-miterlimit: 2;"><g class="fills"><g><path class="js-fill" d="M512,200L0,200L0,200L5.17,116.88L10.34,140.63L15.52,128.75L20.69,152.5L25.86,116.88L31.03,140.63L36.2,140.63L41.37,116.88L46.55,93.13L51.72,93.13L56.89,93.13L62.06,57.5L67.23,93.13L72.4,93.13L77.58,93.13L82.75,105L87.92,105L93.09,116.88L98.26,105L103.43,105L113.78,105L118.95,81.25L124.12,93.13L129.29,116.88L134.46,140.63L139.64,128.75L144.81,152.5L149.98,116.88L155.15,140.63L160.32,140.63L165.49,128.75L170.67,105L175.84,116.88L181.01,116.88L186.18,105L191.35,105L201.7,128.75L206.87,105L212.04,105L217.21,128.75L222.38,105L227.56,116.88L237.9,93.13L243.07,93.13L248.24,81.25L253.41,93.13L263.76,140.63L268.93,128.75L274.1,152.5L279.27,116.88L284.44,140.63L289.62,140.63L294.79,128.75L299.96,176.25L315.47,176.25L320.65,105L330.99,105L336.16,93.13L341.33,188.13L346.51,200L351.68,116.88L356.85,140.63L362.02,128.75L367.19,152.5L372.36,116.88L377.54,140.63L382.71,10L387.88,10L393.05,116.88L398.22,140.63L403.39,128.75L408.57,152.5L413.74,116.88L418.91,140.63L424.08,140.63L429.25,128.75L434.42,105L439.6,116.88L444.77,116.88L449.94,105L455.11,105L460.28,116.88L465.45,128.75L470.63,105L480.97,128.75L486.14,128.75L512,128.75" style="fill: rgb(74, 222, 128); fill-opacity: 1; stroke-width: 0;"/></g></g><g class="errorbars"/><g class="lines"><path class="js-line" d="M0,200L5.17,116.88L10.34,140.63L15.52,128.75L20.69,152.5L25.86,116.88L31.03,140.63L36.2,140.63L41.37,116.88L46.55,93.13L51.72,93.13L56.89,93.13L62.06,57.5L67.23,93.13L72.4,93.13L77.58,93.13L82.75,105L87.92,105L93.09,116.88L98.26,105L103.43,105L113.78,105L118.95,81.25L124.12,93.13L129.29,116.88L134.46,140.63L139.64,128.75L144.81,152.5L149.98,116.88L155.15,140.63L160.32,140.63L165.49,128.75L170.67,105L175.84,116.88L181.01,116.88L186.18,105L191.35,105L201.7,128.75L206.87,105L212.04,105L217.21,128.75L222.38,105L227.56,116.88L237.9,93.13L243.07,93.13L248.24,81.25L253.41,93.13L263.76,140.63L268.93,128.75L274.1,152.5L279.27,116.88L284.44,140.63L289.62,140.63L294.79,128.75L299.96,176.25L315.47,176.25L320.65,105L330.99,105L336.16,93.13L341.33,188.13L346.51,200L351.68,116.88L356.85,140.63L362.02,128.75L367.19,152.5L372.36,116.88L377.54,140.63L382.71,10L387.88,10L393.05,116.88L398.22,140.63L403.39,128.75L408.57,152.5L413.74,116.88L418.91,140.63L424.08,140.63L429.25,128.75L434.42,105L439.6,116.88L444.77,116.88L449.94,105L455.11,105L460.28,116.88L465.45,128.75L470.63,105L480.97,128.75L486.14,128.75L512,128.75" style="vector-effect: none; fill: none; stroke: rgb(255, 165, 0); stroke-opacity: 1; stroke-width: 0px; opacity: 1;"/></g><g class="points"/><g class="text"/></g></g></g></g><path class="xlines-above crisp" d="M0,0" style="fill: none;"/><path class="ylines-above crisp" d="M0,0" style="fill: none;"/><g class="overlines-above"/><g class="xaxislayer-above"/><g class="yaxislayer-above"/><g class="overaxes-above"/></g></g><g class="polarlayer"/><g class="smithlayer"/><g class="ternarylayer"/><g class="geolayer"/><g class="funnelarealayer"/><g class="pielayer"/><g class="iciclelayer"/><g class="treemaplayer"/><g class="sunburstlayer"/><g class="glimages"/><defs id="topdefs-13ebe6"><g class="clips"/></defs><g class="layer-above"><g class="imagelayer"/><g class="shapelayer"/></g><g class="infolayer"><g class="g-gtitle"/></g></svg>