<svg class="main-svg" xmlns="http://www.w3.org/2000/svg" xmlns:xlink="http://www.w3.org/1999/xlink" width="512" height="200" style="" viewBox="0 0 512 200"><rect x="0" y="0" width="512" height="200" style="fill: rgb(0, 0, 0); fill-opacity: 0;"/><defs id="defs-848b27"><g class="clips"><clipPath id="clip848b27xyplot" class="plotclip"><rect width="512" height="200"/></clipPath><clipPath class="axesclip" id="clip848b27x"><rect x="0" y="0" width="512" height="200"/></clipPath><clipPath class="axesclip" id="clip848b27y"><rect x="0" y="0" width="512" height="200"/></clipPath><clipPath class="axesclip" id="clip848b27xy"><rect x="0" y="0" width="512" height="200"/></clipPath></g><g class="gradients"/><g class="patterns"/></defs><g class="bglayer"><rect class="bg" x="0" y="0" width="512" height="200" style="fill: rgb(0, 0, 0); fill-opacity: 0; stroke-width: 0;"/></g><g class="layer-below"><g class="imagelayer"/><g class="shapelayer"/></g><g class="cartesianlayer"><g class="subplot xy"><g class="layer-subplot"><g class="shapelayer"/><g class="imagelayer"/></g><g class="minor-gridlayer"><g class="x"/><g class="y"/></g><g class="gridlayer"><g class="x"/><g class="y"/></g><g class="zerolinelayer"/><g class="layer-between"><g class="shapelayer"/><g class="imagelayer"/></g><path class="xlines-below"/><path class="ylines-below"/><g class="overlines-below"/><g class="xaxislayer-below"/><g class="yaxislayer-below"/><g class="overaxes-below"/><g class="overplot"><g class="xy" transform="" clip-path="url(#clip848b27xyplot)"><g class="scatterlayer mlayer"><g class="trace scatter trace746c7b" style="stroke-miterlimit: 2;"><g class="fills"><g><path class="js-fill" d="M512,200L0,200L0,120.83L5.33,73.33L10.67,73.33L16,73.33L21.33,89.17L26.67,73.33L32,89.17L37.33,73.33L42.67,105L48,89.17L53.33,105L58.67,89.17L64,105L69.33,73.33L74.67,105L80,73.33L85.33,105L90.67,73.33L96,105L101.33,73.33L106.67,105L112,73.33L117.33,105L122.67,73.33L128,73.33L138.67,73.33L144,57.5L149.33,73.33L154.67,73.33L160,10L165.33,105L170.67,136.67L176,136.67L181.33,120.83L186.67,136.67L192,120.83L197.33,136.67L202.67,105L208,120.83L213.33,120.83L218.67,73.33L224,120.83L229.33,73.33L234.67,105L240,73.33L245.33,120.83L250.67,120.83L256,73.33L261.33,120.83L282.67,120.83L288,105L293.33,105L298.67,200L304,200L309.33,73.33L314.67,89.17L320,73.33L325.33,120.83L330.67,73.33L336,73.33L341.33,89.17L384,89.17L389.33,105L394.67,120.83L400,120.83L405.33,89.17L410.67,89.17L416,73.33L421.33,89.17L426.67,105L432,136.67L437.33,120.83L442.67,136.67L448,105L453.33,105L458.67,105L464,120.83L469.33,120.83L474.67,73.33L480,120.83L485.33,73.33L490.67,184.17L496,105L501.33,120.83L506.67,120.83L512,184.17" style="fill: rgb(74, 222, 128); fill-opacity: 1; stroke-width: 0;"/></g></g><g class="errorbars"/><g class="lines"><path class="js-line" d="M0,120.83L5.33,73.33L10.67,73.33L16,73.33L21.33,89.17L26.67,73.33L32,89.17L37.33,73.33L42.67,105L48,89.17L53.33,105L58.67,89.17L64,105L69.33,73.33L74.67,105L80,73.33L85.33,105L90.67,73.33L96,105L101.33,73.33L106.67,105L112,73.33L117.33,105L122.67,73.33L128,73.33L138.67,73.33L144,57.5L149.33,73.33L154.67,73.33L160,10L165.33,105L170.67,136.67L176,136.67L181.33,120.83L186.67,136.67L192,120.83L197.33,136.67L202.67,105L208,120.83L213.33,120.83L218.67,73.33L224,120.83L229.33,73.33L234.67,105L240,73.33L245.33,120.83L250.67,120.83L256,73.33L261.33,120.83L282.67,120.83L288,105L293.33,105L298.67,200L304,200L309.33,73.33L314.67,89.17L320,73.33L325.33,120.83L330.67,73.33L336,73.33L341.33,89.17L384,89.17L389.33,105L394.67,120.83L400,120.83L405.33,89.17L410.67,89.17L416,73.33L421.33,89.17L426.67,105L432,136.67L437.33,120.83L442.67,136.67L448,105L453.33,105L458.67,105L464,120.83L469.33,120.83L474.67,73.33L480,120.83L485.33,73.33L490.67,184.17L496,105L501.33,120.83L506.67,120.83L512,184.17" style="vector-effect: none; fill: none; stroke: rgb(255, 165, 0); stroke-opacity: 1; stroke-width: 0px; opacity: 1;"/></g><g class="points"/><g class="text"/></g></g></g></g><path class="xlines-above crisp" d="M0,0" style="fill: none;"/><path class="ylines-above crisp" d="M0,0" style="fill: none;"/><g class="overlines-above"/><g class="xaxislayer-above"/><g class="yaxislayer-above"/><g class="overaxes-above"/></g></g><g class="polarlayer"/><g class="smithlayer"/><g class="ternarylayer"/><g class="geolayer"/><g class="funnelarealayer"/><g class="pielayer"/><g class="iciclelayer"/><g class="treemaplayer"/><g class="sunburstlayer"/><g class="glimages"/><defs id="topdefs-848b27"><g class="clips"/></defs><g class="layer-above"><g class="imagelayer"/><g class="shapelayer"/></g><g class="infolayer"><g class="g-gtitle"/></g></svg>