<svg class="main-svg" xmlns="http://www.w3.org/2000/svg" xmlns:xlink="http://www.w3.org/1999/xlink" width="512" height="200" style="" viewBox="0 0 512 200"><rect x="0" y="0" width="512" height="200" style="fill: rgb(0, 0, 0); fill-opacity: 0;"/><defs id="defs-dd0079"><g class="clips"><clipPath id="clipdd0079xyplot" class="plotclip"><rect width="512" height="200"/></clipPath><clipPath class="axesclip" id="clipdd0079x"><rect x="0" y="0" width="512" height="200"/></clipPath><clipPath class="axesclip" id="clipdd0079y"><rect x="0" y="0" width="512" height="200"/></clipPath><clipPath class="axesclip" id="clipdd0079xy"><rect x="0" y="0" width="512" height="200"/></clipPath></g><g class="gradients"/><g class="patterns"/></defs><g class="bglayer"><rect class="bg" x="0" y="0" width="512" height="200" style="fill: rgb(0, 0, 0); fill-opacity: 0; stroke-width: 0;"/></g><g class="layer-below"><g class="imagelayer"/><g class="shapelayer"/></g><g class="cartesianlayer"><g class="subplot xy"><g class="layer-subplot"><g class="shapelayer"/><g class="imagelayer"/></g><g class="minor-gridlayer"><g class="x"/><g class="y"/></g><g class="gridlayer"><g class="x"/><g class="y"/></g><g class="zerolinelayer"/><g class="layer-between"><g class="shapelayer"/><g class="imagelayer"/></g><path class="xlines-below"/><path class="ylines-below"/><g class="overlines-below"/><g class="xaxislayer-below"/><g class="yaxislayer-below"/><g class="overaxes-below"/><g class="overplot"><g class="xy" transform="" clip-path="url(#clipdd0079xyplot)"><g class="scatterlayer mlayer"><g class="trace scatter trace8595f0" style="stroke-miterlimit: 2;"><g class="fills"><g><path class="js-fill" d="M512,200L0,200L0,140.63L5.33,105L10.67,105L16,105L21.33,116.88L26.67,105L32,116.88L37.33,105L42.67,128.75L48,116.88L53.33,128.75L58.67,116.88L64,128.75L69.33,105L74.67,128.75L80,105L85.33,128.75L90.67,105L96,128.75L101.33,105L106.67,128.75L112,105L117.33,128.75L122.67,105L128,105L138.67,105L144,93.13L149.33,10L154.67,10L160,10L165.33,128.75L170.67,152.5L176,152.5L181.33,140.63L186.67,152.5L192,140.63L197.33,152.5L202.67,128.75L208,140.63L213.33,140.63L218.67,105L224,140.63L229.33,105L234.67,128.75L240,105L245.33,140.63L250.67,140.63L256,105L261.33,140.63L282.67,140.63L288,128.75L293.33,128.75L298.67,200L304,200L309.33,105L314.67,116.88L320,105L325.33,140.63L330.67,105L336,105L341.33,116.88L378.67,116.88L384,10L416,10L421.33,116.88L426.67,128.75L432,152.5L437.33,140.63L442.67,152.5L448,128.75L453.33,128.75L458.67,128.75L464,140.63L469.33,140.63L474.67,105L480,140.63L485.33,105L490.67,188.13L496,128.75L501.33,140.63L506.67,140.63L512,188.13" style="fill: rgb(253, 224, 71); fill-opacity: 1; stroke-width: 0;"/></g></g><g class="errorbars"/><g class="lines"><path class="js-line" d="M0,140.63L5.33,105L10.67,105L16,105L21.33,116.88L26.67,105L32,116.88L37.33,105L42.67,128.75L48,116.88L53.33,128.75L58.67,116.88L64,128.75L69.33,105L74.67,128.75L80,105L85.33,128.75L90.67,105L96,128.75L101.33,105L106.67,128.75L112,105L117.33,128.75L122.67,105L128,105L138.67,105L144,93.13L149.33,10L154.67,10L160,10L165.33,128.75L170.67,152.5L176,152.5L181.33,140.63L186.67,152.5L192,140.63L197.33,152.5L202.67,128.75L208,140.63L213.33,140.63L218.67,105L224,140.63L229.33,105L234.67,128.75L240,105L245.33,140.63L250.67,140.63L256,105L261.33,140.63L282.67,140.63L288,128.75L293.33,128.75L298.67,200L304,200L309.33,105L314.67,116.88L320,105L325.33,140.63L330.67,105L336,105L341.33,116.88L378.67,116.88L384,10L416,10L421.33,116.88L426.67,128.75L432,152.5L437.33,140.63L442.67,152.5L448,128.75L453.33,128.75L458.67,128.75L464,140.63L469.33,140.63L474.67,105L480,140.63L485.33,105L490.67,188.13L496,128.75L501.33,140.63L506.67,140.63L512,188.13" style="vector-effect: none; fill: none; stroke: rgb(255, 165, 0); stroke-opacity: 1; stroke-width: 0px; opacity: 1;"/></g><g class="points"/><g class="text"/></g></g></g></g><path class="xlines-above crisp" d="M0,0" style="fill: none;"/><path class="ylines-above crisp" d="M0,0" style="fill: none;"/><g class="overlines-above"/><g class="xaxislayer-above"/><g class="yaxislayer-above"/><g class="overaxes-above"/></g></g><g class="polarlayer"/><g class="smithlayer"/><g class="ternarylayer"/><g class="geolayer"/><g class="funnelarealayer"/><g class="pielayer"/><g class="iciclelayer"/><g class="treemaplayer"/><g class="sunburstlayer"/><g class="glimages"/><defs id="topdefs-dd0079"><g class="clips"/></defs><g class="layer-above"><g class="imagelayer"/><g class="shapelayer"/></g><g class="infolayer"><g class="g-gtitle"/></g></svg>