<svg class="main-svg" xmlns="http://www.w3.org/2000/svg" xmlns:xlink="http://www.w3.org/1999/xlink" width="512" height="200" style="" viewBox="0 0 512 200"><rect x="0" y="0" width="512" height="200" style="fill: rgb(0, 0, 0); fill-opacity: 0;"/><defs id="defs-4f2472"><g class="clips"><clipPath id="clip4f2472xyplot" class="plotclip"><rect width="512" height="200"/></clipPath><clipPath class="axesclip" id="clip4f2472x"><rect x="0" y="0" width="512" height="200"/></clipPath><clipPath class="axesclip" id="clip4f2472y"><rect x="0" y="0" width="512" height="200"/></clipPath><clipPath class="axesclip" id="clip4f2472xy"><rect x="0" y="0" width="512" height="200"/></clipPath></g><g class="gradients"/><g class="patterns"/></defs><g class="bglayer"><rect class="bg" x="0" y="0" width="512" height="200" style="fill: rgb(0, 0, 0); fill-opacity: 0; stroke-width: 0;"/></g><g class="layer-below"><g class="imagelayer"/><g class="shapelayer"/></g><g class="cartesianlayer"><g class="subplot xy"><g class="layer-subplot"><g class="shapelayer"/><g class="imagelayer"/></g><g class="minor-gridlayer"><g class="x"/><g class="y"/></g><g class="gridlayer"><g class="x"/><g class="y"/></g><g class="zerolinelayer"/><g class="layer-between"><g class="shapelayer"/><g class="imagelayer"/></g><path class="xlines-below"/><path class="ylines-below"/><g class="overlines-below"/><g class="xaxislayer-below"/><g class="yaxislayer-below"/><g class="overaxes-below"/><g class="overplot"><g class="xy" transform="" clip-path="url(#clip4f2472xyplot)"><g class="scatterlayer mlayer"><g class="trace scatter trace57e745" style="stroke-miterlimit: 2;"><g class="fills"><g><path class="js-fill" d="M512,200L0,200L0,200L20.85,200L21.68,144.12L22.51,132.94L23.35,144.12L24.18,144.12L25.02,132.94L25.85,144.12L26.68,144.12L27.52,144.12L28.35,21.18L45.86,21.18L46.7,132.94L47.53,144.12L48.36,21.18L80.89,21.18L81.72,132.94L82.55,144.12L83.39,21.18L109.24,21.18L110.07,188.82L110.91,200L111.74,200L121.75,200L122.58,144.12L124.25,200L125.08,21.18L145.09,21.18L145.93,65.88L146.76,21.18L147.6,21.18L173.45,21.18L174.28,10L175.11,21.18L175.95,21.18L176.78,21.18L177.62,77.06L178.45,21.18L179.28,21.18L220.98,21.18L221.81,132.94L222.64,155.29L223.48,132.94L224.31,155.29L225.15,21.18L230.98,21.18L231.82,188.82L232.65,200L233.49,200L237.65,200L238.49,155.29L240.16,155.29L240.99,21.18L290.19,21.18L291.02,188.82L291.86,200L292.69,200L300.2,200L301.03,21.18L312.7,21.18L313.54,188.82L314.37,144.12L315.21,144.12L316.87,144.12L317.71,121.76L318.54,65.88L319.37,121.76L321.04,21.18L321.88,21.18L326.05,21.18L326.88,65.88L327.71,21.18L328.55,21.18L332.72,21.18L333.55,132.94L334.38,200L335.22,200L336.89,200L337.72,110.59L340.22,110.59L341.06,21.18L372.74,21.18L373.58,188.82L374.41,144.12L375.24,144.12L376.91,144.12L377.75,121.76L378.58,65.88L379.41,121.76L380.25,99.41L381.08,21.18L386.08,21.18L386.92,132.94L387.75,21.18L388.59,21.18L392.76,21.18L393.59,144.12L394.42,200L395.26,200L396.93,200L397.76,21.18L449.46,21.18L450.29,54.71L451.13,88.24L451.96,21.18L496.16,21.18L496.99,54.71L497.82,88.24L498.66,21.18L503.66,21.18L504.5,188.82L505.33,200L506.16,200L512,200" style="fill: rgb(96, 165, 250); fill-opacity: 1; stroke-width: 0;"/></g></g><g class="errorbars"/><g class="lines"><path class="js-line" d="M0,200L20.85,200L21.68,144.12L22.51,132.94L23.35,144.12L24.18,144.12L25.02,132.94L25.85,144.12L26.68,144.12L27.52,144.12L28.35,21.18L45.86,21.18L46.7,132.94L47.53,144.12L48.36,21.18L80.89,21.18L81.72,132.94L82.55,144.12L83.39,21.18L109.24,21.18L110.07,188.82L110.91,200L111.74,200L121.75,200L122.58,144.12L124.25,200L125.08,21.18L145.09,21.18L145.93,65.88L146.76,21.18L147.6,21.18L173.45,21.18L174.28,10L175.11,21.18L175.95,21.18L176.78,21.18L177.62,77.06L178.45,21.18L179.28,21.18L220.98,21.18L221.81,132.94L222.64,155.29L223.48,132.94L224.31,155.29L225.15,21.18L230.98,21.18L231.82,188.82L232.65,200L233.49,200L237.65,200L238.49,155.29L240.16,155.29L240.99,21.18L290.19,21.18L291.02,188.82L291.86,200L292.69,200L300.2,200L301.03,21.18L312.7,21.18L313.54,188.82L314.37,144.12L315.21,144.12L316.87,144.12L317.71,121.76L318.54,65.88L319.37,121.76L321.04,21.18L321.88,21.18L326.05,21.18L326.88,65.88L327.71,21.18L328.55,21.18L332.72,21.18L333.55,132.94L334.38,200L335.22,200L336.89,200L337.72,110.59L340.22,110.59L341.06,21.18L372.74,21.18L373.58,188.82L374.41,144.12L375.24,144.12L376.91,144.12L377.75,121.76L378.58,65.88L379.41,121.76L380.25,99.41L381.08,21.18L386.08,21.18L386.92,132.94L387.75,21.18L388.59,21.18L392.76,21.18L393.59,144.12L394.42,200L395.26,200L396.93,200L397.76,21.18L449.46,21.18L450.29,54.71L451.13,88.24L451.96,21.18L496.16,21.18L496.99,54.71L497.82,88.24L498.66,21.18L503.66,21.18L504.5,188.82L505.33,200L506.16,200L512,200" style="vector-effect: none; fill: none; stroke: rgb(255, 165, 0); stroke-opacity: 1; stroke-width: 0px; opacity: 1;"/></g><g class="points"/><g class="text"/></g></g></g></g><path class="xlines-above crisp" d="M0,0" style="fill: none;"/><path class="ylines-above crisp" d="M0,0" style="fill: none;"/><g class="overlines-above"/><g class="xaxislayer-above"/><g class="yaxislayer-above"/><g class="overaxes-above"/></g></g><g class="polarlayer"/><g class="smithlayer"/><g class="ternarylayer"/><g class="geolayer"/><g class="funnelarealayer"/><g class="pielayer"/><g class="iciclelayer"/><g class="treemaplayer"/><g class="sunburstlayer"/><g class="glimages"/><defs id="topdefs-4f2472"><g class="clips"/></defs><g class="layer-above"><g class="imagelayer"/><g class="shapelayer"/></g><g class="infolayer"><g class="g-gtitle"/></g></svg>