<svg class="main-svg" xmlns="http://www.w3.org/2000/svg" xmlns:xlink="http://www.w3.org/1999/xlink" width="512" height="200" viewBox="0 0 512 200" style=""><rect x="0" y="0" width="512" height="200" style="fill: rgb(0, 0, 0); fill-opacity: 0;"/><defs id="defs-cd4b1d"><g class="clips"><clipPath id="clipcd4b1dxyplot" class="plotclip"><rect width="512" height="200"/></clipPath><clipPath class="axesclip" id="clipcd4b1dx"><rect x="0" y="0" width="512" height="200"/></clipPath><clipPath class="axesclip" id="clipcd4b1dy"><rect x="0" y="0" width="512" height="200"/></clipPath><clipPath class="axesclip" id="clipcd4b1dxy"><rect x="0" y="0" width="512" height="200"/></clipPath></g><g class="gradients"/><g class="patterns"/></defs><g class="bglayer"><rect class="bg" x="0" y="0" width="512" height="200" style="fill: rgb(0, 0, 0); fill-opacity: 0; stroke-width: 0;"/></g><g class="layer-below"><g class="imagelayer"/><g class="shapelayer"/></g><g class="cartesianlayer"><g class="subplot xy"><g class="layer-subplot"><g class="shapelayer"/><g class="imagelayer"/></g><g class="minor-gridlayer"><g class="x"/><g class="y"/></g><g class="gridlayer"><g class="x"/><g class="y"/></g><g class="zerolinelayer"/><g class="layer-between"><g class="shapelayer"/><g class="imagelayer"/></g><path class="xlines-below"/><path class="ylines-below"/><g class="overlines-below"/><g class="xaxislayer-below"/><g class="yaxislayer-below"/><g class="overaxes-below"/><g class="overplot"><g class="xy" transform="" clip-path="url(#clipcd4b1dxyplot)"><g class="scatterlayer mlayer"><g class="trace scatter trace27671c" style="stroke-miterlimit: 2;"><g class="fills"><g><path class="js-fill" d="M512,200L0,200L0,200L14.75,200L16.86,176.25L21.07,176.25L23.18,164.38L25.28,105L27.39,105L31.6,105L33.71,128.75L35.82,164.38L37.93,128.75L40.03,105L42.14,128.75L44.25,164.38L46.35,128.75L48.46,105L50.57,105L61.1,105L63.21,10L65.32,10L67.42,188.13L69.53,200L71.64,200L73.74,200L75.85,10L105.35,10L107.46,45.63L109.56,10L111.67,10L139.06,10L141.17,45.63L143.28,176.25L145.38,105L147.49,10L149.6,10L160.13,10L162.24,45.63L164.35,10L166.45,10L176.99,10L179.09,164.38L181.2,10L183.31,10L193.84,10L195.95,33.75L198.06,10L200.16,10L210.7,10L212.81,116.88L214.91,188.13L217.02,200L219.13,140.63L221.23,164.38L223.34,140.63L225.45,140.63L227.56,140.63L229.66,164.38L231.77,140.63L233.88,164.38L235.98,105L238.09,105L250.73,105L252.84,10L254.95,81.25L257.05,10L259.16,69.38L261.27,10L263.37,45.63L265.48,10L269.7,140.63L271.8,140.63L276.02,81.25L278.12,10L290.77,10L292.87,105L294.98,10L297.09,10L307.62,10L309.73,93.13L311.84,10L313.94,10L326.58,10L328.69,45.63L330.8,10L332.91,10L343.44,10L345.55,45.63L347.65,10L349.76,10L351.87,10L353.98,33.75L356.08,45.63L358.19,10L360.3,57.5L362.4,188.13L364.51,200L366.62,128.75L368.72,105L370.83,128.75L372.94,164.38L375.05,128.75L377.15,105L379.26,188.13L381.37,200L383.47,200L385.58,10L387.69,10L398.22,10L400.33,93.13L402.44,10L404.54,93.13L406.65,10L408.76,93.13L410.86,10L412.97,10L415.08,10L417.19,188.13L419.29,200L421.4,116.88L423.51,10L425.61,10L436.15,10L438.26,45.63L440.36,10L442.47,10L457.22,10L459.33,33.75L461.43,10L463.54,10L484.61,10L486.72,45.63L488.82,45.63L490.93,10L501.47,10L503.57,200L509.89,200L512,188.13" style="fill: rgb(96, 165, 250); fill-opacity: 1; stroke-width: 0;"/></g></g><g class="errorbars"/><g class="lines"><path class="js-line" d="M0,200L14.75,200L16.86,176.25L21.07,176.25L23.18,164.38L25.28,105L27.39,105L31.6,105L33.71,128.75L35.82,164.38L37.93,128.75L40.03,105L42.14,128.75L44.25,164.38L46.35,128.75L48.46,105L50.57,105L61.1,105L63.21,10L65.32,10L67.42,188.13L69.53,200L71.64,200L73.74,200L75.85,10L105.35,10L107.46,45.63L109.56,10L111.67,10L139.06,10L141.17,45.63L143.28,176.25L145.38,105L147.49,10L149.6,10L160.13,10L162.24,45.63L164.35,10L166.45,10L176.99,10L179.09,164.38L181.2,10L183.31,10L193.84,10L195.95,33.75L198.06,10L200.16,10L210.7,10L212.81,116.88L214.91,188.13L217.02,200L219.13,140.63L221.23,164.38L223.34,140.63L225.45,140.63L227.56,140.63L229.66,164.38L231.77,140.63L233.88,164.38L235.98,105L238.09,105L250.73,105L252.84,10L254.95,81.25L257.05,10L259.16,69.38L261.27,10L263.37,45.63L265.48,10L269.7,140.63L271.8,140.63L276.02,81.25L278.12,10L290.77,10L292.87,105L294.98,10L297.09,10L307.62,10L309.73,93.13L311.84,10L313.94,10L326.58,10L328.69,45.63L330.8,10L332.91,10L343.44,10L345.55,45.63L347.65,10L349.76,10L351.87,10L353.98,33.75L356.08,45.63L358.19,10L360.3,57.5L362.4,188.13L364.51,200L366.62,128.75L368.72,105L370.83,128.75L372.94,164.38L375.05,128.75L377.15,105L379.26,188.13L381.37,200L383.47,200L385.58,10L387.69,10L398.22,10L400.33,93.13L402.44,10L404.54,93.13L406.65,10L408.76,93.13L410.86,10L412.97,10L415.08,10L417.19,188.13L419.29,200L421.4,116.88L423.51,10L425.61,10L436.15,10L438.26,45.63L440.36,10L442.47,10L457.22,10L459.33,33.75L461.43,10L463.54,10L484.61,10L486.72,45.63L488.82,45.63L490.93,10L501.47,10L503.57,200L509.89,200L512,188.13" style="vector-effect: none; fill: none; stroke: rgb(255, 165, 0); stroke-opacity: 1; stroke-width: 0px; opacity: 1;"/></g><g class="points"/><g class="text"/></g></g></g></g><path class="xlines-above crisp" d="M0,0" style="fill: none;"/><path class="ylines-above crisp" d="M0,0" style="fill: none;"/><g class="overlines-above"/><g class="xaxislayer-above"/><g class="yaxislayer-above"/><g class="overaxes-above"/></g></g><g class="polarlayer"/><g class="smithlayer"/><g class="ternarylayer"/><g class="geolayer"/><g class="funnelarealayer"/><g class="pielayer"/><g class="iciclelayer"/><g class="treemaplayer"/><g class="sunburstlayer"/><g class="glimages"/><defs id="topdefs-cd4b1d"><g class="clips"/></defs><g class="layer-above"><g class="imagelayer"/><g class="shapelayer"/></g><g class="infolayer"><g class="g-gtitle"/></g></svg>