<svg class="main-svg" xmlns="http://www.w3.org/2000/svg" xmlns:xlink="http://www.w3.org/1999/xlink" width="512" height="200" viewBox="0 0 512 200" style=""><rect x="0" y="0" width="512" height="200" style="fill: rgb(0, 0, 0); fill-opacity: 0;"/><defs id="defs-a26909"><g class="clips"><clipPath id="clipa26909xyplot" class="plotclip"><rect width="512" height="200"/></clipPath><clipPath class="axesclip" id="clipa26909x"><rect x="0" y="0" width="512" height="200"/></clipPath><clipPath class="axesclip" id="clipa26909y"><rect x="0" y="0" width="512" height="200"/></clipPath><clipPath class="axesclip" id="clipa26909xy"><rect x="0" y="0" width="512" height="200"/></clipPath></g><g class="gradients"/><g class="patterns"/></defs><g class="bglayer"><rect class="bg" x="0" y="0" width="512" height="200" style="fill: rgb(0, 0, 0); fill-opacity: 0; stroke-width: 0;"/></g><g class="layer-below"><g class="imagelayer"/><g class="shapelayer"/></g><g class="cartesianlayer"><g class="subplot xy"><g class="layer-subplot"><g class="shapelayer"/><g class="imagelayer"/></g><g class="minor-gridlayer"><g class="x"/><g class="y"/></g><g class="gridlayer"><g class="x"/><g class="y"/></g><g class="zerolinelayer"/><g class="layer-between"><g class="shapelayer"/><g class="imagelayer"/></g><path class="xlines-below"/><path class="ylines-below"/><g class="overlines-below"/><g class="xaxislayer-below"/><g class="yaxislayer-below"/><g class="overaxes-below"/><g class="overplot"><g class="xy" transform="" clip-path="url(#clipa26909xyplot)"><g class="scatterlayer mlayer"><g class="trace scatter tracefe72f5" style="stroke-miterlimit: 2;"><g class="fills"><g><path class="js-fill" d="M512,200L0,200L0,181.11L7.01,86.69L14.03,48.92L28.05,48.92L35.07,86.69L42.08,48.92L49.1,48.92L56.11,48.92L63.12,86.69L70.14,47.08L77.15,48.92L84.16,48.92L91.18,86.69L98.19,48.92L105.21,48.92L112.22,86.69L119.23,86.69L126.25,48.92L133.26,105.57L140.27,86.69L147.29,105.57L154.3,48.92L161.32,105.57L168.33,86.69L175.34,124.46L217.42,124.46L224.44,181.11L231.45,181.11L238.47,67.8L245.48,105.57L252.49,200L259.51,200L266.52,160.57L273.53,10L280.55,86.69L287.56,48.92L294.58,86.69L301.59,11.14L308.6,162.23L315.62,200L322.63,200L329.64,162.23L336.66,11.14L343.67,86.69L350.68,67.8L357.7,86.69L364.71,86.69L371.73,67.8L378.74,86.69L385.75,105.57L392.77,86.69L399.78,67.8L406.79,86.69L420.82,48.92L427.84,67.8L434.85,48.92L441.86,86.69L448.88,48.92L455.89,86.69L462.9,124.46L469.92,124.46L490.96,124.46L497.97,143.34L504.99,143.34L512,124.46" style="fill: rgb(74, 222, 128); fill-opacity: 1; stroke-width: 0;"/></g></g><g class="errorbars"/><g class="lines"><path class="js-line" d="M0,181.11L7.01,86.69L14.03,48.92L28.05,48.92L35.07,86.69L42.08,48.92L49.1,48.92L56.11,48.92L63.12,86.69L70.14,47.08L77.15,48.92L84.16,48.92L91.18,86.69L98.19,48.92L105.21,48.92L112.22,86.69L119.23,86.69L126.25,48.92L133.26,105.57L140.27,86.69L147.29,105.57L154.3,48.92L161.32,105.57L168.33,86.69L175.34,124.46L217.42,124.46L224.44,181.11L231.45,181.11L238.47,67.8L245.48,105.57L252.49,200L259.51,200L266.52,160.57L273.53,10L280.55,86.69L287.56,48.92L294.58,86.69L301.59,11.14L308.6,162.23L315.62,200L322.63,200L329.64,162.23L336.66,11.14L343.67,86.69L350.68,67.8L357.7,86.69L364.71,86.69L371.73,67.8L378.74,86.69L385.75,105.57L392.77,86.69L399.78,67.8L406.79,86.69L420.82,48.92L427.84,67.8L434.85,48.92L441.86,86.69L448.88,48.92L455.89,86.69L462.9,124.46L469.92,124.46L490.96,124.46L497.97,143.34L504.99,143.34L512,124.46" style="vector-effect: none; fill: none; stroke: rgb(255, 165, 0); stroke-opacity: 1; stroke-width: 0px; opacity: 1;"/></g><g class="points"/><g class="text"/></g></g></g></g><path class="xlines-above crisp" d="M0,0" style="fill: none;"/><path class="ylines-above crisp" d="M0,0" style="fill: none;"/><g class="overlines-above"/><g class="xaxislayer-above"/><g class="yaxislayer-above"/><g class="overaxes-above"/></g></g><g class="polarlayer"/><g class="smithlayer"/><g class="ternarylayer"/><g class="geolayer"/><g class="funnelarealayer"/><g class="pielayer"/><g class="iciclelayer"/><g class="treemaplayer"/><g class="sunburstlayer"/><g class="glimages"/><defs id="topdefs-a26909"><g class="clips"/></defs><g class="layer-above"><g class="imagelayer"/><g class="shapelayer"/></g><g class="infolayer"><g class="g-gtitle"/></g></svg>