<svg class="main-svg" xmlns="http://www.w3.org/2000/svg" xmlns:xlink="http://www.w3.org/1999/xlink" width="512" height="200" viewBox="0 0 512 200" style=""><rect x="0" y="0" width="512" height="200" style="fill: rgb(0, 0, 0); fill-opacity: 0;"/><defs id="defs-f0f433"><g class="clips"><clipPath id="clipf0f433xyplot" class="plotclip"><rect width="512" height="200"/></clipPath><clipPath class="axesclip" id="clipf0f433x"><rect x="0" y="0" width="512" height="200"/></clipPath><clipPath class="axesclip" id="clipf0f433y"><rect x="0" y="0" width="512" height="200"/></clipPath><clipPath class="axesclip" id="clipf0f433xy"><rect x="0" y="0" width="512" height="200"/></clipPath></g><g class="gradients"/><g class="patterns"/></defs><g class="bglayer"><rect class="bg" x="0" y="0" width="512" height="200" style="fill: rgb(0, 0, 0); fill-opacity: 0; stroke-width: 0;"/></g><g class="layer-below"><g class="imagelayer"/><g class="shapelayer"/></g><g class="cartesianlayer"><g class="subplot xy"><g class="layer-subplot"><g class="shapelayer"/><g class="imagelayer"/></g><g class="minor-gridlayer"><g class="x"/><g class="y"/></g><g class="gridlayer"><g class="x"/><g class="y"/></g><g class="zerolinelayer"/><g class="layer-between"><g class="shapelayer"/><g class="imagelayer"/></g><path class="xlines-below"/><path class="ylines-below"/><g class="overlines-below"/><g class="xaxislayer-below"/><g class="yaxislayer-below"/><g class="overaxes-below"/><g class="overplot"><g class="xy" transform="" clip-path="url(#clipf0f433xyplot)"><g class="scatterlayer mlayer"><g class="trace scatter tracea2973b" style="stroke-miterlimit: 2;"><g class="fills"><g><path class="js-fill" d="M512,200L0,200L0,200L16.13,200L20.16,89.71L24.19,111.68L28.22,89.71L32.25,111.68L36.28,92.29L40.31,112.4L44.35,96.6L48.38,127.62L52.41,62.13L80.63,62.13L84.66,79.37L88.69,10L92.72,62.13L197.54,62.13L201.57,96.6L205.61,200L209.64,200L213.67,62.13L217.7,62.13L274.14,62.13L278.17,182.77L282.2,200L286.24,200L306.39,200L310.43,62.13L370.9,62.13L374.93,96.6L378.96,113.83L382.99,96.6L387.02,113.83L391.06,96.6L395.09,113.83L399.12,96.6L403.15,44.9L407.18,62.13L467.65,62.13L471.69,96.6L475.72,113.83L479.75,96.6L483.78,113.83L487.81,96.6L491.84,117.42L495.87,93.15L499.91,113.83L503.94,200L512,200" style="fill: rgb(74, 222, 128); fill-opacity: 1; stroke-width: 0;"/></g></g><g class="errorbars"/><g class="lines"><path class="js-line" d="M0,200L16.13,200L20.16,89.71L24.19,111.68L28.22,89.71L32.25,111.68L36.28,92.29L40.31,112.4L44.35,96.6L48.38,127.62L52.41,62.13L80.63,62.13L84.66,79.37L88.69,10L92.72,62.13L197.54,62.13L201.57,96.6L205.61,200L209.64,200L213.67,62.13L217.7,62.13L274.14,62.13L278.17,182.77L282.2,200L286.24,200L306.39,200L310.43,62.13L370.9,62.13L374.93,96.6L378.96,113.83L382.99,96.6L387.02,113.83L391.06,96.6L395.09,113.83L399.12,96.6L403.15,44.9L407.18,62.13L467.65,62.13L471.69,96.6L475.72,113.83L479.75,96.6L483.78,113.83L487.81,96.6L491.84,117.42L495.87,93.15L499.91,113.83L503.94,200L512,200" style="vector-effect: none; fill: none; stroke: rgb(255, 165, 0); stroke-opacity: 1; stroke-width: 0px; opacity: 1;"/></g><g class="points"/><g class="text"/></g></g></g></g><path class="xlines-above crisp" d="M0,0" style="fill: none;"/><path class="ylines-above crisp" d="M0,0" style="fill: none;"/><g class="overlines-above"/><g class="xaxislayer-above"/><g class="yaxislayer-above"/><g class="overaxes-above"/></g></g><g class="polarlayer"/><g class="smithlayer"/><g class="ternarylayer"/><g class="geolayer"/><g class="funnelarealayer"/><g class="pielayer"/><g class="iciclelayer"/><g class="treemaplayer"/><g class="sunburstlayer"/><g class="glimages"/><defs id="topdefs-f0f433"><g class="clips"/></defs><g class="layer-above"><g class="imagelayer"/><g class="shapelayer"/></g><g class="infolayer"><g class="g-gtitle"/></g></svg>