<svg class="main-svg" xmlns="http://www.w3.org/2000/svg" xmlns:xlink="http://www.w3.org/1999/xlink" width="512" height="200" style="" viewBox="0 0 512 200"><rect x="0" y="0" width="512" height="200" style="fill: rgb(0, 0, 0); fill-opacity: 0;"/><defs id="defs-d3674d"><g class="clips"><clipPath id="clipd3674dxyplot" class="plotclip"><rect width="512" height="200"/></clipPath><clipPath class="axesclip" id="clipd3674dx"><rect x="0" y="0" width="512" height="200"/></clipPath><clipPath class="axesclip" id="clipd3674dy"><rect x="0" y="0" width="512" height="200"/></clipPath><clipPath class="axesclip" id="clipd3674dxy"><rect x="0" y="0" width="512" height="200"/></clipPath></g><g class="gradients"/><g class="patterns"/></defs><g class="bglayer"><rect class="bg" x="0" y="0" width="512" height="200" style="fill: rgb(0, 0, 0); fill-opacity: 0; stroke-width: 0;"/></g><g class="layer-below"><g class="imagelayer"/><g class="shapelayer"/></g><g class="cartesianlayer"><g class="subplot xy"><g class="layer-subplot"><g class="shapelayer"/><g class="imagelayer"/></g><g class="minor-gridlayer"><g class="x"/><g class="y"/></g><g class="gridlayer"><g class="x"/><g class="y"/></g><g class="zerolinelayer"/><g class="layer-between"><g class="shapelayer"/><g class="imagelayer"/></g><path class="xlines-below"/><path class="ylines-below"/><g class="overlines-below"/><g class="xaxislayer-below"/><g class="yaxislayer-below"/><g class="overaxes-below"/><g class="overplot"><g class="xy" transform="" clip-path="url(#clipd3674dxyplot)"><g class="scatterlayer mlayer"><g class="trace scatter traceb792f6" style="stroke-miterlimit: 2;"><g class="fills"><g><path class="js-fill" d="M512,200L0,200L0,200L49.55,200L53.68,44.9L86.71,44.9L90.84,10L94.97,44.9L99.1,44.9L206.45,44.9L210.58,200L214.71,200L218.84,44.9L284.9,44.9L289.03,200L313.81,200L317.94,44.9L384,44.9L388.13,200L392.26,44.9L396.39,200L400.52,44.9L404.65,200L408.77,44.9L412.9,200L417.03,44.9L421.16,44.9L499.61,44.9L503.74,51.36L507.87,39.73L512,44.9" style="fill: rgb(133, 94, 232); fill-opacity: 1; stroke-width: 0;"/></g></g><g class="errorbars"/><g class="lines"><path class="js-line" d="M0,200L49.55,200L53.68,44.9L86.71,44.9L90.84,10L94.97,44.9L99.1,44.9L206.45,44.9L210.58,200L214.71,200L218.84,44.9L284.9,44.9L289.03,200L313.81,200L317.94,44.9L384,44.9L388.13,200L392.26,44.9L396.39,200L400.52,44.9L404.65,200L408.77,44.9L412.9,200L417.03,44.9L421.16,44.9L499.61,44.9L503.74,51.36L507.87,39.73L512,44.9" style="vector-effect: none; fill: none; stroke: rgb(255, 165, 0); stroke-opacity: 1; stroke-width: 0px; opacity: 1;"/></g><g class="points"/><g class="text"/></g></g></g></g><path class="xlines-above crisp" d="M0,0" style="fill: none;"/><path class="ylines-above crisp" d="M0,0" style="fill: none;"/><g class="overlines-above"/><g class="xaxislayer-above"/><g class="yaxislayer-above"/><g class="overaxes-above"/></g></g><g class="polarlayer"/><g class="smithlayer"/><g class="ternarylayer"/><g class="geolayer"/><g class="funnelarealayer"/><g class="pielayer"/><g class="iciclelayer"/><g class="treemaplayer"/><g class="sunburstlayer"/><g class="glimages"/><defs id="topdefs-d3674d"><g class="clips"/></defs><g class="layer-above"><g class="imagelayer"/><g class="shapelayer"/></g><g class="infolayer"><g class="g-gtitle"/></g></svg>