<svg class="main-svg" xmlns="http://www.w3.org/2000/svg" xmlns:xlink="http://www.w3.org/1999/xlink" width="512" height="200" viewBox="0 0 512 200" style=""><rect x="0" y="0" width="512" height="200" style="fill: rgb(0, 0, 0); fill-opacity: 0;"/><defs id="defs-9f988d"><g class="clips"><clipPath id="clip9f988dxyplot" class="plotclip"><rect width="512" height="200"/></clipPath><clipPath class="axesclip" id="clip9f988dx"><rect x="0" y="0" width="512" height="200"/></clipPath><clipPath class="axesclip" id="clip9f988dy"><rect x="0" y="0" width="512" height="200"/></clipPath><clipPath class="axesclip" id="clip9f988dxy"><rect x="0" y="0" width="512" height="200"/></clipPath></g><g class="gradients"/><g class="patterns"/></defs><g class="bglayer"><rect class="bg" x="0" y="0" width="512" height="200" style="fill: rgb(0, 0, 0); fill-opacity: 0; stroke-width: 0;"/></g><g class="layer-below"><g class="imagelayer"/><g class="shapelayer"/></g><g class="cartesianlayer"><g class="subplot xy"><g class="layer-subplot"><g class="shapelayer"/><g class="imagelayer"/></g><g class="minor-gridlayer"><g class="x"/><g class="y"/></g><g class="gridlayer"><g class="x"/><g class="y"/></g><g class="zerolinelayer"/><g class="layer-between"><g class="shapelayer"/><g class="imagelayer"/></g><path class="xlines-below"/><path class="ylines-below"/><g class="overlines-below"/><g class="xaxislayer-below"/><g class="yaxislayer-below"/><g class="overaxes-below"/><g class="overplot"><g class="xy" transform="" clip-path="url(#clip9f988dxyplot)"><g class="scatterlayer mlayer"><g class="trace scatter trace4020b7" style="stroke-miterlimit: 2;"><g class="fills"><g><path class="js-fill" d="M512,200L0,200L0,200L16.13,200L20.16,124L24.19,139.14L28.22,124L32.25,139.14L36.28,125.78L40.31,139.64L44.35,128.75L48.38,150.13L52.41,105L80.63,105L84.66,116.88L88.69,69.08L92.72,105L120.94,105L124.98,10L193.51,10L197.54,105L201.57,128.75L205.61,200L209.64,200L213.67,105L241.89,105L245.92,10L370.9,10L374.93,128.75L378.96,140.63L382.99,128.75L387.02,140.63L391.06,128.75L395.09,140.63L399.12,128.75L403.15,93.13L407.18,10L467.65,10L471.69,128.75L475.72,140.63L479.75,128.75L483.78,140.63L487.81,128.75L491.84,143.1L495.87,126.38L499.91,140.63L503.94,200L512,200" style="fill: rgb(96, 165, 250); fill-opacity: 1; stroke-width: 0;"/></g></g><g class="errorbars"/><g class="lines"><path class="js-line" d="M0,200L16.13,200L20.16,124L24.19,139.14L28.22,124L32.25,139.14L36.28,125.78L40.31,139.64L44.35,128.75L48.38,150.13L52.41,105L80.63,105L84.66,116.88L88.69,69.08L92.72,105L120.94,105L124.98,10L193.51,10L197.54,105L201.57,128.75L205.61,200L209.64,200L213.67,105L241.89,105L245.92,10L370.9,10L374.93,128.75L378.96,140.63L382.99,128.75L387.02,140.63L391.06,128.75L395.09,140.63L399.12,128.75L403.15,93.13L407.18,10L467.65,10L471.69,128.75L475.72,140.63L479.75,128.75L483.78,140.63L487.81,128.75L491.84,143.1L495.87,126.38L499.91,140.63L503.94,200L512,200" style="vector-effect: none; fill: none; stroke: rgb(255, 165, 0); stroke-opacity: 1; stroke-width: 0px; opacity: 1;"/></g><g class="points"/><g class="text"/></g></g></g></g><path class="xlines-above crisp" d="M0,0" style="fill: none;"/><path class="ylines-above crisp" d="M0,0" style="fill: none;"/><g class="overlines-above"/><g class="xaxislayer-above"/><g class="yaxislayer-above"/><g class="overaxes-above"/></g></g><g class="polarlayer"/><g class="smithlayer"/><g class="ternarylayer"/><g class="geolayer"/><g class="funnelarealayer"/><g class="pielayer"/><g class="iciclelayer"/><g class="treemaplayer"/><g class="sunburstlayer"/><g class="glimages"/><defs id="topdefs-9f988d"><g class="clips"/></defs><g class="layer-above"><g class="imagelayer"/><g class="shapelayer"/></g><g class="infolayer"><g class="g-gtitle"/></g></svg>