<svg class="main-svg" xmlns="http://www.w3.org/2000/svg" xmlns:xlink="http://www.w3.org/1999/xlink" width="512" height="200" viewBox="0 0 512 200" style=""><rect x="0" y="0" width="512" height="200" style="fill: rgb(0, 0, 0); fill-opacity: 0;"/><defs id="defs-97d75d"><g class="clips"><clipPath id="clip97d75dxyplot" class="plotclip"><rect width="512" height="200"/></clipPath><clipPath class="axesclip" id="clip97d75dx"><rect x="0" y="0" width="512" height="200"/></clipPath><clipPath class="axesclip" id="clip97d75dy"><rect x="0" y="0" width="512" height="200"/></clipPath><clipPath class="axesclip" id="clip97d75dxy"><rect x="0" y="0" width="512" height="200"/></clipPath></g><g class="gradients"/><g class="patterns"/></defs><g class="bglayer"><rect class="bg" x="0" y="0" width="512" height="200" style="fill: rgb(0, 0, 0); fill-opacity: 0; stroke-width: 0;"/></g><g class="layer-below"><g class="imagelayer"/><g class="shapelayer"/></g><g class="cartesianlayer"><g class="subplot xy"><g class="layer-subplot"><g class="shapelayer"/><g class="imagelayer"/></g><g class="minor-gridlayer"><g class="x"/><g class="y"/></g><g class="gridlayer"><g class="x"/><g class="y"/></g><g class="zerolinelayer"/><g class="layer-between"><g class="shapelayer"/><g class="imagelayer"/></g><path class="xlines-below"/><path class="ylines-below"/><g class="overlines-below"/><g class="xaxislayer-below"/><g class="yaxislayer-below"/><g class="overaxes-below"/><g class="overplot"><g class="xy" transform="" clip-path="url(#clip97d75dxyplot)"><g class="scatterlayer mlayer"><g class="trace scatter tracee33a4f" style="stroke-miterlimit: 2;"><g class="fills"><g><path class="js-fill" d="M512,200L0,200L0,200L13.96,200L18.62,188.13L23.27,176.25L27.93,188.13L32.58,188.13L37.24,176.25L41.89,188.13L46.55,188.13L51.2,140.63L55.85,176.25L60.51,176.25L65.16,152.5L69.82,176.25L74.47,152.5L79.13,176.25L83.78,164.38L88.44,105L93.09,105L102.4,105L107.05,81.25L111.71,105L116.36,81.25L121.02,105L125.67,81.25L130.33,105L134.98,81.25L139.64,10L144.29,10L148.95,152.5L153.6,152.5L158.25,140.63L162.91,152.5L167.56,140.63L172.22,152.5L176.87,176.25L181.53,164.38L190.84,140.63L195.49,140.63L200.15,152.5L204.8,116.87L209.45,152.5L214.11,176.25L218.76,152.5L223.42,164.38L228.07,140.63L232.73,81.25L237.38,69.37L242.04,81.25L246.69,69.37L251.35,81.25L256,69.37L260.65,81.25L265.31,69.37L269.96,81.25L274.62,69.37L279.27,81.25L283.93,69.37L288.58,81.25L293.24,69.37L297.89,81.25L302.55,69.37L307.2,105L311.85,81.25L316.51,105L321.16,81.25L325.82,105L335.13,105L339.78,81.25L344.44,105L349.09,105L353.75,105L358.4,81.25L363.05,105L367.71,105L372.36,105L377.02,81.25L381.67,10L386.33,188.13L390.98,93.13L395.64,128.75L400.29,93.13L404.95,128.75L409.6,93.13L414.25,128.75L418.91,93.13L423.56,93.13L428.22,81.25L432.87,81.25L456.15,81.25L460.8,45.62L465.45,81.25L470.11,81.25L493.38,81.25L498.04,45.62L502.69,93.13L507.35,188.13L512,200" style="fill: rgb(74, 222, 128); fill-opacity: 1; stroke-width: 0;"/></g></g><g class="errorbars"/><g class="lines"><path class="js-line" d="M0,200L13.96,200L18.62,188.13L23.27,176.25L27.93,188.13L32.58,188.13L37.24,176.25L41.89,188.13L46.55,188.13L51.2,140.63L55.85,176.25L60.51,176.25L65.16,152.5L69.82,176.25L74.47,152.5L79.13,176.25L83.78,164.38L88.44,105L93.09,105L102.4,105L107.05,81.25L111.71,105L116.36,81.25L121.02,105L125.67,81.25L130.33,105L134.98,81.25L139.64,10L144.29,10L148.95,152.5L153.6,152.5L158.25,140.63L162.91,152.5L167.56,140.63L172.22,152.5L176.87,176.25L181.53,164.38L190.84,140.63L195.49,140.63L200.15,152.5L204.8,116.87L209.45,152.5L214.11,176.25L218.76,152.5L223.42,164.38L228.07,140.63L232.73,81.25L237.38,69.37L242.04,81.25L246.69,69.37L251.35,81.25L256,69.37L260.65,81.25L265.31,69.37L269.96,81.25L274.62,69.37L279.27,81.25L283.93,69.37L288.58,81.25L293.24,69.37L297.89,81.25L302.55,69.37L307.2,105L311.85,81.25L316.51,105L321.16,81.25L325.82,105L335.13,105L339.78,81.25L344.44,105L349.09,105L353.75,105L358.4,81.25L363.05,105L367.71,105L372.36,105L377.02,81.25L381.67,10L386.33,188.13L390.98,93.13L395.64,128.75L400.29,93.13L404.95,128.75L409.6,93.13L414.25,128.75L418.91,93.13L423.56,93.13L428.22,81.25L432.87,81.25L456.15,81.25L460.8,45.62L465.45,81.25L470.11,81.25L493.38,81.25L498.04,45.62L502.69,93.13L507.35,188.13L512,200" style="vector-effect: none; fill: none; stroke: rgb(255, 165, 0); stroke-opacity: 1; stroke-width: 0px; opacity: 1;"/></g><g class="points"/><g class="text"/></g></g></g></g><path class="xlines-above crisp" d="M0,0" style="fill: none;"/><path class="ylines-above crisp" d="M0,0" style="fill: none;"/><g class="overlines-above"/><g class="xaxislayer-above"/><g class="yaxislayer-above"/><g class="overaxes-above"/></g></g><g class="polarlayer"/><g class="smithlayer"/><g class="ternarylayer"/><g class="geolayer"/><g class="funnelarealayer"/><g class="pielayer"/><g class="iciclelayer"/><g class="treemaplayer"/><g class="sunburstlayer"/><g class="glimages"/><defs id="topdefs-97d75d"><g class="clips"/></defs><g class="layer-above"><g class="imagelayer"/><g class="shapelayer"/></g><g class="infolayer"><g class="g-gtitle"/></g></svg>