<svg class="main-svg" xmlns="http://www.w3.org/2000/svg" xmlns:xlink="http://www.w3.org/1999/xlink" width="512" height="200" style="" viewBox="0 0 512 200"><rect x="0" y="0" width="512" height="200" style="fill: rgb(0, 0, 0); fill-opacity: 0;"/><defs id="defs-2dd46b"><g class="clips"><clipPath id="clip2dd46bxyplot" class="plotclip"><rect width="512" height="200"/></clipPath><clipPath class="axesclip" id="clip2dd46bx"><rect x="0" y="0" width="512" height="200"/></clipPath><clipPath class="axesclip" id="clip2dd46by"><rect x="0" y="0" width="512" height="200"/></clipPath><clipPath class="axesclip" id="clip2dd46bxy"><rect x="0" y="0" width="512" height="200"/></clipPath></g><g class="gradients"/><g class="patterns"/></defs><g class="bglayer"><rect class="bg" x="0" y="0" width="512" height="200" style="fill: rgb(0, 0, 0); fill-opacity: 0; stroke-width: 0;"/></g><g class="layer-below"><g class="imagelayer"/><g class="shapelayer"/></g><g class="cartesianlayer"><g class="subplot xy"><g class="layer-subplot"><g class="shapelayer"/><g class="imagelayer"/></g><g class="minor-gridlayer"><g class="x"/><g class="y"/></g><g class="gridlayer"><g class="x"/><g class="y"/></g><g class="zerolinelayer"/><g class="layer-between"><g class="shapelayer"/><g class="imagelayer"/></g><path class="xlines-below"/><path class="ylines-below"/><g class="overlines-below"/><g class="xaxislayer-below"/><g class="yaxislayer-below"/><g class="overaxes-below"/><g class="overplot"><g class="xy" transform="" clip-path="url(#clip2dd46bxyplot)"><g class="scatterlayer mlayer"><g class="trace scatter tracef6801f" style="stroke-miterlimit: 2;"><g class="fills"><g><path class="js-fill" d="M512,200L0,200L0,200L14.22,200L18.96,10L23.7,200L28.44,10L33.19,200L37.93,10L42.67,200L47.41,10L52.15,200L56.89,10L61.63,200L66.37,10L71.11,200L75.85,10L80.59,200L85.33,10L90.07,200L94.81,10L151.7,10L156.44,200L161.19,10L165.93,200L170.67,10L175.41,200L180.15,10L184.89,10L189.63,10L194.37,200L199.11,10L203.85,200L208.59,10L213.33,200L218.07,10L222.81,10L227.56,10L232.3,200L237.04,10L241.78,10L312.89,10L317.63,200L322.37,10L327.11,10L398.22,10L402.96,200L407.7,10L412.44,200L417.19,10L421.93,200L426.67,10L431.41,200L436.15,10L440.89,10L512,10" style="fill: rgb(133, 94, 232); fill-opacity: 1; stroke-width: 0;"/></g></g><g class="errorbars"/><g class="lines"><path class="js-line" d="M0,200L14.22,200L18.96,10L23.7,200L28.44,10L33.19,200L37.93,10L42.67,200L47.41,10L52.15,200L56.89,10L61.63,200L66.37,10L71.11,200L75.85,10L80.59,200L85.33,10L90.07,200L94.81,10L151.7,10L156.44,200L161.19,10L165.93,200L170.67,10L175.41,200L180.15,10L184.89,10L189.63,10L194.37,200L199.11,10L203.85,200L208.59,10L213.33,200L218.07,10L222.81,10L227.56,10L232.3,200L237.04,10L241.78,10L312.89,10L317.63,200L322.37,10L327.11,10L398.22,10L402.96,200L407.7,10L412.44,200L417.19,10L421.93,200L426.67,10L431.41,200L436.15,10L440.89,10L512,10" style="vector-effect: none; fill: none; stroke: rgb(255, 165, 0); stroke-opacity: 1; stroke-width: 0px; opacity: 1;"/></g><g class="points"/><g class="text"/></g></g></g></g><path class="xlines-above crisp" d="M0,0" style="fill: none;"/><path class="ylines-above crisp" d="M0,0" style="fill: none;"/><g class="overlines-above"/><g class="xaxislayer-above"/><g class="yaxislayer-above"/><g class="overaxes-above"/></g></g><g class="polarlayer"/><g class="smithlayer"/><g class="ternarylayer"/><g class="geolayer"/><g class="funnelarealayer"/><g class="pielayer"/><g class="iciclelayer"/><g class="treemaplayer"/><g class="sunburstlayer"/><g class="glimages"/><defs id="topdefs-2dd46b"><g class="clips"/></defs><g class="layer-above"><g class="imagelayer"/><g class="shapelayer"/></g><g class="infolayer"><g class="g-gtitle"/></g></svg>