<svg class="main-svg" xmlns="http://www.w3.org/2000/svg" xmlns:xlink="http://www.w3.org/1999/xlink" width="512" height="200" viewBox="0 0 512 200" style=""><rect x="0" y="0" width="512" height="200" style="fill: rgb(0, 0, 0); fill-opacity: 0;"/><defs id="defs-1fbe33"><g class="clips"><clipPath id="clip1fbe33xyplot" class="plotclip"><rect width="512" height="200"/></clipPath><clipPath class="axesclip" id="clip1fbe33x"><rect x="0" y="0" width="512" height="200"/></clipPath><clipPath class="axesclip" id="clip1fbe33y"><rect x="0" y="0" width="512" height="200"/></clipPath><clipPath class="axesclip" id="clip1fbe33xy"><rect x="0" y="0" width="512" height="200"/></clipPath></g><g class="gradients"/><g class="patterns"/></defs><g class="bglayer"><rect class="bg" x="0" y="0" width="512" height="200" style="fill: rgb(0, 0, 0); fill-opacity: 0; stroke-width: 0;"/></g><g class="layer-below"><g class="imagelayer"/><g class="shapelayer"/></g><g class="cartesianlayer"><g class="subplot xy"><g class="layer-subplot"><g class="shapelayer"/><g class="imagelayer"/></g><g class="minor-gridlayer"><g class="x"/><g class="y"/></g><g class="gridlayer"><g class="x"/><g class="y"/></g><g class="zerolinelayer"/><g class="layer-between"><g class="shapelayer"/><g class="imagelayer"/></g><path class="xlines-below"/><path class="ylines-below"/><g class="overlines-below"/><g class="xaxislayer-below"/><g class="yaxislayer-below"/><g class="overaxes-below"/><g class="overplot"><g class="xy" transform="" clip-path="url(#clip1fbe33xyplot)"><g class="scatterlayer mlayer"><g class="trace scatter tracedc2e0e" style="stroke-miterlimit: 2;"><g class="fills"><g><path class="js-fill" d="M512,200L0,200L0,200L40.21,200L42.89,10L72.38,10L75.06,152.5L80.42,200L83.1,200L85.78,10L88.46,10L158.16,10L160.84,57.5L163.52,81.25L166.2,152.5L168.88,200L171.56,10L211.77,10L214.45,57.5L217.13,10L219.81,10L329.72,10L332.4,152.5L337.76,152.5L340.44,200L343.12,105L345.8,152.5L356.52,152.5L359.2,128.75L361.88,57.5L364.57,57.5L367.25,10L369.93,10L372.61,10L375.29,176.25L377.97,200L380.65,176.25L383.33,200L386.01,10L426.22,10L428.9,57.5L431.58,10L434.26,10L501.28,10L503.96,57.5L506.64,128.75L509.32,33.75L512,10" style="fill: rgb(74, 222, 128); fill-opacity: 1; stroke-width: 0;"/></g></g><g class="errorbars"/><g class="lines"><path class="js-line" d="M0,200L40.21,200L42.89,10L72.38,10L75.06,152.5L80.42,200L83.1,200L85.78,10L88.46,10L158.16,10L160.84,57.5L163.52,81.25L166.2,152.5L168.88,200L171.56,10L211.77,10L214.45,57.5L217.13,10L219.81,10L329.72,10L332.4,152.5L337.76,152.5L340.44,200L343.12,105L345.8,152.5L356.52,152.5L359.2,128.75L361.88,57.5L364.57,57.5L367.25,10L369.93,10L372.61,10L375.29,176.25L377.97,200L380.65,176.25L383.33,200L386.01,10L426.22,10L428.9,57.5L431.58,10L434.26,10L501.28,10L503.96,57.5L506.64,128.75L509.32,33.75L512,10" style="vector-effect: none; fill: none; stroke: rgb(255, 165, 0); stroke-opacity: 1; stroke-width: 0px; opacity: 1;"/></g><g class="points"/><g class="text"/></g></g></g></g><path class="xlines-above crisp" d="M0,0" style="fill: none;"/><path class="ylines-above crisp" d="M0,0" style="fill: none;"/><g class="overlines-above"/><g class="xaxislayer-above"/><g class="yaxislayer-above"/><g class="overaxes-above"/></g></g><g class="polarlayer"/><g class="smithlayer"/><g class="ternarylayer"/><g class="geolayer"/><g class="funnelarealayer"/><g class="pielayer"/><g class="iciclelayer"/><g class="treemaplayer"/><g class="sunburstlayer"/><g class="glimages"/><defs id="topdefs-1fbe33"><g class="clips"/></defs><g class="layer-above"><g class="imagelayer"/><g class="shapelayer"/></g><g class="infolayer"><g class="g-gtitle"/></g></svg>