<svg class="main-svg" xmlns="http://www.w3.org/2000/svg" xmlns:xlink="http://www.w3.org/1999/xlink" width="512" height="200" viewBox="0 0 512 200" style=""><rect x="0" y="0" width="512" height="200" style="fill: rgb(0, 0, 0); fill-opacity: 0;"/><defs id="defs-8d3e3d"><g class="clips"><clipPath id="clip8d3e3dxyplot" class="plotclip"><rect width="512" height="200"/></clipPath><clipPath class="axesclip" id="clip8d3e3dx"><rect x="0" y="0" width="512" height="200"/></clipPath><clipPath class="axesclip" id="clip8d3e3dy"><rect x="0" y="0" width="512" height="200"/></clipPath><clipPath class="axesclip" id="clip8d3e3dxy"><rect x="0" y="0" width="512" height="200"/></clipPath></g><g class="gradients"/><g class="patterns"/></defs><g class="bglayer"><rect class="bg" x="0" y="0" width="512" height="200" style="fill: rgb(0, 0, 0); fill-opacity: 0; stroke-width: 0;"/></g><g class="layer-below"><g class="imagelayer"/><g class="shapelayer"/></g><g class="cartesianlayer"><g class="subplot xy"><g class="layer-subplot"><g class="shapelayer"/><g class="imagelayer"/></g><g class="minor-gridlayer"><g class="x"/><g class="y"/></g><g class="gridlayer"><g class="x"/><g class="y"/></g><g class="zerolinelayer"/><g class="layer-between"><g class="shapelayer"/><g class="imagelayer"/></g><path class="xlines-below"/><path class="ylines-below"/><g class="overlines-below"/><g class="xaxislayer-below"/><g class="yaxislayer-below"/><g class="overaxes-below"/><g class="overplot"><g class="xy" transform="" clip-path="url(#clip8d3e3dxyplot)"><g class="scatterlayer mlayer"><g class="trace scatter tracea89c93" style="stroke-miterlimit: 2;"><g class="fills"><g><path class="js-fill" d="M512,200L0,200L0,176.25L11.46,176.25L15.28,164.37L19.1,176.25L22.93,176.25L26.75,176.25L30.57,105L34.39,105L38.21,176.25L42.03,176.25L45.85,164.37L49.67,176.25L53.49,176.25L57.31,176.25L61.13,33.75L64.96,10L68.78,45.63L72.6,10L76.42,45.63L80.24,10L84.06,45.63L87.88,10L91.7,45.63L95.52,10L99.34,45.63L103.16,10L106.99,164.37L110.81,200L114.63,200L118.45,200L122.27,45.63L126.09,10L129.91,10L149.01,10L152.84,45.63L156.66,10L160.48,10L175.76,10L179.58,45.63L183.4,45.63L187.22,10L210.15,10L213.97,45.63L217.79,10L221.61,10L236.9,10L240.72,45.63L244.54,176.25L248.36,176.25L256,176.25L259.82,164.37L263.64,176.25L267.46,176.25L271.28,176.25L275.1,105L278.93,105L282.75,176.25L286.57,176.25L290.39,164.37L294.21,176.25L298.03,176.25L301.85,176.25L305.67,33.75L309.49,10L313.31,45.63L317.13,10L320.96,45.63L324.78,10L328.6,45.63L332.42,10L336.24,45.63L340.06,10L343.88,45.63L347.7,10L351.52,164.37L355.34,200L359.16,200L362.99,200L366.81,45.63L370.63,81.25L374.45,57.5L378.27,57.5L382.09,45.63L385.91,81.25L389.73,57.5L393.55,10L397.37,45.63L401.19,81.25L405.01,57.5L408.84,57.5L412.66,45.63L416.48,81.25L420.3,57.5L424.12,45.63L427.94,69.37L431.76,45.63L435.58,10L439.4,10L443.22,45.63L447.04,45.63L450.87,10L454.69,10L458.51,45.63L462.33,45.63L466.15,10L469.97,10L473.79,45.63L477.61,45.63L481.43,10L485.25,45.63L489.07,188.12L492.9,200L496.72,200L512,200" style="fill: rgb(96, 165, 250); fill-opacity: 1; stroke-width: 0;"/></g></g><g class="errorbars"/><g class="lines"><path class="js-line" d="M0,176.25L11.46,176.25L15.28,164.37L19.1,176.25L22.93,176.25L26.75,176.25L30.57,105L34.39,105L38.21,176.25L42.03,176.25L45.85,164.37L49.67,176.25L53.49,176.25L57.31,176.25L61.13,33.75L64.96,10L68.78,45.63L72.6,10L76.42,45.63L80.24,10L84.06,45.63L87.88,10L91.7,45.63L95.52,10L99.34,45.63L103.16,10L106.99,164.37L110.81,200L114.63,200L118.45,200L122.27,45.63L126.09,10L129.91,10L149.01,10L152.84,45.63L156.66,10L160.48,10L175.76,10L179.58,45.63L183.4,45.63L187.22,10L210.15,10L213.97,45.63L217.79,10L221.61,10L236.9,10L240.72,45.63L244.54,176.25L248.36,176.25L256,176.25L259.82,164.37L263.64,176.25L267.46,176.25L271.28,176.25L275.1,105L278.93,105L282.75,176.25L286.57,176.25L290.39,164.37L294.21,176.25L298.03,176.25L301.85,176.25L305.67,33.75L309.49,10L313.31,45.63L317.13,10L320.96,45.63L324.78,10L328.6,45.63L332.42,10L336.24,45.63L340.06,10L343.88,45.63L347.7,10L351.52,164.37L355.34,200L359.16,200L362.99,200L366.81,45.63L370.63,81.25L374.45,57.5L378.27,57.5L382.09,45.63L385.91,81.25L389.73,57.5L393.55,10L397.37,45.63L401.19,81.25L405.01,57.5L408.84,57.5L412.66,45.63L416.48,81.25L420.3,57.5L424.12,45.63L427.94,69.37L431.76,45.63L435.58,10L439.4,10L443.22,45.63L447.04,45.63L450.87,10L454.69,10L458.51,45.63L462.33,45.63L466.15,10L469.97,10L473.79,45.63L477.61,45.63L481.43,10L485.25,45.63L489.07,188.12L492.9,200L496.72,200L512,200" style="vector-effect: none; fill: none; stroke: rgb(255, 165, 0); stroke-opacity: 1; stroke-width: 0px; opacity: 1;"/></g><g class="points"/><g class="text"/></g></g></g></g><path class="xlines-above crisp" d="M0,0" style="fill: none;"/><path class="ylines-above crisp" d="M0,0" style="fill: none;"/><g class="overlines-above"/><g class="xaxislayer-above"/><g class="yaxislayer-above"/><g class="overaxes-above"/></g></g><g class="polarlayer"/><g class="smithlayer"/><g class="ternarylayer"/><g class="geolayer"/><g class="funnelarealayer"/><g class="pielayer"/><g class="iciclelayer"/><g class="treemaplayer"/><g class="sunburstlayer"/><g class="glimages"/><defs id="topdefs-8d3e3d"><g class="clips"/></defs><g class="layer-above"><g class="imagelayer"/><g class="shapelayer"/></g><g class="infolayer"><g class="g-gtitle"/></g></svg>