<svg class="main-svg" xmlns="http://www.w3.org/2000/svg" xmlns:xlink="http://www.w3.org/1999/xlink" width="512" height="200" style="" viewBox="0 0 512 200"><rect x="0" y="0" width="512" height="200" style="fill: rgb(0, 0, 0); fill-opacity: 0;"/><defs id="defs-ddb97a"><g class="clips"><clipPath id="clipddb97axyplot" class="plotclip"><rect width="512" height="200"/></clipPath><clipPath class="axesclip" id="clipddb97ax"><rect x="0" y="0" width="512" height="200"/></clipPath><clipPath class="axesclip" id="clipddb97ay"><rect x="0" y="0" width="512" height="200"/></clipPath><clipPath class="axesclip" id="clipddb97axy"><rect x="0" y="0" width="512" height="200"/></clipPath></g><g class="gradients"/><g class="patterns"/></defs><g class="bglayer"><rect class="bg" x="0" y="0" width="512" height="200" style="fill: rgb(0, 0, 0); fill-opacity: 0; stroke-width: 0;"/></g><g class="layer-below"><g class="imagelayer"/><g class="shapelayer"/></g><g class="cartesianlayer"><g class="subplot xy"><g class="layer-subplot"><g class="shapelayer"/><g class="imagelayer"/></g><g class="minor-gridlayer"><g class="x"/><g class="y"/></g><g class="gridlayer"><g class="x"/><g class="y"/></g><g class="zerolinelayer"/><g class="layer-between"><g class="shapelayer"/><g class="imagelayer"/></g><path class="xlines-below"/><path class="ylines-below"/><g class="overlines-below"/><g class="xaxislayer-below"/><g class="yaxislayer-below"/><g class="overaxes-below"/><g class="overplot"><g class="xy" transform="" clip-path="url(#clipddb97axyplot)"><g class="scatterlayer mlayer"><g class="trace scatter tracec03417" style="stroke-miterlimit: 2;"><g class="fills"><g><path class="js-fill" d="M512,200L0,200L0,200L8.17,200L10.89,128.32L16.34,122.7L19.06,121.41L21.79,121.41L24.51,119.25L27.23,119.25L29.96,120.11L35.4,118.82L38.13,117.52L46.3,114.5L49.02,115.36L51.74,54.05L54.47,10L138.89,10L141.62,188.13L144.34,200L147.06,200L160.68,200L163.4,105L166.13,93.13L168.85,93.13L179.74,93.13L182.47,116.88L185.19,128.75L187.91,93.13L201.53,93.13L204.26,116.88L206.98,140.63L209.7,93.13L223.32,93.13L226.04,116.88L228.77,128.75L231.49,93.13L245.11,93.13L247.83,105L250.55,10L253.28,10L334.98,10L337.7,105L354.04,105L356.77,69.38L359.49,10L362.21,10L465.7,10L468.43,105L506.55,105L509.28,10L512,188.13" style="fill: rgb(74, 222, 128); fill-opacity: 1; stroke-width: 0;"/></g></g><g class="errorbars"/><g class="lines"><path class="js-line" d="M0,200L8.17,200L10.89,128.32L16.34,122.7L19.06,121.41L21.79,121.41L24.51,119.25L27.23,119.25L29.96,120.11L35.4,118.82L38.13,117.52L46.3,114.5L49.02,115.36L51.74,54.05L54.47,10L138.89,10L141.62,188.13L144.34,200L147.06,200L160.68,200L163.4,105L166.13,93.13L168.85,93.13L179.74,93.13L182.47,116.88L185.19,128.75L187.91,93.13L201.53,93.13L204.26,116.88L206.98,140.63L209.7,93.13L223.32,93.13L226.04,116.88L228.77,128.75L231.49,93.13L245.11,93.13L247.83,105L250.55,10L253.28,10L334.98,10L337.7,105L354.04,105L356.77,69.38L359.49,10L362.21,10L465.7,10L468.43,105L506.55,105L509.28,10L512,188.13" style="vector-effect: none; fill: none; stroke: rgb(255, 165, 0); stroke-opacity: 1; stroke-width: 0px; opacity: 1;"/></g><g class="points"/><g class="text"/></g></g></g></g><path class="xlines-above crisp" d="M0,0" style="fill: none;"/><path class="ylines-above crisp" d="M0,0" style="fill: none;"/><g class="overlines-above"/><g class="xaxislayer-above"/><g class="yaxislayer-above"/><g class="overaxes-above"/></g></g><g class="polarlayer"/><g class="smithlayer"/><g class="ternarylayer"/><g class="geolayer"/><g class="funnelarealayer"/><g class="pielayer"/><g class="iciclelayer"/><g class="treemaplayer"/><g class="sunburstlayer"/><g class="glimages"/><defs id="topdefs-ddb97a"><g class="clips"/></defs><g class="layer-above"><g class="imagelayer"/><g class="shapelayer"/></g><g class="infolayer"><g class="g-gtitle"/></g></svg>