<svg class="main-svg" xmlns="http://www.w3.org/2000/svg" xmlns:xlink="http://www.w3.org/1999/xlink" width="512" height="200" viewBox="0 0 512 200" style=""><rect x="0" y="0" width="512" height="200" style="fill: rgb(0, 0, 0); fill-opacity: 0;"/><defs id="defs-de92b4"><g class="clips"><clipPath id="clipde92b4xyplot" class="plotclip"><rect width="512" height="200"/></clipPath><clipPath class="axesclip" id="clipde92b4x"><rect x="0" y="0" width="512" height="200"/></clipPath><clipPath class="axesclip" id="clipde92b4y"><rect x="0" y="0" width="512" height="200"/></clipPath><clipPath class="axesclip" id="clipde92b4xy"><rect x="0" y="0" width="512" height="200"/></clipPath></g><g class="gradients"/><g class="patterns"/></defs><g class="bglayer"><rect class="bg" x="0" y="0" width="512" height="200" style="fill: rgb(0, 0, 0); fill-opacity: 0; stroke-width: 0;"/></g><g class="layer-below"><g class="imagelayer"/><g class="shapelayer"/></g><g class="cartesianlayer"><g class="subplot xy"><g class="layer-subplot"><g class="shapelayer"/><g class="imagelayer"/></g><g class="minor-gridlayer"><g class="x"/><g class="y"/></g><g class="gridlayer"><g class="x"/><g class="y"/></g><g class="zerolinelayer"/><g class="layer-between"><g class="shapelayer"/><g class="imagelayer"/></g><path class="xlines-below"/><path class="ylines-below"/><g class="overlines-below"/><g class="xaxislayer-below"/><g class="yaxislayer-below"/><g class="overaxes-below"/><g class="overplot"><g class="xy" transform="" clip-path="url(#clipde92b4xyplot)"><g class="scatterlayer mlayer"><g class="trace scatter trace6f1e8f" style="stroke-miterlimit: 2;"><g class="fills"><g><path class="js-fill" d="M512,200L0,200L0,200L12.56,200L15.71,162L18.85,181L21.99,143L25.13,181L28.27,143L31.41,162L34.55,143L37.69,162L40.83,162L47.12,162L50.26,143L56.54,143L59.68,162L62.82,162L65.96,181L72.25,181L75.39,124L175.9,124L179.04,162L188.47,162L191.61,48L201.03,48L204.17,105L207.31,124L210.45,10L219.88,10L223.02,105L226.16,48L229.3,48L248.15,48L251.29,67L254.43,48L257.57,48L260.71,48L263.85,67L266.99,48L270.13,48L273.28,48L276.42,67L279.56,48L282.7,48L285.84,48L288.98,67L292.12,48L295.26,48L298.4,48L301.55,67L304.69,48L307.83,48L310.97,86L314.11,143L317.25,105L320.39,162L326.67,48L329.82,48L348.66,48L351.8,105L354.94,86L358.09,105L361.23,86L364.37,48L386.36,48L389.5,67L395.78,67L398.92,48L402.06,67L405.2,67L408.34,48L411.48,10L414.63,67L417.77,67L420.91,67L424.05,48L427.19,67L430.33,67L433.47,48L436.61,10L439.75,67L442.9,67L446.04,67L449.18,48L452.32,67L455.46,67L458.6,48L461.74,10L464.88,67L468.02,67L471.17,67L474.31,48L480.59,86L483.73,143L486.87,105L490.01,143L493.15,105L496.29,181L499.44,162L502.58,181L505.72,200L508.86,200L512,200" style="fill: rgb(74, 222, 128); fill-opacity: 1; stroke-width: 0;"/></g></g><g class="errorbars"/><g class="lines"><path class="js-line" d="M0,200L12.56,200L15.71,162L18.85,181L21.99,143L25.13,181L28.27,143L31.41,162L34.55,143L37.69,162L40.83,162L47.12,162L50.26,143L56.54,143L59.68,162L62.82,162L65.96,181L72.25,181L75.39,124L175.9,124L179.04,162L188.47,162L191.61,48L201.03,48L204.17,105L207.31,124L210.45,10L219.88,10L223.02,105L226.16,48L229.3,48L248.15,48L251.29,67L254.43,48L257.57,48L260.71,48L263.85,67L266.99,48L270.13,48L273.28,48L276.42,67L279.56,48L282.7,48L285.84,48L288.98,67L292.12,48L295.26,48L298.4,48L301.55,67L304.69,48L307.83,48L310.97,86L314.11,143L317.25,105L320.39,162L326.67,48L329.82,48L348.66,48L351.8,105L354.94,86L358.09,105L361.23,86L364.37,48L386.36,48L389.5,67L395.78,67L398.92,48L402.06,67L405.2,67L408.34,48L411.48,10L414.63,67L417.77,67L420.91,67L424.05,48L427.19,67L430.33,67L433.47,48L436.61,10L439.75,67L442.9,67L446.04,67L449.18,48L452.32,67L455.46,67L458.6,48L461.74,10L464.88,67L468.02,67L471.17,67L474.31,48L480.59,86L483.73,143L486.87,105L490.01,143L493.15,105L496.29,181L499.44,162L502.58,181L505.72,200L508.86,200L512,200" style="vector-effect: none; fill: none; stroke: rgb(255, 165, 0); stroke-opacity: 1; stroke-width: 0px; opacity: 1;"/></g><g class="points"/><g class="text"/></g></g></g></g><path class="xlines-above crisp" d="M0,0" style="fill: none;"/><path class="ylines-above crisp" d="M0,0" style="fill: none;"/><g class="overlines-above"/><g class="xaxislayer-above"/><g class="yaxislayer-above"/><g class="overaxes-above"/></g></g><g class="polarlayer"/><g class="smithlayer"/><g class="ternarylayer"/><g class="geolayer"/><g class="funnelarealayer"/><g class="pielayer"/><g class="iciclelayer"/><g class="treemaplayer"/><g class="sunburstlayer"/><g class="glimages"/><defs id="topdefs-de92b4"><g class="clips"/></defs><g class="layer-above"><g class="imagelayer"/><g class="shapelayer"/></g><g class="infolayer"><g class="g-gtitle"/></g></svg>