<svg class="main-svg" xmlns="http://www.w3.org/2000/svg" xmlns:xlink="http://www.w3.org/1999/xlink" width="512" height="200" viewBox="0 0 512 200" style=""><rect x="0" y="0" width="512" height="200" style="fill: rgb(0, 0, 0); fill-opacity: 0;"/><defs id="defs-b02f9b"><g class="clips"><clipPath id="clipb02f9bxyplot" class="plotclip"><rect width="512" height="200"/></clipPath><clipPath class="axesclip" id="clipb02f9bx"><rect x="0" y="0" width="512" height="200"/></clipPath><clipPath class="axesclip" id="clipb02f9by"><rect x="0" y="0" width="512" height="200"/></clipPath><clipPath class="axesclip" id="clipb02f9bxy"><rect x="0" y="0" width="512" height="200"/></clipPath></g><g class="gradients"/><g class="patterns"/></defs><g class="bglayer"><rect class="bg" x="0" y="0" width="512" height="200" style="fill: rgb(0, 0, 0); fill-opacity: 0; stroke-width: 0;"/></g><g class="layer-below"><g class="imagelayer"/><g class="shapelayer"/></g><g class="cartesianlayer"><g class="subplot xy"><g class="layer-subplot"><g class="shapelayer"/><g class="imagelayer"/></g><g class="minor-gridlayer"><g class="x"/><g class="y"/></g><g class="gridlayer"><g class="x"/><g class="y"/></g><g class="zerolinelayer"/><g class="layer-between"><g class="shapelayer"/><g class="imagelayer"/></g><path class="xlines-below"/><path class="ylines-below"/><g class="overlines-below"/><g class="xaxislayer-below"/><g class="yaxislayer-below"/><g class="overaxes-below"/><g class="overplot"><g class="xy" transform="" clip-path="url(#clipb02f9bxyplot)"><g class="scatterlayer mlayer"><g class="trace scatter tracef39406" style="stroke-miterlimit: 2;"><g class="fills"><g><path class="js-fill" d="M512,200L0,200L0,200L12.56,200L15.71,176.25L18.85,188.13L21.99,164.38L25.13,188.13L28.27,164.38L31.41,176.25L34.55,164.38L37.69,176.25L40.83,176.25L47.12,176.25L50.26,164.38L56.54,164.38L59.68,176.25L62.82,176.25L65.96,188.13L72.25,188.13L75.39,10L175.9,10L179.04,176.25L188.47,176.25L191.61,105L201.03,105L204.17,140.63L207.31,152.5L210.45,10L219.88,10L223.02,140.63L226.16,10L229.3,10L310.97,10L314.11,164.38L317.25,140.63L320.39,176.25L323.53,140.63L326.67,10L480.59,10L483.73,164.38L486.87,140.63L490.01,164.38L493.15,140.63L496.29,188.13L499.44,176.25L502.58,188.13L505.72,200L508.86,200L512,200" style="fill: rgb(96, 165, 250); fill-opacity: 1; stroke-width: 0;"/></g></g><g class="errorbars"/><g class="lines"><path class="js-line" d="M0,200L12.56,200L15.71,176.25L18.85,188.13L21.99,164.38L25.13,188.13L28.27,164.38L31.41,176.25L34.55,164.38L37.69,176.25L40.83,176.25L47.12,176.25L50.26,164.38L56.54,164.38L59.68,176.25L62.82,176.25L65.96,188.13L72.25,188.13L75.39,10L175.9,10L179.04,176.25L188.47,176.25L191.61,105L201.03,105L204.17,140.63L207.31,152.5L210.45,10L219.88,10L223.02,140.63L226.16,10L229.3,10L310.97,10L314.11,164.38L317.25,140.63L320.39,176.25L323.53,140.63L326.67,10L480.59,10L483.73,164.38L486.87,140.63L490.01,164.38L493.15,140.63L496.29,188.13L499.44,176.25L502.58,188.13L505.72,200L508.86,200L512,200" style="vector-effect: none; fill: none; stroke: rgb(255, 165, 0); stroke-opacity: 1; stroke-width: 0px; opacity: 1;"/></g><g class="points"/><g class="text"/></g></g></g></g><path class="xlines-above crisp" d="M0,0" style="fill: none;"/><path class="ylines-above crisp" d="M0,0" style="fill: none;"/><g class="overlines-above"/><g class="xaxislayer-above"/><g class="yaxislayer-above"/><g class="overaxes-above"/></g></g><g class="polarlayer"/><g class="smithlayer"/><g class="ternarylayer"/><g class="geolayer"/><g class="funnelarealayer"/><g class="pielayer"/><g class="iciclelayer"/><g class="treemaplayer"/><g class="sunburstlayer"/><g class="glimages"/><defs id="topdefs-b02f9b"><g class="clips"/></defs><g class="layer-above"><g class="imagelayer"/><g class="shapelayer"/></g><g class="infolayer"><g class="g-gtitle"/></g></svg>