<svg class="main-svg" xmlns="http://www.w3.org/2000/svg" xmlns:xlink="http://www.w3.org/1999/xlink" width="512" height="200" style="" viewBox="0 0 512 200"><rect x="0" y="0" width="512" height="200" style="fill: rgb(0, 0, 0); fill-opacity: 0;"/><defs id="defs-ee6acd"><g class="clips"><clipPath id="clipee6acdxyplot" class="plotclip"><rect width="512" height="200"/></clipPath><clipPath class="axesclip" id="clipee6acdx"><rect x="0" y="0" width="512" height="200"/></clipPath><clipPath class="axesclip" id="clipee6acdy"><rect x="0" y="0" width="512" height="200"/></clipPath><clipPath class="axesclip" id="clipee6acdxy"><rect x="0" y="0" width="512" height="200"/></clipPath></g><g class="gradients"/><g class="patterns"/></defs><g class="bglayer"><rect class="bg" x="0" y="0" width="512" height="200" style="fill: rgb(0, 0, 0); fill-opacity: 0; stroke-width: 0;"/></g><g class="layer-below"><g class="imagelayer"/><g class="shapelayer"/></g><g class="cartesianlayer"><g class="subplot xy"><g class="layer-subplot"><g class="shapelayer"/><g class="imagelayer"/></g><g class="minor-gridlayer"><g class="x"/><g class="y"/></g><g class="gridlayer"><g class="x"/><g class="y"/></g><g class="zerolinelayer"/><g class="layer-between"><g class="shapelayer"/><g class="imagelayer"/></g><path class="xlines-below"/><path class="ylines-below"/><g class="overlines-below"/><g class="xaxislayer-below"/><g class="yaxislayer-below"/><g class="overaxes-below"/><g class="overplot"><g class="xy" transform="" clip-path="url(#clipee6acdxyplot)"><g class="scatterlayer mlayer"><g class="trace scatter trace0b45df" style="stroke-miterlimit: 2;"><g class="fills"><g><path class="js-fill" d="M512,200L0,200L0,200L28.8,200L32,10L73.6,10L76.8,200L80,10L83.2,10L182.4,10L185.6,200L188.8,10L192,200L195.2,10L198.4,10L208,10L211.2,200L214.4,10L217.6,10L320,10L323.2,200L326.4,10L329.6,200L332.8,10L336,200L339.2,10L342.4,200L345.6,10L348.8,200L352,10L355.2,200L358.4,10L361.6,10L492.8,10L496,200L499.2,10L502.4,200L505.6,10L508.8,200L512,10" style="fill: rgb(133, 94, 232); fill-opacity: 1; stroke-width: 0;"/></g></g><g class="errorbars"/><g class="lines"><path class="js-line" d="M0,200L28.8,200L32,10L73.6,10L76.8,200L80,10L83.2,10L182.4,10L185.6,200L188.8,10L192,200L195.2,10L198.4,10L208,10L211.2,200L214.4,10L217.6,10L320,10L323.2,200L326.4,10L329.6,200L332.8,10L336,200L339.2,10L342.4,200L345.6,10L348.8,200L352,10L355.2,200L358.4,10L361.6,10L492.8,10L496,200L499.2,10L502.4,200L505.6,10L508.8,200L512,10" style="vector-effect: none; fill: none; stroke: rgb(255, 165, 0); stroke-opacity: 1; stroke-width: 0px; opacity: 1;"/></g><g class="points"/><g class="text"/></g></g></g></g><path class="xlines-above crisp" d="M0,0" style="fill: none;"/><path class="ylines-above crisp" d="M0,0" style="fill: none;"/><g class="overlines-above"/><g class="xaxislayer-above"/><g class="yaxislayer-above"/><g class="overaxes-above"/></g></g><g class="polarlayer"/><g class="smithlayer"/><g class="ternarylayer"/><g class="geolayer"/><g class="funnelarealayer"/><g class="pielayer"/><g class="iciclelayer"/><g class="treemaplayer"/><g class="sunburstlayer"/><g class="glimages"/><defs id="topdefs-ee6acd"><g class="clips"/></defs><g class="layer-above"><g class="imagelayer"/><g class="shapelayer"/></g><g class="infolayer"><g class="g-gtitle"/></g></svg>