<svg class="main-svg" xmlns="http://www.w3.org/2000/svg" xmlns:xlink="http://www.w3.org/1999/xlink" width="512" height="200" style="" viewBox="0 0 512 200"><rect x="0" y="0" width="512" height="200" style="fill: rgb(0, 0, 0); fill-opacity: 0;"/><defs id="defs-7ce6e6"><g class="clips"><clipPath id="clip7ce6e6xyplot" class="plotclip"><rect width="512" height="200"/></clipPath><clipPath class="axesclip" id="clip7ce6e6x"><rect x="0" y="0" width="512" height="200"/></clipPath><clipPath class="axesclip" id="clip7ce6e6y"><rect x="0" y="0" width="512" height="200"/></clipPath><clipPath class="axesclip" id="clip7ce6e6xy"><rect x="0" y="0" width="512" height="200"/></clipPath></g><g class="gradients"/><g class="patterns"/></defs><g class="bglayer"><rect class="bg" x="0" y="0" width="512" height="200" style="fill: rgb(0, 0, 0); fill-opacity: 0; stroke-width: 0;"/></g><g class="layer-below"><g class="imagelayer"/><g class="shapelayer"/></g><g class="cartesianlayer"><g class="subplot xy"><g class="layer-subplot"><g class="shapelayer"/><g class="imagelayer"/></g><g class="minor-gridlayer"><g class="x"/><g class="y"/></g><g class="gridlayer"><g class="x"/><g class="y"/></g><g class="zerolinelayer"/><g class="layer-between"><g class="shapelayer"/><g class="imagelayer"/></g><path class="xlines-below"/><path class="ylines-below"/><g class="overlines-below"/><g class="xaxislayer-below"/><g class="yaxislayer-below"/><g class="overaxes-below"/><g class="overplot"><g class="xy" transform="" clip-path="url(#clip7ce6e6xyplot)"><g class="scatterlayer mlayer"><g class="trace scatter trace9de315" style="stroke-miterlimit: 2;"><g class="fills"><g><path class="js-fill" d="M512,200L0,200L0,152.5L13.65,152.5L15.93,128.75L18.2,105L20.48,105L29.58,105L31.86,128.75L34.13,128.75L36.41,105L70.54,105L72.82,10L125.16,10L127.43,188.12L141.08,188.12L143.36,176.25L145.64,128.75L147.91,188.12L150.19,188.12L152.46,176.25L154.74,128.75L157.01,188.12L159.29,116.87L161.56,152.5L163.84,188.12L166.12,105L170.67,105L172.94,81.25L175.22,105L177.49,105L200.25,105L202.52,10L254.86,10L257.14,105L270.79,105L273.07,128.75L275.34,10L277.62,10L309.48,10L311.75,128.75L314.03,188.12L316.3,152.5L318.58,200L320.85,128.75L323.13,176.25L325.4,140.62L327.68,10L329.96,128.75L336.78,128.75L339.06,116.87L341.33,128.75L343.61,152.5L345.88,105L348.16,10L455.11,10L457.39,105L491.52,105L493.8,152.5L507.45,152.5L509.72,128.75L512,188.12" style="fill: rgb(239, 68, 68); fill-opacity: 1; stroke-width: 0;"/></g></g><g class="errorbars"/><g class="lines"><path class="js-line" d="M0,152.5L13.65,152.5L15.93,128.75L18.2,105L20.48,105L29.58,105L31.86,128.75L34.13,128.75L36.41,105L70.54,105L72.82,10L125.16,10L127.43,188.12L141.08,188.12L143.36,176.25L145.64,128.75L147.91,188.12L150.19,188.12L152.46,176.25L154.74,128.75L157.01,188.12L159.29,116.87L161.56,152.5L163.84,188.12L166.12,105L170.67,105L172.94,81.25L175.22,105L177.49,105L200.25,105L202.52,10L254.86,10L257.14,105L270.79,105L273.07,128.75L275.34,10L277.62,10L309.48,10L311.75,128.75L314.03,188.12L316.3,152.5L318.58,200L320.85,128.75L323.13,176.25L325.4,140.62L327.68,10L329.96,128.75L336.78,128.75L339.06,116.87L341.33,128.75L343.61,152.5L345.88,105L348.16,10L455.11,10L457.39,105L491.52,105L493.8,152.5L507.45,152.5L509.72,128.75L512,188.12" style="vector-effect: none; fill: none; stroke: rgb(255, 165, 0); stroke-opacity: 1; stroke-width: 0px; opacity: 1;"/></g><g class="points"/><g class="text"/></g></g></g></g><path class="xlines-above crisp" d="M0,0" style="fill: none;"/><path class="ylines-above crisp" d="M0,0" style="fill: none;"/><g class="overlines-above"/><g class="xaxislayer-above"/><g class="yaxislayer-above"/><g class="overaxes-above"/></g></g><g class="polarlayer"/><g class="smithlayer"/><g class="ternarylayer"/><g class="geolayer"/><g class="funnelarealayer"/><g class="pielayer"/><g class="iciclelayer"/><g class="treemaplayer"/><g class="sunburstlayer"/><g class="glimages"/><defs id="topdefs-7ce6e6"><g class="clips"/></defs><g class="layer-above"><g class="imagelayer"/><g class="shapelayer"/></g><g class="infolayer"><g class="g-gtitle"/></g></svg>