<svg class="main-svg" xmlns="http://www.w3.org/2000/svg" xmlns:xlink="http://www.w3.org/1999/xlink" width="512" height="200" viewBox="0 0 512 200" style=""><rect x="0" y="0" width="512" height="200" style="fill: rgb(0, 0, 0); fill-opacity: 0;"/><defs id="defs-36bc05"><g class="clips"><clipPath id="clip36bc05xyplot" class="plotclip"><rect width="512" height="200"/></clipPath><clipPath class="axesclip" id="clip36bc05x"><rect x="0" y="0" width="512" height="200"/></clipPath><clipPath class="axesclip" id="clip36bc05y"><rect x="0" y="0" width="512" height="200"/></clipPath><clipPath class="axesclip" id="clip36bc05xy"><rect x="0" y="0" width="512" height="200"/></clipPath></g><g class="gradients"/><g class="patterns"/></defs><g class="bglayer"><rect class="bg" x="0" y="0" width="512" height="200" style="fill: rgb(0, 0, 0); fill-opacity: 0; stroke-width: 0;"/></g><g class="layer-below"><g class="imagelayer"/><g class="shapelayer"/></g><g class="cartesianlayer"><g class="subplot xy"><g class="layer-subplot"><g class="shapelayer"/><g class="imagelayer"/></g><g class="minor-gridlayer"><g class="x"/><g class="y"/></g><g class="gridlayer"><g class="x"/><g class="y"/></g><g class="zerolinelayer"/><g class="layer-between"><g class="shapelayer"/><g class="imagelayer"/></g><path class="xlines-below"/><path class="ylines-below"/><g class="overlines-below"/><g class="xaxislayer-below"/><g class="yaxislayer-below"/><g class="overaxes-below"/><g class="overplot"><g class="xy" transform="" clip-path="url(#clip36bc05xyplot)"><g class="scatterlayer mlayer"><g class="trace scatter tracec3ebf9" style="stroke-miterlimit: 2;"><g class="fills"><g><path class="js-fill" d="M512,200L0,200L0,105L13.65,105L15.93,57.5L18.2,10L20.48,10L29.58,10L31.86,57.5L34.13,57.5L36.41,10L106.95,10L109.23,57.5L125.16,57.5L127.43,176.25L141.08,176.25L143.36,152.5L145.64,57.5L147.91,176.25L150.19,176.25L152.46,152.5L154.74,57.5L157.01,176.25L159.29,33.75L161.56,105L163.84,176.25L166.12,10L234.38,10L236.66,33.75L238.93,57.5L241.21,57.5L243.48,57.5L245.76,33.75L248.04,57.5L250.31,57.5L252.59,57.5L254.86,33.75L257.14,10L259.41,10L270.79,10L273.07,57.5L275.34,10L277.62,10L289,10L291.27,33.75L293.55,57.5L295.82,57.5L298.1,57.5L300.37,33.75L302.65,57.5L304.92,57.5L307.2,57.5L309.48,33.75L311.75,176.25L314.03,200L327.68,200L329.96,57.5L339.06,57.5L341.33,81.25L343.61,105L345.88,81.25L348.16,10L350.44,10L398.22,10L400.5,33.75L402.77,57.5L405.05,57.5L407.32,57.5L409.6,33.75L411.88,57.5L414.15,57.5L416.43,57.5L418.7,33.75L420.98,10L423.25,10L436.91,10L439.18,57.5L455.11,57.5L457.39,10L491.52,10L493.8,105L507.45,105L509.72,57.5L512,176.25" style="fill: rgb(74, 222, 128); fill-opacity: 1; stroke-width: 0;"/></g></g><g class="errorbars"/><g class="lines"><path class="js-line" d="M0,105L13.65,105L15.93,57.5L18.2,10L20.48,10L29.58,10L31.86,57.5L34.13,57.5L36.41,10L106.95,10L109.23,57.5L125.16,57.5L127.43,176.25L141.08,176.25L143.36,152.5L145.64,57.5L147.91,176.25L150.19,176.25L152.46,152.5L154.74,57.5L157.01,176.25L159.29,33.75L161.56,105L163.84,176.25L166.12,10L234.38,10L236.66,33.75L238.93,57.5L241.21,57.5L243.48,57.5L245.76,33.75L248.04,57.5L250.31,57.5L252.59,57.5L254.86,33.75L257.14,10L259.41,10L270.79,10L273.07,57.5L275.34,10L277.62,10L289,10L291.27,33.75L293.55,57.5L295.82,57.5L298.1,57.5L300.37,33.75L302.65,57.5L304.92,57.5L307.2,57.5L309.48,33.75L311.75,176.25L314.03,200L327.68,200L329.96,57.5L339.06,57.5L341.33,81.25L343.61,105L345.88,81.25L348.16,10L350.44,10L398.22,10L400.5,33.75L402.77,57.5L405.05,57.5L407.32,57.5L409.6,33.75L411.88,57.5L414.15,57.5L416.43,57.5L418.7,33.75L420.98,10L423.25,10L436.91,10L439.18,57.5L455.11,57.5L457.39,10L491.52,10L493.8,105L507.45,105L509.72,57.5L512,176.25" style="vector-effect: none; fill: none; stroke: rgb(255, 165, 0); stroke-opacity: 1; stroke-width: 0px; opacity: 1;"/></g><g class="points"/><g class="text"/></g></g></g></g><path class="xlines-above crisp" d="M0,0" style="fill: none;"/><path class="ylines-above crisp" d="M0,0" style="fill: none;"/><g class="overlines-above"/><g class="xaxislayer-above"/><g class="yaxislayer-above"/><g class="overaxes-above"/></g></g><g class="polarlayer"/><g class="smithlayer"/><g class="ternarylayer"/><g class="geolayer"/><g class="funnelarealayer"/><g class="pielayer"/><g class="iciclelayer"/><g class="treemaplayer"/><g class="sunburstlayer"/><g class="glimages"/><defs id="topdefs-36bc05"><g class="clips"/></defs><g class="layer-above"><g class="imagelayer"/><g class="shapelayer"/></g><g class="infolayer"><g class="g-gtitle"/></g></svg>