<svg class="main-svg" xmlns="http://www.w3.org/2000/svg" xmlns:xlink="http://www.w3.org/1999/xlink" width="512" height="200" style="" viewBox="0 0 512 200"><rect x="0" y="0" width="512" height="200" style="fill: rgb(0, 0, 0); fill-opacity: 0;"/><defs id="defs-f47195"><g class="clips"><clipPath id="clipf47195xyplot" class="plotclip"><rect width="512" height="200"/></clipPath><clipPath class="axesclip" id="clipf47195x"><rect x="0" y="0" width="512" height="200"/></clipPath><clipPath class="axesclip" id="clipf47195y"><rect x="0" y="0" width="512" height="200"/></clipPath><clipPath class="axesclip" id="clipf47195xy"><rect x="0" y="0" width="512" height="200"/></clipPath></g><g class="gradients"/><g class="patterns"/></defs><g class="bglayer"><rect class="bg" x="0" y="0" width="512" height="200" style="fill: rgb(0, 0, 0); fill-opacity: 0; stroke-width: 0;"/></g><g class="layer-below"><g class="imagelayer"/><g class="shapelayer"/></g><g class="cartesianlayer"><g class="subplot xy"><g class="layer-subplot"><g class="shapelayer"/><g class="imagelayer"/></g><g class="minor-gridlayer"><g class="x"/><g class="y"/></g><g class="gridlayer"><g class="x"/><g class="y"/></g><g class="zerolinelayer"/><g class="layer-between"><g class="shapelayer"/><g class="imagelayer"/></g><path class="xlines-below"/><path class="ylines-below"/><g class="overlines-below"/><g class="xaxislayer-below"/><g class="yaxislayer-below"/><g class="overaxes-below"/><g class="overplot"><g class="xy" transform="" clip-path="url(#clipf47195xyplot)"><g class="scatterlayer mlayer"><g class="trace scatter trace5f7c3c" style="stroke-miterlimit: 2;"><g class="fills"><g><path class="js-fill" d="M512,200L0,200L0,10L125.16,10L127.43,188.12L141.08,188.12L143.36,176.25L145.64,128.75L147.91,188.12L150.19,188.12L152.46,176.25L154.74,128.75L157.01,188.12L159.29,116.87L161.56,152.5L163.84,188.12L166.12,10L309.48,10L311.75,128.75L314.03,188.12L316.3,152.5L318.58,200L320.85,128.75L323.13,176.25L325.4,128.75L327.68,10L329.96,10L343.61,10L345.88,105L348.16,10L350.44,10L509.72,10L512,188.12" style="fill: rgb(96, 165, 250); fill-opacity: 1; stroke-width: 0;"/></g></g><g class="errorbars"/><g class="lines"><path class="js-line" d="M0,10L125.16,10L127.43,188.12L141.08,188.12L143.36,176.25L145.64,128.75L147.91,188.12L150.19,188.12L152.46,176.25L154.74,128.75L157.01,188.12L159.29,116.87L161.56,152.5L163.84,188.12L166.12,10L309.48,10L311.75,128.75L314.03,188.12L316.3,152.5L318.58,200L320.85,128.75L323.13,176.25L325.4,128.75L327.68,10L329.96,10L343.61,10L345.88,105L348.16,10L350.44,10L509.72,10L512,188.12" style="vector-effect: none; fill: none; stroke: rgb(255, 165, 0); stroke-opacity: 1; stroke-width: 0px; opacity: 1;"/></g><g class="points"/><g class="text"/></g></g></g></g><path class="xlines-above crisp" d="M0,0" style="fill: none;"/><path class="ylines-above crisp" d="M0,0" style="fill: none;"/><g class="overlines-above"/><g class="xaxislayer-above"/><g class="yaxislayer-above"/><g class="overaxes-above"/></g></g><g class="polarlayer"/><g class="smithlayer"/><g class="ternarylayer"/><g class="geolayer"/><g class="funnelarealayer"/><g class="pielayer"/><g class="iciclelayer"/><g class="treemaplayer"/><g class="sunburstlayer"/><g class="glimages"/><defs id="topdefs-f47195"><g class="clips"/></defs><g class="layer-above"><g class="imagelayer"/><g class="shapelayer"/></g><g class="infolayer"><g class="g-gtitle"/></g></svg>