<svg class="main-svg" xmlns="http://www.w3.org/2000/svg" xmlns:xlink="http://www.w3.org/1999/xlink" width="512" height="200" style="" viewBox="0 0 512 200"><rect x="0" y="0" width="512" height="200" style="fill: rgb(0, 0, 0); fill-opacity: 0;"/><defs id="defs-a494bb"><g class="clips"><clipPath id="clipa494bbxyplot" class="plotclip"><rect width="512" height="200"/></clipPath><clipPath class="axesclip" id="clipa494bbx"><rect x="0" y="0" width="512" height="200"/></clipPath><clipPath class="axesclip" id="clipa494bby"><rect x="0" y="0" width="512" height="200"/></clipPath><clipPath class="axesclip" id="clipa494bbxy"><rect x="0" y="0" width="512" height="200"/></clipPath></g><g class="gradients"/><g class="patterns"/></defs><g class="bglayer"><rect class="bg" x="0" y="0" width="512" height="200" style="fill: rgb(0, 0, 0); fill-opacity: 0; stroke-width: 0;"/></g><g class="layer-below"><g class="imagelayer"/><g class="shapelayer"/></g><g class="cartesianlayer"><g class="subplot xy"><g class="layer-subplot"><g class="shapelayer"/><g class="imagelayer"/></g><g class="minor-gridlayer"><g class="x"/><g class="y"/></g><g class="gridlayer"><g class="x"/><g class="y"/></g><g class="zerolinelayer"/><g class="layer-between"><g class="shapelayer"/><g class="imagelayer"/></g><path class="xlines-below"/><path class="ylines-below"/><g class="overlines-below"/><g class="xaxislayer-below"/><g class="yaxislayer-below"/><g class="overaxes-below"/><g class="overplot"><g class="xy" transform="" clip-path="url(#clipa494bbxyplot)"><g class="scatterlayer mlayer"><g class="trace scatter tracede9392" style="stroke-miterlimit: 2;"><g class="fills"><g><path class="js-fill" d="M512,200L0,200L0,105L8.06,105L12.09,81.25L16.13,105L20.16,105L24.19,105L28.22,81.25L32.25,93.12L36.28,93.12L40.31,93.12L44.35,81.25L48.38,93.12L52.41,93.12L56.44,93.12L60.47,81.25L64.5,140.63L68.54,128.75L72.57,105L76.6,105L80.63,140.63L84.66,128.75L88.69,105L92.72,105L96.76,81.25L100.79,81.25L104.82,81.25L108.85,69.38L112.88,81.25L116.91,81.25L120.94,81.25L124.98,69.38L129.01,10L133.04,10L189.48,10L193.51,116.88L197.54,140.63L201.57,116.88L205.61,128.75L209.64,116.88L213.67,140.63L217.7,116.88L221.73,128.75L225.76,93.12L229.8,116.88L233.83,116.88L237.86,128.75L241.89,93.12L245.92,116.88L249.95,116.88L253.98,128.75L258.02,81.25L262.05,105L266.08,105L270.11,105L274.14,57.5L278.17,81.25L282.2,45.63L286.24,93.12L290.27,93.12L298.33,93.12L302.36,69.38L306.39,93.12L310.43,93.12L314.46,93.12L318.49,69.38L322.52,10L326.55,10L382.99,10L387.02,93.12L395.09,93.12L399.12,81.25L403.15,93.12L407.18,93.12L411.21,93.12L415.24,81.25L419.28,93.12L423.31,93.12L427.34,93.12L431.37,81.25L435.4,93.12L439.43,93.12L443.46,93.12L447.5,81.25L451.53,116.88L455.56,140.63L459.59,116.88L463.62,105L467.65,116.88L471.69,140.63L475.72,116.88L479.75,105L483.78,140.63L487.81,140.63L491.84,116.88L495.87,128.75L499.91,140.63L503.94,140.63L507.97,116.88L512,128.75" style="fill: rgb(253, 224, 71); fill-opacity: 1; stroke-width: 0;"/></g></g><g class="errorbars"/><g class="lines"><path class="js-line" d="M0,105L8.06,105L12.09,81.25L16.13,105L20.16,105L24.19,105L28.22,81.25L32.25,93.12L36.28,93.12L40.31,93.12L44.35,81.25L48.38,93.12L52.41,93.12L56.44,93.12L60.47,81.25L64.5,140.63L68.54,128.75L72.57,105L76.6,105L80.63,140.63L84.66,128.75L88.69,105L92.72,105L96.76,81.25L100.79,81.25L104.82,81.25L108.85,69.38L112.88,81.25L116.91,81.25L120.94,81.25L124.98,69.38L129.01,10L133.04,10L189.48,10L193.51,116.88L197.54,140.63L201.57,116.88L205.61,128.75L209.64,116.88L213.67,140.63L217.7,116.88L221.73,128.75L225.76,93.12L229.8,116.88L233.83,116.88L237.86,128.75L241.89,93.12L245.92,116.88L249.95,116.88L253.98,128.75L258.02,81.25L262.05,105L266.08,105L270.11,105L274.14,57.5L278.17,81.25L282.2,45.63L286.24,93.12L290.27,93.12L298.33,93.12L302.36,69.38L306.39,93.12L310.43,93.12L314.46,93.12L318.49,69.38L322.52,10L326.55,10L382.99,10L387.02,93.12L395.09,93.12L399.12,81.25L403.15,93.12L407.18,93.12L411.21,93.12L415.24,81.25L419.28,93.12L423.31,93.12L427.34,93.12L431.37,81.25L435.4,93.12L439.43,93.12L443.46,93.12L447.5,81.25L451.53,116.88L455.56,140.63L459.59,116.88L463.62,105L467.65,116.88L471.69,140.63L475.72,116.88L479.75,105L483.78,140.63L487.81,140.63L491.84,116.88L495.87,128.75L499.91,140.63L503.94,140.63L507.97,116.88L512,128.75" style="vector-effect: none; fill: none; stroke: rgb(255, 165, 0); stroke-opacity: 1; stroke-width: 0px; opacity: 1;"/></g><g class="points"/><g class="text"/></g></g></g></g><path class="xlines-above crisp" d="M0,0" style="fill: none;"/><path class="ylines-above crisp" d="M0,0" style="fill: none;"/><g class="overlines-above"/><g class="xaxislayer-above"/><g class="yaxislayer-above"/><g class="overaxes-above"/></g></g><g class="polarlayer"/><g class="smithlayer"/><g class="ternarylayer"/><g class="geolayer"/><g class="funnelarealayer"/><g class="pielayer"/><g class="iciclelayer"/><g class="treemaplayer"/><g class="sunburstlayer"/><g class="glimages"/><defs id="topdefs-a494bb"><g class="clips"/></defs><g class="layer-above"><g class="imagelayer"/><g class="shapelayer"/></g><g class="infolayer"><g class="g-gtitle"/></g></svg>