<svg class="main-svg" xmlns="http://www.w3.org/2000/svg" xmlns:xlink="http://www.w3.org/1999/xlink" width="512" height="200" viewBox="0 0 512 200" style=""><rect x="0" y="0" width="512" height="200" style="fill: rgb(0, 0, 0); fill-opacity: 0;"/><defs id="defs-fad242"><g class="clips"><clipPath id="clipfad242xyplot" class="plotclip"><rect width="512" height="200"/></clipPath><clipPath class="axesclip" id="clipfad242x"><rect x="0" y="0" width="512" height="200"/></clipPath><clipPath class="axesclip" id="clipfad242y"><rect x="0" y="0" width="512" height="200"/></clipPath><clipPath class="axesclip" id="clipfad242xy"><rect x="0" y="0" width="512" height="200"/></clipPath></g><g class="gradients"/><g class="patterns"/></defs><g class="bglayer"><rect class="bg" x="0" y="0" width="512" height="200" style="fill: rgb(0, 0, 0); fill-opacity: 0; stroke-width: 0;"/></g><g class="layer-below"><g class="imagelayer"/><g class="shapelayer"/></g><g class="cartesianlayer"><g class="subplot xy"><g class="layer-subplot"><g class="shapelayer"/><g class="imagelayer"/></g><g class="minor-gridlayer"><g class="x"/><g class="y"/></g><g class="gridlayer"><g class="x"/><g class="y"/></g><g class="zerolinelayer"/><g class="layer-between"><g class="shapelayer"/><g class="imagelayer"/></g><path class="xlines-below"/><path class="ylines-below"/><g class="overlines-below"/><g class="xaxislayer-below"/><g class="yaxislayer-below"/><g class="overaxes-below"/><g class="overplot"><g class="xy" transform="" clip-path="url(#clipfad242xyplot)"><g class="scatterlayer mlayer"><g class="trace scatter trace138b2c" style="stroke-miterlimit: 2;"><g class="fills"><g><path class="js-fill" d="M512,200L0,200L0,128.8L12.11,128.8L13.84,105.07L51.89,105.07L53.62,93.21L55.35,105.06L57.08,81.32L58.81,105.07L60.54,81.33L62.27,105.07L64,81.33L65.73,105.07L67.46,81.33L69.19,105.07L70.92,81.33L72.65,105.07L74.38,81.33L76.11,105.07L77.84,81.33L79.57,10.22L81.3,10.22L83.03,105.07L84.76,81.34L86.49,105.07L88.22,81.34L89.95,105.07L91.68,81.34L93.41,105.07L95.14,93.2L96.86,10.15L98.59,10.15L122.81,10.11L124.54,128.79L126.27,116.92L128,128.79L129.73,116.92L131.46,128.8L133.19,116.94L134.92,128.8L136.65,116.94L138.38,164.4L140.11,164.4L141.84,188.13L143.57,200L145.3,164.4L147.03,164.4L148.76,188.13L150.49,200L152.22,164.4L153.95,164.4L155.68,188.12L157.41,200L159.14,164.4L160.86,164.4L162.59,128.8L164.32,69.47L166.05,105.07L178.16,105.07L179.89,10.14L219.68,10L221.41,105.07L224.86,105.07L226.59,81.34L228.32,105.07L230.05,105.07L252.54,105.07L254.27,93.2L256,105.07L257.73,105.07L266.38,105.07L268.11,140.67L271.57,81.34L273.3,105.07L275.03,81.34L276.76,105.07L278.49,81.34L280.22,10.14L294.05,10.14L295.78,105.07L297.51,128.81L299.24,116.94L300.97,128.81L302.7,116.94L304.43,128.81L306.16,116.94L307.89,128.81L309.62,128.81L316.54,128.81L318.27,164.4L320,164.4L321.73,188.13L323.46,200L325.19,164.4L326.92,164.4L328.65,188.13L330.38,200L332.11,140.67L333.84,140.67L335.57,105.08L342.49,105.08L344.22,69.48L345.95,105.07L347.68,105.07L358.05,105.07L359.78,10.14L399.57,10.14L401.3,188.15L403.03,200L404.76,200L406.49,152.62L408.22,140.4L411.68,140.67L413.41,128.8L415.14,140.67L416.86,140.67L418.59,140.67L420.32,116.94L422.05,140.67L423.78,140.67L425.51,140.67L427.24,128.8L428.97,140.67L430.7,140.67L432.43,140.67L434.16,128.8L435.89,140.67L437.62,140.67L439.35,140.67L441.08,128.8L442.81,140.67L444.54,140.67L446.27,140.67L448,93.21L449.73,140.67L451.46,140.67L453.19,140.67L454.92,128.8L456.65,140.67L458.38,140.67L460.11,140.67L461.84,105.07L463.57,140.67L465.3,140.67L467.03,140.67L468.76,128.8L470.49,140.67L472.22,140.67L473.95,140.67L475.68,128.8L477.41,140.67L479.14,140.67L480.86,140.67L482.59,128.8L484.32,140.67L486.05,140.67L487.78,140.67L489.51,105.07L491.24,128.8L492.97,140.67L494.7,140.67L496.43,128.8L498.16,164.34L499.89,164.34L501.62,152.45L503.35,164.4L505.08,164.4L506.81,152.54L508.54,164.4L510.27,140.67L512,188.13" style="fill: rgb(253, 224, 71); fill-opacity: 1; stroke-width: 0;"/></g></g><g class="errorbars"/><g class="lines"><path class="js-line" d="M0,128.8L12.11,128.8L13.84,105.07L51.89,105.07L53.62,93.21L55.35,105.06L57.08,81.32L58.81,105.07L60.54,81.33L62.27,105.07L64,81.33L65.73,105.07L67.46,81.33L69.19,105.07L70.92,81.33L72.65,105.07L74.38,81.33L76.11,105.07L77.84,81.33L79.57,10.22L81.3,10.22L83.03,105.07L84.76,81.34L86.49,105.07L88.22,81.34L89.95,105.07L91.68,81.34L93.41,105.07L95.14,93.2L96.86,10.15L98.59,10.15L122.81,10.11L124.54,128.79L126.27,116.92L128,128.79L129.73,116.92L131.46,128.8L133.19,116.94L134.92,128.8L136.65,116.94L138.38,164.4L140.11,164.4L141.84,188.13L143.57,200L145.3,164.4L147.03,164.4L148.76,188.13L150.49,200L152.22,164.4L153.95,164.4L155.68,188.12L157.41,200L159.14,164.4L160.86,164.4L162.59,128.8L164.32,69.47L166.05,105.07L178.16,105.07L179.89,10.14L219.68,10L221.41,105.07L224.86,105.07L226.59,81.34L228.32,105.07L230.05,105.07L252.54,105.07L254.27,93.2L256,105.07L257.73,105.07L266.38,105.07L268.11,140.67L271.57,81.34L273.3,105.07L275.03,81.34L276.76,105.07L278.49,81.34L280.22,10.14L294.05,10.14L295.78,105.07L297.51,128.81L299.24,116.94L300.97,128.81L302.7,116.94L304.43,128.81L306.16,116.94L307.89,128.81L309.62,128.81L316.54,128.81L318.27,164.4L320,164.4L321.73,188.13L323.46,200L325.19,164.4L326.92,164.4L328.65,188.13L330.38,200L332.11,140.67L333.84,140.67L335.57,105.08L342.49,105.08L344.22,69.48L345.95,105.07L347.68,105.07L358.05,105.07L359.78,10.14L399.57,10.14L401.3,188.15L403.03,200L404.76,200L406.49,152.62L408.22,140.4L411.68,140.67L413.41,128.8L415.14,140.67L416.86,140.67L418.59,140.67L420.32,116.94L422.05,140.67L423.78,140.67L425.51,140.67L427.24,128.8L428.97,140.67L430.7,140.67L432.43,140.67L434.16,128.8L435.89,140.67L437.62,140.67L439.35,140.67L441.08,128.8L442.81,140.67L444.54,140.67L446.27,140.67L448,93.21L449.73,140.67L451.46,140.67L453.19,140.67L454.92,128.8L456.65,140.67L458.38,140.67L460.11,140.67L461.84,105.07L463.57,140.67L465.3,140.67L467.03,140.67L468.76,128.8L470.49,140.67L472.22,140.67L473.95,140.67L475.68,128.8L477.41,140.67L479.14,140.67L480.86,140.67L482.59,128.8L484.32,140.67L486.05,140.67L487.78,140.67L489.51,105.07L491.24,128.8L492.97,140.67L494.7,140.67L496.43,128.8L498.16,164.34L499.89,164.34L501.62,152.45L503.35,164.4L505.08,164.4L506.81,152.54L508.54,164.4L510.27,140.67L512,188.13" style="vector-effect: none; fill: none; stroke: rgb(255, 165, 0); stroke-opacity: 1; stroke-width: 0px; opacity: 1;"/></g><g class="points"/><g class="text"/></g></g></g></g><path class="xlines-above crisp" d="M0,0" style="fill: none;"/><path class="ylines-above crisp" d="M0,0" style="fill: none;"/><g class="overlines-above"/><g class="xaxislayer-above"/><g class="yaxislayer-above"/><g class="overaxes-above"/></g></g><g class="polarlayer"/><g class="smithlayer"/><g class="ternarylayer"/><g class="geolayer"/><g class="funnelarealayer"/><g class="pielayer"/><g class="iciclelayer"/><g class="treemaplayer"/><g class="sunburstlayer"/><g class="glimages"/><defs id="topdefs-fad242"><g class="clips"/></defs><g class="layer-above"><g class="imagelayer"/><g class="shapelayer"/></g><g class="infolayer"><g class="g-gtitle"/></g></svg>