<svg class="main-svg" xmlns="http://www.w3.org/2000/svg" xmlns:xlink="http://www.w3.org/1999/xlink" width="512" height="200" style="" viewBox="0 0 512 200"><rect x="0" y="0" width="512" height="200" style="fill: rgb(0, 0, 0); fill-opacity: 0;"/><defs id="defs-1c6120"><g class="clips"><clipPath id="clip1c6120xyplot" class="plotclip"><rect width="512" height="200"/></clipPath><clipPath class="axesclip" id="clip1c6120x"><rect x="0" y="0" width="512" height="200"/></clipPath><clipPath class="axesclip" id="clip1c6120y"><rect x="0" y="0" width="512" height="200"/></clipPath><clipPath class="axesclip" id="clip1c6120xy"><rect x="0" y="0" width="512" height="200"/></clipPath></g><g class="gradients"/><g class="patterns"/></defs><g class="bglayer"><rect class="bg" x="0" y="0" width="512" height="200" style="fill: rgb(0, 0, 0); fill-opacity: 0; stroke-width: 0;"/></g><g class="layer-below"><g class="imagelayer"/><g class="shapelayer"/></g><g class="cartesianlayer"><g class="subplot xy"><g class="layer-subplot"><g class="shapelayer"/><g class="imagelayer"/></g><g class="minor-gridlayer"><g class="x"/><g class="y"/></g><g class="gridlayer"><g class="x"/><g class="y"/></g><g class="zerolinelayer"/><g class="layer-between"><g class="shapelayer"/><g class="imagelayer"/></g><path class="xlines-below"/><path class="ylines-below"/><g class="overlines-below"/><g class="xaxislayer-below"/><g class="yaxislayer-below"/><g class="overaxes-below"/><g class="overplot"><g class="xy" transform="" clip-path="url(#clip1c6120xyplot)"><g class="scatterlayer mlayer"><g class="trace scatter trace76a976" style="stroke-miterlimit: 2;"><g class="fills"><g><path class="js-fill" d="M512,200L0,200L0,200L12.49,200L16.65,188.13L20.81,176.25L24.98,188.13L29.14,176.25L33.3,188.13L37.46,176.25L41.63,188.13L45.79,152.5L49.95,105L54.11,164.38L58.28,105L62.44,164.38L66.6,105L70.76,152.5L74.93,140.63L79.09,140.63L83.25,10L158.18,10L162.34,128.75L170.67,10L174.83,10L224.78,10L228.94,57.5L233.11,69.38L237.27,10L262.24,10L266.41,128.75L270.57,140.63L274.73,105L278.89,105L283.06,10L341.33,10L345.5,105L349.66,69.38L353.82,10L407.93,10L412.1,33.75L416.26,69.38L420.42,10L445.4,10L449.56,105L453.72,128.75L457.89,105L462.05,128.75L466.21,105L470.37,128.75L474.54,140.63L478.7,140.63L482.86,152.5L491.19,128.75L495.35,140.63L499.51,152.5L503.67,140.63L507.84,128.75L512,176.25" style="fill: rgb(96, 165, 250); fill-opacity: 1; stroke-width: 0;"/></g></g><g class="errorbars"/><g class="lines"><path class="js-line" d="M0,200L12.49,200L16.65,188.13L20.81,176.25L24.98,188.13L29.14,176.25L33.3,188.13L37.46,176.25L41.63,188.13L45.79,152.5L49.95,105L54.11,164.38L58.28,105L62.44,164.38L66.6,105L70.76,152.5L74.93,140.63L79.09,140.63L83.25,10L158.18,10L162.34,128.75L170.67,10L174.83,10L224.78,10L228.94,57.5L233.11,69.38L237.27,10L262.24,10L266.41,128.75L270.57,140.63L274.73,105L278.89,105L283.06,10L341.33,10L345.5,105L349.66,69.38L353.82,10L407.93,10L412.1,33.75L416.26,69.38L420.42,10L445.4,10L449.56,105L453.72,128.75L457.89,105L462.05,128.75L466.21,105L470.37,128.75L474.54,140.63L478.7,140.63L482.86,152.5L491.19,128.75L495.35,140.63L499.51,152.5L503.67,140.63L507.84,128.75L512,176.25" style="vector-effect: none; fill: none; stroke: rgb(255, 165, 0); stroke-opacity: 1; stroke-width: 0px; opacity: 1;"/></g><g class="points"/><g class="text"/></g></g></g></g><path class="xlines-above crisp" d="M0,0" style="fill: none;"/><path class="ylines-above crisp" d="M0,0" style="fill: none;"/><g class="overlines-above"/><g class="xaxislayer-above"/><g class="yaxislayer-above"/><g class="overaxes-above"/></g></g><g class="polarlayer"/><g class="smithlayer"/><g class="ternarylayer"/><g class="geolayer"/><g class="funnelarealayer"/><g class="pielayer"/><g class="iciclelayer"/><g class="treemaplayer"/><g class="sunburstlayer"/><g class="glimages"/><defs id="topdefs-1c6120"><g class="clips"/></defs><g class="layer-above"><g class="imagelayer"/><g class="shapelayer"/></g><g class="infolayer"><g class="g-gtitle"/></g></svg>