<svg class="main-svg" xmlns="http://www.w3.org/2000/svg" xmlns:xlink="http://www.w3.org/1999/xlink" width="512" height="200" style="" viewBox="0 0 512 200"><rect x="0" y="0" width="512" height="200" style="fill: rgb(0, 0, 0); fill-opacity: 0;"/><defs id="defs-9e59a8"><g class="clips"><clipPath id="clip9e59a8xyplot" class="plotclip"><rect width="512" height="200"/></clipPath><clipPath class="axesclip" id="clip9e59a8x"><rect x="0" y="0" width="512" height="200"/></clipPath><clipPath class="axesclip" id="clip9e59a8y"><rect x="0" y="0" width="512" height="200"/></clipPath><clipPath class="axesclip" id="clip9e59a8xy"><rect x="0" y="0" width="512" height="200"/></clipPath></g><g class="gradients"/><g class="patterns"/></defs><g class="bglayer"><rect class="bg" x="0" y="0" width="512" height="200" style="fill: rgb(0, 0, 0); fill-opacity: 0; stroke-width: 0;"/></g><g class="layer-below"><g class="imagelayer"/><g class="shapelayer"/></g><g class="cartesianlayer"><g class="subplot xy"><g class="layer-subplot"><g class="shapelayer"/><g class="imagelayer"/></g><g class="minor-gridlayer"><g class="x"/><g class="y"/></g><g class="gridlayer"><g class="x"/><g class="y"/></g><g class="zerolinelayer"/><g class="layer-between"><g class="shapelayer"/><g class="imagelayer"/></g><path class="xlines-below"/><path class="ylines-below"/><g class="overlines-below"/><g class="xaxislayer-below"/><g class="yaxislayer-below"/><g class="overaxes-below"/><g class="overplot"><g class="xy" transform="" clip-path="url(#clip9e59a8xyplot)"><g class="scatterlayer mlayer"><g class="trace scatter trace0991fe" style="stroke-miterlimit: 2;"><g class="fills"><g><path class="js-fill" d="M512,200L0,200L0,200L12.49,200L16.65,188.13L20.81,176.25L24.98,188.13L29.14,176.25L33.3,188.13L37.46,176.25L41.63,188.13L45.79,152.5L49.95,105L54.11,164.38L58.28,105L62.44,164.38L66.6,105L70.76,152.5L74.93,140.63L79.09,140.63L83.25,105L87.41,128.75L91.58,105L95.74,128.75L99.9,105L104.07,128.75L108.23,140.63L116.55,140.63L120.72,116.88L124.88,116.88L129.04,105L133.2,140.63L137.37,116.88L141.53,116.88L145.69,105L154.02,105L158.18,10L162.34,128.75L166.5,128.75L170.67,128.75L174.83,116.88L178.99,105L183.15,128.75L187.32,128.75L191.48,140.63L195.64,116.88L199.8,116.88L203.97,116.88L208.13,93.13L212.29,93.13L216.46,128.75L220.62,105L224.78,105L228.94,105L233.11,140.63L237.27,152.5L241.43,116.88L245.59,152.5L249.76,140.63L253.92,152.5L258.08,128.75L262.24,81.25L266.41,128.75L270.57,140.63L274.73,140.63L278.89,116.88L283.06,105L287.22,128.75L291.38,105L295.54,128.75L299.71,105L303.87,128.75L308.03,140.63L316.36,140.63L320.52,116.88L324.68,116.88L328.85,105L337.17,105L341.33,21.88L345.5,105L349.66,128.75L357.98,128.75L362.15,116.88L366.31,116.88L370.47,128.75L374.63,152.5L378.8,116.88L387.12,116.88L391.28,93.13L395.45,93.13L399.61,105L407.93,105L412.1,81.25L416.26,140.63L420.42,152.5L424.59,116.88L428.75,152.5L432.91,140.63L437.07,152.5L441.24,128.75L445.4,93.13L449.56,105L453.72,128.75L457.89,105L462.05,128.75L466.21,105L470.37,128.75L474.54,140.63L478.7,140.63L482.86,152.5L487.02,140.63L491.19,128.75L495.35,140.63L499.51,152.5L503.67,140.63L507.84,128.75L512,176.25" style="fill: rgb(74, 222, 128); fill-opacity: 1; stroke-width: 0;"/></g></g><g class="errorbars"/><g class="lines"><path class="js-line" d="M0,200L12.49,200L16.65,188.13L20.81,176.25L24.98,188.13L29.14,176.25L33.3,188.13L37.46,176.25L41.63,188.13L45.79,152.5L49.95,105L54.11,164.38L58.28,105L62.44,164.38L66.6,105L70.76,152.5L74.93,140.63L79.09,140.63L83.25,105L87.41,128.75L91.58,105L95.74,128.75L99.9,105L104.07,128.75L108.23,140.63L116.55,140.63L120.72,116.88L124.88,116.88L129.04,105L133.2,140.63L137.37,116.88L141.53,116.88L145.69,105L154.02,105L158.18,10L162.34,128.75L166.5,128.75L170.67,128.75L174.83,116.88L178.99,105L183.15,128.75L187.32,128.75L191.48,140.63L195.64,116.88L199.8,116.88L203.97,116.88L208.13,93.13L212.29,93.13L216.46,128.75L220.62,105L224.78,105L228.94,105L233.11,140.63L237.27,152.5L241.43,116.88L245.59,152.5L249.76,140.63L253.92,152.5L258.08,128.75L262.24,81.25L266.41,128.75L270.57,140.63L274.73,140.63L278.89,116.88L283.06,105L287.22,128.75L291.38,105L295.54,128.75L299.71,105L303.87,128.75L308.03,140.63L316.36,140.63L320.52,116.88L324.68,116.88L328.85,105L337.17,105L341.33,21.88L345.5,105L349.66,128.75L357.98,128.75L362.15,116.88L366.31,116.88L370.47,128.75L374.63,152.5L378.8,116.88L387.12,116.88L391.28,93.13L395.45,93.13L399.61,105L407.93,105L412.1,81.25L416.26,140.63L420.42,152.5L424.59,116.88L428.75,152.5L432.91,140.63L437.07,152.5L441.24,128.75L445.4,93.13L449.56,105L453.72,128.75L457.89,105L462.05,128.75L466.21,105L470.37,128.75L474.54,140.63L478.7,140.63L482.86,152.5L487.02,140.63L491.19,128.75L495.35,140.63L499.51,152.5L503.67,140.63L507.84,128.75L512,176.25" style="vector-effect: none; fill: none; stroke: rgb(255, 165, 0); stroke-opacity: 1; stroke-width: 0px; opacity: 1;"/></g><g class="points"/><g class="text"/></g></g></g></g><path class="xlines-above crisp" d="M0,0" style="fill: none;"/><path class="ylines-above crisp" d="M0,0" style="fill: none;"/><g class="overlines-above"/><g class="xaxislayer-above"/><g class="yaxislayer-above"/><g class="overaxes-above"/></g></g><g class="polarlayer"/><g class="smithlayer"/><g class="ternarylayer"/><g class="geolayer"/><g class="funnelarealayer"/><g class="pielayer"/><g class="iciclelayer"/><g class="treemaplayer"/><g class="sunburstlayer"/><g class="glimages"/><defs id="topdefs-9e59a8"><g class="clips"/></defs><g class="layer-above"><g class="imagelayer"/><g class="shapelayer"/></g><g class="infolayer"><g class="g-gtitle"/></g></svg>