<svg class="main-svg" xmlns="http://www.w3.org/2000/svg" xmlns:xlink="http://www.w3.org/1999/xlink" width="512" height="200" viewBox="0 0 512 200" style=""><rect x="0" y="0" width="512" height="200" style="fill: rgb(0, 0, 0); fill-opacity: 0;"/><defs id="defs-e22df9"><g class="clips"><clipPath id="clipe22df9xyplot" class="plotclip"><rect width="512" height="200"/></clipPath><clipPath class="axesclip" id="clipe22df9x"><rect x="0" y="0" width="512" height="200"/></clipPath><clipPath class="axesclip" id="clipe22df9y"><rect x="0" y="0" width="512" height="200"/></clipPath><clipPath class="axesclip" id="clipe22df9xy"><rect x="0" y="0" width="512" height="200"/></clipPath></g><g class="gradients"/><g class="patterns"/></defs><g class="bglayer"><rect class="bg" x="0" y="0" width="512" height="200" style="fill: rgb(0, 0, 0); fill-opacity: 0; stroke-width: 0;"/></g><g class="layer-below"><g class="imagelayer"/><g class="shapelayer"/></g><g class="cartesianlayer"><g class="subplot xy"><g class="layer-subplot"><g class="shapelayer"/><g class="imagelayer"/></g><g class="minor-gridlayer"><g class="x"/><g class="y"/></g><g class="gridlayer"><g class="x"/><g class="y"/></g><g class="zerolinelayer"/><g class="layer-between"><g class="shapelayer"/><g class="imagelayer"/></g><path class="xlines-below"/><path class="ylines-below"/><g class="overlines-below"/><g class="xaxislayer-below"/><g class="yaxislayer-below"/><g class="overaxes-below"/><g class="overplot"><g class="xy" transform="" clip-path="url(#clipe22df9xyplot)"><g class="scatterlayer mlayer"><g class="trace scatter trace5ee2d5" style="stroke-miterlimit: 2;"><g class="fills"><g><path class="js-fill" d="M512,200L0,200L0,105L39.6,105L42.43,116.88L45.26,105L48.09,105L62.23,105L65.06,116.88L67.89,105L70.72,105L84.86,105L87.69,116.88L90.52,105L93.35,105L107.49,105L110.32,116.88L113.15,93.13L115.98,93.13L130.12,93.13L132.95,81.25L141.44,81.25L144.27,93.13L147.09,81.25L149.92,81.25L152.75,81.25L155.58,93.13L158.41,81.25L161.24,81.25L164.07,81.25L166.9,93.13L169.72,81.25L172.55,81.25L175.38,81.25L178.21,93.13L181.04,152.5L183.87,152.5L200.84,152.5L203.67,188.13L214.98,188.13L217.81,200L220.64,188.13L223.47,200L226.3,128.75L229.13,128.75L268.73,128.75L271.56,69.38L302.67,69.38L305.5,45.63L308.33,45.63L311.16,10L313.99,116.88L316.82,69.38L356.42,69.38L359.25,81.25L362.08,69.38L364.91,69.38L393.19,69.38L396.02,81.25L398.85,93.13L401.68,93.13L404.51,116.88L407.34,105L424.31,105L427.14,116.88L429.97,105L432.8,105L446.94,105L449.77,116.88L452.6,105L455.43,105L469.57,105L472.4,116.88L475.23,105L478.06,105L495.03,105L497.86,188.13L500.69,200L503.51,200L512,200" style="fill: rgb(74, 222, 128); fill-opacity: 1; stroke-width: 0;"/></g></g><g class="errorbars"/><g class="lines"><path class="js-line" d="M0,105L39.6,105L42.43,116.88L45.26,105L48.09,105L62.23,105L65.06,116.88L67.89,105L70.72,105L84.86,105L87.69,116.88L90.52,105L93.35,105L107.49,105L110.32,116.88L113.15,93.13L115.98,93.13L130.12,93.13L132.95,81.25L141.44,81.25L144.27,93.13L147.09,81.25L149.92,81.25L152.75,81.25L155.58,93.13L158.41,81.25L161.24,81.25L164.07,81.25L166.9,93.13L169.72,81.25L172.55,81.25L175.38,81.25L178.21,93.13L181.04,152.5L183.87,152.5L200.84,152.5L203.67,188.13L214.98,188.13L217.81,200L220.64,188.13L223.47,200L226.3,128.75L229.13,128.75L268.73,128.75L271.56,69.38L302.67,69.38L305.5,45.63L308.33,45.63L311.16,10L313.99,116.88L316.82,69.38L356.42,69.38L359.25,81.25L362.08,69.38L364.91,69.38L393.19,69.38L396.02,81.25L398.85,93.13L401.68,93.13L404.51,116.88L407.34,105L424.31,105L427.14,116.88L429.97,105L432.8,105L446.94,105L449.77,116.88L452.6,105L455.43,105L469.57,105L472.4,116.88L475.23,105L478.06,105L495.03,105L497.86,188.13L500.69,200L503.51,200L512,200" style="vector-effect: none; fill: none; stroke: rgb(255, 165, 0); stroke-opacity: 1; stroke-width: 0px; opacity: 1;"/></g><g class="points"/><g class="text"/></g></g></g></g><path class="xlines-above crisp" d="M0,0" style="fill: none;"/><path class="ylines-above crisp" d="M0,0" style="fill: none;"/><g class="overlines-above"/><g class="xaxislayer-above"/><g class="yaxislayer-above"/><g class="overaxes-above"/></g></g><g class="polarlayer"/><g class="smithlayer"/><g class="ternarylayer"/><g class="geolayer"/><g class="funnelarealayer"/><g class="pielayer"/><g class="iciclelayer"/><g class="treemaplayer"/><g class="sunburstlayer"/><g class="glimages"/><defs id="topdefs-e22df9"><g class="clips"/></defs><g class="layer-above"><g class="imagelayer"/><g class="shapelayer"/></g><g class="infolayer"><g class="g-gtitle"/></g></svg>