<svg version="1.2" baseProfile="tiny" xmlns="http://www.w3.org/2000/svg" xmlns:xlink="http://www.w3.org/1999/xlink" x="0px" y="0px" overflow="visible" xml:space="preserve" viewBox="19.23 20.4 31.82 33.33"> <g> 	<path d="M25.5652,26.5933h-1.7578v-2.2734c0-0.1562,0.0029-0.3154,0.0088-0.4775s0.0146-0.3252,0.0264-0.4893 		c-0.1094,0.1211-0.2197,0.2402-0.3311,0.3574s-0.2197,0.2285-0.3252,0.334l-2.6953,2.6895l-1.248-1.2539l2.6895-2.6895 		c0.1055-0.1055,0.2168-0.2139,0.334-0.3252s0.2363-0.2217,0.3574-0.3311c-0.1641,0.0078-0.3262,0.0146-0.4863,0.0205 		s-0.3184,0.0088-0.4746,0.0088h-2.2852v-1.7578h6.1875V26.5933z"></path> 	<path d="M34.0554,26.5933h-1.7578v-2.2734c0-0.1562,0.0029-0.3154,0.0088-0.4775s0.0146-0.3252,0.0264-0.4893 		c-0.1094,0.1211-0.2197,0.2402-0.3311,0.3574s-0.2197,0.2285-0.3252,0.334l-2.6953,2.6895l-1.248-1.2539l2.6895-2.6895 		c0.1055-0.1055,0.2168-0.2139,0.334-0.3252s0.2363-0.2217,0.3574-0.3311c-0.1641,0.0078-0.3262,0.0146-0.4863,0.0205 		s-0.3184,0.0088-0.4746,0.0088h-2.2852v-1.7578h6.1875V26.5933z"></path> 	<path d="M42.5452,26.5933h-1.7568v-2.2734c0-0.1562,0.0029-0.3154,0.0088-0.4775s0.0146-0.3252,0.0264-0.4893 		c-0.1094,0.1211-0.2197,0.2402-0.3311,0.3574s-0.2197,0.2285-0.3252,0.334l-2.6953,2.6895l-1.248-1.2539l2.6895-2.6895 		c0.1055-0.1055,0.2168-0.2139,0.334-0.3252s0.2363-0.2217,0.3574-0.3311c-0.1641,0.0078-0.3262,0.0146-0.4863,0.0205 		s-0.3184,0.0088-0.4746,0.0088h-2.2852v-1.7578h6.1865V26.5933z"></path> 	<path d="M51.0354,26.5933h-1.7578v-2.2734c0-0.1562,0.0029-0.3154,0.0088-0.4775s0.0146-0.3252,0.0264-0.4893 		c-0.1094,0.1211-0.2197,0.2402-0.3311,0.3574s-0.2197,0.2285-0.3252,0.334l-2.6953,2.6895l-1.248-1.2539l2.6895-2.6895 		c0.1055-0.1055,0.2168-0.2139,0.334-0.3252s0.2363-0.2217,0.3574-0.3311c-0.1641,0.0078-0.3262,0.0146-0.4863,0.0205 		s-0.3184,0.0088-0.4746,0.0088h-2.2852v-1.7578h6.1875V26.5933z"></path> 	<path d="M25.5652,35.5933h-1.7578v-2.2734c0-0.1562,0.0029-0.3154,0.0088-0.4775s0.0146-0.3252,0.0264-0.4893 		c-0.1094,0.1211-0.2197,0.2402-0.3311,0.3574s-0.2197,0.2285-0.3252,0.334l-2.6953,2.6895l-1.248-1.2539l2.6895-2.6895 		c0.1055-0.1055,0.2168-0.2139,0.334-0.3252s0.2363-0.2217,0.3574-0.3311c-0.1641,0.0078-0.3262,0.0146-0.4863,0.0205 		s-0.3184,0.0088-0.4746,0.0088h-2.2852v-1.7578h6.1875V35.5933z"></path> 	<path d="M34.0554,35.5933h-1.7578v-2.2734c0-0.1562,0.0029-0.3154,0.0088-0.4775s0.0146-0.3252,0.0264-0.4893 		c-0.1094,0.1211-0.2197,0.2402-0.3311,0.3574s-0.2197,0.2285-0.3252,0.334l-2.6953,2.6895l-1.248-1.2539l2.6895-2.6895 		c0.1055-0.1055,0.2168-0.2139,0.334-0.3252s0.2363-0.2217,0.3574-0.3311c-0.1641,0.0078-0.3262,0.0146-0.4863,0.0205 		s-0.3184,0.0088-0.4746,0.0088h-2.2852v-1.7578h6.1875V35.5933z"></path> 	<path d="M42.5452,35.5933h-1.7568v-2.2734c0-0.1562,0.0029-0.3154,0.0088-0.4775s0.0146-0.3252,0.0264-0.4893 		c-0.1094,0.1211-0.2197,0.2402-0.3311,0.3574s-0.2197,0.2285-0.3252,0.334l-2.6953,2.6895l-1.248-1.2539l2.6895-2.6895 		c0.1055-0.1055,0.2168-0.2139,0.334-0.3252s0.2363-0.2217,0.3574-0.3311c-0.1641,0.0078-0.3262,0.0146-0.4863,0.0205 		s-0.3184,0.0088-0.4746,0.0088h-2.2852v-1.7578h6.1865V35.5933z"></path> 	<path d="M51.0354,35.5933h-1.7578v-2.2734c0-0.1562,0.0029-0.3154,0.0088-0.4775s0.0146-0.3252,0.0264-0.4893 		c-0.1094,0.1211-0.2197,0.2402-0.3311,0.3574s-0.2197,0.2285-0.3252,0.334l-2.6953,2.6895l-1.248-1.2539l2.6895-2.6895 		c0.1055-0.1055,0.2168-0.2139,0.334-0.3252s0.2363-0.2217,0.3574-0.3311c-0.1641,0.0078-0.3262,0.0146-0.4863,0.0205 		s-0.3184,0.0088-0.4746,0.0088h-2.2852v-1.7578h6.1875V35.5933z"></path> 	<path d="M25.5652,44.5923h-1.7578v-2.2734c0-0.1562,0.0029-0.3154,0.0088-0.4775s0.0146-0.3252,0.0264-0.4893 		c-0.1094,0.1211-0.2197,0.2402-0.3311,0.3574s-0.2197,0.2285-0.3252,0.334l-2.6953,2.6895l-1.248-1.2539l2.6895-2.6895 		c0.1055-0.1055,0.2168-0.2139,0.334-0.3252s0.2363-0.2217,0.3574-0.3311c-0.1641,0.0078-0.3262,0.0146-0.4863,0.0205 		s-0.3184,0.0088-0.4746,0.0088h-2.2852v-1.7578h6.1875V44.5923z"></path> 	<path d="M34.0554,44.5923h-1.7578v-2.2734c0-0.1562,0.0029-0.3154,0.0088-0.4775s0.0146-0.3252,0.0264-0.4893 		c-0.1094,0.1211-0.2197,0.2402-0.3311,0.3574s-0.2197,0.2285-0.3252,0.334l-2.6953,2.6895l-1.248-1.2539l2.6895-2.6895 		c0.1055-0.1055,0.2168-0.2139,0.334-0.3252s0.2363-0.2217,0.3574-0.3311c-0.1641,0.0078-0.3262,0.0146-0.4863,0.0205 		s-0.3184,0.0088-0.4746,0.0088h-2.2852v-1.7578h6.1875V44.5923z"></path> 	<path d="M42.5452,44.5923h-1.7568v-2.2734c0-0.1562,0.0029-0.3154,0.0088-0.4775s0.0146-0.3252,0.0264-0.4893 		c-0.1094,0.1211-0.2197,0.2402-0.3311,0.3574s-0.2197,0.2285-0.3252,0.334l-2.6953,2.6895l-1.248-1.2539l2.6895-2.6895 		c0.1055-0.1055,0.2168-0.2139,0.334-0.3252s0.2363-0.2217,0.3574-0.3311c-0.1641,0.0078-0.3262,0.0146-0.4863,0.0205 		s-0.3184,0.0088-0.4746,0.0088h-2.2852v-1.7578h6.1865V44.5923z"></path> 	<path d="M51.0354,44.5923h-1.7578v-2.2734c0-0.1562,0.0029-0.3154,0.0088-0.4775s0.0146-0.3252,0.0264-0.4893 		c-0.1094,0.1211-0.2197,0.2402-0.3311,0.3574s-0.2197,0.2285-0.3252,0.334l-2.6953,2.6895l-1.248-1.2539l2.6895-2.6895 		c0.1055-0.1055,0.2168-0.2139,0.334-0.3252s0.2363-0.2217,0.3574-0.3311c-0.1641,0.0078-0.3262,0.0146-0.4863,0.0205 		s-0.3184,0.0088-0.4746,0.0088h-2.2852v-1.7578h6.1875V44.5923z"></path> 	<path d="M25.5652,53.5923h-1.7578v-2.2734c0-0.1562,0.0029-0.3154,0.0088-0.4775s0.0146-0.3252,0.0264-0.4893 		c-0.1094,0.1211-0.2197,0.2402-0.3311,0.3574s-0.2197,0.2285-0.3252,0.334l-2.6953,2.6895l-1.248-1.2539l2.6895-2.6895 		c0.1055-0.1055,0.2168-0.2139,0.334-0.3252s0.2363-0.2217,0.3574-0.3311c-0.1641,0.0078-0.3262,0.0146-0.4863,0.0205 		s-0.3184,0.0088-0.4746,0.0088h-2.2852v-1.7578h6.1875V53.5923z"></path> 	<path d="M34.0554,53.5923h-1.7578v-2.2734c0-0.1562,0.0029-0.3154,0.0088-0.4775s0.0146-0.3252,0.0264-0.4893 		c-0.1094,0.1211-0.2197,0.2402-0.3311,0.3574s-0.2197,0.2285-0.3252,0.334l-2.6953,2.6895l-1.248-1.2539l2.6895-2.6895 		c0.1055-0.1055,0.2168-0.2139,0.334-0.3252s0.2363-0.2217,0.3574-0.3311c-0.1641,0.0078-0.3262,0.0146-0.4863,0.0205 		s-0.3184,0.0088-0.4746,0.0088h-2.2852v-1.7578h6.1875V53.5923z"></path> 	<path d="M42.5452,53.5923h-1.7568v-2.2734c0-0.1562,0.0029-0.3154,0.0088-0.4775s0.0146-0.3252,0.0264-0.4893 		c-0.1094,0.1211-0.2197,0.2402-0.3311,0.3574s-0.2197,0.2285-0.3252,0.334l-2.6953,2.6895l-1.248-1.2539l2.6895-2.6895 		c0.1055-0.1055,0.2168-0.2139,0.334-0.3252s0.2363-0.2217,0.3574-0.3311c-0.1641,0.0078-0.3262,0.0146-0.4863,0.0205 		s-0.3184,0.0088-0.4746,0.0088h-2.2852v-1.7578h6.1865V53.5923z"></path> 	<path d="M51.0354,53.5923h-1.7578v-2.2734c0-0.1562,0.0029-0.3154,0.0088-0.4775s0.0146-0.3252,0.0264-0.4893 		c-0.1094,0.1211-0.2197,0.2402-0.3311,0.3574s-0.2197,0.2285-0.3252,0.334l-2.6953,2.6895l-1.248-1.2539l2.6895-2.6895 		c0.1055-0.1055,0.2168-0.2139,0.334-0.3252s0.2363-0.2217,0.3574-0.3311c-0.1641,0.0078-0.3262,0.0146-0.4863,0.0205 		s-0.3184,0.0088-0.4746,0.0088h-2.2852v-1.7578h6.1875V53.5923z"></path> </g> </svg>