<svg xmlns="http://www.w3.org/2000/svg" viewBox="0 0 247.47 50.69"><path d="M49.4,38A26.27,26.27,0,0,1,26.5,50.69C11.16,50.69,0,39.46,0,25,0,11.38,11.16,0,26.5,0c10.44,0,18.65,4.9,23,12.24l-10,5.83c-2.3-4.46-6.84-7.41-13-7.41C17.93,10.66,12,16.92,12,25A14.43,14.43,0,0,0,26.5,39.6a14.23,14.23,0,0,0,12.89-7.41Z"/><path d="M88.52.86v11H62.82v8.42H84.27V30.46H62.82v8.42h25.7V49.83H51V.86Z"/><path d="M131.1,19.23c0,7.05-3.45,13-8.71,15.84l10.08,14.76H117.78l-7.34-12.17H101.8V49.83H90V.86h23.69C123.62.86,131.1,8.57,131.1,19.23Zm-29.3-7.42v14.9H112a7.45,7.45,0,0,0,.07-14.9Z"/><path d="M140.1,15.94a6.52,6.52,0,1,1,6.48-6.48A6.51,6.51,0,0,1,140.1,15.94Zm-5.65,3.32h11.23V49.83H134.45Z"/><path d="M197,49.83H185.09l-24.77-30v30H148.44V.86h11.88l24.77,29.89V.86H197Z"/><path d="M247,10.73l-10.22,5.18c-2.45-3.09-6.27-4.82-11.89-4.82-8.56,0-14.54,6-14.54,14.11A14.43,14.43,0,0,0,225,39.68c5.25,0,9.43-1.66,12-4.11V30.82h-14.9V21.75h25.34V39.89c-.36.72-8.06,10.8-22.39,10.8-16.2,0-26.64-12.17-26.64-25.34C198.44,11.74,209.6,0,225,0A26.93,26.93,0,0,1,247,10.73Z"/></svg>