<?xml version="1.0" encoding="utf-8"?>
<!-- Generator: Adobe Illustrator 26.2.1, SVG Export Plug-In . SVG Version: 6.00 Build 0)  -->
<svg version="1.1" id="Layer_1" xmlns="http://www.w3.org/2000/svg" xmlns:xlink="http://www.w3.org/1999/xlink" x="0px" y="0px"
	 viewBox="0 0 49.5 50.7" style="enable-background:new 0 0 49.5 50.7;" xml:space="preserve">
<style type="text/css">
	.sta{fill:#9950FF;}
</style>
<path class="sta" d="M49.4,38c-4.8,8-13.6,12.8-22.9,12.7C11.2,50.7,0,39.5,0,25C0,11.4,11.2,0,26.5,0c10.4,0,18.7,4.9,23,12.2
	l-10,5.8c-2.3-4.5-6.8-7.4-13-7.4C17.9,10.7,12,16.9,12,25c-0.1,8,6.3,14.5,14.3,14.6c0.1,0,0.2,0,0.2,0c5.3,0.1,10.3-2.7,12.9-7.4
	L49.4,38z"/>
</svg>
