<svg viewBox="0 0 600 600" overflow="visible" xml:space="preserve" fill="#855EE8">
<path d="M263.439758,597.636353c-50.975616,0-95.12764-10.052979-132.458786-30.153503
	c-37.336517-20.100586-66.049683-48.371155-86.150253-84.806458c-20.108606-36.429932-30.153519-79.061127-30.153519-127.882935
	c0-45.581635,7.716749-89.462769,23.152935-131.646057c15.430813-42.175232,37.599365-79.774597,66.500282-112.803467
	C133.220627,77.32045,167.950012,51.206352,208.5186,31.998968c40.560547-19.199335,86.150253-28.807049,136.763779-28.807049
	c48.462341,0,91.351074,9.422641,128.690247,28.267923c37.328461,18.845284,65.958466,45.230289,85.88205,79.152313
	c19.920837,33.922043,27.72876,73.321182,23.421143,118.189377H429.820587
	c0.351379-26.921448-5.925018-49.891998-18.847961-68.922348c-12.920258-19.022308-35.536743-28.536148-67.844086-28.536148
	c-36.260956,0-67.034058,11.305557-92.343506,33.922043c-25.306747,22.6138-44.51413,51.243835-57.61142,85.882034
	c-13.108017,34.646225-19.655304,69.909378-19.655304,105.802872c0,35.539429,8.161987,63.182373,24.49939,82.918152
	c16.332047,19.746521,40.292328,29.617096,71.883514,29.617096c33.382935,0,61.921753-9.328766,85.613831-27.997009
	c23.689362-18.662903,40.383514-42.180603,50.074371-70.537048h154.533447
	c-9.690857,44.51413-28.536133,83.819397-56.535828,117.915771c-27.999695,34.107117-62.645935,60.763062-103.919952,79.962341
	C358.382324,588.028625,312.977692,597.636353,263.439758,597.636353z"/>
</svg>
