<?xml version="1.0" encoding="utf-8"?>
<!-- Generator: Adobe Illustrator 29.5.0, SVG Export Plug-In . SVG Version: 9.03 Build 0)  -->
<svg version="1.2" baseProfile="tiny" id="Layer_1" xmlns="http://www.w3.org/2000/svg" xmlns:xlink="http://www.w3.org/1999/xlink"
	 x="0px" y="0px" viewBox="0 0 538.112244 205.985596" overflow="visible" xml:space="preserve">
<g>
	<path fill="#855EE8" d="M50.127644,158.423462c-9.279785,0-17.317383-1.830078-24.113281-5.489258
		c-6.796875-3.65918-12.023925-8.805664-15.683105-15.438477C6.670613,130.863892,4.842,123.103149,4.842,114.215454
		c0-8.297852,1.404785-16.286133,4.214844-23.965332c2.809082-7.677734,6.844727-14.522461,12.105956-20.535156
		c5.259277-6.011715,11.581543-10.765621,18.966797-14.262203c7.383789-3.495117,15.683105-5.244141,24.896976-5.244141
		c8.822266,0,16.629883,1.715332,23.427246,5.145996c6.79541,3.430664,12.007324,8.233887,15.634277,14.409176
		c3.626465,6.175293,5.047852,13.347656,4.263672,21.515625H80.416222c0.063965-4.900879-1.078613-9.08252-3.431152-12.546875
		c-2.352051-3.462891-6.469238-5.194824-12.350586-5.194824c-6.601078,0-12.203129,2.058105-16.810551,6.175293
		c-4.606934,4.116699-8.103516,9.328613-10.487793,15.634277c-2.38623,6.307129-3.578125,12.726562-3.578125,19.260742
		c0,6.469727,1.48584,11.501953,4.459961,15.094727c2.973145,3.594727,7.334961,5.391602,13.085938,5.391602
		c6.077148,0,11.272461-1.698242,15.585453-5.09668c4.3125-3.397461,7.351562-7.678711,9.115723-12.84082h28.131836
		c-1.76416,8.103516-5.194824,15.258789-10.291992,21.46582c-5.097168,6.208984-11.404297,11.061523-18.917969,14.556641
		C67.411339,156.674438,59.14571,158.423462,50.127644,158.423462z"/>
	<path fill="#855EE8" d="M154.036819,158.423462c-15.030762,0-26.75927-4.083008-35.188957-12.25293
		c-8.430176-8.167969-11.828613-20.616211-10.194336-37.345703c0.97998-11.958496,4.22998-22.331543,9.75293-31.121582
		c5.521484-8.788086,12.726067-15.568356,21.613762-20.338863c8.88623-4.769531,18.884277-7.155762,29.994141-7.155762
		c7.709961,0,14.637207,1.17627,20.780273,3.528809c6.141602,2.352539,10.993652,5.897949,14.556152,10.63525
		c3.561035,4.73877,5.342285,10.635254,5.342285,17.692871c0,8.757324-2.891602,15.455078-8.674805,20.094238
		c-5.783203,4.640625-14.212891,7.858398-25.289551,9.654297c-11.076172,1.798828-24.489746,2.827148-40.237305,3.087891
		c-0.131836,6.338867,1.110352,11.566406,3.724609,15.683594c2.612793,4.116211,7.972168,6.174805,16.075684,6.174805
		c6.337402,0,11.500488-1.289062,15.487305-3.871094c3.984863-2.581055,6.79541-5.930664,8.429688-10.047852h27.053711
		c-3.725098,10.652344-10.096191,19.246094-19.114258,25.779297C179.130081,155.155884,167.759964,158.423462,154.036819,158.423462
		z M138.550003,96.082153c12.21875-0.260254,21.59668-0.946289,28.131836-2.058105
		c6.533691-1.110352,11.010254-2.629883,13.428711-4.558105c2.416992-1.926758,3.626953-4.263672,3.626953-7.008301
		c0-3.201172-1.421387-5.734375-4.26416-7.59668s-6.976074-2.793457-12.399414-2.793457
		c-8.953613,0-15.553223,2.336914-19.800293,7.008301C143.025101,83.748657,140.118362,89.417114,138.550003,96.082153z"/>
	<path fill="#855EE8" d="M205.117874,156.070923l17.15332-103.509766h27.837891l-2.94043,17.643551h0.293945
		c2.94043-6.207027,6.680664-10.814449,11.22316-13.820797c4.541504-3.004883,10.243164-4.508789,17.10498-4.508789
		c1.698242,0,3.25,0.033691,4.655273,0.098145c1.404297,0.065918,2.662109,0.097656,3.774414,0.097656l-4.019531,24.603512
		c-1.045898-0.064453-2.760742-0.162598-5.145508-0.294434c-2.386719-0.129883-4.787598-0.195801-7.20459-0.195801
		c-5.946777,0-11.208008,2.026367-15.781265,6.077148c-4.574707,4.052734-7.483398,9.96582-8.723633,17.741699l-9.312012,56.067871
		H205.117874z"/>
	<path fill="#855EE8" d="M273.983124,156.070923l17.15332-103.509766h28.916016l-17.15332,103.509766H273.983124z
		 M307.79953,38.642216c-4.444336,0-7.972656-1.502441-10.585938-4.508789c-2.614258-3.004885-3.5625-6.665529-2.842773-10.978518
		c0.71875-4.376953,2.875-8.069823,6.469727-11.076171c3.592773-3.004883,7.645508-4.508789,12.154297-4.508789
		s8.070312,1.503906,10.68457,4.508789c2.612305,3.006348,3.560547,6.699218,2.842773,11.076171
		c-0.720703,4.312988-2.891602,7.973633-6.518555,10.978518C316.376678,37.139774,312.308319,38.642216,307.79953,38.642216z"/>
	<path fill="#855EE8" d="M349.569061,99.512817l-9.3125,56.558105h-28.916016L328.39621,52.561161h28.425781l-2.450195,14.997066
		c4.3125-5.619137,9.246094-9.883297,14.800781-12.7915c5.553711-2.906738,11.827148-4.361816,18.820312-4.361816
		c11.370117,0,19.913086,3.709473,25.631836,11.125c5.717773,7.417477,7.499023,17.628414,5.342773,30.631832l-10.586914,63.90918
		h-28.817383l9.998047-60.478516c1.110352-6.925781,0.30957-12.040039-2.401367-15.340332
		c-2.712891-3.298828-6.911133-4.950195-12.595703-4.950195c-6.339844,0-11.762695,2.026367-16.271484,6.077148
		C353.783905,85.431763,350.874725,91.47522,349.569061,99.512817z"/>
	<path fill="#855EE8" d="M460.04953,198.415649c-14.96582,0-26.09082-3.072266-33.375977-9.213867
		c-7.288086-6.143555-10.832031-14.24707-10.635742-24.30957h27.25c0.78418,8.167969,6.500977,12.25293,17.15332,12.25293
		c7.513672,0,13.706055-2.091797,18.575195-6.273438c4.867188-4.182617,7.890625-9.998047,9.066406-17.447266l2.254883-14.899414
		h-0.097656c-4.117188,6.077148-8.773438,10.537109-13.96875,13.379883c-5.194336,2.842773-11.125,4.263672-17.790039,4.263672
		c-12.024414,0-21.417969-3.886719-28.181641-11.664062c-6.762695-7.776367-10.144531-17.938477-10.144531-30.484375
		c0-7.97168,1.224609-15.747559,3.675781-23.329102c2.450195-7.57959,5.979492-14.39209,10.585938-20.437012
		c4.607422-6.043457,10.12793-10.863766,16.56543-14.458004c6.435547-3.593262,13.640625-5.391113,21.613281-5.391113
		c7.12207,0,13.21582,1.519043,18.28125,4.557617c5.063477,3.039062,8.804688,7.43457,11.223633,13.184078h0.097656
		l2.548828-15.585445h28.523407l-16.56543,100.470703c-1.830078,10.913086-5.358368,19.702148-10.585907,26.368164
		c-5.228516,6.665039-11.779297,11.5-19.65332,14.506836C478.590546,196.911743,469.784882,198.415649,460.04953,198.415649z
		 M466.616913,133.035767c6.533203,0,12.169922-1.943359,16.908203-5.832031
		c4.737305-3.887695,8.396484-8.804688,10.978516-14.751953c2.580078-5.946289,3.871094-12.056641,3.871094-18.330078
		c0-6.469238-1.650391-11.549316-4.949219-15.242188c-3.300781-3.690918-7.890625-5.538086-13.772461-5.538086
		c-6.535156,0-12.089844,1.994141-16.663086,5.979492c-4.575195,3.986816-8.054688,9.017578-10.439453,15.095215
		c-2.385742,6.077148-3.578125,12.285645-3.578125,18.623535c0,6.535156,1.551758,11.501953,4.65625,14.899414
		C456.732147,131.337524,461.061249,133.035767,466.616913,133.035767z"/>
</g>
<g>
</g>
<g>
</g>
<g>
</g>
<g>
</g>
<g>
</g>
<g>
</g>
</svg>
