<svg xml:space="preserve" viewBox="0 0 247.5 50.7"><linearGradient id="a" x1="0" x2="247.44" y1="25.344" y2="25.344" gradientUnits="userSpaceOnUse"><stop offset="0" style="stop-color:#b941d6"></stop><stop offset="1" style="stop-color:#9950ff"></stop></linearGradient><path d="M49.4 38c-4.8 8-13.6 12.8-22.9 12.7C11.2 50.7 0 39.5 0 25 0 11.4 11.2 0 26.5 0c10.4 0 18.7 4.9 23 12.2l-10 5.8c-2.3-4.5-6.8-7.4-13-7.4C17.9 10.7 12 16.9 12 25c-.1 8 6.3 14.5 14.3 14.6h.2c5.3.1 10.3-2.7 12.9-7.4zM88.5.9v11H62.8v8.4h21.4v10.2H62.8v8.4h25.7v11H51V.9zm42.6 18.3c0 7-3.4 13-8.7 15.8l10.1 14.8h-14.7l-7.3-12.2h-8.6v12.2H90V.8h23.7c9.9.1 17.4 7.8 17.4 18.4m-29.3-7.4v14.9H112c4.1 0 7.5-3.3 7.5-7.4s-3.3-7.5-7.4-7.5zm38.3 4.1c-3.6 0-6.5-2.9-6.6-6.5 0-3.6 2.9-6.5 6.5-6.6 3.6 0 6.5 2.9 6.6 6.5v.1c0 3.6-2.9 6.5-6.5 6.5m-5.6 3.4h11.2v30.6h-11.2zM197 49.8h-11.9l-24.8-30v30h-11.9V.8h11.9l24.8 29.9V.9H197zm50-39.1-10.2 5.2c-2.4-3.1-6.3-4.8-11.9-4.8-8.6 0-14.5 6-14.5 14.1 0 8 6.4 14.5 14.4 14.5h.3c5.2 0 9.4-1.7 12-4.1v-4.8h-14.9v-9.1h25.3v18.1c-.4.7-8.1 10.8-22.4 10.8-16.2 0-26.6-12.2-26.6-25.3C198.4 11.7 209.6 0 225 0c8.6-.2 16.8 3.8 22 10.7" style="fill:url(#a)"></path></svg>