<?xml version="1.0" encoding="utf-8"?>
<!-- Generator: Adobe Illustrator 26.2.1, SVG Export Plug-In . SVG Version: 6.00 Build 0)  -->
<svg version="1.1" id="Layer_1" xmlns="http://www.w3.org/2000/svg" xmlns:xlink="http://www.w3.org/1999/xlink" x="0px" y="0px"
	 viewBox="0 0 247.5 50.7" style="enable-background:new 0 0 247.5 50.7;" xml:space="preserve">
<style type="text/css">
	.stc{fill:url(#SVGID_1_);}
</style>
<linearGradient id="SVGID_1_" gradientUnits="userSpaceOnUse" x1="0" y1="25.3444" x2="247.44" y2="25.3444">
	<stop  offset="0" style="stop-color:#B941D6"/>
	<stop  offset="1" style="stop-color:#9950FF"/>
</linearGradient>
<path class="stc" d="M49.4,38c-4.8,8-13.6,12.8-22.9,12.7C11.2,50.7,0,39.5,0,25C0,11.4,11.2,0,26.5,0c10.4,0,18.7,4.9,23,12.2
	l-10,5.8c-2.3-4.5-6.8-7.4-13-7.4C17.9,10.7,12,16.9,12,25c-0.1,8,6.3,14.5,14.3,14.6c0.1,0,0.2,0,0.2,0c5.3,0.1,10.3-2.7,12.9-7.4
	L49.4,38z M88.5,0.9v11H62.8v8.4h21.4v10.2H62.8v8.4h25.7v11H51v-49H88.5z M131.1,19.2c0,7-3.4,13-8.7,15.8l10.1,14.8h-14.7
	l-7.3-12.2h-8.6v12.2H90v-49h23.7C123.6,0.9,131.1,8.6,131.1,19.2z M101.8,11.8v14.9H112c4.1,0,7.5-3.3,7.5-7.4
	c0-4.1-3.3-7.5-7.4-7.5H101.8z M140.1,15.9c-3.6,0-6.5-2.9-6.6-6.5c0-3.6,2.9-6.5,6.5-6.6c3.6,0,6.5,2.9,6.6,6.5c0,0,0,0.1,0,0.1
	C146.6,13,143.7,15.9,140.1,15.9z M134.5,19.3h11.2v30.6h-11.2L134.5,19.3z M197,49.8h-11.9l-24.8-30v30h-11.9v-49h11.9l24.8,29.9
	V0.9H197V49.8z M247,10.7l-10.2,5.2c-2.4-3.1-6.3-4.8-11.9-4.8c-8.6,0-14.5,6-14.5,14.1c0,8,6.4,14.5,14.4,14.5c0.1,0,0.2,0,0.3,0
	c5.2,0,9.4-1.7,12-4.1v-4.8h-14.9v-9.1h25.3v18.1c-0.4,0.7-8.1,10.8-22.4,10.8c-16.2,0-26.6-12.2-26.6-25.3
	C198.4,11.7,209.6,0,225,0C233.6-0.2,241.8,3.8,247,10.7z"/>
</svg>
